<svg width="108" height="49" viewBox="0 0 108 49" fill="none" xmlns="http://www.w3.org/2000/svg">
<circle cx="53.7967" cy="24.783" r="19.3426" stroke="white" stroke-width="1.20891"/>
<path d="M47.9107 17.6496V32.0667H44.3131V24.3372C44.3131 23.2211 44.2864 22.5503 44.2329 22.3247C44.1795 22.0991 44.0311 21.9299 43.7877 21.8171C43.5502 21.6984 43.0159 21.639 42.1848 21.639H41.8286V19.956C43.568 19.582 44.8889 18.8132 45.7913 17.6496H47.9107Z" fill="white"/>
<path d="M56.1745 23.892C56.7028 24.1057 57.1095 24.4262 57.3945 24.8537C57.6794 25.2752 57.8219 26.2844 57.8219 27.8814C57.8219 29.0449 57.7091 29.9028 57.4835 30.4549C57.2579 31.007 56.8186 31.4612 56.1656 31.8174C55.5125 32.1676 54.6369 32.3427 53.5386 32.3427C52.47 32.3427 51.6241 32.1736 51.0007 31.8352C50.3774 31.4968 49.9291 31.0486 49.6561 30.4905C49.3889 29.9325 49.2553 29.0034 49.2553 27.7033C49.2553 26.8306 49.3206 26.0737 49.4512 25.4325C49.5878 24.7914 50.0093 24.2778 50.7157 23.892C50.2705 23.6782 49.9351 23.3398 49.7095 22.8768C49.4898 22.4078 49.38 21.8141 49.38 21.0958C49.38 19.855 49.7243 18.926 50.413 18.3086C51.1016 17.6852 52.1316 17.3735 53.503 17.3735C55.0881 17.3735 56.1834 17.703 56.7889 18.362C57.3945 19.0209 57.6972 19.9619 57.6972 21.1849C57.6972 21.9625 57.5963 22.5236 57.3945 22.8679C57.1985 23.2122 56.7919 23.5536 56.1745 23.892ZM54.1531 20.793C54.1531 20.3062 54.1085 19.9857 54.0195 19.8313C53.9364 19.671 53.7731 19.5909 53.5297 19.5909C53.2922 19.5909 53.132 19.6769 53.0488 19.8491C52.9657 20.0153 52.9242 20.33 52.9242 20.793V21.8883C52.9242 22.3217 52.9717 22.6215 53.0667 22.7877C53.1616 22.954 53.3219 23.0371 53.5475 23.0371C53.785 23.0371 53.9453 22.9569 54.0284 22.7966C54.1115 22.6304 54.1531 22.292 54.1531 21.7815V20.793ZM54.2243 26.7861C54.2243 26.234 54.1679 25.8689 54.0551 25.6908C53.9423 25.5067 53.7642 25.4147 53.5208 25.4147C53.2833 25.4147 53.1112 25.5037 53.0043 25.6818C52.9034 25.854 52.8529 26.2221 52.8529 26.7861V28.6561C52.8529 29.2794 52.9093 29.6802 53.0221 29.8583C53.1409 30.0364 53.3249 30.1254 53.5742 30.1254C53.8295 30.1254 54.0017 30.0364 54.0907 29.8583C54.1798 29.6742 54.2243 29.2646 54.2243 28.6294V26.7861Z" fill="white"/>
<path d="M58.9973 23.7851H62.1942V20.5793H64.367V23.7851H67.5817V25.9579H64.367V29.1459H62.1942V25.9579H58.9973V23.7851Z" fill="white"/>
</svg>
