<svg width="60" height="60" viewBox="0 0 60 60" fill="none" xmlns="http://www.w3.org/2000/svg">
<path d="M49.9927 24C49.9267 22.8593 48.57 21.968 45.8567 21.288C45.948 21.088 45.9993 20.88 46 20.664V16H45.9887C45.75 12.1147 29.8287 12 28 12C26.1713 12 10.25 12.1147 10.0113 16H10V16.0867V20.666C10.0033 21.9327 11.638 22.924 14.07 23.662C14.0367 23.7727 14.0167 23.8853 14.01 24H14V24.0867V28.658C11.38 29.3327 10.0713 30.2113 10.0067 31.3333H10V31.42V35.9993C10.002 36.8813 10.7973 37.6293 12.0987 38.2527C12.0493 38.388 12.0187 38.526 12.01 38.6673H12V38.754V43.3333C12.0053 45.5507 16.998 46.9273 22.5453 47.57C22.586 47.578 22.6233 47.5947 22.6667 47.5947C22.6793 47.5947 22.69 47.588 22.7027 47.5873C23.772 47.708 24.8587 47.802 25.934 47.8693C25.9567 47.872 25.9767 47.8827 26 47.8827C26.0127 47.8827 26.0227 47.876 26.0347 47.8753C27.4 47.958 28.7433 48 30 48C31.2567 48 32.6 47.958 33.9653 47.8747C33.9773 47.8753 33.988 47.882 34 47.882C34.0233 47.882 34.0433 47.8707 34.066 47.8687C35.1413 47.8013 36.228 47.708 37.2973 47.5867C37.31 47.5867 37.3207 47.5933 37.3333 47.5933C37.3767 47.5933 37.414 47.5767 37.4547 47.5687C43.002 46.926 47.994 45.5487 48 43.3307V38.6667H47.9893C47.9427 37.8493 47.246 37.1673 45.87 36.5973C45.954 36.4047 46 36.2047 46 35.9973V31.64C48.3933 30.904 49.9967 29.9193 50 28.664V24H49.9927ZM44.5947 36.214L44.3673 36.4133C44.0173 36.722 43.434 37.0333 42.6667 37.3333V34.1547C43.4593 33.8787 44.134 33.5727 44.6667 33.2373V35.996C44.6667 36.0647 44.6413 36.138 44.5947 36.214ZM29.684 39.312C29.5867 39.3147 29.4887 39.316 29.3907 39.318C29.1527 39.3227 28.9087 39.324 28.6673 39.326V35.996C28.8507 35.994 29.034 35.9913 29.2173 35.988C29.2527 35.9873 29.288 35.9867 29.3233 35.986C29.9947 35.9733 30.666 35.9527 31.334 35.922V39.2507C31.1913 39.258 31.048 39.2647 30.9033 39.2707C30.502 39.2887 30.0967 39.302 29.684 39.312ZM26.7727 39.3213C26.4673 39.316 26.1633 39.3087 25.8613 39.2993C25.824 39.298 25.7867 39.2967 25.7493 39.2953C25.386 39.2833 25.0253 39.268 24.6673 39.2507V35.9227C25.3353 35.954 26.0067 35.9747 26.678 35.9867C26.7133 35.9873 26.7487 35.988 26.7833 35.9887C26.9667 35.992 27.15 35.9947 27.3333 35.9967V39.3287C27.204 39.3273 27.0747 39.3273 26.946 39.3253C26.8873 39.324 26.8307 39.322 26.7727 39.3213ZM14.7313 37.8013C14.7093 37.7947 14.6887 37.7887 14.6667 37.7827V34.562C15.2893 34.73 15.9587 34.8833 16.6667 35.0227V38.2767C16.0547 38.1467 15.49 38.01 14.976 37.87C14.8947 37.8467 14.8107 37.8247 14.7313 37.8013ZM28.7833 43.322C28.9667 43.3253 29.15 43.328 29.3333 43.33V46.6627C28.412 46.654 27.5227 46.6273 26.6667 46.5853V43.2567C27.3347 43.288 28.006 43.3087 28.6773 43.3207C28.7127 43.3207 28.748 43.3213 28.7833 43.322ZM31.3227 43.32C31.994 43.3073 32.6653 43.2867 33.3333 43.256V46.5847C32.4773 46.6267 31.588 46.6533 30.6667 46.662V43.3293C30.85 43.3273 31.0333 43.3247 31.2167 43.3213C31.252 43.3213 31.2873 43.3207 31.3227 43.32ZM36.6667 43.0187V46.3293C36.026 46.3967 35.3593 46.456 34.6667 46.5047V43.18C35.3427 43.136 36.0107 43.082 36.6667 43.0187ZM38 42.8747C38.6873 42.792 39.3547 42.698 40 42.5933V45.8667C39.372 45.9773 38.7047 46.0793 38 46.172V42.8747ZM41.3333 42.3553C42.0413 42.216 42.7107 42.0627 43.3333 41.8947V45.1153C42.7393 45.2867 42.0707 45.4527 41.3333 45.6093V42.3553ZM18.6667 42.3553V45.6093C17.9293 45.4527 17.2607 45.2867 16.6667 45.1153V41.8947C17.2893 42.0627 17.9587 42.2167 18.6667 42.3553ZM20 42.594C20.6453 42.6987 21.3127 42.7927 22 42.8753V46.1727C21.2953 46.08 20.628 45.978 20 45.8673V42.594ZM23.3333 43.0187C23.9893 43.082 24.6573 43.136 25.3333 43.1807V46.5053C24.6407 46.4567 23.974 46.3973 23.3333 46.33V43.0187ZM21.6793 39.032C21.6113 39.0253 21.544 39.018 21.4767 39.0113C21.4287 39.0067 21.3813 39.0007 21.3333 38.996V35.686C21.9893 35.7493 22.6573 35.8033 23.3333 35.848V39.17C22.7733 39.13 22.22 39.0847 21.6793 39.032ZM20 35.5413V38.8387C19.2953 38.746 18.628 38.644 18 38.5333V35.26C18.6453 35.3647 19.3127 35.4593 20 35.5413ZM33.1107 39.1387C32.964 39.15 32.816 39.1613 32.6667 39.172V35.8473C33.3427 35.8027 34.0107 35.7493 34.6667 35.6853V38.996C34.2547 39.0393 33.8333 39.08 33.4007 39.1153C33.304 39.124 33.2073 39.1313 33.1107 39.1387ZM36 38.8387V35.5413C36.6873 35.4587 37.3547 35.3647 38 35.26V38.5333C37.372 38.644 36.7047 38.7467 36 38.8387ZM39.3333 35.022C40.0413 34.8827 40.7107 34.7293 41.3333 34.5613V37.782C40.7393 37.9533 40.0707 38.1193 39.3333 38.276V35.022ZM30.2167 31.9767C29.7153 31.964 29.2253 31.9447 28.744 31.9213C28.718 31.92 28.692 31.9187 28.6667 31.918V28.5893C29.3347 28.6207 30.006 28.6413 30.6773 28.6533C30.7127 28.654 30.748 28.6547 30.7827 28.6553C30.966 28.6587 31.1493 28.6613 31.3327 28.6633V31.992C31.008 31.9887 30.6807 31.9873 30.364 31.98C30.3153 31.9787 30.2653 31.978 30.2167 31.9767ZM14.6667 22.4493V19.2287C15.2893 19.3967 15.9587 19.55 16.6667 19.6893V22.9433C16.5847 22.926 16.5 22.9087 16.42 22.8913C16.0653 22.8133 15.7193 22.732 15.3887 22.646C15.1367 22.5813 14.8973 22.5153 14.6667 22.4493ZM26.7833 20.6553C26.9667 20.6587 27.15 20.6613 27.3333 20.6633V23.992C26.436 23.9833 25.544 23.96 24.6667 23.916V20.59C25.3347 20.6213 26.006 20.642 26.6773 20.654C26.7127 20.654 26.748 20.6547 26.7833 20.6553ZM29.3227 20.6533C29.994 20.6407 30.6653 20.62 31.3333 20.5893V23.9153C31.22 23.9207 31.1113 23.9287 30.9973 23.934C30.988 23.9347 30.9787 23.9347 30.9687 23.9353C30.5213 23.9553 30.0653 23.97 29.6033 23.9807C29.5313 23.9827 29.4593 23.9833 29.3873 23.9853C29.15 23.99 28.9073 23.9907 28.6667 23.9933V20.6633C28.85 20.6613 29.0333 20.6587 29.2167 20.6553C29.252 20.6547 29.2873 20.654 29.3227 20.6533ZM44.514 20.988L44.4953 20.984L44.2527 21.1727C43.9007 21.4467 43.36 21.724 42.6667 21.992V18.8207C43.4593 18.5447 44.134 18.2387 44.6667 17.9033V20.662C44.6667 20.7633 44.6133 20.8727 44.514 20.988ZM36 23.5013V20.208C36.6873 20.1253 37.3547 20.0313 38 19.9267V23.1947C37.368 23.3067 36.7027 23.4093 36 23.5013ZM39.3333 22.938V19.6893C40.0413 19.55 40.7107 19.3967 41.3333 19.2287V22.442C40.736 22.616 40.0633 22.782 39.3333 22.938ZM34.6667 20.352V23.6587C34.0227 23.7267 33.356 23.786 32.6667 23.8353V20.514C33.3427 20.4693 34.0107 20.4153 34.6667 20.352ZM21.3333 23.66V20.352C21.9893 20.4153 22.6573 20.4693 23.3333 20.514V23.8327C22.6547 23.784 21.9853 23.7287 21.3333 23.66ZM20 20.208V23.502C19.868 23.4847 19.7307 23.4707 19.6 23.4527C19.5147 23.4407 19.4333 23.428 19.3493 23.416C18.964 23.3607 18.5873 23.3013 18.218 23.2393C18.144 23.2267 18.0727 23.2133 18 23.2007V19.9273C18.6453 20.0313 19.3127 20.126 20 20.208ZM27.168 31.826C27.078 31.8193 26.9873 31.8127 26.898 31.806C26.4713 31.7727 26.0547 31.736 25.648 31.6953C25.5607 31.6867 25.4733 31.6773 25.3867 31.6687C25.3687 31.6667 25.3513 31.664 25.3333 31.6627V28.352C25.9893 28.4153 26.6573 28.4693 27.3333 28.514V31.8367C27.2793 31.8327 27.222 31.83 27.168 31.826ZM22.7633 31.328C22.4993 31.286 22.2513 31.2407 22 31.1967V27.9273C22.6453 28.032 23.3127 28.126 24 28.2087V31.506C23.592 31.452 23.1927 31.396 22.8093 31.336C22.794 31.3327 22.7787 31.33 22.7633 31.328ZM20.6667 27.6887V30.9373C19.93 30.7793 19.262 30.6113 18.6667 30.4367V27.228C19.2893 27.396 19.9587 27.55 20.6667 27.6887ZM17.3333 26.8207V29.988C16.2853 29.5833 15.6093 29.17 15.3893 28.802L15.3447 28.7273C15.3407 28.7067 15.334 28.6847 15.3333 28.664V25.9033C15.866 26.2387 16.5407 26.5447 17.3333 26.8207ZM33.3227 28.6533C33.994 28.6407 34.6653 28.62 35.3333 28.5893V31.9147C34.4573 31.958 33.5667 31.982 32.6667 31.9913V28.6633C32.85 28.6613 33.0333 28.6587 33.2167 28.6553C33.252 28.6547 33.2873 28.654 33.3227 28.6533ZM41.938 31.2113C41.6453 31.262 41.35 31.312 41.0467 31.358C40.8727 31.3847 40.6947 31.41 40.516 31.4353C40.3473 31.4593 40.172 31.48 40.0007 31.502V28.208C40.688 28.1253 41.3553 28.0313 42.0007 27.9267V31.2C41.9793 31.204 41.9587 31.208 41.938 31.2113ZM37.424 31.7807C37.1753 31.8013 36.9187 31.8147 36.6667 31.8327V28.514C37.3427 28.4693 38.0107 28.416 38.6667 28.352V31.6593C38.2793 31.7 37.8927 31.7407 37.4947 31.774C37.4707 31.776 37.448 31.7787 37.424 31.7807ZM45.0427 30.5307C44.7107 30.6233 44.3593 30.71 44.0007 30.7947C43.8347 30.8333 43.6653 30.872 43.492 30.9093C43.4407 30.9207 43.386 30.9307 43.334 30.942V27.6893C44.042 27.55 44.7113 27.3967 45.334 27.2287V30.4493C45.238 30.476 45.1413 30.5033 45.0427 30.5307ZM48.6593 24.0433C48.598 24.496 47.572 25.098 45.7407 25.664C43.382 26.3927 39.6913 27.06 35.014 27.2667C34.7747 27.2767 34.536 27.2867 34.292 27.2947C34.0927 27.3013 33.8927 27.3073 33.6893 27.3127C33.1373 27.3247 32.5773 27.3333 32 27.3333C31.4227 27.3333 30.8627 27.3247 30.3107 27.312C30.108 27.3073 29.908 27.3007 29.708 27.294C29.4633 27.2867 29.2247 27.276 28.986 27.266C24.3087 27.0593 20.6173 26.392 18.2593 25.6633C16.4427 25.102 15.4187 24.5047 15.3427 24.054C15.346 24.0413 15.346 24.0307 15.354 24.0147C15.3993 24.026 15.45 24.0353 15.496 24.0467C15.7567 24.1087 16.024 24.1687 16.296 24.226C17.6207 24.5113 19.0887 24.7453 20.6527 24.924C20.658 24.924 20.662 24.9267 20.6667 24.9267C20.668 24.9267 20.6693 24.926 20.67 24.926C21.7353 25.0473 22.8407 25.1427 23.9753 25.21C23.984 25.21 23.9913 25.2147 24 25.2147C24.0047 25.2147 24.008 25.212 24.0127 25.212C24.8293 25.26 25.6567 25.2953 26.494 25.314C27.0067 25.3267 27.51 25.3333 28 25.3333C28.35 25.3333 28.7087 25.3293 29.0707 25.3227C33.9147 25.248 38.404 24.672 41.528 23.7793C41.672 23.7387 41.8127 23.6967 41.9513 23.6547C42.036 23.6287 42.1227 23.6033 42.2047 23.5773C42.446 23.5 42.6773 23.4207 42.9007 23.338C42.9393 23.3233 42.976 23.3087 43.0147 23.294C43.2033 23.2227 43.3847 23.1487 43.558 23.0733C43.608 23.0513 43.6593 23.03 43.708 23.008C43.8927 22.9247 44.0713 22.8393 44.2367 22.7507C44.3113 22.7113 44.376 22.6707 44.446 22.6307C44.526 22.5847 44.606 22.538 44.68 22.4907C44.722 22.464 44.772 22.4387 44.812 22.412C47.7967 23.0593 48.5833 23.7673 48.6593 24.0433ZM28 13.3333C38.9927 13.3333 44.5527 15.064 44.6567 16.0573C44.576 16.508 43.5527 17.1033 41.7407 17.6633C39.382 18.392 35.6913 19.0593 31.014 19.266C30.7747 19.276 30.536 19.286 30.292 19.294C30.0927 19.3007 29.8927 19.3067 29.6893 19.312C29.1373 19.3247 28.5773 19.3333 28 19.3333C27.4227 19.3333 26.8627 19.3247 26.3107 19.312C26.108 19.3073 25.908 19.3007 25.708 19.294C25.4633 19.2867 25.2247 19.276 24.986 19.266C20.3087 19.0593 16.6173 18.392 14.2593 17.6633C12.4467 17.1033 11.424 16.508 11.3433 16.0573C11.4473 15.064 17.0073 13.3333 28 13.3333ZM11.3333 20.664V17.9033C11.866 18.2387 12.5407 18.5447 13.3333 18.8207V22.0127C12.0367 21.5267 11.3347 21.0393 11.3333 20.664ZM14.5627 29.89C14.5727 29.9007 14.588 29.91 14.598 29.9207C15.5107 30.842 17.4007 31.566 19.7533 32.106C19.8073 32.1187 19.8647 32.1307 19.9193 32.1433C20.092 32.182 20.2673 32.22 20.4447 32.2567C22.6053 32.7167 25.1847 33.0493 27.9947 33.214C27.9967 33.214 27.998 33.2147 27.9993 33.2147C28.0007 33.2147 28.0013 33.214 28.002 33.214C28.9047 33.2667 29.828 33.3033 30.7707 33.3193C31.188 33.328 31.5987 33.3333 32 33.3333C32.46 33.3333 32.932 33.328 33.412 33.3167C34.284 33.2987 35.1433 33.2627 35.9907 33.2133C35.994 33.2133 35.9967 33.2153 36 33.2153C36.006 33.2153 36.0107 33.212 36.0167 33.212C38.834 33.046 41.4773 32.71 43.7127 32.2267C43.2287 32.48 42.566 32.742 41.7407 32.9973C39.2507 33.7667 35.274 34.4673 30.22 34.63C30.07 34.6347 29.922 34.64 29.77 34.644C29.6067 34.648 29.4407 34.6507 29.2747 34.654C28.8553 34.6607 28.4333 34.6667 28 34.6667C27.4227 34.6667 26.8627 34.658 26.3107 34.6453C26.108 34.6407 25.908 34.634 25.708 34.6273C25.4633 34.62 25.2247 34.6093 24.986 34.5993C20.3087 34.3927 16.6173 33.7253 14.2593 32.9967C12.426 32.43 11.4 31.8273 11.3407 31.3747C11.4147 31.124 12.0887 30.4967 14.5627 29.89ZM11.3333 35.9973V33.2367C11.866 33.572 12.5407 33.878 13.3333 34.154V37.3333L12.9527 37.1853L12.9447 37.1933C11.898 36.7593 11.3347 36.3333 11.3333 35.9973ZM13.3333 43.3307V40.57C13.866 40.9053 14.5407 41.2113 15.3333 41.4873V44.6793C14.0367 44.1933 13.3347 43.706 13.3333 43.3307ZM44.6667 44.6793V41.488C45.4593 41.212 46.134 40.906 46.6667 40.5707V43.3293C46.666 43.7047 45.9633 44.1927 44.6667 44.6793ZM46.658 38.718C46.5853 39.1693 45.5613 39.768 43.7407 40.3307C41.382 41.0593 37.6913 41.7267 33.014 41.9333C32.7747 41.9433 32.536 41.9533 32.292 41.9613C32.0927 41.968 31.8927 41.974 31.6893 41.9793C31.1373 41.9913 30.5773 42 30 42C29.4227 42 28.862 41.9913 28.3093 41.9787C28.1087 41.974 27.9107 41.9673 27.7127 41.9607C27.4667 41.9527 27.2267 41.9427 26.986 41.9327C22.3087 41.726 18.618 41.0587 16.2593 40.33C14.496 39.7853 13.4773 39.2067 13.3493 38.76C13.548 38.8293 13.754 38.8967 13.9653 38.9627C13.9867 38.9693 14.008 38.976 14.0293 38.982C14.2093 39.0373 14.3933 39.0907 14.582 39.1427C14.6533 39.1627 14.7253 39.1827 14.798 39.202C14.9047 39.2307 15.014 39.258 15.1233 39.286C17.5513 39.908 20.6507 40.3487 23.9967 40.5467C23.998 40.5467 23.9987 40.5473 24 40.5473C24.0007 40.5473 24.0013 40.5467 24.002 40.5467C25.0353 40.608 26.0907 40.646 27.1573 40.6587C27.4413 40.664 27.7233 40.6667 28 40.6667C28.3673 40.6667 28.7433 40.662 29.124 40.6553C30.0967 40.6393 31.0567 40.6033 31.9953 40.5473C31.9973 40.5473 31.9987 40.5487 32.0007 40.5487C32.004 40.5487 32.006 40.5467 32.0093 40.5467C33.1527 40.478 34.2593 40.38 35.3227 40.258C35.3267 40.258 35.33 40.26 35.334 40.26C35.3487 40.26 35.3607 40.2527 35.3753 40.2513C36.5593 40.1147 37.682 39.9467 38.724 39.7513C38.9387 39.712 39.15 39.6713 39.3593 39.6293C39.406 39.62 39.4527 39.6107 39.4993 39.6007C41.468 39.1967 43.172 38.6733 44.3413 38.0247C44.4053 37.99 44.4653 37.954 44.526 37.9187C44.6 37.8747 44.6707 37.83 44.7393 37.7847C44.8033 37.7433 44.8773 37.7033 44.936 37.6613C46.252 38.1307 46.6147 38.5507 46.658 38.718ZM46.6667 30.0127V26.8213C47.4593 26.5453 48.134 26.2393 48.6667 25.904V28.6627C48.666 29.038 47.9633 29.526 46.6667 30.0127Z" fill="#0066B9"/>
</svg>
