<svg width="60" height="60" viewBox="0 0 60 60" fill="none" xmlns="http://www.w3.org/2000/svg">
<rect x="6" y="23.5166" width="38.1049" height="25.4402" rx="1" stroke="#0066B9" stroke-width="2"/>
<rect x="9.16602" y="34.0703" width="6.44315" height="4.33236" rx="1" stroke="#0066B9" stroke-width="2"/>
<path d="M25.4096 32.0149H23.1976L22.7566 33.0439H21.4406L23.7716 28.0599H24.8076L27.1456 33.0439H25.8506L25.4096 32.0149ZM24.9826 31.0279L24.3036 29.4529L23.6246 31.0279H24.9826ZM32.4764 28.0599V33.0439H31.3284L31.3214 30.7619L30.3764 33.0439H29.5434L28.5914 30.7899V33.0439H27.4504V28.0599H28.4794L29.9704 31.4619L31.4544 28.0599H32.4764ZM33.3904 28.0599H36.9464V29.0679H34.6714V30.0059H36.7994V31.0139H34.6714V32.0359H36.9464V33.0439H33.3904V28.0599ZM42.2076 33.0439H40.6746L39.5616 31.4899L38.4416 33.0439H36.9156L38.8126 30.5239L36.9576 28.0599H38.4766L39.5546 29.5719L40.6536 28.0599H42.1796L40.3036 30.5239L42.2076 33.0439Z" fill="#0066B9"/>
<path d="M12.5752 23.4072L42.2848 11.0392C43.2982 10.6174 44.4622 11.0911 44.893 12.1007L54.1182 33.7201C54.5444 34.7188 54.0958 35.8751 53.1076 36.3251L43.7679 40.5789" stroke="#0066B9" stroke-width="2"/>
<path d="M46.7881 16.4447L30.4003 23.4076" stroke="#0066B9" stroke-width="2"/>
<path d="M49.466 21.7902L43.7676 24.2992" stroke="#0066B9" stroke-width="2"/>
</svg>
