<svg width="60" height="60" viewBox="0 0 60 60" fill="none" xmlns="http://www.w3.org/2000/svg">
<path d="M34.9542 13.9838L36.7064 11.0634C36.9059 10.7311 36.7983 10.3001 36.4659 10.1007C36.1328 9.90052 35.7025 10.0081 35.5031 10.3412L33.6536 13.4235C32.5528 13.0318 31.3735 12.8076 30.1399 12.8076C28.9064 12.8076 27.7271 13.0318 26.6262 13.4235L24.7768 10.3412C24.5773 10.0081 24.1463 9.90122 23.814 10.1007C23.4816 10.3001 23.374 10.7311 23.5734 11.0634L25.3256 13.9838C21.9386 15.7351 19.6138 19.2647 19.6138 23.3337C19.6138 23.7216 19.928 24.0355 20.3155 24.0355H39.9643C40.3519 24.0355 40.6661 23.7216 40.6661 23.3337C40.6661 19.2647 38.3413 15.7351 34.9542 13.9838ZM21.044 22.632C21.4034 17.9281 25.346 14.2111 30.1399 14.2111C34.9339 14.2111 38.8764 17.9281 39.2359 22.632H21.044Z" fill="#0066B9" stroke="#0066B9" stroke-width="0.3"/>
<path d="M35.0368 17.9746H34.1116C33.8561 17.9746 33.6489 18.1815 33.6489 18.4373V19.3625C33.6489 19.6182 33.8561 19.8252 34.1116 19.8252H35.0368C35.2924 19.8252 35.4995 19.6182 35.4995 19.3625V18.4373C35.4995 18.1815 35.2924 17.9746 35.0368 17.9746Z" fill="#0066B9" stroke="#0066B9" stroke-width="0.3"/>
<path d="M26.1687 17.9746H25.2434C24.9878 17.9746 24.7808 18.1815 24.7808 18.4373V19.3625C24.7808 19.6182 24.9878 19.8252 25.2434 19.8252H26.1687C26.4242 19.8252 26.6313 19.6182 26.6313 19.3625V18.4373C26.6313 18.1815 26.4242 17.9746 26.1687 17.9746Z" fill="#0066B9" stroke="#0066B9" stroke-width="0.3"/>
<path d="M39.9643 24.7373H20.3155C19.928 24.7373 19.6138 25.0512 19.6138 25.439V39.5939C19.6138 41.4627 21.1358 42.9827 23.0064 42.9827H23.8242V47.1973C23.8242 48.7426 25.0834 50.0001 26.6312 50.0001C28.179 50.0001 29.4382 48.7426 29.4382 47.1973V42.9827H30.8417V47.1973C30.8417 48.7426 32.1009 50.0001 33.6487 50.0001C35.1964 50.0001 36.4556 48.7426 36.4556 47.1973V42.9827H37.2735C39.1441 42.9827 40.6661 41.4627 40.6661 39.5939V25.439C40.6661 25.0512 40.3519 24.7373 39.9643 24.7373ZM39.2626 39.5939C39.2626 40.6883 38.3703 41.5792 37.2735 41.5792H35.7539C35.3664 41.5792 35.0521 41.8931 35.0521 42.2809V47.1973C35.0521 47.9689 34.4227 48.5966 33.6487 48.5966C32.8746 48.5966 32.2452 47.9689 32.2452 47.1973V42.2809C32.2452 41.8931 31.9309 41.5792 31.5434 41.5792H28.7364C28.3489 41.5792 28.0347 41.8931 28.0347 42.2809V47.1973C28.0347 47.9689 27.4052 48.5966 26.6312 48.5966C25.8572 48.5966 25.2277 47.9689 25.2277 47.1973V42.2809C25.2277 41.8931 24.9135 41.5792 24.526 41.5792H23.0064C21.9095 41.5792 21.0173 40.6883 21.0173 39.5939V26.1408H39.2626V39.5939Z" fill="#0066B9" stroke="#0066B9" stroke-width="0.3"/>
<path d="M43.8243 24.7373C42.4701 24.7373 41.3682 25.8407 41.3682 27.1961V37.0151C41.3682 38.3706 42.4701 39.4739 43.8243 39.4739C45.1784 39.4739 46.2804 38.3706 46.2804 37.0151V27.1961C46.2804 25.8407 45.1784 24.7373 43.8243 24.7373ZM44.8769 37.0151C44.8769 37.5969 44.4047 38.0704 43.8243 38.0704C43.2439 38.0704 42.7717 37.5969 42.7717 37.0151V27.1961C42.7717 26.6143 43.2439 26.1408 43.8243 26.1408C44.4047 26.1408 44.8769 26.6143 44.8769 27.1961V37.0151Z" fill="#0066B9" stroke="#0066B9" stroke-width="0.3"/>
<path d="M16.4561 24.7373C15.1019 24.7373 14 25.8407 14 27.1961V37.0151C14 38.3706 15.1019 39.4739 16.4561 39.4739C17.8103 39.4739 18.9122 38.3706 18.9122 37.0151V27.1961C18.9122 25.8407 17.8103 24.7373 16.4561 24.7373ZM17.5087 37.0151C17.5087 37.5969 17.0365 38.0704 16.4561 38.0704C15.8757 38.0704 15.4035 37.5969 15.4035 37.0151V27.1961C15.4035 26.6143 15.8757 26.1408 16.4561 26.1408C17.0365 26.1408 17.5087 26.6143 17.5087 27.1961V37.0151Z" fill="#0066B9" stroke="#0066B9" stroke-width="0.3"/>
</svg>
