<svg width="48" height="48" viewBox="0 0 48 48" fill="none" xmlns="http://www.w3.org/2000/svg">
<path d="M22.6198 8.63248L5.12984 38.925C4.99071 39.1675 4.91765 39.4423 4.91797 39.7218C4.91829 40.0014 4.99198 40.276 5.13166 40.5182C5.27135 40.7604 5.47215 40.9616 5.714 41.1019C5.95584 41.2422 6.23027 41.3165 6.50984 41.3175H41.4898C41.7694 41.3165 42.0438 41.2422 42.2857 41.1019C42.5275 40.9616 42.7283 40.7604 42.868 40.5182C43.0077 40.276 43.0814 40.0014 43.0817 39.7218C43.082 39.4423 43.009 39.1675 42.8698 38.925L25.3798 8.63248C25.2392 8.39126 25.0377 8.19112 24.7956 8.05202C24.5535 7.91292 24.2791 7.83972 23.9998 7.83972C23.7206 7.83972 23.4462 7.91292 23.2041 8.05202C22.962 8.19112 22.7605 8.39126 22.6198 8.63248Z" fill="#DC2626"/>
<path d="M21.75 34.5C21.75 34.055 21.882 33.62 22.1292 33.25C22.3764 32.88 22.7278 32.5916 23.139 32.4213C23.5501 32.251 24.0025 32.2064 24.439 32.2932C24.8754 32.38 25.2763 32.5943 25.591 32.909C25.9057 33.2237 26.12 33.6246 26.2068 34.061C26.2936 34.4975 26.249 34.9499 26.0787 35.361C25.9084 35.7722 25.62 36.1236 25.25 36.3708C24.88 36.618 24.445 36.75 24 36.75C23.7011 36.7627 23.4029 36.7132 23.1241 36.6047C22.8454 36.4961 22.5922 36.3308 22.3807 36.1193C22.1692 35.9078 22.0039 35.6546 21.8953 35.3759C21.7868 35.0971 21.7373 34.7989 21.75 34.5ZM22.5675 31.005L21.9975 19.755H25.9425L25.395 31.005H22.5675Z" fill="#333333"/>
</svg>
