<svg width="32" height="32" viewBox="0 0 32 32" fill="none" xmlns="http://www.w3.org/2000/svg">
<path d="M6.9248 6H25.7822" stroke="black" stroke-miterlimit="10" stroke-linejoin="round"/>
<path d="M16.3517 26C18.4183 26 20.0936 24.3247 20.0936 22.2581C20.0936 20.1915 18.4183 18.5162 16.3517 18.5162C14.2852 18.5162 12.6099 20.1915 12.6099 22.2581C12.6099 24.3247 14.2852 26 16.3517 26Z" stroke="black" stroke-miterlimit="10" stroke-linejoin="round"/>
<path d="M16.3516 24.4359C17.5544 24.4359 18.5294 23.4609 18.5294 22.2581C18.5294 21.0553 17.5544 20.0803 16.3516 20.0803C15.1489 20.0803 14.1738 21.0553 14.1738 22.2581C14.1738 23.4609 15.1489 24.4359 16.3516 24.4359Z" stroke="black" stroke-miterlimit="10" stroke-linejoin="round"/>
<path d="M12.7356 21.1583L5 8.78416L6.97068 6L14.909 18.7957" stroke="black" stroke-miterlimit="10" stroke-linejoin="round"/>
<path d="M19.9538 21.2481L27.7791 8.78416L25.8084 6L17.8452 18.8357" stroke="black" stroke-miterlimit="10" stroke-linejoin="round"/>
<path d="M23.7282 9.2406H8.979" stroke="black" stroke-miterlimit="10" stroke-linejoin="round"/>
</svg>
