<svg width="109" height="49" viewBox="0 0 109 49" fill="none" xmlns="http://www.w3.org/2000/svg">
<g clip-path="url(#clip0_51_170)">
<path d="M10.6719 26.4129C10.6302 27.1449 9.9888 27.6497 9.26409 27.5992H7.36486V25.1341L9.08916 25.092C10.0388 25.092 10.6802 25.5968 10.6802 26.3709V26.4129H10.6719ZM10.4053 22.6605C10.3553 23.3084 9.76389 23.7627 9.13082 23.7122H7.36486V21.5247H8.99753C9.81387 21.5247 10.4053 21.9791 10.4053 22.5764V22.6605ZM10.9884 24.3096C11.8964 23.8552 12.1713 23.3925 12.1713 22.4839C12.1713 21.5247 11.6714 20.7002 10.8135 20.288C10.3553 20.1029 9.81387 20.0608 8.27282 20.0608H4.82422V21.5247H5.50728V27.6076H4.82422V29.0715H9.58896C11.3133 29.0715 12.4961 28.0703 12.4961 26.5559C12.5794 25.5463 11.9463 24.6293 10.9884 24.3096ZM15.1617 24.7471C15.295 24.0235 15.9198 23.4346 16.6694 23.4346H16.7111C17.4191 23.4346 18.0439 24.0235 18.0439 24.7891L15.1617 24.7471ZM15.0701 25.967H19.8682C19.9098 25.0584 19.6432 24.2002 19.2018 23.4346C18.627 22.5259 17.6441 22.0295 16.6195 22.0295C14.7535 22.0295 13.3791 23.5271 13.3791 25.6052C13.3791 27.6833 14.7535 29.1809 16.6195 29.1809C18.2188 29.1809 19.4183 28.2723 19.7265 26.7831L18.0356 26.8252C17.8606 27.4141 17.2775 27.8684 16.6611 27.8179C16.3612 27.8263 15.2534 27.7338 15.0701 25.967ZM27.6234 29.0631H28.6146V24.5283L25.5076 24.5199V24.5283L25.4659 25.3612H27.5817C27.5817 25.5884 27.5817 25.8324 27.5401 26.0596C27.3151 27.2374 26.3239 28.1376 25.1077 28.1881C23.575 28.1881 22.4088 26.6064 22.4088 24.4358C22.4088 21.6762 24.0248 20.7255 25.1077 20.7255C25.8241 20.7675 26.5488 21.1293 26.9986 21.7182C27.2235 22.0379 27.4067 22.3913 27.4901 22.7952H28.4813V20.0608H27.5401V21.3649C26.9986 20.4142 26.0074 19.7832 24.8828 19.8252C22.8586 19.8252 21.2343 21.9033 21.2343 24.5283C21.2343 27.1533 22.8503 29.1809 24.9244 29.1809C25.6408 29.1809 26.3655 28.9117 26.9486 28.4153C27.2152 28.1461 27.4401 27.8937 27.6234 27.574V29.0631ZM34.1541 26.6485C34.0208 27.6413 33.1544 28.3564 32.1549 28.4069C31.4301 28.4069 30.7888 27.8684 30.7471 27.1028C30.7471 26.2447 31.4301 25.8913 33.521 25.6136L34.1541 25.5211V26.6485ZM34.1541 29.0631H36.1033L36.0116 28.2302H35.062V24.4947C35.062 22.7867 33.8792 22.1557 32.4714 22.1557C31.8383 22.1557 31.1552 22.3324 30.6554 22.7447C30.2473 23.1064 29.9724 23.586 29.8808 24.1245H30.922C31.1053 23.2242 31.6051 22.9214 32.5547 22.9214C33.5126 22.9214 34.0957 23.4177 34.0957 24.1834V24.8564L33.4626 24.8985C30.7388 25.1677 29.6059 25.7987 29.6059 27.1028V27.2374C29.6975 28.3648 30.6971 29.265 31.83 29.1725C32.7796 29.1725 33.6876 28.6677 34.1457 27.8095V29.0631H34.1541ZM45.3329 29.0631H47.2155V28.2302H46.2742V23.8889C46.2742 22.711 45.6911 22.0295 44.6665 22.0295C44.1334 22.0295 43.6418 22.2567 43.2337 22.6185C42.9671 22.8877 42.7839 23.1653 42.609 23.4766C42.434 22.5259 41.9426 22.0211 41.0429 22.0211C39.7934 22.0211 39.2103 23.0223 38.8938 23.4766L38.8522 22.1473H36.8863V22.9802H37.8692V28.2302H36.8863V29.0631H39.7934V28.2302H38.8105V24.8396C38.8105 24.2086 39.5685 22.8877 40.6015 22.8877C41.2762 22.8877 41.5844 23.2495 41.5844 24.1161V29.0631H43.5503V28.2302H42.559V24.7555C42.559 24.2591 43.1838 22.8456 44.3499 22.8456C45.0163 22.8456 45.3329 23.3 45.3329 24.2507V29.0631ZM54.046 25.58C54.046 27.2627 53.3296 28.3059 52.1717 28.3059C51.0972 28.2134 50.2558 27.3047 50.2558 26.1773L50.2142 24.9995C50.2142 23.9983 51.1971 22.9129 52.1801 22.9129C53.288 22.9045 54.046 23.9057 54.046 25.58ZM55.1206 25.723C55.1206 23.729 53.9627 22.1473 52.4383 22.1473C51.2805 22.1473 50.5141 23.1317 50.2475 23.6281V19.8252H48.3733V20.6581H49.2646V28.2302H48.3233V29.0631H50.2475V27.8095C50.6474 28.3564 51.2305 29.1809 52.4383 29.1809C53.8711 29.1809 55.1206 27.5824 55.1206 25.723ZM55.6454 29.0631H58.5359V28.2302H57.6362V19.8252H55.6953V20.5993H56.645V28.2302H55.6537V29.0631H55.6454ZM60.4267 25.0752C60.4267 24.848 60.5184 24.6209 60.5601 24.4021C60.785 23.586 61.5014 23.0055 62.351 22.955C62.7509 22.9129 63.159 23.0896 63.4755 23.3589C63.9254 23.8552 64.1503 24.4442 64.1503 25.0752H60.4267ZM60.3851 25.8408H65.2748C65.2748 23.4514 63.9337 22.1389 62.2677 22.1389C60.61 22.1389 59.3106 23.6701 59.3106 25.6557C59.3106 27.7338 60.61 29.1725 62.4509 29.1725C63.3006 29.1725 64.0669 28.8107 64.6001 28.1797C64.8667 27.86 65.0499 27.5487 65.1416 27.1449L64.0253 27.1869C63.6671 28.003 63.1757 28.3564 62.4093 28.3564C61.9595 28.3564 61.5097 28.1797 61.1515 27.86C60.7016 27.4225 60.4768 26.8336 60.3851 25.8408ZM71.5476 25.7398H69.2148L70.3809 21.7351L71.5476 25.7398ZM72.5802 29.0631H74.5959V27.6328H73.921L71.4637 20.0608H69.3146L66.8908 27.6328H66.2161V29.0631H68.2819L68.8653 27.1112H72.0051L72.5802 29.0631ZM83.8837 23.4598H84.467V22.1473H81.7765V23.4598H82.4513L81.5515 27.4982L80.4351 22.1473H78.6863L77.5615 27.5908L76.6287 23.4598H77.2953V22.1473H74.6041V23.4598H75.1875L76.6617 29.0631H78.4531L79.5276 24.2675L80.6517 29.0631H82.4431L83.8837 23.4598ZM89.2653 26.5223C89.2234 27.3384 88.5485 27.9694 87.7409 27.9694C87.066 27.9694 86.6161 27.6076 86.6161 27.0692C86.6161 26.1185 87.6494 25.9838 89.2151 25.8492H89.2571V26.4802V26.5223H89.2653ZM89.3149 29.0631H91.4227V27.7422H90.8393L90.8813 24.5367C90.8813 23.0055 89.89 22.1473 88.0071 22.1473C86.3912 22.1473 85.3166 23.0055 85.2251 24.36L86.8411 24.4021V24.36C86.883 23.729 87.1995 23.3252 88.0491 23.3252C88.8987 23.3252 89.2571 23.6449 89.2571 24.6797C87.0991 24.8564 84.8584 25.0836 84.8584 27.0692C84.8584 28.2891 85.8917 29.1893 87.2408 29.1893C88.0491 29.1893 88.8154 28.8696 89.3066 28.247V29.0631H89.3149ZM96.2871 23.6365C96.554 23.6365 96.8202 23.6786 97.0871 23.729V22.1221C96.8202 22.08 96.5953 22.0295 96.329 22.0295C95.5709 22.0295 95.0797 22.3997 94.6381 23.2747V22.1473H92.3638V23.5019H93.0304V27.7422H92.3638V29.0631H95.4794V27.7422H94.6794V25.0668C94.7296 24.2338 95.4375 23.5944 96.2871 23.6365ZM99.2026 24.7471C99.336 24.0235 99.9607 23.4346 100.71 23.4346H100.752C101.46 23.4346 102.085 24.0235 102.085 24.7891L99.2026 24.7471ZM99.153 25.967H103.951C103.993 25.0584 103.726 24.2002 103.285 23.4346C102.71 22.5259 101.727 22.0295 100.702 22.0295C98.8365 22.0295 97.4538 23.5271 97.4538 25.6052C97.4538 27.6833 98.8276 29.1809 100.702 29.1809C102.302 29.1809 103.501 28.2723 103.809 26.7831L102.118 26.8252C101.943 27.4141 101.36 27.8684 100.744 27.8179C100.444 27.8263 99.336 27.7338 99.153 25.967Z" fill="white"/>
</g>
<defs>
<clipPath id="clip0_51_170">
<rect width="99.1309" height="10.2758" fill="white" transform="translate(4.82422 19.3423)"/>
</clipPath>
</defs>
</svg>
