<svg width="37" height="42" viewBox="0 0 37 42" fill="none" xmlns="http://www.w3.org/2000/svg">
<path d="M20.9887 19.5372L20.9883 19.5369C20.7116 19.2613 20.3827 19.0424 20.0203 18.893C19.658 18.7436 19.2695 18.6667 18.877 18.6667C18.4845 18.6667 18.096 18.7436 17.7336 18.893C17.3713 19.0424 17.0424 19.2613 16.7657 19.5369L16.7655 19.5371L15.7889 20.5088L15.0836 21.2108L14.3782 20.5088L13.4016 19.5371L13.4015 19.537C13.1246 19.2613 12.7956 19.0424 12.4331 18.8929C12.0706 18.7435 11.6819 18.6665 11.2892 18.6665C10.8965 18.6665 10.5078 18.7435 10.1453 18.8929C9.78297 19.0423 9.45406 19.2611 9.17721 19.5366L20.9887 19.5372ZM20.9887 19.5372C21.2656 19.8127 21.485 20.1394 21.6346 20.4987C21.7842 20.8579 21.8611 21.2428 21.8611 21.6314C21.8611 22.02 21.7842 22.4049 21.6346 22.7642C21.485 23.1234 21.2656 23.4502 20.9887 23.7256L20.9884 23.7259L15.0984 29.5888M20.9887 19.5372L15.0984 29.5888M15.0984 29.5888L15.0836 29.574L15.0686 29.5889L9.17721 23.7262C9.17718 23.7262 9.17715 23.7262 9.17712 23.7261C8.61852 23.1695 8.30566 22.416 8.30566 21.6314C8.30566 20.847 8.61842 20.0936 9.17684 19.537L15.0984 29.5888Z" stroke="#0066B9" stroke-width="2"/>
<path d="M24.452 7.66699H5.71449C3.52496 7.66699 1.75 9.42863 1.75 11.6017V37.0654C1.75 39.2385 3.52496 41.0001 5.71449 41.0001H24.452C26.6415 41.0001 28.4165 39.2385 28.4165 37.0654V11.6017C28.4165 9.42863 26.6415 7.66699 24.452 7.66699Z" stroke="#0066B9" stroke-width="2" stroke-linecap="round" stroke-linejoin="round"/>
<path d="M28.6706 36.5017L29.5013 36.5493C30.5457 36.6082 31.5701 36.237 32.3498 35.5171C33.1295 34.7973 33.6007 33.7876 33.6601 32.7095L35.0771 6.37996C35.1342 5.30159 34.7746 4.24388 34.0774 3.43874C33.3801 2.63361 32.402 2.14676 31.3575 2.08495L12.7135 1.00617C11.669 0.946798 10.6443 1.31782 9.86449 2.03776C9.08472 2.7577 8.61362 3.76768 8.55466 4.8459L8.4165 7.42583" stroke="#0066B9" stroke-width="2" stroke-linecap="round" stroke-linejoin="round"/>
</svg>
