<svg width="99" height="30" viewBox="0 0 99 30" fill="none" xmlns="http://www.w3.org/2000/svg">
<g clip-path="url(#clip0_428_24319)">
<path d="M18.5645 14.3785C19.1145 13.5922 19.3955 12.7147 19.4027 11.7423L19.3907 4.89546C19.3991 4.74319 19.3979 4.60219 19.3858 4.47134C19.2689 3.21138 18.714 2.15107 17.7202 1.29154C16.7264 0.433147 15.548 0.00225646 14.1839 0.00225646L9.32812 0L9.33416 14.3785H18.5645ZM15.3333 3.68852C15.659 3.97164 15.8411 4.33034 15.8821 4.76462C15.8857 4.80861 15.8905 4.85147 15.8942 4.89546L15.9062 11.7423C15.9014 12.1992 15.7301 12.585 15.3912 12.8997C15.0523 13.2144 14.641 13.3723 14.1574 13.3712L12.7764 13.37L12.774 3.26327L14.155 3.26439C14.6157 3.26439 15.0077 3.40539 15.3333 3.68852Z" fill="black"/>
<path d="M19.7263 17.84C19.6503 17.0211 19.3838 16.2811 18.9279 15.6201H9.33691L9.34294 29.9963L14.5449 29.9986C15.9777 29.9997 17.1995 29.5214 18.209 28.566C19.2185 27.6106 19.7299 26.4589 19.7432 25.111L19.7311 18.2641C19.7396 18.1118 19.7384 17.9708 19.7263 17.84ZM16.2443 25.1087C16.2407 25.5656 16.0694 25.9513 15.7305 26.2661C15.3916 26.5808 14.9911 26.7387 14.5316 26.7387L12.8057 26.7376L12.8105 16.6308L14.5509 16.6319C14.9923 16.6319 15.3759 16.774 15.7039 17.056C16.032 17.3392 16.2153 17.6979 16.2563 18.1321C16.26 18.1761 16.2648 18.219 16.2684 18.263L16.2443 25.1087Z" fill="black"/>
<path d="M33.7109 3.27116L37.1737 3.26778L37.1688 14.3457H40.6316L40.6364 3.26439L43.753 3.25988L43.7662 0L33.7242 0.0112788L33.7109 3.27116Z" fill="black"/>
<path d="M40.6229 29.9952L40.6301 15.5874H37.1674L37.1602 29.9986L40.6229 29.9952Z" fill="black"/>
<path d="M22.2519 0L22.2471 14.3457H31.2519L31.2567 13.3666L25.6905 13.3689L25.6953 3.26327L31.2241 3.26891L31.235 0.0090241L22.2519 0Z" fill="black"/>
<path d="M31.2547 26.7466L25.7078 26.7342L25.7114 16.6285L31.2402 16.633L31.245 15.5874H22.2451L22.2402 29.9907L31.2233 29.9986L31.2547 26.7466Z" fill="black"/>
<path d="M81.4893 3.26439L84.9629 3.26327L84.9616 14.3457H88.434L88.4364 3.26214L91.5615 3.26101L91.5747 0L81.5025 0.00338382L81.4893 3.26439Z" fill="#FCC42C"/>
<path d="M88.4316 29.9974L88.434 15.5874H84.9604L84.958 29.9986L88.4316 29.9974Z" fill="#FCC42C"/>
<path d="M71.0842 0.00564028L71.0781 14.3457H80.1637L80.1577 13.3666L74.5626 13.37L74.5686 3.26439L80.1625 3.26101L80.1746 0L71.0842 0.00564028Z" fill="#FCC42C"/>
<path d="M71.0773 15.5874L71.0713 29.9986L74.5678 29.9963L74.5847 16.6297L80.1798 16.6263L80.1725 15.5874H71.0773Z" fill="#FCC42C"/>
<path d="M61.8153 14.3456L61.8273 4.89306C61.8322 4.43622 62.0046 4.05045 62.3472 3.73461C62.6885 3.41991 63.0901 3.26086 63.5533 3.26086C64.0152 3.26086 64.4108 3.40186 64.7377 3.68386C65.0645 3.96585 65.2479 4.32455 65.2877 4.75995C65.2913 4.80395 65.2961 4.84681 65.2997 4.8908L65.2937 14.3467H68.7431L68.7492 4.88855C68.7576 4.73627 68.7564 4.59527 68.7444 4.46442C68.6286 3.20446 68.0774 2.14528 67.0908 1.28688C66.103 0.428485 64.9319 0.000976562 63.575 0.000976562C62.1482 0.00210455 60.9336 0.4815 59.9289 1.43803C58.9242 2.39569 58.4141 3.54737 58.3996 4.89531L58.3936 14.3456H61.8153Z" fill="#FCC42C"/>
<path d="M65.2926 15.5876L65.2866 25.1066C65.2817 25.5635 65.1081 25.9492 64.7655 26.264C64.423 26.5798 64.019 26.7377 63.5546 26.7377C63.0903 26.7377 62.6934 26.5967 62.3666 26.3147C62.0397 26.0327 61.8552 25.674 61.8154 25.2386C61.8118 25.1957 61.807 25.1518 61.8033 25.1078L61.8154 15.5864H58.3949L58.3889 25.1112C58.3792 25.2634 58.3816 25.4044 58.3925 25.5353C58.5083 26.7964 59.0582 27.8555 60.046 28.7128C61.0326 29.5712 62.205 29.9987 63.5618 29.9987C64.9875 29.9976 66.2032 29.5193 67.2079 28.5617C68.2126 27.6051 68.7228 26.4523 68.7372 25.1044L68.7433 15.5876H65.2926Z" fill="#FCC42C"/>
<path d="M47.6024 14.3456H53.2711C52.6476 13.8572 52.0204 13.3688 51.3872 12.8803C50.2667 11.9238 49.6407 10.7067 49.5093 9.22904C49.4876 8.98991 49.4767 8.73949 49.4767 8.47893L49.5033 4.89193C49.5081 4.43509 49.6818 4.04932 50.0219 3.73461C50.362 3.41991 50.7612 3.26199 51.222 3.26199C51.6815 3.26199 52.0747 3.40299 52.3991 3.68498C52.7224 3.96811 52.9045 4.32681 52.9431 4.76108C52.9467 4.80507 52.9515 4.84794 52.9551 4.89193L52.9503 7.17385L56.4022 7.17272L56.407 4.8908C56.4167 4.73852 56.4154 4.59752 56.4046 4.46668C56.2924 3.20672 55.7436 2.14641 54.7595 1.28801C53.7741 0.429612 52.6029 0.000976562 51.2461 0.000976562C49.8192 0.000976562 48.6011 0.480372 47.594 1.43691C46.5857 2.39457 46.0731 3.54624 46.0538 4.89419L46.0441 9.45915C46.0309 9.82913 46.0393 10.1878 46.0707 10.5352C46.2058 12.0535 46.7159 13.3248 47.6024 14.3456Z" fill="#FCC42C"/>
<path d="M54.736 15.5874H49.0505C49.7054 16.0984 50.3651 16.6082 51.0297 17.1192C52.1562 18.0757 52.7291 19.2928 52.8605 20.7705C52.8823 21.0096 52.875 21.5364 52.8786 21.5206L52.8859 25.1076C52.8798 25.5645 52.705 25.9502 52.3612 26.2649C52.0175 26.5808 51.6134 26.7376 51.1479 26.7387C50.6823 26.7387 50.2867 26.5977 49.9599 26.3157C49.633 26.0337 49.4497 25.675 49.4111 25.2396C49.4075 25.1967 49.4026 25.1527 49.399 25.1087L49.4388 22.8257L45.987 22.8268L45.9821 25.1099C45.9725 25.2622 45.9737 25.4032 45.9845 25.534C46.0967 26.7951 46.6443 27.8543 47.6297 28.7127C48.6151 29.5711 49.785 29.9997 51.1431 29.9997C52.5699 29.9997 53.7868 29.5214 54.7951 28.5638C55.8034 27.6072 56.3172 26.4544 56.3353 25.1065L56.345 20.5415C56.3583 20.1727 56.3486 19.8128 56.3185 19.4654C56.1822 17.9122 55.6539 16.6195 54.736 15.5874Z" fill="#FCC42C"/>
<path d="M0 20.5429V9.26758L6.0848 14.9571L0 20.5429Z" fill="#FCC42C"/>
<path d="M98.9998 20.6129V9.33643L92.915 14.9741L98.9998 20.6129Z" fill="#FCC42C"/>
</g>
<defs>
<clipPath id="clip0_428_24319">
<rect width="99" height="30" rx="8" fill="white"/>
</clipPath>
</defs>
</svg>
