<svg width="60" height="60" viewBox="0 0 60 60" fill="none" xmlns="http://www.w3.org/2000/svg">
<path d="M30 50C18.972 50 10 41.028 10 30C10 18.972 18.972 10 30 10C41.028 10 50 18.972 50 30C50 41.028 41.028 50 30 50ZM30 12C20.076 12 12 20.074 12 30C12 39.926 20.076 48 30 48C39.924 48 48 39.926 48 30C48 20.074 39.924 12 30 12Z" fill="#0066B9"/>
<path d="M31 38H25C24.448 38 24 37.552 24 37C24 36.448 24.448 36 25 36H31C32.654 36 34 34.654 34 33C34 31.346 32.654 30 31 30H27V28H31C33.756 28 36 30.244 36 33C36 35.756 33.756 38 31 38Z" fill="#0066B9"/>
<path d="M30 30H27V28H30C31.102 28 32 27.104 32 26C32 24.896 31.102 24 30 24H25C24.448 24 24 23.552 24 23C24 22.448 24.448 22 25 22H30C32.206 22 34 23.794 34 26C34 28.206 32.206 30 30 30Z" fill="#0066B9"/>
<path d="M29 39.9961C28.448 39.9961 28 39.5481 28 38.9961V36.9961H30V38.9961C30 39.5481 29.552 39.9961 29 39.9961Z" fill="#0066B9"/>
<path d="M28 23V21C28 20.448 28.448 20 29 20C29.552 20 30 20.448 30 21V23H28Z" fill="#0066B9"/>
<path d="M28 24H26V36H28V24Z" fill="#0066B9"/>
</svg>
