<svg width="60" height="60" viewBox="0 0 60 60" fill="none" xmlns="http://www.w3.org/2000/svg">
<path d="M45.8333 10H14.1667C11.8692 10 10 11.8692 10 14.1667V45.8333C10 48.1308 11.8692 50 14.1667 50H45.8333C48.1308 50 50 48.1308 50 45.8333V14.1667C50 11.8692 48.1308 10 45.8333 10ZM48.3333 45.8333C48.3333 47.2117 47.2117 48.3333 45.8333 48.3333H14.1667C12.7883 48.3333 11.6667 47.2117 11.6667 45.8333V14.1667C11.6667 12.7883 12.7883 11.6667 14.1667 11.6667H45.8333C47.2117 11.6667 48.3333 12.7883 48.3333 14.1667V45.8333Z" fill="#0066B9"/>
<path d="M22.5001 38.8216L17.2559 33.5774L16.0776 34.7557L22.5001 41.1782L43.9226 19.7557L42.7442 18.5774L22.5001 38.8216Z" fill="#0066B9"/>
</svg>
