<svg width="25" height="24" viewBox="0 0 25 24" fill="none" xmlns="http://www.w3.org/2000/svg">
<path fill-rule="evenodd" clip-rule="evenodd" d="M8.84735 2.5C5.74065 2.5 3.22217 5.01848 3.22217 8.12518V15.8748C3.22217 18.9815 5.74065 21.5 8.84735 21.5H16.597C19.7037 21.5 22.2222 18.9815 22.2222 15.8748V8.12518C22.2222 5.01848 19.7037 2.5 16.597 2.5H8.84735ZM16.5419 6.09375C16.1287 6.09375 15.7248 6.21628 15.3812 6.44586C15.0376 6.67543 14.7698 7.00173 14.6117 7.3835C14.4535 7.76527 14.4122 8.18536 14.4928 8.59064C14.5734 8.99592 14.7724 9.3682 15.0646 9.66039C15.3568 9.95258 15.729 10.1516 16.1343 10.2322C16.5396 10.3128 16.9597 10.2714 17.3415 10.1133C17.7232 9.95516 18.0495 9.68737 18.2791 9.34378C18.5087 9.0002 18.6312 8.59626 18.6312 8.18304C18.6312 7.62892 18.4111 7.09751 18.0193 6.70569C17.6274 6.31387 17.096 6.09375 16.5419 6.09375ZM14.8079 12C14.8079 13.1521 13.8739 14.0861 12.7218 14.0861C11.5697 14.0861 10.6357 13.1521 10.6357 12C10.6357 10.8479 11.5697 9.91394 12.7218 9.91394C13.8739 9.91394 14.8079 10.8479 14.8079 12ZM8.90228 13.7341C8.48905 13.7341 8.08511 13.8567 7.74153 14.0862C7.39795 14.3158 7.13016 14.6421 6.97203 15.0239C6.81389 15.4056 6.77252 15.8257 6.85313 16.231C6.93375 16.6363 7.13274 17.0086 7.42493 17.3008C7.71712 17.5929 8.08939 17.7919 8.49468 17.8725C8.89996 17.9532 9.32004 17.9118 9.70181 17.7537C10.0836 17.5955 10.4099 17.3277 10.6395 16.9842C10.869 16.6406 10.9916 16.2366 10.9916 15.8234C10.9916 15.2693 10.7714 14.7379 10.3796 14.3461C9.98781 13.9543 9.45639 13.7341 8.90228 13.7341Z" fill="#0066B9"/>
</svg>
