<svg width="25" height="24" viewBox="0 0 25 24" fill="none" xmlns="http://www.w3.org/2000/svg">
<path d="M12.7222 22.0001C18.245 22.0001 22.7222 17.523 22.7222 12.0001C22.7222 6.47727 18.245 2.00012 12.7222 2.00012C7.19932 2.00012 2.72217 6.47727 2.72217 12.0001C2.72217 17.523 7.19932 22.0001 12.7222 22.0001Z" stroke="#0066B9" stroke-width="2" stroke-miterlimit="10" stroke-linecap="round" stroke-linejoin="round"/>
<path d="M12.7222 2.00012V4.85726" stroke="#0066B9" stroke-width="2" stroke-miterlimit="10" stroke-linecap="round" stroke-linejoin="round"/>
<path d="M5.65063 4.92847L7.65063 6.92847" stroke="#0066B9" stroke-width="2" stroke-miterlimit="10" stroke-linecap="round" stroke-linejoin="round"/>
<path d="M2.72217 12.0001H5.57931" stroke="#0066B9" stroke-width="2" stroke-miterlimit="10" stroke-linecap="round" stroke-linejoin="round"/>
<path d="M5.65063 19.0715L7.65063 17.0715" stroke="#0066B9" stroke-width="2" stroke-miterlimit="10" stroke-linecap="round" stroke-linejoin="round"/>
<path d="M12.7222 22.0001V19.1429" stroke="#0066B9" stroke-width="2" stroke-miterlimit="10" stroke-linecap="round" stroke-linejoin="round"/>
<path d="M19.7935 19.0715L17.7935 17.0715" stroke="#0066B9" stroke-width="2" stroke-miterlimit="10" stroke-linecap="round" stroke-linejoin="round"/>
<path d="M22.7221 12.0001H19.865" stroke="#0066B9" stroke-width="2" stroke-miterlimit="10" stroke-linecap="round" stroke-linejoin="round"/>
<path d="M19.7935 4.92847L17.7935 6.92847" stroke="#0066B9" stroke-width="2" stroke-miterlimit="10" stroke-linecap="round" stroke-linejoin="round"/>
<path fill-rule="evenodd" clip-rule="evenodd" d="M12.7222 4.3573C8.50117 4.3573 5.07935 7.77912 5.07935 12.0002C5.07935 16.2212 8.50117 19.643 12.7222 19.643C16.9432 19.643 20.3651 16.2212 20.3651 12.0002C20.3651 7.77912 16.9432 4.3573 12.7222 4.3573ZM13.1126 8.11636C13.0177 7.99776 12.874 7.92871 12.7221 7.92871C12.5702 7.92871 12.4266 7.99776 12.3317 8.11636L9.47456 11.6878C9.32847 11.8704 9.32847 12.1299 9.47456 12.3125L12.3317 15.8839C12.4266 16.0025 12.5702 16.0716 12.7221 16.0716C12.874 16.0716 13.0177 16.0025 13.1126 15.8839L15.9697 12.3125C16.1158 12.1299 16.1158 11.8704 15.9697 11.6878L13.1126 8.11636Z" fill="#0066B9"/>
</svg>
