<svg width="25" height="24" viewBox="0 0 25 24" fill="none" xmlns="http://www.w3.org/2000/svg">
<path d="M23.3784 21.8H22.6909V9.0125H20.6628C20.4909 9.0125 20.319 8.875 20.319 8.66875C20.319 8.4625 20.4565 8.325 20.6628 8.325H23.1378C23.4472 8.325 23.7222 8.05 23.7222 7.74062C23.7222 7.43125 23.4472 7.15625 23.1378 7.15625H19.9753C20.1128 7.56875 19.9753 7.98125 19.6315 8.22187C19.4597 8.39375 19.2534 8.4625 19.0472 8.4625C18.8409 8.4625 18.669 8.39375 18.4972 8.29062L17.5347 7.60312C17.4315 7.53437 17.294 7.53437 17.1909 7.60312L16.2284 8.29062C15.919 8.53125 15.5065 8.53125 15.1628 8.325L15.3003 8.80625C15.4034 9.11562 15.3347 9.425 15.1628 9.66562C14.9909 9.90625 14.6815 10.0781 14.3722 10.0781C14.1659 10.0781 13.9597 10.0094 13.8222 9.90625L12.8597 9.21875C12.7565 9.15 12.619 9.15 12.5159 9.21875L11.5534 9.90625C11.1409 10.2156 10.4878 10.1125 10.2128 9.7C10.0409 9.45937 9.97217 9.15 10.0753 8.84062L10.2128 8.35938C10.0753 8.4625 9.86904 8.49687 9.69717 8.49687C9.49092 8.49687 9.31904 8.42812 9.14717 8.325L8.18467 7.6375C8.08154 7.56875 7.94404 7.56875 7.84092 7.6375L6.87842 8.325C6.53467 8.56562 6.08779 8.56562 5.74404 8.325C5.40029 8.08437 5.26279 7.6375 5.40029 7.25937H2.30654C1.99717 7.15625 1.72217 7.43125 1.72217 7.74062C1.72217 7.87812 1.79092 8.05 1.89404 8.15312C1.99717 8.25625 2.13467 8.325 2.30654 8.325H4.78154C4.95342 8.325 5.12529 8.4625 5.12529 8.66875C5.12529 8.84062 4.98779 9.0125 4.78154 9.0125H2.75342V21.8H2.06592C1.85967 21.8 1.72217 21.9375 1.72217 22.1437C1.72217 22.35 1.85967 22.4875 2.06592 22.4875H23.3784C23.5847 22.4875 23.7222 22.35 23.7222 22.1437C23.7222 21.9375 23.5503 21.8 23.3784 21.8Z" fill="#0066B9"/>
<path d="M15.0251 4.8875H15.472C15.8845 4.8875 16.2626 5.1625 16.4001 5.54062C16.5376 5.95312 16.4001 6.36562 16.0564 6.64062L15.5751 6.98438L15.4376 7.3625C15.3689 7.53437 15.5064 7.6375 15.5408 7.67187C15.5751 7.70625 15.7126 7.775 15.8845 7.67187L16.847 6.98438C17.1908 6.74375 17.6376 6.74375 17.9814 6.98438L18.9439 7.67187C19.0814 7.775 19.2189 7.70625 19.2533 7.67187C19.2876 7.6375 19.4251 7.53437 19.3564 7.3625L18.9783 6.22812C18.8408 5.81562 19.0126 5.36875 19.322 5.1625L20.2845 4.475C20.422 4.37187 20.3876 4.2 20.3876 4.16562C20.3533 4.13125 20.2845 3.99375 20.0783 3.99375H18.9095C18.497 3.99375 18.1189 3.71875 17.9814 3.30625L17.6033 2.20625C17.5345 2.03437 17.397 2 17.3283 2C17.2939 2 17.122 2 17.0533 2.20625L16.7439 3.30625C16.6064 3.71875 16.2283 3.99375 15.8158 3.99375H14.647C14.4408 3.99375 14.4064 4.13125 14.372 4.2C14.3376 4.26875 14.3376 4.40625 14.4751 4.50937L15.0251 4.8875Z" fill="#0066B9"/>
<path d="M9.73136 5.78105C9.73136 5.81543 9.69698 5.9873 9.83448 6.09043L10.797 6.77793C11.1407 7.01855 11.2782 7.46543 11.1407 7.84355L10.7626 8.97793C10.7282 9.08105 10.7626 9.18418 10.797 9.21856C10.9001 9.35606 11.072 9.39043 11.1751 9.2873L12.1376 8.5998C12.3095 8.49668 12.5157 8.42793 12.722 8.42793C12.9282 8.42793 13.1345 8.49668 13.272 8.5998L14.2345 9.2873C14.372 9.39043 14.5439 9.35606 14.6126 9.21856C14.647 9.18418 14.6814 9.08105 14.647 8.97793L14.2689 7.84355C14.1314 7.43105 14.2689 7.01855 14.6126 6.77793L15.5751 6.09043C15.7126 5.9873 15.6782 5.81543 15.6782 5.78105C15.6782 5.74668 15.6095 5.5748 15.4032 5.5748H14.2345C13.822 5.5748 13.4439 5.2998 13.3064 4.92168L12.9282 3.7873C12.8595 3.61543 12.722 3.58105 12.6532 3.58105C12.5845 3.58105 12.447 3.58105 12.3782 3.7873L12.0001 4.92168C11.8626 5.33418 11.4845 5.5748 11.072 5.5748H9.90323C9.80011 5.5748 9.73136 5.74668 9.73136 5.78105Z" fill="#0066B9"/>
<path d="M6.15636 5.19688C6.50011 5.4375 6.63761 5.88438 6.50011 6.2625L6.12198 7.39687C6.05323 7.56875 6.19073 7.67187 6.22511 7.70625C6.25948 7.74062 6.39698 7.80937 6.56886 7.70625L7.53136 7.01875C7.87511 6.77812 8.32198 6.77812 8.66573 7.01875L9.62823 7.70625C9.76573 7.80937 9.90323 7.74062 9.93761 7.70625C9.97198 7.67187 10.1095 7.56875 10.0407 7.39687L9.90323 7.01875L9.42198 6.675C9.07823 6.43438 8.94073 5.9875 9.07823 5.60938C9.21573 5.19688 9.55948 4.95625 10.0064 4.95625H10.4189L10.9689 4.54375C11.1064 4.44063 11.072 4.26875 11.072 4.23438C11.072 4.13125 11.0032 3.99375 10.797 3.99375H9.62823C9.21573 3.99375 8.83761 3.71875 8.70011 3.34062L8.32198 2.20625C8.25323 2.03437 8.08136 2.03438 8.04698 2C8.01261 2 7.84073 2 7.77198 2.20625L7.46261 3.30625C7.32511 3.71875 6.94698 3.99375 6.53448 3.99375H5.36573C5.15948 3.99375 5.09073 4.13125 5.09073 4.2C5.09073 4.23438 5.05636 4.40625 5.19386 4.50938L6.15636 5.19688Z" fill="#0066B9"/>
</svg>
