<svg width="42" height="42" viewBox="0 0 42 42" fill="none" xmlns="http://www.w3.org/2000/svg">
<path d="M21.0001 35.2858C28.8899 35.2858 35.2858 28.8899 35.2858 21.0001C35.2858 13.1103 28.8899 6.71436 21.0001 6.71436C13.1103 6.71436 6.71436 13.1103 6.71436 21.0001C6.71436 28.8899 13.1103 35.2858 21.0001 35.2858Z" stroke="#0066B9" stroke-width="2" stroke-miterlimit="10" stroke-linecap="round" stroke-linejoin="round"/>
<path d="M21 41C32.0457 41 41 32.0457 41 21C41 9.95431 32.0457 1 21 1C9.95431 1 1 9.95431 1 21C1 32.0457 9.95431 41 21 41Z" stroke="#0066B9" stroke-width="2" stroke-miterlimit="10" stroke-linecap="round" stroke-linejoin="round"/>
<path d="M21 1V6.71429" stroke="#0066B9" stroke-width="2" stroke-miterlimit="10" stroke-linecap="round" stroke-linejoin="round"/>
<path d="M6.85693 6.85693L10.8569 10.8569" stroke="#0066B9" stroke-width="2" stroke-miterlimit="10" stroke-linecap="round" stroke-linejoin="round"/>
<path d="M1 21H6.71429" stroke="#0066B9" stroke-width="2" stroke-miterlimit="10" stroke-linecap="round" stroke-linejoin="round"/>
<path d="M6.85693 35.1431L10.8569 31.1431" stroke="#0066B9" stroke-width="2" stroke-miterlimit="10" stroke-linecap="round" stroke-linejoin="round"/>
<path d="M21 40.9999V35.2856" stroke="#0066B9" stroke-width="2" stroke-miterlimit="10" stroke-linecap="round" stroke-linejoin="round"/>
<path d="M35.1431 35.1431L31.1431 31.1431" stroke="#0066B9" stroke-width="2" stroke-miterlimit="10" stroke-linecap="round" stroke-linejoin="round"/>
<path d="M40.9999 21H35.2856" stroke="#0066B9" stroke-width="2" stroke-miterlimit="10" stroke-linecap="round" stroke-linejoin="round"/>
<path d="M35.1431 6.85693L31.1431 10.8569" stroke="#0066B9" stroke-width="2" stroke-miterlimit="10" stroke-linecap="round" stroke-linejoin="round"/>
<path d="M20.9999 13.8569L15.2856 20.9998L20.9999 28.1426L26.7142 20.9998L20.9999 13.8569Z" stroke="#0066B9" stroke-width="2" stroke-miterlimit="10" stroke-linecap="round" stroke-linejoin="round"/>
</svg>
