<svg width="60" height="60" viewBox="0 0 60 60" fill="none" xmlns="http://www.w3.org/2000/svg">
<path d="M46.7469 25.5123L47.3237 19.9971L42.2575 17.7433L40.0045 12.6771L34.4894 13.2531L30 10L25.5115 13.2531L19.9971 12.6771L17.7433 17.7425L12.6771 19.9971L13.2531 25.5115L10 30L13.2531 34.4877L12.6763 40.0029L17.7425 42.2567L19.9955 47.3229L25.5106 46.7469L30 50L34.4885 46.7469L40.0029 47.3229L42.2567 42.2575L47.3229 40.0029L46.7469 34.4885L50 30L46.7469 25.5123ZM45.5568 38.9829L41.0064 41.0072L38.982 45.5568L34.0314 45.0402L30 47.9616L25.9686 45.0402L21.0171 45.5568L18.9928 41.0064L14.4432 38.9829L14.9598 34.0322L12.0384 30L14.9606 25.9686L14.444 21.0171L18.9944 18.9928L21.0188 14.4432L25.9695 14.9598L30 12.0384L34.0314 14.9598L38.9829 14.4432L41.0072 18.9936L45.5568 21.0171L45.0402 25.9678L47.9616 30L45.0394 34.0314L45.5568 38.9829Z" fill="#0066B9" stroke="#0066B9"/>
<path d="M26.6991 35.4351L21.5058 30.2418L20.3389 31.4087L26.6991 37.7689L41.3118 23.1562L40.1449 21.9893L26.6991 35.4351Z" fill="#0066B9" stroke="#0066B9"/>
</svg>
