<svg width="32" height="33" viewBox="0 0 32 33" fill="none" xmlns="http://www.w3.org/2000/svg">
<path fill-rule="evenodd" clip-rule="evenodd" d="M7.79996 20.0444C5.01703 20.0444 1.7675 21.3408 1.7675 24.9951C1.7675 28.3207 4.47353 31.0276 7.79996 31.0276C11.1264 31.0276 13.8324 28.3207 13.8324 24.9951C13.8324 21.3408 10.5829 20.0444 7.79996 20.0444ZM7.79996 32.7951C3.49876 32.7951 0 29.2964 0 24.9951C0 20.9767 3.13465 18.2769 7.79996 18.2769C12.4653 18.2769 15.5999 20.9767 15.5999 24.9951C15.5999 29.2964 12.1012 32.7951 7.79996 32.7951Z" fill="#0066B9"/>
<path fill-rule="evenodd" clip-rule="evenodd" d="M7.80014 24.2218C5.93983 24.2218 5.11794 23.2514 5.03045 23.14C4.72732 22.7583 4.79272 22.2024 5.17539 21.8992C5.55717 21.5961 6.11393 21.6615 6.41706 22.0442C6.41883 22.0442 6.81298 22.4542 7.80014 22.4542C8.79347 22.4542 9.18586 22.0389 9.20265 22.0212C9.52434 21.6712 10.0758 21.6244 10.4381 21.9328C10.8005 22.2412 10.865 22.7671 10.5698 23.14C10.4823 23.2514 9.66044 24.2218 7.80014 24.2218Z" fill="#0066B9"/>
<path fill-rule="evenodd" clip-rule="evenodd" d="M24.2 20.0444C21.4171 20.0444 18.1676 21.3408 18.1676 24.9951C18.1676 28.3207 20.8736 31.0276 24.2 31.0276C27.5264 31.0276 30.2325 28.3207 30.2325 24.9951C30.2325 21.3408 26.9829 20.0444 24.2 20.0444ZM24.2 32.7951C19.8988 32.7951 16.4001 29.2964 16.4001 24.9951C16.4001 20.9767 19.5347 18.2769 24.2 18.2769C28.8653 18.2769 32 20.9767 32 24.9951C32 29.2964 28.5012 32.7951 24.2 32.7951Z" fill="#0066B9"/>
<path fill-rule="evenodd" clip-rule="evenodd" d="M24.2002 24.2218C22.3399 24.2218 21.5181 23.2514 21.4306 23.14C21.1274 22.7583 21.1928 22.2024 21.5755 21.8992C21.9582 21.5961 22.514 21.6615 22.8172 22.0442C22.8189 22.0442 23.2131 22.4542 24.2002 22.4542C25.1936 22.4542 25.5859 22.0389 25.6019 22.0212C25.9235 21.6712 26.4759 21.6244 26.8382 21.9328C27.1997 22.2412 27.2642 22.7671 26.9699 23.14C26.8824 23.2505 26.0605 24.2218 24.2002 24.2218Z" fill="#0066B9"/>
<path fill-rule="evenodd" clip-rule="evenodd" d="M7.80034 23.844H7.79857C7.31075 23.8431 6.91571 23.4463 6.9166 22.9584C6.9219 20.4513 8.2484 18.8685 9.53159 17.3387C11.4104 15.0975 13.3538 12.7786 12.174 6.91312C12.0777 6.43413 12.3878 5.96839 12.866 5.87206C13.3441 5.7722 13.8107 6.08593 13.907 6.56404C15.2547 13.2637 12.8324 16.1527 10.8864 18.4743C9.65797 19.9387 8.68762 21.0964 8.68408 22.962C8.6832 23.4498 8.28728 23.844 7.80034 23.844Z" fill="#0066B9"/>
<path fill-rule="evenodd" clip-rule="evenodd" d="M24.1995 24.2173C23.7992 24.2173 23.4368 23.9433 23.3405 23.5359C23.2972 23.3521 18.8767 5.13891 9.52489 6.62449C9.04855 6.70492 8.58989 6.37263 8.513 5.8901C8.437 5.40757 8.76664 4.9551 9.24828 4.87909C20.2112 3.14783 24.8676 22.3137 25.0603 23.1311C25.1725 23.6057 24.8782 24.0812 24.4037 24.1934C24.3356 24.2093 24.2667 24.2173 24.1995 24.2173Z" fill="#0066B9"/>
<path fill-rule="evenodd" clip-rule="evenodd" d="M14.6372 5.47723C15.2213 6.08436 16.7034 7.38436 18.5371 7.26505C20.3258 7.16519 22.0968 5.82631 23.8104 3.28112C21.13 1.78935 18.9445 1.39697 17.3034 2.11634C15.6075 2.86134 14.8837 4.67037 14.6372 5.47723ZM18.3188 9.03962C15.1506 9.03962 13.0535 6.36716 12.9634 6.24963C12.8096 6.0499 12.7486 5.79361 12.7954 5.54616C12.8237 5.39593 13.5228 1.8574 16.5761 0.505266C18.9366 -0.541091 21.9431 0.0395314 25.5134 2.23034C25.9296 2.48574 26.0595 3.03013 25.805 3.44638C23.6142 7.01495 21.1963 8.89468 18.6184 9.03078C18.5177 9.03697 18.4178 9.03962 18.3188 9.03962Z" fill="#0066B9"/>
</svg>
