<svg width="60" height="60" viewBox="0 0 60 60" fill="none" xmlns="http://www.w3.org/2000/svg">
<path fill-rule="evenodd" clip-rule="evenodd" d="M19.7499 35.0556C16.2713 35.0556 12.2094 36.6762 12.2094 41.244C12.2094 45.401 15.5919 48.7847 19.7499 48.7847C23.908 48.7847 27.2905 45.401 27.2905 41.244C27.2905 36.6762 23.2286 35.0556 19.7499 35.0556ZM19.7499 50.994C14.3734 50.994 10 46.6206 10 41.244C10 36.221 13.9183 32.8462 19.7499 32.8462C25.5816 32.8462 29.4999 36.221 29.4999 41.244C29.4999 46.6206 25.1264 50.994 19.7499 50.994Z" fill="#0066B9"/>
<path fill-rule="evenodd" clip-rule="evenodd" d="M19.7502 40.2769C17.4248 40.2769 16.3975 39.0639 16.2881 38.9247C15.9092 38.4475 15.9909 37.7526 16.4693 37.3737C16.9465 36.9948 17.6424 37.0765 18.0214 37.5548C18.0236 37.5548 18.5163 38.0674 19.7502 38.0674C20.9919 38.0674 21.4824 37.5482 21.5033 37.5261C21.9055 37.0887 22.5948 37.0301 23.0477 37.4156C23.5006 37.8012 23.5813 38.4585 23.2123 38.9247C23.1029 39.0639 22.0756 40.2769 19.7502 40.2769Z" fill="#0066B9"/>
<path fill-rule="evenodd" clip-rule="evenodd" d="M40.2501 35.0556C36.7714 35.0556 32.7095 36.6762 32.7095 41.244C32.7095 45.401 36.092 48.7847 40.2501 48.7847C44.4081 48.7847 47.7906 45.401 47.7906 41.244C47.7906 36.6762 43.7287 35.0556 40.2501 35.0556ZM40.2501 50.994C34.8736 50.994 30.5001 46.6206 30.5001 41.244C30.5001 36.221 34.4184 32.8462 40.2501 32.8462C46.0817 32.8462 50 36.221 50 41.244C50 46.6206 45.6266 50.994 40.2501 50.994Z" fill="#0066B9"/>
<path fill-rule="evenodd" clip-rule="evenodd" d="M40.2503 40.2769C37.9249 40.2769 36.8976 39.0639 36.7882 38.9247C36.4093 38.4475 36.4911 37.7526 36.9694 37.3737C37.4477 36.9948 38.1426 37.0765 38.5215 37.5548C38.5237 37.5548 39.0164 38.0674 40.2503 38.0674C41.492 38.0674 41.9824 37.5482 42.0023 37.5261C42.4044 37.0887 43.0949 37.0301 43.5478 37.4156C43.9996 37.8012 44.0802 38.4585 43.7124 38.9247C43.603 39.0628 42.5757 40.2769 40.2503 40.2769Z" fill="#0066B9"/>
<path fill-rule="evenodd" clip-rule="evenodd" d="M19.7504 39.8049H19.7482C19.1384 39.8038 18.6446 39.3078 18.6458 38.6981C18.6524 35.5641 20.3105 33.5856 21.9145 31.6734C24.263 28.8719 26.6922 25.9732 25.2175 18.6414C25.0971 18.0427 25.4848 17.4605 26.0824 17.3401C26.6801 17.2153 27.2633 17.6074 27.3838 18.205C29.0684 26.5797 26.0405 30.1909 23.608 33.0929C22.0725 34.9233 20.8595 36.3705 20.8551 38.7025C20.854 39.3123 20.3591 39.8049 19.7504 39.8049Z" fill="#0066B9"/>
<path fill-rule="evenodd" clip-rule="evenodd" d="M40.2494 40.2718C39.749 40.2718 39.2961 39.9294 39.1756 39.4201C39.1215 39.1903 33.5959 16.4239 21.9061 18.2809C21.3107 18.3814 20.7374 17.966 20.6412 17.3629C20.5462 16.7597 20.9583 16.1941 21.5603 16.0991C35.264 13.935 41.0845 37.8923 41.3254 38.9142C41.4657 39.5074 41.0978 40.1017 40.5046 40.242C40.4195 40.2619 40.3334 40.2718 40.2494 40.2718Z" fill="#0066B9"/>
<path fill-rule="evenodd" clip-rule="evenodd" d="M28.2965 16.8465C29.0266 17.6055 30.8792 19.2304 33.1714 19.0813C35.4073 18.9565 37.621 17.2829 39.763 14.1014C36.4125 12.2367 33.6807 11.7462 31.6293 12.6454C29.5094 13.5767 28.6047 15.838 28.2965 16.8465ZM32.8985 21.2995C28.9383 21.2995 26.3169 17.959 26.2042 17.812C26.012 17.5624 25.9358 17.242 25.9943 16.9327C26.0297 16.7449 26.9035 12.3217 30.7201 10.6316C33.6707 9.32364 37.4288 10.0494 41.8917 12.7879C42.412 13.1072 42.5744 13.7877 42.2563 14.308C39.5178 18.7687 36.4954 21.1184 33.273 21.2885C33.1471 21.2962 33.0223 21.2995 32.8985 21.2995Z" fill="#0066B9"/>
</svg>
