<svg width="40" height="41" viewBox="0 0 40 41" fill="none" xmlns="http://www.w3.org/2000/svg">
<path fill-rule="evenodd" clip-rule="evenodd" d="M9.74994 25.0556C6.27129 25.0556 2.20937 26.6762 2.20937 31.244C2.20937 35.401 5.59191 38.7847 9.74994 38.7847C13.908 38.7847 17.2905 35.401 17.2905 31.244C17.2905 26.6762 13.2286 25.0556 9.74994 25.0556ZM9.74994 40.994C4.37345 40.994 0 36.6206 0 31.244C0 26.221 3.91832 22.8462 9.74994 22.8462C15.5816 22.8462 19.4999 26.221 19.4999 31.244C19.4999 36.6206 15.1264 40.994 9.74994 40.994Z" fill="#0066B9"/>
<path fill-rule="evenodd" clip-rule="evenodd" d="M9.75032 30.2769C7.42494 30.2769 6.39758 29.0639 6.28822 28.9247C5.90931 28.4475 5.99105 27.7526 6.46939 27.3737C6.94661 26.9948 7.64257 27.0765 8.02148 27.5548C8.02369 27.5548 8.51638 28.0674 9.75032 28.0674C10.992 28.0674 11.4825 27.5482 11.5035 27.5261C11.9056 27.0887 12.5949 27.0301 13.0478 27.4156C13.5008 27.8012 13.5814 28.4585 13.2124 28.9247C13.1031 29.0639 12.0757 30.2769 9.75032 30.2769Z" fill="#0066B9"/>
<path fill-rule="evenodd" clip-rule="evenodd" d="M30.2499 25.0556C26.7713 25.0556 22.7094 26.6762 22.7094 31.244C22.7094 35.401 26.0919 38.7847 30.2499 38.7847C34.408 38.7847 37.7905 35.401 37.7905 31.244C37.7905 26.6762 33.7286 25.0556 30.2499 25.0556ZM30.2499 40.994C24.8734 40.994 20.5 36.6206 20.5 31.244C20.5 26.221 24.4183 22.8462 30.2499 22.8462C36.0816 22.8462 39.9999 26.221 39.9999 31.244C39.9999 36.6206 35.6264 40.994 30.2499 40.994Z" fill="#0066B9"/>
<path fill-rule="evenodd" clip-rule="evenodd" d="M30.2503 30.2769C27.9249 30.2769 26.8976 29.0639 26.7882 28.9247C26.4093 28.4475 26.4911 27.7526 26.9694 27.3737C27.4477 26.9948 28.1426 27.0765 28.5215 27.5548C28.5237 27.5548 29.0164 28.0674 30.2503 28.0674C31.492 28.0674 31.9824 27.5482 32.0023 27.5261C32.4044 27.0887 33.0949 27.0301 33.5478 27.4156C33.9996 27.8012 34.0802 28.4585 33.7124 28.9247C33.603 29.0628 32.5757 30.2769 30.2503 30.2769Z" fill="#0066B9"/>
<path fill-rule="evenodd" clip-rule="evenodd" d="M9.75068 29.8049H9.74847C9.13868 29.8038 8.64489 29.3078 8.646 28.6981C8.65263 25.5641 10.3107 23.5856 11.9147 21.6734C14.2633 18.8719 16.6925 15.9732 15.2177 8.6414C15.0973 8.04266 15.4851 7.46049 16.0827 7.34008C16.6803 7.21525 17.2636 7.60741 17.384 8.20505C19.0686 16.5797 16.0407 20.1909 13.6082 23.0929C12.0727 24.9233 10.8598 26.3705 10.8554 28.7025C10.8542 29.3123 10.3594 29.8049 9.75068 29.8049Z" fill="#0066B9"/>
<path fill-rule="evenodd" clip-rule="evenodd" d="M30.2492 30.2718C29.7488 30.2718 29.2959 29.9294 29.1755 29.4201C29.1213 29.1903 23.5957 6.42389 11.9059 8.28086C11.3105 8.38139 10.7372 7.96603 10.6411 7.36287C10.5461 6.75971 10.9581 6.19411 11.5602 6.09911C25.2638 3.93503 31.0844 27.8923 31.3252 28.9142C31.4655 29.5074 31.0976 30.1017 30.5044 30.242C30.4193 30.2619 30.3332 30.2718 30.2492 30.2718Z" fill="#0066B9"/>
<path fill-rule="evenodd" clip-rule="evenodd" d="M18.2965 6.84654C19.0267 7.60545 20.8793 9.23044 23.1715 9.08131C25.4073 8.95648 27.6211 7.28289 29.7631 4.1014C26.4126 2.23669 23.6807 1.74621 21.6293 2.64542C19.5095 3.57667 18.6047 5.83796 18.2965 6.84654ZM22.8986 11.2995C18.9383 11.2995 16.3169 7.95895 16.2043 7.81203C16.012 7.56237 15.9358 7.24201 15.9944 6.9327C16.0297 6.74491 16.9035 2.32175 20.7202 0.631583C23.6708 -0.676363 27.4289 0.0494142 31.8918 2.78793C32.4121 3.10718 32.5745 3.78767 32.2563 4.30797C29.5178 8.76869 26.4954 11.1184 23.2731 11.2885C23.1472 11.2962 23.0223 11.2995 22.8986 11.2995Z" fill="#0066B9"/>
</svg>
