<svg width="12" height="12" viewBox="0 0 12 12" fill="none" xmlns="http://www.w3.org/2000/svg">
<g opacity="0.6">
<path fill-rule="evenodd" clip-rule="evenodd" d="M6 12C2.694 12 0 9.306 0 6C0 2.694 2.694 0 6 0C9.306 0 12 2.694 12 6C12 9.306 9.306 12 6 12ZM6 1.2C3.354 1.2 1.2 3.354 1.2 6C1.2 8.646 3.354 10.8 6 10.8C8.646 10.8 10.8 8.646 10.8 6C10.8 3.354 8.646 1.2 6 1.2ZM6.00002 6.6C5.67002 6.6 5.40002 6.33 5.40002 6V5.9999V3.6C5.40002 3.27 5.67002 3 6.00002 3C6.33003 3 6.60003 3.27 6.60003 3.6V5.3999H7.80002C8.13002 5.3999 8.40002 5.6699 8.40002 5.9999C8.40002 6.3299 8.13002 6.5999 7.80002 6.5999H6.01081C6.00723 6.59997 6.00363 6.6 6.00002 6.6Z" fill="black"/>
</g>
</svg>
