<svg width="24" height="24" viewBox="0 0 24 24" fill="none" xmlns="http://www.w3.org/2000/svg">
<path fill-rule="evenodd" clip-rule="evenodd" d="M17.1265 6.87323C14.2952 4.04193 9.70478 4.04193 6.87348 6.87323C4.04217 9.70453 4.04217 14.295 6.87348 17.1263C9.70478 19.9576 14.2952 19.9576 17.1265 17.1263C19.9578 14.295 19.9578 9.70453 17.1265 6.87323ZM5.45926 5.45902C9.07161 1.84667 14.9284 1.84667 18.5407 5.45902C22.1531 9.07137 22.1531 14.9281 18.5407 18.5405C14.9284 22.1528 9.07161 22.1528 5.45926 18.5405C1.84691 14.9281 1.84691 9.07137 5.45926 5.45902ZM15.3587 8.64101C15.7492 9.03154 15.7492 9.6647 15.3587 10.0552L13.4142 11.9997L15.3588 13.9443C15.7493 14.3348 15.7493 14.968 15.3588 15.3585C14.9683 15.7491 14.3351 15.7491 13.9446 15.3585L12 13.4139L10.0554 15.3585C9.66489 15.7491 9.03173 15.7491 8.6412 15.3585C8.25068 14.968 8.25068 14.3348 8.6412 13.9443L10.5858 11.9997L8.64128 10.0552C8.25076 9.6647 8.25076 9.03154 8.64128 8.64101C9.03181 8.25049 9.66497 8.25049 10.0555 8.64101L12 10.5855L13.9445 8.64101C14.335 8.25049 14.9682 8.25049 15.3587 8.64101Z" fill="#DC2626"/>
</svg>
