<svg width="42" height="42" viewBox="0 0 42 42" fill="none" xmlns="http://www.w3.org/2000/svg">
<path d="M29.6107 1H12.3893C6.09916 1 1 6.09916 1 12.3893V29.6107C1 35.9008 6.09916 41 12.3893 41H29.6107C35.9008 41 41 35.9008 41 29.6107V12.3893C41 6.09916 35.9008 1 29.6107 1Z" stroke="#0066B9" stroke-width="2" stroke-linecap="round" stroke-linejoin="round"/>
<path d="M27.4652 9.48893C28.0643 9.08865 28.7686 8.875 29.489 8.875C30.4552 8.875 31.3818 9.2588 32.0649 9.94197C32.7481 10.6251 33.1319 11.5517 33.1319 12.5179C33.1319 13.2384 32.9183 13.9427 32.518 14.5417C32.1177 15.1408 31.5488 15.6077 30.8831 15.8834L31.2658 16.8073L30.8831 15.8834C30.2175 16.1592 29.485 16.2313 28.7784 16.0907C28.0717 15.9502 27.4226 15.6032 26.9132 15.0938C26.4037 14.5843 26.0568 13.9352 25.9162 13.2286C25.7756 12.5219 25.8478 11.7894 26.1235 11.1238C26.3992 10.4582 26.8661 9.88922 27.4652 9.48893Z" stroke="#0066B9" stroke-width="2"/>
<path d="M24.6357 21.0005C24.6357 23.0084 23.0079 24.6362 21 24.6362C18.992 24.6362 17.3643 23.0084 17.3643 21.0005C17.3643 18.9925 18.992 17.3647 21 17.3647C23.0079 17.3647 24.6357 18.9925 24.6357 21.0005Z" stroke="#0066B9" stroke-width="2"/>
<path d="M10.4872 26.4674C11.0862 26.0672 11.7905 25.8535 12.511 25.8535C13.4772 25.8535 14.4037 26.2373 15.0869 26.9205C15.7701 27.6037 16.1539 28.5302 16.1539 29.4964C16.1539 30.2168 15.9402 30.9212 15.54 31.5202C15.1397 32.1193 14.5707 32.5862 13.9051 32.8619C13.2394 33.1376 12.507 33.2098 11.8003 33.0692C11.0937 32.9287 10.4446 32.5817 9.93513 32.0722C9.42567 31.5628 9.07872 30.9137 8.93816 30.207C8.7976 29.5004 8.86974 28.7679 9.14546 28.1023C9.42118 27.4367 9.88809 26.8677 10.4872 26.4674Z" stroke="#0066B9" stroke-width="2"/>
</svg>
