<svg width="60" height="60" viewBox="0 0 60 60" fill="none" xmlns="http://www.w3.org/2000/svg">
<rect x="6" y="23.5166" width="38.1049" height="25.4402" rx="1" stroke="#0066B9" stroke-width="2"/>
<rect x="9.16602" y="34.0703" width="6.44315" height="4.33236" rx="1" stroke="#0066B9" stroke-width="2"/>
<path d="M18.7089 33.1069C18.1909 33.1069 17.7382 33.0019 17.3509 32.7919C16.9682 32.5773 16.6719 32.2763 16.4619 31.8889C16.2565 31.5016 16.1539 31.0536 16.1539 30.5449C16.1539 30.0409 16.2565 29.5976 16.4619 29.2149C16.6719 28.8276 16.9682 28.5289 17.3509 28.3189C17.7382 28.1043 18.1909 27.9969 18.7089 27.9969C19.0355 27.9969 19.3505 28.0459 19.6539 28.1439C19.9619 28.2419 20.2092 28.3749 20.3959 28.5429L19.9969 29.4739C19.5909 29.1799 19.1709 29.0329 18.7369 29.0329C18.3355 29.0329 18.0275 29.1613 17.8129 29.4179C17.5982 29.6699 17.4909 30.0456 17.4909 30.5449C17.4909 31.0489 17.5982 31.4293 17.8129 31.6859C18.0275 31.9426 18.3355 32.0709 18.7369 32.0709C19.1709 32.0709 19.5909 31.9239 19.9969 31.6299L20.3959 32.5609C20.2092 32.7289 19.9619 32.8619 19.6539 32.9599C19.3505 33.0579 19.0355 33.1069 18.7089 33.1069ZM25.4119 33.0439H24.0189L23.3749 31.3849C23.3002 31.1983 23.1252 31.1049 22.8499 31.1049H22.3739V33.0439H21.0789V28.0599H23.3959C23.9979 28.0599 24.4505 28.1906 24.7539 28.4519C25.0572 28.7086 25.2089 29.0773 25.2089 29.5579C25.2089 29.8939 25.1179 30.1856 24.9359 30.4329C24.7585 30.6756 24.5065 30.8483 24.1799 30.9509C24.3199 30.9789 24.4459 31.0443 24.5579 31.1469C24.6699 31.2496 24.7585 31.3873 24.8239 31.5599L25.4119 33.0439ZM23.1859 30.1249C23.4659 30.1249 23.6689 30.0829 23.7949 29.9989C23.9209 29.9103 23.9839 29.7749 23.9839 29.5929C23.9839 29.4016 23.9209 29.2639 23.7949 29.1799C23.6735 29.0959 23.4705 29.0539 23.1859 29.0539H22.3599V30.1249H23.1859ZM26.0759 28.0599H29.6319V29.0679H27.3569V30.0059H29.4849V31.0139H27.3569V32.0359H29.6319V33.0439H26.0759V28.0599ZM30.3005 28.0599H32.3375C32.8882 28.0599 33.3619 28.1603 33.7585 28.3609C34.1599 28.5569 34.4655 28.8416 34.6755 29.2149C34.8902 29.5883 34.9975 30.0316 34.9975 30.5449C34.9975 31.0629 34.8925 31.5109 34.6825 31.8889C34.4725 32.2623 34.1669 32.5493 33.7655 32.7499C33.3689 32.9459 32.8929 33.0439 32.3375 33.0439H30.3005V28.0599ZM32.2465 31.9939C32.7319 31.9939 33.0935 31.8749 33.3315 31.6369C33.5742 31.3943 33.6955 31.0303 33.6955 30.5449C33.6955 29.5883 33.2125 29.1099 32.2465 29.1099H31.6165V31.9939H32.2465ZM35.7693 28.0599H37.0853V33.0439H35.7693V28.0599ZM39.1041 29.1239H37.6201V28.0599H41.9181V29.1239H40.4341V33.0439H39.1041V29.1239Z" fill="#0066B9"/>
<path d="M12.5752 23.4072L42.2848 11.0392C43.2982 10.6174 44.4622 11.0911 44.893 12.1007L54.1182 33.7201C54.5444 34.7188 54.0958 35.8751 53.1076 36.3251L43.7679 40.5789" stroke="#0066B9" stroke-width="2"/>
<path d="M46.7881 16.4447L30.4003 23.4076" stroke="#0066B9" stroke-width="2"/>
<path d="M49.466 21.7902L43.7676 24.2992" stroke="#0066B9" stroke-width="2"/>
</svg>
