<svg width="60" height="60" viewBox="0 0 60 60" fill="none" xmlns="http://www.w3.org/2000/svg">
<path d="M52.2481 20.2547C51.3136 19.3389 50.0988 18.8529 48.7718 18.8903C47.4822 18.909 46.286 19.451 45.3889 20.4229C44.4918 21.376 44.0246 22.6283 44.0619 23.8992C44.0993 25.0019 44.5292 26.0298 45.2394 26.8522C43.3704 29.1697 41.6696 30.2537 40.0436 30.1229C37.9504 29.9547 35.7263 27.7867 33.39 23.6188C34.175 23.0021 34.7544 22.1797 35.0534 21.2078C35.4646 19.8809 35.259 18.4417 34.5114 17.1335C33.7078 15.7317 32.1565 14.9467 30.3623 15.0028C30.3436 15.0028 30.3249 15.0028 30.3249 15.0028C28.5307 14.9467 26.9794 15.7317 26.1758 17.1335C25.4282 18.4417 25.2413 19.8995 25.6338 21.2078C25.9328 22.161 26.5122 23.0021 27.2972 23.6188C24.9609 27.768 22.7368 29.9547 20.6436 30.1229C19.0176 30.2537 17.3168 29.1697 15.4478 26.8522C16.158 26.0298 16.5692 25.0019 16.6253 23.8992C16.6813 22.6283 16.1954 21.3574 15.2983 20.4229C14.4012 19.4697 13.205 18.9277 11.9154 18.8903C10.6071 18.8716 9.37361 19.3575 8.43912 20.2547C7.50463 21.1705 7 22.3853 7 23.6936C7 26.2167 8.96243 28.2913 11.4295 28.4969L12.8312 42.1591C12.9994 43.7852 14.3451 45 15.9711 45H44.66C46.286 45 47.6504 43.7852 47.7999 42.1591L49.2017 28.4969C51.6874 28.31 53.6311 26.2354 53.6311 23.6936C53.6872 22.3853 53.1826 21.1705 52.2481 20.2547ZM48.8839 26.6653C48.7718 26.6653 48.641 26.6466 48.5288 26.6466C48.2858 26.6092 48.0429 26.684 47.8373 26.8335C47.6504 26.983 47.5196 27.2073 47.5009 27.4689L46.0244 41.9722C45.9496 42.6451 45.3889 43.1497 44.7161 43.1497H16.0085C15.3357 43.1497 14.775 42.6451 14.7002 41.9722L13.2237 27.4689C13.205 27.226 13.0742 27.0017 12.8873 26.8335C12.7191 26.7026 12.5135 26.6279 12.3079 26.6279C12.2705 26.6279 12.2332 26.6279 12.1958 26.6279C12.0836 26.6466 11.9715 26.6466 11.8407 26.6466C10.2147 26.6466 8.88767 25.3196 8.88767 23.6749C8.88767 22.8712 9.2054 22.1236 9.78479 21.5629C10.3642 21.0022 11.1305 20.7032 11.9154 20.7219C12.7004 20.7406 13.4293 21.077 13.99 21.6751C14.5507 22.2545 14.831 23.0394 14.8124 23.8057C14.775 24.6655 14.3638 25.4691 13.6723 26.0111C13.2798 26.3289 13.205 26.8895 13.5041 27.3007C15.9898 30.6088 18.3821 32.1227 20.8118 31.9545C23.7274 31.7302 26.5309 29.0389 29.353 23.731C29.4652 23.5067 29.5026 23.245 29.4091 23.0208C29.3344 22.7778 29.1661 22.5909 28.9419 22.4787C28.213 22.1236 27.6523 21.4508 27.4093 20.6845C27.1476 19.8435 27.2785 18.9277 27.7831 18.0679C28.2317 17.283 29.1475 16.8344 30.2315 16.8531C30.3062 16.8718 30.381 16.8718 30.4557 16.8531C31.5398 16.8344 32.4556 17.2643 32.9041 18.0679C33.4087 18.9464 33.5396 19.8435 33.2779 20.6845C33.0349 21.4695 32.4742 22.1236 31.7453 22.4787C31.5211 22.5909 31.3529 22.7778 31.2781 23.0208C31.2033 23.2637 31.222 23.5254 31.3342 23.731C34.1563 29.0389 36.9598 31.7302 39.8754 31.9545C42.3238 32.1414 44.7161 30.6275 47.1831 27.3007C47.4822 26.8895 47.4074 26.3289 47.0149 26.0111C46.3234 25.4691 45.9122 24.6655 45.8749 23.8057C45.8375 23.0394 46.1365 22.2545 46.6972 21.6751C47.2579 21.077 47.9868 20.7406 48.7718 20.7219C49.5754 20.7032 50.3417 21.0022 50.9024 21.5629C51.4818 22.1236 51.7995 22.8712 51.7995 23.6749C51.8369 25.3383 50.5099 26.6653 48.8839 26.6653Z" fill="#0066B9"/>
</svg>
