<svg width="60" height="60" viewBox="0 0 60 60" fill="none" xmlns="http://www.w3.org/2000/svg">
<rect x="6" y="23.5166" width="38.1049" height="25.4402" rx="1" stroke="#0066B9" stroke-width="2"/>
<rect x="9.16602" y="34.0703" width="6.44315" height="4.33236" rx="1" stroke="#0066B9" stroke-width="2"/>
<path d="M21.1609 28.0599H23.1979C23.7486 28.0599 24.2222 28.1603 24.6189 28.3609C25.0202 28.5569 25.3259 28.8416 25.5359 29.2149C25.7506 29.5883 25.8579 30.0316 25.8579 30.5449C25.8579 31.0629 25.7529 31.5109 25.5429 31.8889C25.3329 32.2623 25.0272 32.5493 24.6259 32.7499C24.2292 32.9459 23.7532 33.0439 23.1979 33.0439H21.1609V28.0599ZM23.1069 31.9939C23.5922 31.9939 23.9539 31.8749 24.1919 31.6369C24.4346 31.3943 24.5559 31.0303 24.5559 30.5449C24.5559 29.5883 24.0729 29.1099 23.1069 29.1099H22.4769V31.9939H23.1069ZM26.6296 28.0599H30.1856V29.0679H27.9106V30.0059H30.0386V31.0139H27.9106V32.0359H30.1856V33.0439H26.6296V28.0599ZM34.2073 30.4609C34.5013 30.5449 34.7276 30.6943 34.8863 30.9089C35.0449 31.1189 35.1243 31.3756 35.1243 31.6789C35.1243 31.9543 35.0519 32.1946 34.9073 32.3999C34.7626 32.6053 34.5549 32.7639 34.2843 32.8759C34.0183 32.9879 33.7033 33.0439 33.3393 33.0439H30.8543V28.0599H33.2763C33.7989 28.0599 34.2143 28.1766 34.5222 28.4099C34.8303 28.6433 34.9843 28.9583 34.9843 29.3549C34.9843 29.6116 34.9166 29.8379 34.7812 30.0339C34.6459 30.2299 34.4546 30.3723 34.2073 30.4609ZM32.1353 30.0129H33.0523C33.2949 30.0129 33.4723 29.9756 33.5843 29.9009C33.6963 29.8263 33.7523 29.7073 33.7523 29.5439C33.7523 29.3759 33.6939 29.2523 33.5773 29.1729C33.4653 29.0936 33.2903 29.0539 33.0523 29.0539H32.1353V30.0129ZM33.1853 32.0499C33.4373 32.0499 33.6169 32.0103 33.7243 31.9309C33.8363 31.8516 33.8923 31.7186 33.8923 31.5319C33.8923 31.3406 33.8386 31.2053 33.7313 31.1259C33.6239 31.0466 33.4419 31.0069 33.1853 31.0069H32.1353V32.0499H33.1853ZM35.7693 28.0599H37.0853V33.0439H35.7693V28.0599ZM39.1041 29.1239H37.6201V28.0599H41.9181V29.1239H40.4341V33.0439H39.1041V29.1239Z" fill="#0066B9"/>
<path d="M12.5752 23.4072L42.2848 11.0392C43.2982 10.6174 44.4622 11.0911 44.893 12.1007L54.1182 33.7201C54.5444 34.7188 54.0958 35.8751 53.1076 36.3251L43.7679 40.5789" stroke="#0066B9" stroke-width="2"/>
<path d="M46.7881 16.4447L30.4003 23.4076" stroke="#0066B9" stroke-width="2"/>
<path d="M49.466 21.7902L43.7676 24.2992" stroke="#0066B9" stroke-width="2"/>
</svg>
