<svg width="25" height="24" viewBox="0 0 25 24" fill="none" xmlns="http://www.w3.org/2000/svg">
<path d="M18.7937 2H6.65062C5.60867 2.00007 4.60943 2.41405 3.8727 3.15086C3.13598 3.88767 2.72212 4.88696 2.72217 5.92891V18.0711C2.72212 19.113 3.13598 20.1123 3.8727 20.8491C4.60943 21.586 5.60867 21.9999 6.65062 22H18.7937C19.8357 21.9999 20.8349 21.586 21.5716 20.8491C22.3084 20.1123 22.7222 19.113 22.7222 18.0711V5.92891C22.7222 4.88696 22.3084 3.88767 21.5716 3.15086C20.8349 2.41405 19.8357 2.00007 18.7937 2ZM12.7222 5.69318C12.9919 5.69318 13.2555 5.77316 13.4798 5.923C13.704 6.07283 13.8788 6.28581 13.982 6.53498C14.0852 6.78415 14.1122 7.05833 14.0596 7.32285C14.007 7.58737 13.8771 7.83035 13.6864 8.02106C13.4957 8.21176 13.2527 8.34164 12.9882 8.39425C12.7237 8.44687 12.4495 8.41986 12.2003 8.31665C11.9512 8.21344 11.7382 8.03866 11.5883 7.81441C11.4385 7.59017 11.3585 7.32652 11.3585 7.05682C11.3585 6.69516 11.5022 6.34831 11.7579 6.09258C12.0137 5.83685 12.3605 5.69318 12.7222 5.69318ZM14.5972 18.3636H10.9608C10.7197 18.3636 10.4885 18.2679 10.318 18.0974C10.1475 17.9269 10.0517 17.6957 10.0517 17.4545C10.0517 17.2134 10.1475 16.9822 10.318 16.8117C10.4885 16.6412 10.7197 16.5455 10.9608 16.5455H11.8131V11.0909H10.9608C10.7197 11.0909 10.4885 10.9951 10.318 10.8246C10.1475 10.6542 10.0517 10.4229 10.0517 10.1818C10.0517 9.94071 10.1475 9.70948 10.318 9.53899C10.4885 9.36851 10.7197 9.27273 10.9608 9.27273H13.6313V16.5455H14.5972C14.8383 16.5455 15.0695 16.6412 15.24 16.8117C15.4105 16.9822 15.5063 17.2134 15.5063 17.4545C15.5063 17.6957 15.4105 17.9269 15.24 18.0974C15.0695 18.2679 14.8383 18.3636 14.5972 18.3636Z" fill="#0066B9"/>
</svg>
