<svg width="60" height="60" viewBox="0 0 60 60" fill="none" xmlns="http://www.w3.org/2000/svg">
<path d="M38.6107 10H21.3893C15.0992 10 10 15.0992 10 21.3893V38.6107C10 44.9008 15.0992 50 21.3893 50H38.6107C44.9008 50 50 44.9008 50 38.6107V21.3893C50 15.0992 44.9008 10 38.6107 10Z" stroke="#0066B9" stroke-width="2" stroke-linecap="round" stroke-linejoin="round"/>
<path d="M36.4653 18.4889C37.0644 18.0886 37.7687 17.875 38.4892 17.875C39.4553 17.875 40.3819 18.2588 41.0651 18.942C41.7482 19.6251 42.132 20.5517 42.132 21.5179C42.132 22.2384 41.9184 22.9427 41.5181 23.5417C41.1178 24.1408 40.5489 24.6077 39.8832 24.8834L40.2659 25.8073L39.8832 24.8834C39.2176 25.1592 38.4851 25.2313 37.7785 25.0907C37.0718 24.9502 36.4227 24.6032 35.9133 24.0938C35.4038 23.5843 35.0569 22.9352 34.9163 22.2286C34.7758 21.5219 34.8479 20.7894 35.1236 20.1238C35.3993 19.4582 35.8662 18.8892 36.4653 18.4889Z" stroke="#0066B9" stroke-width="2"/>
<path d="M33.6356 30.0005C33.6356 32.0084 32.0078 33.6362 29.9999 33.6362C27.9919 33.6362 26.3641 32.0084 26.3641 30.0005C26.3641 27.9925 27.9919 26.3647 29.9999 26.3647C32.0078 26.3647 33.6356 27.9925 33.6356 30.0005Z" stroke="#0066B9" stroke-width="2"/>
<path d="M19.487 35.4672C20.0861 35.0669 20.7904 34.8533 21.5109 34.8533C22.4771 34.8533 23.4036 35.2371 24.0868 35.9202C24.77 36.6034 25.1538 37.53 25.1538 38.4961C25.1538 39.2166 24.9401 39.9209 24.5398 40.52C24.1396 41.119 23.5706 41.5859 22.905 41.8617C22.2393 42.1374 21.5069 42.2095 20.8002 42.069C20.0936 41.9284 19.4445 41.5815 18.935 41.072C18.4255 40.5625 18.0786 39.9134 17.938 39.2068C17.7975 38.5002 17.8696 37.7677 18.1453 37.1021C18.4211 36.4364 18.888 35.8675 19.487 35.4672Z" stroke="#0066B9" stroke-width="2"/>
</svg>
