<svg width="70" height="25" viewBox="0 0 70 25" fill="none" xmlns="http://www.w3.org/2000/svg">
<path fill-rule="evenodd" clip-rule="evenodd" d="M5.06893 7.49844H3.69836C3.69836 7.49844 3.59758 3.87636 7.17518 2.49264C7.17518 2.49264 10.0876 1.52608 11.9218 3.80514C12.841 4.85013 13.4642 6.126 13.7257 7.49844H12.0629C12.0629 7.49844 11.5892 4.20194 9.13026 4.06967C9.13026 4.06967 6.14725 3.38799 5.06893 7.49844ZM13.9272 8.45466H3.14406C3.14406 8.45466 1.83395 8.34275 1.93473 9.79768V21.1828C1.93473 21.1828 2.11613 22.3223 3.53709 22.1188L13.9272 22.1392C13.9272 22.1392 14.8342 22.068 14.9854 21.1523C15.1366 20.2366 14.9854 9.64507 14.9854 9.64507C14.9854 9.64507 15.1164 8.45466 13.9272 8.45466ZM6.64104 18.863H10.3496L8.91861 16.0854V14.9052C9.71475 14.8746 9.99692 13.6944 9.99692 13.6944C10.138 12.0258 8.67674 11.7613 8.67674 11.7613C7.155 11.5069 6.77205 12.9008 6.77205 12.9008C6.43948 14.3049 7.57827 14.8848 7.57827 14.8848L7.6085 16.0956L6.64104 18.863ZM17.4948 2.4825H19.1879C19.5507 2.4825 19.8328 2.57407 20.0142 2.74703C20.1956 2.91999 20.2863 3.17435 20.2863 3.49993C20.2863 3.82551 20.1856 4.10022 19.984 4.28336C19.7825 4.4665 19.4801 4.56824 19.077 4.56824H18.5227V5.79934H17.4948V2.4825ZM18.5227 3.89673H18.7646C18.9662 3.89673 19.0972 3.86621 19.1778 3.79499C19.2169 3.76341 19.2482 3.72306 19.2692 3.67714C19.2902 3.63123 19.3003 3.581 19.2987 3.53046C19.3008 3.48175 19.2929 3.43314 19.2755 3.38763C19.2582 3.34213 19.2318 3.3007 19.198 3.26592C19.1274 3.1947 18.9964 3.15401 18.8049 3.15401H18.5227V3.89673ZM21.546 2.48228V5.79913H22.5639V4.45611H22.6546C22.7437 4.45435 22.8313 4.47912 22.9065 4.52733C22.9815 4.60441 23.0429 4.69388 23.0879 4.79187L23.6321 5.79913H24.781L24.2872 4.84274C24.2505 4.76818 24.2029 4.69959 24.1461 4.63925C24.0963 4.57474 24.0425 4.51356 23.9849 4.45611C23.9006 4.40204 23.8089 4.36089 23.7128 4.33402C23.8409 4.31368 23.9641 4.26879 24.0756 4.20175C24.209 4.12309 24.3201 4.01094 24.398 3.87617C24.4735 3.7321 24.5116 3.5711 24.5089 3.40815C24.5156 3.21687 24.4627 3.02829 24.3577 2.86891C24.2645 2.72119 24.1212 2.61271 23.9546 2.56368C23.7212 2.50224 23.4802 2.47483 23.2391 2.48228H21.546ZM22.9972 3.8253H22.5639V3.15379H23.0073C23.1401 3.14216 23.2734 3.17049 23.3903 3.23519C23.4255 3.26673 23.453 3.30615 23.4705 3.35031C23.488 3.39447 23.495 3.44215 23.491 3.48955C23.4911 3.55874 23.47 3.62625 23.4306 3.68286C23.3836 3.7318 23.3244 3.76696 23.2593 3.78461C23.1734 3.80675 23.0857 3.82038 22.9972 3.8253ZM25.6074 4.14046C25.6074 3.60122 25.7585 3.18407 26.0609 2.87884C26.3632 2.57361 26.7764 2.42099 27.3105 2.42099C27.8446 2.42099 28.278 2.57361 28.5702 2.86866C28.8625 3.16372 29.0136 3.58087 29.0136 4.12011C29.0268 4.44981 28.9611 4.77785 28.8222 5.0765C28.6938 5.32106 28.4977 5.52259 28.2578 5.65644C27.977 5.79963 27.6652 5.86959 27.3508 5.85993C27.032 5.8702 26.7151 5.80759 26.4236 5.67679C26.1766 5.55518 25.9725 5.35983 25.8391 5.1172C25.6766 4.81846 25.5966 4.48112 25.6074 4.14046ZM26.6252 4.15064C26.6252 4.48639 26.6857 4.7204 26.8066 4.87302C26.87 4.9437 26.948 4.99947 27.035 5.03639C27.1221 5.07331 27.2161 5.09048 27.3105 5.08668C27.4065 5.092 27.5025 5.07558 27.5914 5.03861C27.6804 5.00164 27.76 4.94506 27.8245 4.87302C27.9454 4.73058 28.0059 4.47622 28.0059 4.09976C28.0059 3.72331 27.9353 3.56052 27.8144 3.41808C27.7514 3.34683 27.6735 3.29068 27.5864 3.25371C27.4992 3.21674 27.4049 3.1999 27.3105 3.20442C27.2175 3.19997 27.1248 3.21689 27.0392 3.25391C26.9537 3.29092 26.8776 3.34705 26.8167 3.41808C26.6857 3.5707 26.6252 3.81488 26.6252 4.15064ZM33.0145 2.4825H29.9307V3.30662H30.9586V5.79934H31.9765V3.30662H33.0145V2.4825ZM34.1836 2.4825H36.9046V3.1947H35.2014V3.72377H36.7836V4.39528H35.2014V5.04644H36.955V5.79934H34.1836V2.4825ZM41.2984 4.71023L40.4015 4.44569C40.3744 4.62128 40.3014 4.78638 40.1899 4.92389C40.1316 4.98117 40.0619 5.02531 39.9855 5.05337C39.909 5.08143 39.8276 5.09279 39.7465 5.08668C39.6586 5.09315 39.5706 5.07802 39.4898 5.04257C39.4091 5.00713 39.3381 4.95244 39.2829 4.88319C39.172 4.75092 39.1116 4.49656 39.1116 4.13029C39.0976 3.90095 39.1464 3.67214 39.2526 3.46895C39.3094 3.38713 39.3842 3.31982 39.4713 3.27239C39.5583 3.22496 39.6551 3.19871 39.754 3.19575C39.8529 3.19278 39.951 3.21318 40.0407 3.25531C40.1304 3.29745 40.2091 3.36015 40.2705 3.43843C40.3136 3.5083 40.3475 3.58355 40.3713 3.66227L41.2682 3.45878C41.1761 3.14748 40.9892 2.87337 40.7341 2.67535C40.5023 2.51256 40.2806 2.42099 39.7565 2.42099C39.2325 2.42099 38.8092 2.57361 38.5271 2.86866C38.2449 3.16372 38.0937 3.58087 38.0937 4.13029C38.0816 4.48657 38.1689 4.83911 38.3457 5.14772C38.4817 5.38577 38.6853 5.57716 38.9302 5.69714C39.2069 5.81614 39.5063 5.87173 39.8069 5.85993C40.0555 5.86986 40.3031 5.82472 40.5325 5.72766C40.7221 5.64451 40.8883 5.51516 41.0162 5.35121C41.1497 5.15753 41.2454 4.94001 41.2984 4.71023ZM42.2658 2.4825H45.3597V3.30662H44.3217V5.79934H43.3038V3.30662H42.2658V2.4825ZM49.2498 2.4825H46.5288V5.79934H49.3002V5.04644H47.5467V4.39528H49.1289V3.72377H47.5467V3.1947H49.2498V2.4825ZM50.5699 2.48248H52.0815C52.3291 2.47272 52.5761 2.51427 52.8071 2.60458C52.9846 2.68443 53.1403 2.80663 53.2606 2.96068C53.3813 3.11809 53.4703 3.29783 53.5226 3.48975C53.5755 3.69926 53.6025 3.91454 53.6033 4.13073C53.6154 4.41071 53.5743 4.69045 53.4823 4.95486C53.4101 5.14129 53.2963 5.3084 53.1498 5.44323C53.0196 5.56914 52.8602 5.66009 52.6862 5.70776C52.4895 5.76511 52.2862 5.7959 52.0815 5.79933H50.5699V2.48248ZM51.5877 3.23539V5.04643H51.8397C51.9942 5.05822 52.1494 5.03384 52.2932 4.97521C52.3903 4.92189 52.4653 4.83529 52.5048 4.73102C52.5625 4.54354 52.5864 4.3471 52.5753 4.15108C52.5753 3.79498 52.5249 3.56097 52.404 3.4287C52.2831 3.29643 52.1017 3.23539 51.8397 3.23539H51.5877ZM58.9949 2.48248H57.0902V5.79932H58.8437C58.9956 5.79515 59.147 5.78156 59.2972 5.75863C59.4341 5.74694 59.5675 5.70895 59.6903 5.64671C59.8237 5.56805 59.9348 5.4559 60.0127 5.32113C60.0935 5.18244 60.1353 5.02416 60.1337 4.86328C60.1408 4.67195 60.0801 4.48434 59.9624 4.33421C59.8286 4.17529 59.6425 4.07051 59.4383 4.03916C59.5753 3.99498 59.6997 3.91821 59.8011 3.81532C59.9227 3.67478 59.9875 3.49316 59.9825 3.3066C59.983 3.19508 59.9598 3.08474 59.9146 2.98298C59.8694 2.88121 59.8033 2.79036 59.7205 2.71649C59.5158 2.55025 59.2572 2.46684 58.9949 2.48248ZM58.5616 3.7848H58.1181V3.15399H58.5616C58.6781 3.14503 58.7946 3.17352 58.8941 3.23538C58.9246 3.26369 58.9485 3.29842 58.9642 3.3371C58.9798 3.37578 58.9869 3.41748 58.9848 3.45922C58.9878 3.5041 58.9813 3.5491 58.9656 3.59122C58.95 3.63333 58.9256 3.67158 58.8941 3.7034C58.794 3.76402 58.678 3.79241 58.5616 3.7848ZM58.6321 5.08712H58.1181V4.41561H58.6321C58.7631 4.40208 58.8948 4.4344 59.005 4.50718C59.0393 4.53557 59.0671 4.57126 59.0863 4.6117C59.1054 4.65215 59.1155 4.69636 59.1158 4.74119C59.1178 4.78932 59.1089 4.83727 59.0896 4.88136C59.0704 4.92545 59.0415 4.96451 59.005 4.99555C58.8948 5.06832 58.7631 5.10065 58.6321 5.08712ZM61.0408 2.4825H62.1695L62.8346 3.60168L63.4997 2.4825H64.6184L63.3385 4.41563V5.79934H62.3206V4.41563L61.0408 2.4825ZM66.3013 3.39802H65.3238V4.32389H66.3013V3.39802ZM66.3013 4.88348H65.3238V5.79918H66.3013V4.88348ZM17.0715 10.9781H21.677C22.584 10.9781 23.3096 11.1002 23.874 11.3444C24.4118 11.5846 24.8851 11.9509 25.2546 12.4127C25.6283 12.8941 25.8994 13.4484 26.0508 14.0406C26.2148 14.6784 26.2961 15.3351 26.2926 15.9941C26.2926 17.0827 26.1717 17.917 25.9298 18.5173C25.7019 19.0845 25.3546 19.5948 24.912 20.013C24.5192 20.39 24.0422 20.6657 23.5212 20.8167C22.9208 20.9883 22.3009 21.0807 21.677 21.0914H17.0715V10.9781ZM20.1754 13.2674V18.792H20.9313C21.5762 18.792 22.0398 18.7208 22.3119 18.5784C22.6054 18.404 22.8325 18.1353 22.9569 17.8153C23.1081 17.4592 23.1887 16.8691 23.1887 16.0551C23.1887 14.9868 23.0073 14.2543 22.6646 13.8575C22.322 13.4607 21.7476 13.2674 20.9413 13.2674H20.1754ZM31.7951 10.9781H27.7237V21.0914H30.2532V13.3793L32.2083 21.0914H34.506L36.4611 13.3793V21.0914H38.9906V10.9781H34.9192L33.3672 17.1336L31.7951 10.9781ZM62.9555 19.4228H59.4383L58.9546 21.0914H55.7902L59.5593 10.9781H62.9353L66.6943 21.0914H63.4594L62.9555 19.4228ZM62.3105 17.2354L61.202 13.5929L60.1136 17.2354H62.3105ZM55.3006 20.1503C56.0168 18.8992 56.3942 17.4798 56.3948 16.0347C56.3899 14.5897 56.0106 13.1712 55.2946 11.92C54.5786 10.6688 53.5508 9.6285 52.3133 8.90246C50.4434 7.85142 48.2392 7.58483 46.1763 8.16023C44.1134 8.73564 42.3574 10.1069 41.2872 11.978C40.2169 13.8492 39.9184 16.0701 40.456 18.1615C40.9935 20.253 42.3241 22.0471 44.1605 23.1568C45.3995 23.8802 46.8054 24.2615 48.2368 24.2625C49.6681 24.2634 51.0745 23.8838 52.3144 23.162C53.5544 22.4402 54.5843 21.4015 55.3006 20.1503ZM52.8878 11.3341C54.171 12.6365 54.8126 14.2033 54.8126 16.0347C54.8257 16.9077 54.6616 17.7742 54.3306 18.5808C53.9996 19.3875 53.5086 20.1172 52.8878 20.7251C51.5978 22.0274 50.0459 22.6786 48.2319 22.6786C46.489 22.6705 44.8198 21.968 43.5874 20.7238C42.3549 19.4795 41.6591 17.7943 41.6511 16.0347C41.6511 14.2033 42.2961 12.6365 43.586 11.3341C44.1882 10.7074 44.9109 10.2117 45.7099 9.87747C46.5089 9.54327 47.3671 9.37766 48.2319 9.39083C50.0526 9.38405 51.6045 10.0318 52.8878 11.3341ZM52.3335 17.571L50.1366 17.0521C49.9854 17.7745 49.7334 18.2934 49.3908 18.619C49.0801 18.9309 48.66 19.1064 48.2218 19.1074C47.5365 19.1074 47.0024 18.792 46.6194 18.1611C46.3675 17.7236 46.2365 16.9707 46.2365 15.9533C46.2365 14.9359 46.4179 14.1728 46.8008 13.7048C47.1838 13.2367 47.6474 12.9926 48.2016 12.9926C48.6493 12.9796 49.0863 13.1315 49.4311 13.4199C49.7738 13.7048 50.0055 14.1321 50.1366 14.7222L52.2428 14.3966C52.0671 13.5413 51.591 12.7788 50.9025 12.2498C50.197 11.6902 49.3303 11.4155 48.3024 11.4155C47.0225 11.4155 45.9644 11.853 45.1178 12.7179C44.2713 13.5827 43.8481 14.6103 43.8481 16.0144C43.8481 17.4184 44.2612 18.5376 45.0876 19.3922C45.914 20.2469 47.0931 20.6742 48.2923 20.6742C49.4916 20.6742 50.4691 20.3079 51.2149 19.5856C51.6852 19.1175 52.058 18.446 52.3335 17.571Z" fill="white"/>
</svg>
