<svg width="60" height="60" viewBox="0 0 60 60" fill="none" xmlns="http://www.w3.org/2000/svg">
<path d="M33.6626 28.6017L33.6628 28.6018C35.6816 29.0772 37.1271 29.7115 38.0436 30.4319C39.4751 31.5621 40.2406 33.2149 40.249 35.4842H40.249L40.2492 35.4958C40.2657 36.5732 40.0384 37.6404 39.5844 38.6176C39.1303 39.5947 38.4612 40.4566 37.6271 41.1387L37.6188 41.1455L37.6106 41.1525C36.3881 42.1969 34.779 42.9068 32.7439 43.2324L31.9019 43.3671V44.2199V44.9173C31.9019 45.4778 31.6793 46.0154 31.2829 46.4117C30.8866 46.808 30.349 47.0307 29.7885 47.0307C29.228 47.0307 28.6904 46.808 28.2941 46.4117C27.8977 46.0153 27.6751 45.4778 27.6751 44.9173V44.1514V43.2942L26.828 43.1631C25.1229 42.8993 23.5098 42.2171 22.1329 41.1776C21.2776 40.5152 20.5831 39.6681 20.1013 38.6996L20.1013 38.6995L20.0988 38.6947C19.9602 38.4198 19.8788 38.1197 19.8596 37.8125C19.8403 37.5053 19.8836 37.1974 19.9868 36.9074C20.0899 36.6174 20.2509 36.3513 20.4599 36.1253C20.6689 35.8993 20.9216 35.7181 21.2026 35.5926C21.4837 35.467 21.7873 35.3999 22.0951 35.3951C22.4028 35.3903 22.7084 35.448 22.9932 35.5647C23.278 35.6815 23.5362 35.8548 23.7521 36.0742C23.9663 36.2918 24.1344 36.5502 24.2466 36.8341C24.397 37.2367 24.61 37.6132 24.8777 37.9495L24.8964 37.973L24.9164 37.9953C25.535 38.6833 26.3445 39.1714 27.2415 39.3974C28.083 39.6191 28.9507 39.725 29.8208 39.7123C30.6631 39.7228 31.5042 39.6466 32.331 39.4851L32.331 39.4851L32.3435 39.4825C32.6111 39.4267 32.8752 39.3549 33.1342 39.2675L33.1342 39.2676L33.1452 39.2638C33.908 38.9967 34.5716 38.6016 35.0403 38.0057C35.5165 37.4003 35.7178 36.6817 35.7202 35.9086C35.7315 35.4305 35.611 34.9585 35.3716 34.5443C35.1308 34.1275 34.7791 33.7856 34.3558 33.5567C33.7273 33.2095 33.0599 32.9382 32.3675 32.7483C31.8664 32.5953 31.2966 32.4561 30.6697 32.3182C30.6697 32.3182 30.6696 32.3182 30.6696 32.3182L27.844 31.6965L27.3891 31.592C27.3888 31.5919 27.3885 31.5919 27.3882 31.5918C24.7657 30.9856 23.127 30.3648 22.2384 29.7488L22.2337 29.7456C20.622 28.6417 19.7514 26.904 19.7514 24.3905V24.3812L19.7512 24.372C19.7319 23.3258 19.9421 22.2881 20.3669 21.3318C20.7917 20.3755 21.4208 19.5239 22.2101 18.8369L22.216 18.8317L22.2219 18.8264C23.3413 17.8203 24.8726 17.125 26.8426 16.803L27.6813 16.6659V15.8161V15.1124C27.6813 14.5519 27.904 14.0144 28.3003 13.618L27.5999 12.9177L28.3003 13.618C28.6967 13.2217 29.2342 12.999 29.7947 12.999C30.3552 12.999 30.8928 13.2217 31.2891 13.618C31.6855 14.0144 31.9082 14.5519 31.9082 15.1124V15.978V16.7671L32.6756 16.9506C34.0473 17.2785 35.3391 17.879 36.4741 18.7162L36.4761 18.7177C37.4132 19.4052 38.1615 20.3182 38.6518 21.372L38.6528 21.3741C38.8042 21.6975 38.8712 22.0539 38.8475 22.4102C38.8239 22.7665 38.7103 23.1109 38.5175 23.4115L38.5175 23.4115L38.514 23.417C38.3193 23.7248 38.0498 23.9783 37.7307 24.1539C37.4115 24.3295 37.0531 24.4214 36.6889 24.421H36.6879H36.5021C36.0756 24.4142 35.66 24.2846 35.3051 24.0476C34.9486 23.8096 34.6687 23.4734 34.4991 23.0796L34.4957 23.0716L34.4921 23.0637C34.1019 22.1994 33.4166 21.5024 32.5593 21.0977L32.4258 21.0325L32.3977 21.0187L32.3687 21.0067C31.3514 20.5861 30.2571 20.3841 29.1568 20.4139C28.5077 20.4079 27.86 20.4753 27.226 20.6149L27.2259 20.6149C26.629 20.7464 26.0593 20.98 25.5421 21.3055C25.0756 21.5848 24.6922 21.984 24.432 22.4616C24.1755 22.9323 24.0479 23.4622 24.0618 23.9976C24.0488 24.5003 24.1812 24.9963 24.4437 25.4258C24.7103 25.8623 25.0993 26.2106 25.5621 26.4277C26.0868 26.6889 26.6375 26.8939 27.2052 27.0396C27.7251 27.1909 28.3392 27.3495 29.0812 27.5218C29.0818 27.5219 29.0824 27.522 29.083 27.5222L33.6626 28.6017Z" stroke="#0066B9" stroke-width="2"/>
<path d="M30 50C41.0457 50 50 41.0457 50 30C50 18.9543 41.0457 10 30 10C18.9543 10 10 18.9543 10 30C10 41.0457 18.9543 50 30 50Z" stroke="#0066B9" stroke-width="2" stroke-linecap="round" stroke-linejoin="round"/>
</svg>
