<svg width="60" height="60" viewBox="0 0 60 60" fill="none" xmlns="http://www.w3.org/2000/svg">
<path d="M35.3302 30.323L35.3305 30.323C37.5794 30.8526 39.2014 31.5617 40.2365 32.3753C41.8567 33.6544 42.7175 35.5235 42.727 38.0702H42.7269L42.7271 38.0818C42.7457 39.2945 42.4899 40.4956 41.9788 41.5955C41.4678 42.6953 40.7147 43.6654 39.7758 44.4331L39.7675 44.4399L39.7594 44.4469C38.3839 45.6219 36.5777 46.4169 34.3026 46.7809L33.4605 46.9156V47.7684V48.5426C33.4605 49.194 33.2018 49.8188 32.7411 50.2795C32.2805 50.7401 31.6557 50.9989 31.0042 50.9989C30.3528 50.9989 29.728 50.7401 29.2673 50.2795C28.8067 49.8188 28.5479 49.194 28.5479 48.5426V47.6923V46.8352L27.7008 46.7041C25.7897 46.4084 23.9817 45.6437 22.4384 44.4784C21.4757 43.7329 20.6939 42.7794 20.1515 41.6891L20.1515 41.6891L20.149 41.6843C19.9885 41.3659 19.8942 41.0182 19.8718 40.6623C19.8495 40.3063 19.8997 39.9496 20.0192 39.6136C20.1387 39.2776 20.3252 38.9694 20.5673 38.7076C20.8095 38.4457 21.1022 38.2358 21.4278 38.0903L21.032 37.204L21.4278 38.0903C21.7534 37.9449 22.1052 37.8671 22.4618 37.8615C22.8183 37.856 23.1723 37.9229 23.5023 38.0581C23.8323 38.1933 24.1314 38.3941 24.3816 38.6483C24.6299 38.9006 24.8249 39.2004 24.9548 39.5297C25.1177 39.9662 25.3485 40.3743 25.6387 40.7388L25.6574 40.7623L25.6775 40.7846C26.3496 41.5323 27.2292 42.0626 28.2041 42.308C29.1292 42.5519 30.0833 42.6683 31.04 42.6542C31.9679 42.6659 32.8947 42.582 33.8056 42.404L33.8056 42.4041L33.8181 42.4015C34.1109 42.3403 34.3998 42.2618 34.6832 42.1662L34.6832 42.1663L34.6942 42.1625C35.5285 41.8704 36.2446 41.4416 36.7479 40.8017C37.2587 40.1523 37.4766 39.3794 37.479 38.5402C37.4914 38.0294 37.3626 37.5249 37.1069 37.0823C36.8496 36.637 36.4739 36.2719 36.0216 36.0274C35.331 35.6459 34.5976 35.3477 33.8367 35.1392C33.2841 34.9704 32.6543 34.8165 31.9588 34.6635C31.9588 34.6635 31.9587 34.6635 31.9587 34.6635L28.8214 33.9732L28.3157 33.857C28.3155 33.857 28.3152 33.8569 28.315 33.8569C25.4016 33.1835 23.5647 32.4906 22.5598 31.794L22.5552 31.7908C20.7302 30.5409 19.7515 28.5741 19.7515 25.7551V25.7458L19.7514 25.7366C19.7297 24.5591 19.9662 23.3911 20.4443 22.3148C20.9224 21.2386 21.6305 20.2801 22.5188 19.5068L22.5248 19.5016L22.5307 19.4963C23.7924 18.3623 25.5133 17.5834 27.7161 17.2232L28.5548 17.0861V16.2363V15.4552C28.5548 14.8038 28.8136 14.179 29.2743 13.7183C29.7349 13.2577 30.3597 12.9989 31.0111 12.9989C31.6626 12.9989 32.2874 13.2577 32.748 13.7183C33.2087 14.179 33.4675 14.8038 33.4675 15.4552V16.4161V17.2052L34.2349 17.3887C35.7721 17.7562 37.2196 18.429 38.4915 19.3672L38.4935 19.3687C39.5487 20.143 40.3914 21.171 40.9435 22.3577L40.9445 22.3598C41.1205 22.7357 41.1983 23.1499 41.1708 23.564C41.1433 23.9781 41.0114 24.3784 40.7873 24.7277L40.7873 24.7277L40.7838 24.7332C40.5577 25.0907 40.2448 25.3851 39.8742 25.5889C39.5036 25.7928 39.0874 25.8995 38.6644 25.8991H38.6634H38.4563C37.9613 25.8914 37.479 25.741 37.0672 25.4661C36.6538 25.19 36.3291 24.8001 36.1325 24.3434L36.129 24.3354L36.1255 24.3274C35.703 23.3916 34.9609 22.637 34.0325 22.199L33.8836 22.1262L33.8555 22.1124L33.8265 22.1005C32.7109 21.6391 31.5107 21.4177 30.304 21.4507C29.591 21.4439 28.8795 21.5179 28.1832 21.6712L28.183 21.6712C27.5324 21.8145 26.9115 22.0693 26.3478 22.4242C25.8462 22.7242 25.4341 23.1531 25.1544 23.6665C24.8785 24.1728 24.7415 24.743 24.757 25.319C24.7425 25.8567 24.884 26.3875 25.1647 26.847C25.4497 27.3135 25.8655 27.6857 26.3602 27.9175C26.9367 28.2045 27.5418 28.4298 28.1655 28.5897C28.7407 28.7571 29.4209 28.9329 30.2442 29.124C30.2447 29.1241 30.2453 29.1243 30.2459 29.1244L35.3302 30.323Z" stroke="#0066B9" stroke-width="2"/>
</svg>
