<svg width="42" height="42" viewBox="0 0 42 42" fill="none" xmlns="http://www.w3.org/2000/svg">
<path d="M24.6626 19.6015L24.6628 19.6016C26.6816 20.0769 28.1271 20.7113 29.0436 21.4317C30.4751 22.5619 31.2406 24.2147 31.249 26.4839H31.249L31.2492 26.4956C31.2657 27.573 31.0384 28.6401 30.5844 29.6173C30.1303 30.5945 29.4612 31.4563 28.6271 32.1385L28.6188 32.1453L28.6106 32.1522C27.3881 33.1966 25.779 33.9066 23.7439 34.2322L22.9019 34.3669V35.2196V35.917C22.9019 36.4775 22.6793 37.0151 22.2829 37.4114C21.8866 37.8078 21.349 38.0305 20.7885 38.0305C20.228 38.0305 19.6904 37.8078 19.2941 37.4114C18.8977 37.0151 18.6751 36.4775 18.6751 35.917V35.1511V34.294L17.828 34.1629C16.1229 33.8991 14.5098 33.2169 13.1329 32.1773C12.2776 31.515 11.5831 30.6679 11.1013 29.6993L11.1013 29.6993L11.0988 29.6944C10.9602 29.4196 10.8788 29.1195 10.8596 28.8123C10.8403 28.5051 10.8836 28.1971 10.9868 27.9071C11.0899 27.6171 11.2509 27.3511 11.4599 27.1251C11.6689 26.8991 11.9216 26.7178 12.2026 26.5923C12.4837 26.4668 12.7873 26.3996 13.0951 26.3948C13.4028 26.39 13.7084 26.4478 13.9932 26.5645C14.278 26.6812 14.5362 26.8545 14.7521 27.0739C14.9663 27.2915 15.1344 27.55 15.2466 27.8339C15.397 28.2365 15.61 28.6129 15.8777 28.9493L15.8964 28.9727L15.9164 28.995C16.535 29.6831 17.3445 30.1712 18.2415 30.3971C19.083 30.6188 19.9507 30.7248 20.8208 30.7121C21.6631 30.7225 22.5042 30.6464 23.331 30.4848L23.331 30.4849L23.3435 30.4823C23.6111 30.4264 23.8752 30.3546 24.1342 30.2673L24.1342 30.2674L24.1452 30.2635C24.908 29.9965 25.5716 29.6014 26.0403 29.0054C26.5165 28.4 26.7178 27.6814 26.7202 26.9083C26.7315 26.4303 26.611 25.9582 26.3716 25.544C26.1308 25.1272 25.7791 24.7854 25.3558 24.5565C24.7273 24.2093 24.0599 23.9379 23.3675 23.748C22.8664 23.5951 22.2966 23.4559 21.6697 23.318C21.6697 23.318 21.6696 23.318 21.6696 23.318L18.844 22.6963L18.3891 22.5918C18.3888 22.5917 18.3885 22.5916 18.3882 22.5915C15.7657 21.9854 14.127 21.3646 13.2384 20.7485L13.2337 20.7453C11.622 19.6415 10.7514 17.9038 10.7514 15.3902V15.381L10.7512 15.3718C10.7319 14.3256 10.9421 13.2878 11.3669 12.3316C11.7917 11.3753 12.4208 10.5237 13.2101 9.83667L13.216 9.83146L13.2219 9.82615C14.3413 8.82006 15.8726 8.12479 17.8426 7.80274L18.6813 7.66564V6.81584V6.11221C18.6813 5.55169 18.904 5.01413 19.3003 4.61779L18.5999 3.91741L19.3003 4.61779C19.6967 4.22144 20.2342 3.99878 20.7947 3.99878C21.3552 3.99878 21.8928 4.22144 22.2891 4.61779C22.6855 5.01413 22.9082 5.5517 22.9082 6.11221V6.97774V7.76684L23.6756 7.95033C25.0473 8.27828 26.3391 8.87871 27.4741 9.71593L27.4761 9.71741C28.4132 10.405 29.1615 11.3179 29.6518 12.3717L29.6528 12.3739C29.8042 12.6972 29.8712 13.0537 29.8475 13.41C29.8239 13.7662 29.7103 14.1107 29.5175 14.4112L29.5175 14.4112L29.514 14.4167C29.3193 14.7246 29.0498 14.9781 28.7307 15.1537C28.4115 15.3292 28.0531 15.4211 27.6889 15.4208H27.6879H27.5021C27.0756 15.4139 26.66 15.2843 26.3051 15.0474C25.9486 14.8093 25.6687 14.4731 25.4991 14.0794L25.4957 14.0714L25.4921 14.0634C25.1019 13.1991 24.4166 12.5022 23.5593 12.0975L23.4258 12.0322L23.3977 12.0185L23.3687 12.0065C22.3514 11.5858 21.2571 11.3839 20.1568 11.4136C19.5077 11.4076 18.86 11.4751 18.226 11.6146L18.2259 11.6147C17.629 11.7461 17.0593 11.9798 16.5421 12.3053C16.0756 12.5846 15.6922 12.9837 15.432 13.4614C15.1755 13.9321 15.0479 14.462 15.0618 14.9974C15.0488 15.5 15.1812 15.996 15.4437 16.4256C15.7103 16.862 16.0993 17.2104 16.5621 17.4275C17.0868 17.6886 17.6375 17.8937 18.2052 18.0393C18.7251 18.1907 19.3392 18.3493 20.0812 18.5215C20.0818 18.5217 20.0824 18.5218 20.083 18.5219L24.6626 19.6015Z" stroke="#0066B9" stroke-width="2"/>
<path d="M21 41C32.0457 41 41 32.0457 41 21C41 9.9543 32.0457 1 21 1C9.9543 1 1 9.9543 1 21C1 32.0457 9.9543 41 21 41Z" stroke="#0066B9" stroke-width="2" stroke-linecap="round" stroke-linejoin="round"/>
</svg>
