<svg width="29" height="34" viewBox="0 0 29 34" fill="none" xmlns="http://www.w3.org/2000/svg">
<path d="M16.2498 15.9719L16.2495 15.9715C16.0467 15.7696 15.8056 15.6092 15.54 15.4996C15.2743 15.3901 14.9894 15.3336 14.7015 15.3336C14.4137 15.3336 14.1287 15.3901 13.8631 15.4996C13.5974 15.6092 13.3564 15.7696 13.1536 15.9715L13.1534 15.9717L12.3721 16.7491L11.6668 17.4511L10.9614 16.7491L10.1802 15.9717L10.1801 15.9716C9.97713 15.7696 9.73595 15.6091 9.47015 15.4995C9.20434 15.39 8.91928 15.3335 8.63127 15.3335C8.34327 15.3335 8.05821 15.39 7.7924 15.4995C7.52677 15.6091 7.28571 15.7694 7.08287 15.9712L16.2498 15.9719ZM16.2498 15.9719C16.4527 16.1737 16.6134 16.413 16.723 16.6761C16.8325 16.9392 16.8888 17.221 16.8888 17.5054C16.8888 17.7899 16.8325 18.0717 16.723 18.3347C16.6134 18.5978 16.4527 18.8371 16.2498 19.0389L16.2496 19.0392L11.6786 23.5892M16.2498 15.9719L11.6786 23.5892M11.6786 23.5892L11.6668 23.5773L11.6548 23.5893L7.08287 19.0396C7.08278 19.0395 7.0827 19.0394 7.08262 19.0393C6.67341 18.6315 6.44446 18.0797 6.44446 17.5054C6.44446 16.9312 6.67336 16.3795 7.08249 15.9716L11.6786 23.5892Z" stroke="#0066B9" stroke-width="2"/>
<path d="M19.1616 6.3335H4.17159C2.41997 6.3335 1 7.74281 1 9.48128V29.8522C1 31.5907 2.41997 33 4.17159 33H19.1616C20.9132 33 22.3332 31.5907 22.3332 29.8522V9.48128C22.3332 7.74281 20.9132 6.3335 19.1616 6.3335Z" stroke="#0066B9" stroke-width="2" stroke-linecap="round" stroke-linejoin="round"/>
<path d="M22.5365 29.4014L23.2011 29.4394C24.0366 29.4865 24.8562 29.1896 25.4799 28.6137C26.1036 28.0378 26.4806 27.2301 26.5281 26.3676L27.6617 5.30397C27.7074 4.44128 27.4198 3.59511 26.8619 2.951C26.3041 2.30689 25.5216 1.91741 24.6861 1.86796L9.77086 1.00494C8.93521 0.957439 8.11546 1.25426 7.49164 1.83021C6.86782 2.40616 6.49095 3.21414 6.44378 4.07672L6.33325 6.14067" stroke="#0066B9" stroke-width="2" stroke-linecap="round" stroke-linejoin="round"/>
</svg>
