<svg width="60" height="60" viewBox="0 0 60 60" fill="none" xmlns="http://www.w3.org/2000/svg">
<path d="M32.9886 28.5372L32.9882 28.5369C32.7114 28.2613 32.3826 28.0424 32.0202 27.893C31.6579 27.7436 31.2694 27.6667 30.8769 27.6667C30.4844 27.6667 30.0958 27.7436 29.7335 27.893C29.3712 28.0424 29.0423 28.2613 28.7656 28.5369L28.7654 28.5371L27.7888 29.5088L27.0834 30.2108L26.3781 29.5088L25.4015 28.5371L25.4014 28.537C25.1245 28.2613 24.7954 28.0424 24.4329 27.8929C24.0704 27.7435 23.6817 27.6665 23.2891 27.6665C22.8964 27.6665 22.5077 27.7435 22.1452 27.8929C21.7828 28.0423 21.4539 28.2611 21.1771 28.5366L32.9886 28.5372ZM32.9886 28.5372C33.2655 28.8127 33.4849 29.1394 33.6345 29.4987C33.7841 29.8579 33.861 30.2428 33.861 30.6314C33.861 31.02 33.7841 31.4049 33.6345 31.7642C33.4849 32.1234 33.2655 32.4502 32.9886 32.7256L32.9883 32.7259L27.0983 38.5888M32.9886 28.5372L27.0983 38.5888M27.0983 38.5888L27.0834 38.574L27.0685 38.5889L21.1771 32.7262C21.1771 32.7262 21.177 32.7262 21.177 32.7261C20.6184 32.1695 20.3055 31.416 20.3055 30.6314C20.3055 29.847 20.6183 29.0936 21.1767 28.537L27.0983 38.5888Z" stroke="#0066B9" stroke-width="2"/>
<path d="M36.452 16.667H17.7145C15.525 16.667 13.75 18.4286 13.75 20.6017V46.0654C13.75 48.2385 15.525 50.0001 17.7145 50.0001H36.452C38.6415 50.0001 40.4165 48.2385 40.4165 46.0654V20.6017C40.4165 18.4286 38.6415 16.667 36.452 16.667Z" stroke="#0066B9" stroke-width="2" stroke-linecap="round" stroke-linejoin="round"/>
<path d="M40.6706 45.5017L41.5013 45.5493C42.5457 45.6082 43.5701 45.237 44.3498 44.5171C45.1295 43.7973 45.6007 42.7876 45.6601 41.7095L47.0771 15.38C47.1342 14.3016 46.7746 13.2439 46.0774 12.4387C45.3801 11.6336 44.402 11.1468 43.3575 11.0849L24.7135 10.0062C23.669 9.9468 22.6443 10.3178 21.8645 11.0378C21.0847 11.7577 20.6136 12.7677 20.5547 13.8459L20.4165 16.4258" stroke="#0066B9" stroke-width="2" stroke-linecap="round" stroke-linejoin="round"/>
</svg>
