<svg width="80" height="80" viewBox="0 0 80 80" fill="none" xmlns="http://www.w3.org/2000/svg">
<circle cx="40" cy="40" r="40" fill="black"/>
<g clip-path="url(#clip0_386_3038)">
<path d="M25.5736 31.5988L25.3976 28.5784L25.2216 31.5988L22.4937 30.2418L25.0456 31.9052L22.4937 33.5905L25.2216 32.2116L25.3976 35.2539L25.5736 32.2116L28.3016 33.5905L25.7496 31.9052L28.3016 30.2418L25.5736 31.5988Z" fill="#0099FF"/>
<path d="M55.846 33.8314L56.066 37.4865L56.286 33.8314L59.652 35.4729L56.484 33.4812L59.652 31.4676L56.286 33.1091L56.066 29.4758L55.846 33.1091L52.48 31.4676L55.626 33.4812L52.48 35.4729L55.846 33.8314Z" fill="#0099FF"/>
<path d="M34.924 19.0136L34.814 17L34.682 19.0136L32.79 18.1162L34.572 19.2325L32.79 20.3487L34.682 19.4295L34.814 21.465L34.924 19.4295L36.816 20.3487L35.056 19.2325L36.816 18.1162L34.924 19.0136Z" fill="#0099FF"/>
<path d="M3.442 40.704L4.366 38.8217L3.244 40.5726L2.122 38.8217L3.046 40.704L1 40.8134L3.046 40.9447L2.122 42.827L3.244 41.076L4.366 42.827L3.442 40.9447L5.488 40.8134L3.442 40.704Z" fill="#0099FF"/>
<path d="M78.0001 49.7212L76.1081 50.6405L75.9981 48.605L75.8661 50.6405L73.9741 49.7212L75.7561 50.8375L73.9741 51.9537L75.8661 51.0564L75.9981 53.07L76.1081 51.0564L78.0001 51.9537L76.2401 50.8375L78.0001 49.7212Z" fill="#0099FF"/>
<path d="M58.3321 56.9222L59.542 54.4052L58.0681 56.7471L56.6161 54.4052L57.8041 56.9222L55.1641 57.0754L57.8041 57.2505L56.6161 59.7456L58.0681 57.4037L59.542 59.7456L58.3321 57.2505L60.994 57.0754L58.3321 56.9222Z" fill="#0099FF"/>
<path d="M24.6277 59.5484L24.5177 57.5129L24.3857 59.5484L22.4937 58.6292L24.2757 59.7454L22.4937 60.8617L24.3857 59.9643L24.5177 61.9779L24.6277 59.9643L26.5197 60.8617L24.7597 59.7454L26.5197 58.6292L24.6277 59.5484Z" fill="#0099FF"/>
<path d="M36.3325 34.9038L37.2565 35.8231C37.9605 35.9763 38.7745 35.9763 39.6985 35.8012C40.6225 35.6261 41.5685 35.2978 42.4925 34.8381L41.6345 33.9626C40.7105 34.4223 39.7645 34.7506 38.8405 34.9257C37.8945 35.0789 37.0585 35.057 36.3325 34.9038Z" fill="#33FFFF"/>
<path d="M34.2639 33.6124L35.3419 32.3211C35.7819 32.8026 36.3759 33.109 37.1019 33.2404L36.0459 34.5098C36.7279 34.6411 37.5199 34.6411 38.3999 34.466C39.3239 34.2909 40.2479 33.9626 41.1719 33.503L40.9519 32.5181C41.8979 32.0803 42.7999 31.4675 43.6579 30.7671L43.8779 31.752C45.5939 30.3731 47.0899 28.6003 48.0579 26.718L46.8039 26.9587C47.0459 26.521 47.2439 26.0614 47.3979 25.6017C47.5519 25.1421 47.6619 24.7044 47.7279 24.2885L49.0039 24.0478C49.3559 22.253 49.0259 20.7866 48.1019 19.8673L47.0019 21.2024C46.5619 20.7209 45.9679 20.4145 45.2419 20.2832L46.3639 18.9262C45.6599 18.7729 44.8239 18.7729 43.8999 18.948C42.9759 19.1231 42.0519 19.4514 41.1279 19.9111L41.3919 21.0273C40.4459 21.4651 39.5439 22.0779 38.6859 22.7783L38.4219 21.6839C36.6619 23.1066 35.1219 24.9232 34.1759 26.8493L35.5399 26.5867C35.2979 27.0244 35.0999 27.484 34.9239 27.9437C34.7699 28.4033 34.6599 28.841 34.5939 29.2569L33.2519 29.5195C32.9219 31.2486 33.3179 32.6932 34.2639 33.6124C34.2419 33.5905 34.2419 33.5905 34.2639 33.6124ZM35.5839 27.7905C36.7059 24.5949 40.1379 21.5307 43.2179 20.9617C46.3199 20.3707 47.9039 22.4938 46.7819 25.6893C45.6599 28.8848 42.2279 31.949 39.1479 32.5181C36.0459 33.109 34.4619 30.986 35.5839 27.7905Z" fill="#33FFFF"/>
<path d="M29.9963 51.0786C29.9303 50.9691 29.8863 50.8159 29.8423 50.6189C29.7983 50.4219 29.7543 50.1593 29.7323 49.8529C29.7103 49.5465 29.6883 49.1306 29.6663 48.6491C29.6443 48.3208 29.6443 47.9706 29.6003 47.6204C29.5783 47.2702 29.5123 46.9419 29.4023 46.6136C29.2923 46.3072 29.1383 46.0226 28.9183 45.76C28.6983 45.5192 28.4123 45.3222 28.0383 45.1909C28.7643 44.8626 29.2923 44.4686 29.6223 43.9871C29.9523 43.5275 30.1063 42.8928 30.1063 42.083C30.1063 40.901 29.7323 40.0693 28.9843 39.544C28.2363 39.0188 27.1583 38.7561 25.7503 38.7561H20.7783V51.4288L21.9883 51.4506V45.6943H25.7943C26.0803 45.6943 26.3663 45.7162 26.6523 45.7381C26.9383 45.7819 27.1803 45.8475 27.4003 45.957C27.6203 46.0664 27.8183 46.2196 27.9723 46.4166C28.1263 46.6136 28.2583 46.8981 28.3243 47.2264C28.3683 47.4672 28.4123 47.7955 28.4123 48.1676C28.4343 48.5615 28.4563 48.9555 28.4783 49.3714C28.5003 49.7872 28.5443 50.1812 28.6103 50.5533C28.6543 50.9253 28.7643 51.2318 28.8963 51.4288L30.2383 51.4069V51.2974C30.1283 51.2755 30.0623 51.188 29.9963 51.0786ZM27.0043 44.5343C26.6303 44.6219 26.2123 44.6656 25.7503 44.6656H21.9883V39.7848H25.8163C26.2123 39.7848 26.6083 39.8286 26.9823 39.8942C27.3563 39.9599 27.6863 40.0912 27.9723 40.2663C28.2583 40.4414 28.5003 40.6822 28.6543 40.9886C28.8303 41.295 28.9183 41.689 28.9183 42.1486C28.9183 42.5864 28.8303 42.9803 28.6763 43.2867C28.5003 43.5932 28.2803 43.8558 27.9943 44.0747C27.7083 44.2717 27.3783 44.4249 27.0043 44.5343Z" fill="#33FFFF"/>
<path d="M19.9641 42.2359C19.8101 41.7544 19.5901 41.2947 19.3261 40.8351C19.0621 40.3974 18.7101 40.0253 18.2701 39.7189C17.9841 39.5 17.6761 39.3468 17.3461 39.2155C17.0381 39.0841 16.7081 38.9966 16.3781 38.9309C16.0481 38.8653 15.7181 38.8215 15.3661 38.7996C15.0141 38.7777 14.6841 38.7777 14.3101 38.7777H9.93213V51.4723H14.3101C14.7281 51.4723 15.1461 51.4504 15.5641 51.4066C15.9821 51.3628 16.3781 51.2972 16.7521 51.1877C17.1261 51.0783 17.5001 50.9251 17.8521 50.7281C18.2041 50.5311 18.5341 50.2685 18.8201 49.9402C19.1061 49.6337 19.3701 49.2835 19.5461 48.8896C19.7441 48.5175 19.8981 48.1016 20.0081 47.6858C20.1181 47.2699 20.2061 46.8541 20.2721 46.4163C20.3161 45.9786 20.3601 45.5627 20.3601 45.125C20.3601 44.7091 20.3381 44.2495 20.2721 43.7461C20.2281 43.1989 20.1181 42.7174 19.9641 42.2359ZM19.0841 46.4382C19.0181 46.8978 18.9081 47.3575 18.7541 47.7952C18.6001 48.233 18.3801 48.6269 18.1161 48.9771C17.8521 49.3492 17.5001 49.6337 17.0601 49.8307C16.5541 50.0934 16.0701 50.2466 15.5861 50.3122C15.1021 50.3779 14.5961 50.3998 14.0461 50.3998H11.1421V39.7626H14.0461C14.5741 39.7626 15.1021 39.7845 15.6301 39.8502C16.1581 39.9158 16.5981 40.0472 16.9721 40.2442C17.4121 40.4849 17.7861 40.7694 18.0721 41.1415C18.3581 41.4917 18.5781 41.8857 18.7541 42.3234C18.9301 42.7612 19.0401 43.1989 19.0841 43.6804C19.1501 44.1619 19.1721 44.6216 19.1721 45.0812C19.1721 45.5189 19.1501 45.9786 19.0841 46.4382Z" fill="#33FFFF"/>
<path d="M42.5578 24.6826C42.2498 24.6607 41.9638 24.8139 41.6998 25.1203C41.4578 25.4049 41.4138 25.6675 41.5458 25.8864L42.5578 24.6826Z" fill="#33FFFF"/>
<path d="M49.5543 24.2887L50.4343 25.1641C50.7643 23.3913 50.4123 21.9467 49.4883 21.0494L48.7183 20.2177C49.5323 21.0931 49.8843 22.5158 49.5543 24.2887Z" fill="#33FFFF"/>
<path d="M33.4502 57.2505C33.2302 57.4475 32.9442 57.535 32.5922 57.535C32.3502 57.535 32.1302 57.4912 31.9542 57.3818C31.7782 57.2724 31.6242 57.1411 31.5142 56.9878C31.4042 56.8127 31.3162 56.6376 31.2722 56.4188C31.2282 56.2218 31.2062 56.0029 31.2062 55.7841C31.2062 55.5652 31.2282 55.3682 31.2942 55.1493C31.3382 54.9304 31.4262 54.7554 31.5362 54.5803C31.6462 54.4052 31.8002 54.2738 31.9762 54.1863C32.1522 54.0769 32.3722 54.0331 32.6142 54.0331C32.9442 54.0331 33.2082 54.1206 33.4062 54.2957C33.6262 54.4708 33.7582 54.7116 33.8462 55.018H34.3302C34.2642 54.5365 34.0662 54.1863 33.7802 53.9455C33.4722 53.7267 33.0982 53.5953 32.6142 53.5953C32.3062 53.5953 32.0202 53.661 31.7782 53.7704C31.5362 53.8799 31.3382 54.055 31.1842 54.252C31.0302 54.4489 30.8982 54.6897 30.8102 54.9523C30.7222 55.215 30.6782 55.4995 30.6782 55.7841C30.6782 56.0905 30.7222 56.375 30.7882 56.6376C30.8542 56.9003 30.9862 57.141 31.1402 57.338C31.2942 57.535 31.4922 57.6882 31.7342 57.7977C31.9762 57.9071 32.2622 57.9728 32.5922 57.9728C32.8562 57.9728 33.0982 57.929 33.2962 57.8633C33.4942 57.7977 33.6702 57.6882 33.8242 57.5569C33.9782 57.4256 34.0882 57.2505 34.1762 57.0754C34.2642 56.8784 34.3302 56.6814 34.3742 56.4407H33.8682C33.8022 56.769 33.6702 57.0535 33.4502 57.2505Z" fill="#33FFFF"/>
<path d="M40.3141 28.6001C40.4681 28.5126 40.6221 28.4031 40.7321 28.2499C40.8861 28.0529 40.9741 27.8997 40.9961 27.7465C41.0181 27.6152 40.9741 27.4839 40.9081 27.3525L39.7861 28.6877C39.9841 28.7314 40.1601 28.6877 40.3141 28.6001Z" fill="#33FFFF"/>
<path d="M39.5001 31.4674C42.0301 30.9859 44.8021 28.4908 45.7261 25.9081C46.6501 23.3035 45.3521 21.5744 42.8221 22.0559C40.2921 22.5375 37.5201 25.0326 36.5961 27.6153C35.6941 30.2198 36.9921 31.9489 39.5001 31.4674ZM38.0041 27.8123C38.1141 27.6153 38.2461 27.4402 38.4221 27.2432L38.5541 27.09L39.6101 27.484C39.5221 27.5934 39.4341 27.7028 39.3681 27.7904C39.3021 27.8998 39.2361 27.9874 39.1921 28.0749C39.1481 28.1625 39.1481 28.25 39.1481 28.3375C39.1481 28.4251 39.2141 28.4908 39.2801 28.5564L40.5781 27.0243L40.3141 26.7398C40.0501 26.4771 39.9401 26.1926 39.9841 25.8862C40.0281 25.5798 40.2041 25.2515 40.4901 24.9013C40.8861 24.4416 41.3261 24.1133 41.7881 23.9601C42.2501 23.8069 42.7341 23.785 43.2401 23.8945L43.6801 23.3692L44.1641 23.5443L43.7241 24.0696C43.9881 24.2009 44.1641 24.3322 44.2741 24.4854C44.3841 24.6386 44.4281 24.7918 44.4281 24.9669C44.4281 25.142 44.3841 25.3171 44.2741 25.4922C44.1861 25.6673 44.0541 25.8424 43.9221 25.9956L43.8341 26.1051L42.7781 25.7111C42.9321 25.5141 43.0421 25.339 43.1081 25.2077C43.1741 25.0545 43.1521 24.945 43.0421 24.8575L41.8321 26.2802L42.2281 26.7398C42.3161 26.8492 42.4041 26.9587 42.4481 27.0681C42.5141 27.1775 42.5361 27.3089 42.5141 27.4402C42.5141 27.5715 42.4701 27.7247 42.3821 27.8779C42.2941 28.0311 42.1841 28.2281 41.9861 28.447C41.5241 28.9942 41.0621 29.3444 40.6001 29.4757C40.1381 29.6289 39.6321 29.6289 39.1041 29.4757L38.5541 30.1323L38.0701 29.9572L38.6201 29.3006C38.3341 29.1693 38.1141 29.0161 37.9821 28.8628C37.8501 28.7096 37.8061 28.5345 37.8061 28.3594C37.8501 28.1843 37.8941 28.0092 38.0041 27.8123Z" fill="#33FFFF"/>
<path d="M44.2964 32.1896L45.1764 33.0651C46.9584 31.6206 48.5204 29.7821 49.4884 27.8341L48.6084 26.9586C47.6404 28.9066 46.0784 30.7451 44.2964 32.1896Z" fill="#33FFFF"/>
<path d="M42.9102 53.7264H42.4263V57.8631H42.9102V53.7264Z" fill="#33FFFF"/>
<path d="M46.6938 54.1863C46.5398 53.9674 46.3638 53.8142 46.1438 53.7267C45.9238 53.6391 45.6818 53.5953 45.4178 53.5953C45.1318 53.5953 44.8898 53.661 44.6698 53.7923C44.4718 53.9236 44.2738 54.0768 44.0758 54.2957V53.7267H43.5918V57.8633H44.0758V55.6308C44.0758 55.4776 44.0758 55.3463 44.0978 55.2369C44.0978 55.1055 44.1418 54.9961 44.1858 54.8429C44.2298 54.7335 44.2738 54.6459 44.3398 54.5365C44.4058 54.4489 44.4938 54.3614 44.6038 54.2738C44.7138 54.2082 44.8238 54.1425 44.9338 54.0987C45.0658 54.055 45.1978 54.0331 45.3518 54.0331C45.7478 54.0331 46.0118 54.1206 46.1878 54.3176C46.3638 54.5146 46.4298 54.7772 46.4298 55.1493V57.8414H46.9138V55.1274C46.9138 54.9523 46.9138 54.7991 46.8918 54.6459C46.8698 54.4927 46.8038 54.3395 46.6938 54.1863Z" fill="#33FFFF"/>
<path d="M55.8022 49.962H55.7582L51.5782 38.7777H49.7302V50.6843L45.1322 38.7777H43.7682L39.1482 50.4436H31.8662V45.4095H38.4442V44.3808H31.8662V39.8064H39.1702V38.7777H30.6782V51.4723H38.7522H39.3462H39.9842L41.5022 47.4888H47.3322L48.8062 51.4723H49.7522H50.0602H50.9622V40.1566H51.0062L55.2082 51.4723H56.3522L60.5322 40.1566H60.5762V51.4723H61.7862V38.7777H59.9602L55.8022 49.962ZM41.8982 46.4382L44.4062 39.7845L46.9142 46.4382H41.8982Z" fill="#33FFFF"/>
<path d="M50.72 54.2301C50.566 54.0331 50.368 53.8799 50.126 53.7704C49.884 53.661 49.598 53.5953 49.268 53.5953C48.938 53.5953 48.674 53.661 48.432 53.7704C48.19 53.8799 47.992 54.0331 47.838 54.2301C47.684 54.427 47.552 54.6678 47.486 54.9304C47.398 55.1931 47.376 55.4776 47.376 55.7841C47.376 56.1561 47.42 56.4626 47.53 56.7252C47.64 56.9878 47.772 57.2286 47.948 57.4037C48.124 57.5788 48.322 57.7101 48.564 57.8196C48.806 57.9071 49.048 57.9509 49.312 57.9728C49.598 57.9728 49.862 57.929 50.104 57.8196C50.346 57.7101 50.544 57.5569 50.72 57.3818C50.896 57.1848 51.028 56.966 51.116 56.7033C51.204 56.4407 51.248 56.1342 51.248 55.8059C51.248 55.4995 51.204 55.215 51.138 54.9523C51.006 54.6678 50.896 54.427 50.72 54.2301ZM50.61 56.4407C50.566 56.6595 50.478 56.8346 50.368 57.0097C50.258 57.1848 50.104 57.3162 49.928 57.4037C49.752 57.5131 49.532 57.5569 49.29 57.5569C49.048 57.5569 48.85 57.5131 48.674 57.4256C48.498 57.338 48.344 57.2286 48.234 57.0754C48.124 56.9222 48.036 56.7252 47.97 56.5282C47.904 56.3093 47.882 56.0686 47.882 55.8278C47.882 55.609 47.904 55.3901 47.97 55.1712C48.014 54.9523 48.102 54.7772 48.212 54.6021C48.322 54.4489 48.476 54.3176 48.652 54.2082C48.828 54.1206 49.048 54.055 49.29 54.055C49.554 54.055 49.774 54.0987 49.95 54.1863C50.126 54.2738 50.28 54.4052 50.39 54.5584C50.5 54.7116 50.588 54.9086 50.632 55.1055C50.676 55.3244 50.72 55.5433 50.72 55.7841C50.698 56.0029 50.654 56.2218 50.61 56.4407Z" fill="#33FFFF"/>
<path d="M70.982 46.5695C70.784 46.1536 70.498 45.8253 70.146 45.5845C69.794 45.3219 69.42 45.1249 68.958 44.9717C68.518 44.8185 68.056 44.6872 67.572 44.5777C67.088 44.4683 66.626 44.3589 66.186 44.2713C65.724 44.1619 65.306 44.0524 64.932 43.8773C64.558 43.7241 64.228 43.5053 63.964 43.2645C63.7 43.0238 63.546 42.6954 63.458 42.2796C63.392 41.9513 63.414 41.623 63.502 41.2947C63.59 40.9664 63.766 40.6599 64.008 40.3973C64.25 40.1346 64.58 39.9158 65.02 39.7407C65.438 39.5656 65.966 39.478 66.582 39.478C66.978 39.478 67.374 39.5218 67.748 39.6312C68.122 39.7407 68.474 39.8939 68.76 40.1347C69.046 40.3535 69.288 40.6381 69.464 40.9882C69.64 41.3384 69.728 41.7543 69.728 42.2358H70.872C70.872 41.7105 70.784 41.229 70.608 40.7694C70.432 40.3097 70.168 39.9158 69.816 39.5656C69.464 39.2154 69.024 38.9527 68.474 38.7558C67.946 38.5588 67.308 38.4493 66.582 38.4493C65.878 38.4493 65.24 38.5369 64.69 38.7339C64.14 38.9309 63.7 39.1716 63.326 39.4999C62.974 39.8063 62.688 40.1784 62.512 40.5943C62.336 41.0101 62.226 41.426 62.226 41.8637C62.226 42.4766 62.336 43.0019 62.556 43.3958C62.776 43.8117 63.084 44.14 63.436 44.3808C63.788 44.6434 64.206 44.8404 64.668 44.9936C65.13 45.1468 65.614 45.2781 66.098 45.3876C66.582 45.497 67.066 45.6064 67.528 45.7378C67.99 45.8472 68.408 46.0004 68.76 46.1974C69.112 46.3944 69.42 46.6351 69.64 46.9415C69.86 47.248 69.97 47.6419 69.97 48.1453C69.97 48.4955 69.904 48.8238 69.794 49.1521C69.662 49.4586 69.486 49.7431 69.222 49.9839C68.958 50.2246 68.628 50.4216 68.21 50.5529C67.792 50.6842 67.308 50.7718 66.736 50.7718C66.252 50.7718 65.79 50.7061 65.372 50.5967C64.954 50.4873 64.58 50.3122 64.25 50.0495C63.92 49.8088 63.656 49.4805 63.458 49.0865C63.26 48.6925 63.128 48.211 63.084 47.6419H61.918C61.918 48.3423 62.028 48.9333 62.27 49.4586C62.49 49.962 62.82 50.3997 63.238 50.7499C63.656 51.1001 64.14 51.3628 64.712 51.516C65.284 51.6911 65.9 51.7786 66.56 51.7786C68.034 51.7786 69.178 51.4503 70.014 50.8156C70.828 50.159 71.246 49.2616 71.246 48.0797C71.29 47.4668 71.18 46.9634 70.982 46.5695Z" fill="#33FFFF"/>
<path d="M38.1801 57.5132C38.1141 57.4695 38.0701 57.3381 38.0701 57.163V54.9087C38.0701 54.6679 38.0261 54.4709 37.9601 54.2958C37.8721 54.1207 37.7841 53.9894 37.6301 53.9018C37.4982 53.7924 37.3221 53.7267 37.1461 53.683C36.9701 53.6392 36.7722 53.6173 36.5522 53.6173C36.3322 53.6173 36.1121 53.6392 35.9141 53.683C35.7161 53.7267 35.5402 53.8143 35.3862 53.9237C35.2322 54.0332 35.1002 54.1645 35.0122 54.3396C34.9242 54.5147 34.8582 54.7117 34.8362 54.9743H35.3202C35.3422 54.7992 35.3862 54.646 35.4522 54.5147C35.5182 54.4052 35.6062 54.2958 35.7162 54.2302C35.8262 54.1645 35.9362 54.0988 36.0902 54.0769C36.2222 54.0551 36.3762 54.0332 36.5522 54.0332C36.9262 54.0332 37.1901 54.1207 37.3441 54.2739C37.4981 54.4271 37.5861 54.6241 37.5861 54.8868C37.5861 54.9524 37.5861 55.04 37.5641 55.1275C37.5421 55.2151 37.4982 55.2807 37.4102 55.3245C37.3222 55.3683 37.2342 55.3902 37.1022 55.4121C36.9702 55.4339 36.8602 55.4558 36.7722 55.4558L36.1122 55.5434C35.1442 55.6747 34.6602 56.0906 34.6602 56.791C34.6602 56.9879 34.7042 57.163 34.7702 57.3163C34.8362 57.4695 34.9462 57.5789 35.0782 57.6883C35.2102 57.7978 35.3642 57.8634 35.5182 57.9072C35.6942 57.951 35.8702 57.9729 36.0462 57.9729C36.3541 57.9729 36.6401 57.9072 36.9041 57.7978C37.1681 57.6883 37.4101 57.5132 37.6081 57.2944C37.6081 57.36 37.6081 57.4476 37.6301 57.5132C37.6301 57.5789 37.6521 57.6446 37.6961 57.6883C37.7181 57.754 37.7621 57.7978 37.8061 57.8415C37.8501 57.8853 37.9161 57.9072 38.0041 57.9072C38.0701 57.9291 38.1361 57.9291 38.2241 57.9291C38.2901 57.9291 38.3561 57.9291 38.4441 57.9072C38.5101 57.8853 38.5761 57.8634 38.6201 57.8634V57.4913C38.4001 57.5351 38.2461 57.557 38.1801 57.5132ZM37.6081 56.3313C37.6081 56.5283 37.5641 56.7253 37.4761 56.8785C37.3881 57.0317 37.2781 57.163 37.1241 57.2506C36.9921 57.3381 36.8162 57.4257 36.6402 57.4695C36.4642 57.5132 36.2662 57.5351 36.0682 57.5351C35.9582 57.5351 35.8482 57.5132 35.7382 57.4913C35.6282 57.4695 35.5402 57.4257 35.4522 57.36C35.3642 57.2944 35.2982 57.2287 35.2542 57.1193C35.2102 57.0317 35.1882 56.9223 35.1882 56.791C35.1882 56.5064 35.2982 56.2875 35.4962 56.1562C35.6942 56.0249 36.0021 55.9374 36.3541 55.9155C36.5741 55.8936 36.7722 55.8717 36.9922 55.8498C37.2122 55.8279 37.4101 55.7623 37.6081 55.6747V56.3313Z" fill="#33FFFF"/>
<path d="M41.238 55.7841C41.04 55.6965 40.82 55.6308 40.6 55.5871C40.358 55.5433 40.16 55.4776 39.962 55.4339C39.764 55.3682 39.588 55.3025 39.456 55.1931C39.324 55.1055 39.258 54.9523 39.258 54.7554C39.258 54.5365 39.346 54.3614 39.5 54.2301C39.654 54.0987 39.896 54.0331 40.204 54.0331C40.512 54.0331 40.754 54.0987 40.974 54.2301C41.172 54.3614 41.304 54.5803 41.348 54.9086H41.832C41.766 54.4489 41.612 54.0987 41.326 53.9018C41.04 53.7048 40.688 53.5953 40.226 53.5953C39.764 53.5953 39.39 53.7048 39.148 53.9236C38.884 54.1425 38.774 54.427 38.774 54.7772C38.774 55.0399 38.84 55.2588 38.972 55.412C39.104 55.5652 39.258 55.6746 39.478 55.7622C39.676 55.8497 39.896 55.8935 40.116 55.9373C40.336 55.981 40.556 56.0248 40.754 56.0905C40.952 56.1561 41.128 56.2218 41.26 56.3312C41.392 56.4407 41.458 56.572 41.458 56.7909C41.458 56.9003 41.436 56.9878 41.392 57.0754C41.348 57.1629 41.282 57.2505 41.194 57.3162C41.106 57.3818 40.996 57.4475 40.886 57.4912C40.754 57.535 40.6 57.5569 40.424 57.5569C40.05 57.5569 39.786 57.4912 39.588 57.338C39.39 57.1848 39.258 56.9441 39.192 56.572H38.708C38.708 56.769 38.752 56.9441 38.84 57.1192C38.906 57.2943 39.016 57.4475 39.148 57.5569C39.28 57.6882 39.434 57.7758 39.632 57.8633C39.83 57.929 40.05 57.9728 40.292 57.9728C40.534 57.9728 40.776 57.9509 40.974 57.9071C41.172 57.8633 41.37 57.7758 41.502 57.6882C41.656 57.5788 41.766 57.4694 41.854 57.3162C41.942 57.1629 41.986 56.9878 41.986 56.7909C41.986 56.5282 41.92 56.3093 41.788 56.178C41.59 55.981 41.436 55.8716 41.238 55.7841Z" fill="#33FFFF"/>
</g>
<defs>
<clipPath id="clip0_386_3038">
<rect width="77" height="45" fill="white" transform="translate(1 17)"/>
</clipPath>
</defs>
</svg>
