<svg width="60" height="60" viewBox="0 0 60 60" fill="none" xmlns="http://www.w3.org/2000/svg">
<path fill-rule="evenodd" clip-rule="evenodd" d="M14.7632 24.5126C9.90267 24.4482 5.93147 26.7444 5.8921 29.6413C5.88335 30.5181 6.17835 31.3969 6.71459 32.2062C5.62398 31.3275 4.98586 30.2462 5.00024 29.0844C5.03774 26.2126 9.06518 23.937 13.9945 24.0013C17.0832 24.0438 19.7925 24.9938 21.3762 26.4044C19.7769 25.2776 17.4144 24.547 14.7632 24.5126ZM14.1394 30.5874C14.3076 30.4606 14.3907 30.2331 14.3907 29.9037C14.3907 28.9862 14.0626 28.195 13.4051 27.5287C12.7476 26.8644 11.9307 26.5312 10.9495 26.5312C9.89887 26.5312 9.01763 26.8819 8.30639 27.5875C7.59453 28.29 7.23828 29.1325 7.23828 30.1193C7.23828 31.1562 7.57953 32.0155 8.26577 32.6974C8.94951 33.3793 9.84387 33.7205 10.9495 33.7205C11.6382 33.7205 12.3157 33.6074 12.9769 33.3793C13.8482 33.078 14.2838 32.6562 14.2838 32.1162C14.2838 31.8799 14.1957 31.6787 14.0238 31.5093C13.8532 31.3418 13.6444 31.2574 13.3988 31.2574C13.2626 31.2574 12.9526 31.3631 12.4663 31.5731C11.9813 31.7843 11.567 31.8893 11.222 31.8893C10.7789 31.8893 10.4007 31.808 10.0945 31.6493C9.71262 31.4468 9.52387 31.1562 9.52387 30.7781H13.3588C13.7113 30.7781 13.9719 30.7131 14.1394 30.5874ZM11.8101 28.5931C12.0963 28.8387 12.2463 29.1118 12.2557 29.4118H9.52325C9.52325 29.1118 9.66762 28.8393 9.95637 28.5931C10.2439 28.3462 10.5545 28.2244 10.8889 28.2244C11.2145 28.2244 11.5195 28.3462 11.8101 28.5931ZM20.6758 32.343C20.6758 32.7905 20.362 33.1443 19.7383 33.4062C19.2389 33.6161 18.7133 33.7205 18.1602 33.7205C17.0889 33.7205 16.2196 33.3637 15.5496 32.6474C14.9059 31.9637 14.584 31.1224 14.584 30.1193C14.584 29.1168 14.9115 28.2687 15.5702 27.5731C16.2271 26.8794 17.0889 26.5312 18.1608 26.5312C18.7764 26.5312 19.3077 26.6156 19.7514 26.7837C20.3683 27.0106 20.6764 27.365 20.6764 27.845C20.6764 28.09 20.5951 28.3043 20.432 28.4893C20.2702 28.6731 20.0602 28.7681 19.8083 28.7681C19.6364 28.7681 19.3895 28.7143 19.0627 28.6087C18.7377 28.5043 18.4796 28.4518 18.2902 28.4518C17.7839 28.4518 17.3914 28.6187 17.1108 28.9525C16.849 29.255 16.7177 29.6425 16.7177 30.1199C16.7177 30.5706 16.8358 30.9531 17.0702 31.2618C17.3327 31.6218 17.6971 31.8012 18.1683 31.8012C18.3771 31.8012 18.6602 31.7443 19.0208 31.6306C19.3827 31.5174 19.6452 31.4606 19.8083 31.4606C20.0414 31.4606 20.247 31.5537 20.4176 31.7387C20.5895 31.923 20.6758 32.1262 20.6758 32.343ZM26.6705 32.6474C27.313 31.9643 27.6374 31.1224 27.6374 30.1193C27.6374 29.1168 27.3137 28.275 26.6705 27.5925C25.9987 26.8837 25.1281 26.5312 24.0581 26.5312C22.9981 26.5312 22.1275 26.8844 21.4487 27.5925C20.8056 28.275 20.4844 29.1168 20.4844 30.1193C20.4844 31.1224 20.805 31.9637 21.4487 32.6474C22.1181 33.3637 22.9887 33.7205 24.0581 33.7205C25.1287 33.7205 25.9987 33.3637 26.6705 32.6474ZM25.1512 28.9781C25.3843 29.2868 25.5018 29.6687 25.5018 30.1193C25.5018 30.5699 25.3837 30.9562 25.1512 31.2731C24.8906 31.6268 24.5268 31.8005 24.0587 31.8005C23.5925 31.8005 23.2287 31.6262 22.9687 31.2731C22.735 30.9556 22.6181 30.5699 22.6181 30.1193C22.6181 29.6687 22.7343 29.2868 22.9687 28.9781C23.2287 28.6268 23.5925 28.4518 24.0587 28.4518C24.5268 28.4518 24.8906 28.6262 25.1512 28.9781ZM28.3287 32.61V25.5076C28.3287 25.2207 28.4219 24.987 28.6081 24.8051C28.7931 24.6238 29.0537 24.5338 29.3906 24.5338L31.7975 24.522C32.7937 24.5301 33.6237 24.8113 34.2868 25.3676C34.948 25.9238 35.2793 26.6526 35.2793 27.5544C35.2793 28.4719 34.9462 29.2019 34.2799 29.7419C33.6124 30.2794 32.8118 30.5494 31.8781 30.5494H30.3687V32.6131C30.3687 32.9337 30.2706 33.1756 30.0768 33.3425C29.8812 33.5118 29.6381 33.5937 29.3494 33.5937C29.0587 33.5937 28.8156 33.5112 28.6212 33.3425C28.4269 33.1737 28.3281 32.9337 28.3281 32.6219V32.61H28.3287ZM30.3693 28.8682H31.7562C32.1831 28.8775 32.5231 28.7544 32.7762 28.4957C33.0299 28.2382 33.1568 27.9219 33.1568 27.5419C33.1568 27.1638 33.0299 26.8444 32.7762 26.5869C32.5231 26.3307 32.1831 26.2013 31.7562 26.2013L30.3693 26.1901V28.8682ZM42.1884 32.4056V27.8969H42.1878V27.7207C42.1878 27.6532 42.1853 27.5819 42.1747 27.5063C42.149 27.3113 42.0722 27.1313 41.9503 26.9682C41.8284 26.8038 41.5947 26.7207 41.2503 26.7207C41.0153 26.7207 40.8059 26.7938 40.6259 26.9388C40.4428 27.085 40.3391 27.2682 40.3116 27.4913C40.0953 27.2007 39.8191 26.9869 39.4891 26.85C39.1603 26.7132 38.811 26.6438 38.4497 26.6438C37.551 26.6438 36.7872 26.9838 36.1573 27.6582C35.5273 28.3319 35.2129 29.1744 35.2129 30.1769C35.2129 31.1981 35.5235 32.0362 36.1454 32.69C36.7647 33.3443 37.5335 33.6724 38.4497 33.6724C38.821 33.6724 39.161 33.6024 39.4678 33.4625C39.7766 33.3237 40.0584 33.1143 40.3122 32.8368C40.3859 33.0731 40.4884 33.26 40.6266 33.3925C40.7616 33.5293 40.9709 33.5949 41.2509 33.5949C41.5953 33.5949 41.829 33.5149 41.9509 33.355C42.0728 33.195 42.1497 33.0175 42.1753 32.8237C42.1853 32.7462 42.1884 32.6743 42.1884 32.6081V32.4056ZM37.1704 30.2906V30.17H37.1698C37.1705 30.1327 37.1736 30.0945 37.1768 30.0549L37.1772 30.0494C37.181 30.0044 37.1847 29.9544 37.1847 29.9038C37.2291 29.5088 37.3766 29.1463 37.6266 28.8181C37.8766 28.4894 38.2397 28.325 38.721 28.325C39.1835 28.325 39.5366 28.4894 39.7809 28.8181C40.0259 29.1463 40.1716 29.5088 40.2166 29.9038C40.2166 29.9544 40.2191 30.0044 40.2234 30.0494C40.2278 30.0956 40.2316 30.14 40.2316 30.1831V30.2906C40.2316 30.3281 40.2259 30.3681 40.2172 30.4094C40.1797 30.8056 40.0409 31.1737 39.7953 31.5087C39.5497 31.8462 39.1922 32.0156 38.721 32.0156C38.2322 32.0156 37.8629 31.8462 37.6135 31.5087C37.3641 31.1737 37.221 30.8056 37.1847 30.4094C37.1747 30.3681 37.1704 30.3287 37.1704 30.2906ZM42.4758 27.9617C42.4489 27.9023 42.4277 27.8336 42.4145 27.7592C42.4014 27.6829 42.3945 27.5979 42.3945 27.5067C42.3945 27.3186 42.4633 27.1573 42.6052 27.0236C42.7464 26.8886 42.9058 26.7961 43.0889 26.7455C43.1251 26.738 43.1608 26.7317 43.197 26.7261L43.2143 26.7249C43.2449 26.7227 43.2759 26.7205 43.3064 26.7205C43.5426 26.7205 43.7426 26.7767 43.9114 26.8917C44.0789 27.0055 44.2033 27.1636 44.2858 27.3654L45.6307 30.7785L47.0745 27.3523C47.1538 27.1567 47.2807 27.0055 47.4476 26.8917C47.6163 26.7767 47.8163 26.7205 48.0526 26.7205C48.0895 26.7205 48.1245 26.723 48.1607 26.7261C48.1982 26.7317 48.2338 26.738 48.2701 26.7455C48.4507 26.7961 48.6151 26.8886 48.7601 27.0236C48.834 27.0917 48.8894 27.1671 48.9259 27.2494C48.9689 27.1599 49.0307 27.083 49.1109 27.0188C49.2841 26.8788 49.4909 26.8088 49.7365 26.8088L54.1815 26.7957C54.2184 26.8038 54.2615 26.8125 54.3121 26.8207C54.3615 26.83 54.414 26.8419 54.4684 26.8575C54.5596 26.8932 54.6402 26.9488 54.7127 27.0294C54.7859 27.1088 54.8221 27.2256 54.8221 27.3775C54.8221 27.4525 54.8158 27.5181 54.8008 27.5731C54.789 27.6275 54.7733 27.68 54.754 27.7319C54.7443 27.7464 54.7329 27.7627 54.7202 27.7807C54.7116 27.793 54.7024 27.8061 54.6927 27.82C54.6884 27.8262 54.684 27.8325 54.6797 27.8388C54.6608 27.866 54.6414 27.894 54.6196 27.9219L51.5322 31.9262H54.1159C54.3615 31.9362 54.5696 32.0093 54.7402 32.1487C54.9133 32.2874 55.0002 32.4831 55.0002 32.7349C55.0002 32.9893 54.9133 33.1824 54.7402 33.3168C54.5696 33.4531 54.3615 33.5193 54.1159 33.5193H49.5616C49.3422 33.5193 49.1553 33.4712 48.9953 33.3743C48.8372 33.2781 48.7578 33.1237 48.7578 32.9131C48.7578 32.8368 48.7691 32.7662 48.7922 32.6981C48.8153 32.6299 48.8391 32.5724 48.8659 32.5218C48.8853 32.5049 48.8984 32.4874 48.9072 32.4706C48.9097 32.4661 48.9122 32.4615 48.9147 32.4568C48.9211 32.4451 48.9277 32.4328 48.9353 32.4212V32.4068H48.9347L52.0065 28.3881H49.7365C49.4909 28.3975 49.2841 28.3319 49.1109 28.1925C49.019 28.1183 48.9514 28.0276 48.9084 27.9206C48.9004 27.9389 48.8918 27.957 48.8826 27.9748L45.6057 35.5547C45.5239 35.7491 45.4089 35.9166 45.2582 36.0609C45.1089 36.2041 44.9164 36.2759 44.6795 36.2759C44.3445 36.2759 44.0914 36.1934 43.9189 36.0284C43.747 35.8647 43.6614 35.6853 43.6614 35.4916C43.6614 35.4672 43.6626 35.4366 43.667 35.4035C43.6708 35.3685 43.6739 35.3391 43.6739 35.3153C43.6833 35.2547 43.6989 35.1972 43.722 35.1378C43.7392 35.0912 43.7548 35.045 43.7704 34.9988L43.7833 34.961L44.6395 32.9904L42.4758 27.9617Z" fill="#0066B9"/>
</svg>
