<svg width="141" height="65" viewBox="0 0 141 65" fill="none" xmlns="http://www.w3.org/2000/svg">
<g clip-path="url(#clip0_51_635)">
<path d="M9.37349 20.2477L24.8063 27.4378C24.4436 27.196 17.1041 22.2532 14.8425 18.3417C12.5169 14.3377 12.6876 11.372 14.6505 8.50595C16.6134 5.63987 21.4779 3.83345 28.8743 4.30995C36.2706 4.78644 44.4066 7.02668 50.5086 12.517C50.5086 12.517 45.3027 3.2645 32.0533 0.675779C18.8038 -1.91294 8.60541 3.31428 2.72389 8.66953C1.16639 10.0919 0.362749 11.4432 0.0996094 12.7375C0.220511 16.6775 9.37349 20.2477 9.37349 20.2477Z" fill="#2F98D5"/>
<path d="M14.6505 56.0417C12.6805 53.1756 12.5169 50.21 14.8425 46.206C17.1681 42.202 24.8205 37.1028 24.8205 37.1028L9.37349 44.3C9.37349 44.3 0.213399 47.8702 0.0996094 51.8102C0.362749 53.1045 1.16639 54.4558 2.72389 55.8782C8.60541 61.2334 18.7967 66.4535 32.0461 63.8648C45.3027 61.2832 50.5086 52.0306 50.5086 52.0306C44.4066 57.521 36.2706 59.7684 28.8743 60.2378C21.4779 60.7143 16.6134 58.9149 14.6505 56.0417Z" fill="#F9AE00"/>
<path d="M9.37339 44.3L24.8204 37.1028C24.8204 37.1028 29.2084 34.7559 29.2084 32.4303C29.2084 32.3805 29.2084 32.3236 29.2013 32.2738C29.2013 32.224 29.2084 32.1672 29.2084 32.1174C29.2084 29.7918 24.8204 27.4449 24.8204 27.4449C24.8204 27.4449 24.8133 27.4378 24.8062 27.4378L9.37339 20.2477C9.37339 20.2477 0.220407 16.6846 0.0995051 12.7446C-0.633018 16.3219 2.76646 19.4156 5.56854 22.0683C9.31649 25.6029 10.9807 29.1162 10.9522 32.2738C10.9807 35.4315 9.31649 38.9448 5.56854 42.4865C2.76646 45.1321 -0.633018 48.2258 0.0995051 51.8102C0.213295 47.8702 9.37339 44.3 9.37339 44.3Z" fill="#E40E20"/>
<path d="M37.8776 33.8313C37.8776 34.2012 38.0625 34.4785 38.4323 34.6563C38.8021 34.8412 39.2644 34.9337 39.8333 34.9408C40.3952 34.9479 40.9499 34.9195 41.4904 34.8697C42.0309 34.8128 42.543 34.7559 43.0195 34.6848C43.5031 34.6136 43.7733 34.5781 43.8445 34.5781C43.8942 35.6093 43.688 36.3418 43.2328 36.7685C42.7777 37.1953 41.8602 37.4086 40.4805 37.4086C38.5817 37.4086 37.1877 37.0246 36.2916 36.2494C35.4026 35.4742 34.9546 34.1443 34.9546 32.2383C34.9546 31.2853 35.0755 30.4817 35.3173 29.8274C35.5591 29.166 35.9147 28.6681 36.3841 28.3197C36.8535 27.9783 37.3726 27.7294 37.9487 27.5871C38.5248 27.4449 39.2004 27.3738 39.9685 27.3738C41.4406 27.3738 42.5288 27.6867 43.2186 28.3125C43.9156 28.9384 44.2641 29.934 44.2641 31.2995C44.2641 31.8258 44.1645 32.2383 43.9582 32.5583C43.7591 32.8712 43.4889 33.0846 43.1688 33.1913C42.8417 33.298 42.4505 33.3762 41.9954 33.426C41.5402 33.4758 41.085 33.49 40.6441 33.4686C40.1961 33.4473 39.7196 33.4686 39.2004 33.5326C38.6883 33.5895 38.2403 33.6891 37.8776 33.8313ZM37.7851 31.9609C37.9843 31.8187 38.3185 31.7262 38.7737 31.6765C39.2288 31.6267 39.6556 31.6053 40.0538 31.5982C40.4521 31.5911 40.8077 31.5058 41.1135 31.3493C41.4193 31.1857 41.5687 30.9368 41.5615 30.5955C41.5615 30.2896 41.3197 30.0336 40.829 29.8274C40.1534 29.5429 39.492 29.5216 38.8519 29.7563C37.9629 30.0763 37.6073 30.8088 37.7851 31.9609Z" fill="#1F2845"/>
<path d="M55.7425 30.7662V37.2522C55.33 37.2736 54.9673 37.2736 54.6757 37.2451C54.377 37.2167 54.0996 37.1455 53.8294 37.0389C53.5591 36.9322 53.3671 36.7544 53.2391 36.5126C53.1111 36.2708 53.0613 35.965 53.0684 35.5951V31.7476V31.712V30.8231C52.8906 29.9554 52.0798 29.614 50.6432 29.7918C49.8965 29.8843 49.4627 29.9554 49.3418 30.0052C49.3773 30.2043 49.3987 30.4461 49.3987 30.7164V35.5951C49.4129 35.965 49.3489 36.2708 49.2209 36.5126C49.0929 36.7544 48.8937 36.9322 48.6306 37.0389C48.3675 37.1455 48.0901 37.2167 47.7914 37.2451C47.4927 37.2736 47.1371 37.2807 46.7246 37.2522V28.5757C46.7246 27.8005 47.9692 27.388 50.4512 27.3311C53.9716 27.2387 55.7354 28.3837 55.7425 30.7662Z" fill="#1F2845"/>
<path d="M65.0665 23.519C65.2443 23.6471 65.4647 23.7324 65.735 23.768C66.0052 23.8035 66.247 23.8249 66.4675 23.8249C66.688 23.8249 66.9013 23.8604 67.1005 23.9244C67.2996 23.9884 67.4561 24.1449 67.5698 24.3938C67.6836 24.6427 67.7405 25.0054 67.7405 25.4819V35.9933C67.7263 36.0075 67.6694 36.0715 67.5698 36.1995C67.4703 36.3275 67.3778 36.4271 67.2925 36.5053C67.2071 36.5836 67.0578 36.6831 66.8302 36.8111C66.6026 36.9391 66.3537 37.0316 66.0835 37.1027C65.8132 37.1738 65.4434 37.2378 64.9811 37.3019C64.5189 37.3587 63.9926 37.3943 63.4165 37.3943C61.5888 37.3943 60.2731 36.996 59.4765 36.2066C58.68 35.4172 58.2817 34.1015 58.2817 32.2595C58.2817 31.5483 58.3742 30.9083 58.5662 30.3464C58.7582 29.7846 59.0071 29.3223 59.3201 28.9667C59.633 28.6111 60.0028 28.3124 60.4366 28.0778C60.8633 27.8431 61.2972 27.6724 61.7381 27.5799C62.179 27.4875 62.6342 27.4377 63.1107 27.4377C64.0281 27.4377 64.6753 27.5799 65.0736 27.8644V23.519H65.0665ZM65.0665 32.4231V29.8913C64.91 29.8415 64.7393 29.7988 64.5615 29.7633C64.3766 29.7277 64.149 29.6993 63.8788 29.685C63.6085 29.6637 63.3454 29.6708 63.1036 29.6921C62.8618 29.7135 62.6058 29.7846 62.3497 29.9055C62.0866 30.0264 61.8661 30.1829 61.6741 30.3749C61.4821 30.574 61.3327 30.8443 61.2118 31.1928C61.0909 31.5412 61.034 31.9537 61.034 32.4302C61.034 32.8783 61.1052 33.2765 61.2474 33.6037C61.3896 33.9379 61.5674 34.194 61.7737 34.3718C61.9799 34.5496 62.2359 34.6847 62.5418 34.77C62.8476 34.8554 63.1178 34.9123 63.3596 34.9336C63.6014 34.9549 63.8646 34.9478 64.149 34.9123C64.4335 34.8838 64.6326 34.8554 64.7464 34.834C64.8602 34.8127 64.9598 34.7842 65.0594 34.7629H65.0807C65.0736 34.7771 65.0736 33.9948 65.0665 32.4231Z" fill="#1F2845"/>
<path d="M70.2651 32.3164C70.2509 32.2452 70.2438 32.1528 70.2367 32.0319C70.2296 31.911 70.2509 31.6834 70.2936 31.3349C70.3363 30.9935 70.4003 30.6593 70.4998 30.3464C70.5923 30.0334 70.763 29.685 70.9977 29.3009C71.2324 28.924 71.5311 28.5968 71.8795 28.3195C72.228 28.0492 72.7045 27.8145 73.2948 27.6367C73.8851 27.4518 74.5678 27.3594 75.3288 27.3594C75.8622 27.3594 76.3529 27.402 76.8081 27.4874C77.2561 27.5727 77.6473 27.6865 77.9744 27.8288C78.3016 27.971 78.5932 28.1488 78.8492 28.3621C79.1052 28.5755 79.3186 28.7889 79.4821 28.9951C79.6457 29.2014 79.788 29.4503 79.9017 29.7347C80.0155 30.0192 80.1009 30.2681 80.1578 30.4744C80.2147 30.6806 80.2573 30.9224 80.2858 31.2069C80.3071 31.4843 80.3213 31.6976 80.3285 31.8399C80.3356 31.9821 80.3356 32.167 80.3285 32.3804C80.3213 32.6008 80.3214 32.7217 80.3214 32.7431C80.3214 32.9351 80.3142 33.1058 80.3 33.2622C80.2858 33.4187 80.2502 33.6605 80.1933 33.9948C80.1364 34.329 80.0511 34.6277 79.9444 34.8837C79.8377 35.1469 79.6671 35.4314 79.4395 35.7372C79.2048 36.043 78.9345 36.3061 78.6216 36.5124C78.3087 36.7186 77.8962 36.8964 77.3912 37.0386C76.8863 37.1809 76.3174 37.252 75.6915 37.252C75.0372 37.252 74.454 37.2093 73.942 37.124C73.4299 37.0386 72.9961 36.932 72.6405 36.7968C72.2849 36.6617 71.972 36.4768 71.7017 36.235C71.4315 36.0003 71.2181 35.7514 71.0546 35.5025C70.891 35.2536 70.7488 34.9477 70.6421 34.5779C70.5354 34.2081 70.4572 33.8596 70.4003 33.5183C70.3434 33.1769 70.3007 32.7857 70.2651 32.3164ZM72.9179 32.4799C72.9534 32.8924 73.0032 33.2267 73.0672 33.4685C73.1312 33.7103 73.2521 33.9521 73.4228 34.1868C73.5935 34.4215 73.8567 34.5993 74.198 34.7059C74.5394 34.8126 74.9803 34.8695 75.5137 34.8695C75.9262 34.8695 76.2889 34.8055 76.5805 34.6704C76.8792 34.5424 77.0997 34.393 77.2419 34.2223C77.3841 34.0588 77.4979 33.8525 77.5833 33.6178C77.6686 33.3831 77.7113 33.2053 77.7255 33.0844C77.7397 32.9635 77.7468 32.8355 77.7468 32.6933C77.7468 32.6791 77.7468 32.6222 77.7468 32.5084C77.7468 32.3946 77.7468 32.3021 77.7468 32.2239C77.7468 32.1457 77.7397 32.0319 77.7255 31.8754C77.7113 31.719 77.69 31.5909 77.6615 31.4771C77.6331 31.3634 77.5904 31.2282 77.5335 31.0789C77.4766 30.9224 77.4126 30.7944 77.3344 30.6806C77.2561 30.5668 77.1566 30.453 77.0285 30.3321C76.9005 30.2112 76.7654 30.1188 76.6089 30.0406C76.4525 29.9623 76.2676 29.8983 76.0471 29.8556C75.8266 29.8059 75.5848 29.7845 75.3288 29.7845C74.8523 29.7845 74.4469 29.8485 74.1198 29.9837C73.7855 30.1117 73.5437 30.2681 73.3873 30.4388C73.2308 30.6095 73.117 30.8371 73.0317 31.1144C72.9463 31.3918 72.9037 31.6123 72.8965 31.7616C72.8894 31.9181 72.8965 32.1101 72.9037 32.3519C72.9179 32.4088 72.9179 32.4586 72.9179 32.4799Z" fill="#1F2845"/>
<path d="M89.3817 27.3667C89.3674 27.388 89.3745 27.516 89.3888 27.7436C89.4101 27.9712 89.403 28.1846 89.3817 28.3908C89.3603 28.5971 89.3105 28.8246 89.2394 29.0593C89.1683 29.294 89.0261 29.486 88.8056 29.6283C88.5851 29.7705 88.3007 29.8416 87.9593 29.8416C87.4615 29.8416 87.0774 29.863 86.8 29.8985C86.5298 29.9341 86.2809 30.0265 86.0675 30.1688C85.8542 30.311 85.7119 30.5101 85.6408 30.7733C85.5697 31.0364 85.5341 31.392 85.5341 31.8401V37.5438C85.3208 37.3873 85.0363 37.2664 84.6878 37.1811C84.3393 37.0886 84.0407 37.0246 83.7988 36.9748C83.557 36.9251 83.3366 36.7899 83.1517 36.5552C82.9596 36.3206 82.8672 35.9863 82.8672 35.5454V30.7733C82.8672 30.7022 82.8672 30.6026 82.8743 30.4817C82.8814 30.3537 82.9027 30.183 82.9383 29.9625C82.9739 29.7421 83.0308 29.5216 83.1161 29.3011C83.2014 29.0807 83.3223 28.8531 83.493 28.6184C83.6566 28.3837 83.8629 28.1703 84.0975 27.9925C84.3322 27.8147 84.638 27.6654 85.015 27.5445C85.3919 27.4236 85.8044 27.3667 86.2738 27.3667C87.0703 27.3667 87.6606 27.3667 88.0375 27.3667C88.4144 27.3667 88.6278 27.3667 88.6634 27.3667C88.6989 27.3667 88.77 27.3667 88.8696 27.3667C88.9549 27.3667 89.1327 27.3667 89.3817 27.3667Z" fill="#1F2845"/>
<path d="M94.2319 41.1922C94.0186 41.0357 93.7341 40.9433 93.3856 40.9148C93.0371 40.8864 92.7384 40.8722 92.4966 40.8722C92.2548 40.8722 92.0343 40.7441 91.8494 40.4881C91.6574 40.2321 91.5649 39.8125 91.5649 39.2293V28.7179C91.5792 28.7037 91.6361 28.6397 91.7356 28.5117C91.8352 28.3837 91.9277 28.2912 92.013 28.2201C92.0983 28.149 92.2477 28.0494 92.4753 27.9143C92.7029 27.7863 92.9518 27.6796 93.222 27.6085C93.4923 27.5374 93.8621 27.4734 94.3244 27.4093C94.7867 27.3525 95.3129 27.3169 95.889 27.3169C97.7168 27.3169 99.0325 27.7152 99.829 28.5046C100.626 29.294 101.024 30.6097 101.024 32.4517C101.024 33.3407 100.882 34.1159 100.597 34.7702C100.313 35.4244 99.9286 35.9223 99.445 36.2779C98.9614 36.6264 98.4564 36.8824 97.9159 37.046C97.3754 37.2095 96.7993 37.2878 96.1948 37.2878C95.377 37.2878 94.7227 37.2024 94.2319 37.0388V41.1922ZM94.2319 32.281V34.8128C94.4239 34.8697 94.6302 34.9195 94.8436 34.9551C95.064 34.9906 95.3414 35.0191 95.6685 35.0475C96.0028 35.0689 96.3086 35.0333 96.5931 34.9408C96.8776 34.8484 97.1478 34.7061 97.411 34.5283C97.6741 34.3506 97.8804 34.0661 98.0368 33.6749C98.1933 33.2838 98.2715 32.8144 98.2715 32.2668C98.2715 31.8187 98.2004 31.4205 98.051 31.0933C97.9017 30.759 97.731 30.503 97.5319 30.3252C97.3327 30.1474 97.0767 30.0123 96.7567 29.927C96.4366 29.8345 96.1664 29.7847 95.953 29.7634C95.7397 29.742 95.4694 29.7563 95.1494 29.7918C94.8293 29.8274 94.6302 29.8487 94.5591 29.8629C94.488 29.8772 94.3813 29.8985 94.239 29.9341H94.2177C94.2177 29.9341 94.2177 30.7164 94.2319 32.281Z" fill="#1F2845"/>
<path d="M106.201 27.7079C106.784 27.4733 107.759 27.3524 109.124 27.3524C109.793 27.3524 110.362 27.4661 110.831 27.6937C111.308 27.9213 111.649 28.1773 111.862 28.4689C112.076 28.7605 112.239 29.0948 112.353 29.4646C112.467 29.8415 112.531 30.1189 112.538 30.3038C112.552 30.4887 112.552 30.6452 112.538 30.7732V37.2592C110.753 37.4939 109.864 36.9463 109.864 35.6021C109.864 35.1043 109.864 34.45 109.864 33.6393C109.878 31.8684 109.793 30.7945 109.615 30.4034C109.437 30.0193 108.875 29.8131 107.944 29.7917C107.36 29.7917 106.777 29.8984 106.194 30.1118V35.6021C106.215 36.3133 105.995 36.7827 105.526 37.0032C105.056 37.2237 104.388 37.309 103.52 37.2592V23.3555C103.733 23.5119 104.018 23.6044 104.366 23.6328C104.715 23.6613 105.014 23.6755 105.255 23.6755C105.497 23.6755 105.718 23.8035 105.902 24.0595C106.095 24.3156 106.187 24.7352 106.187 25.3184V27.7079H106.201Z" fill="#1F2845"/>
<path d="M115.518 26.3496C115.248 26.0651 115.105 25.7237 115.105 25.3326C115.105 24.9414 115.248 24.6072 115.525 24.3227C115.802 24.0453 116.137 23.9031 116.535 23.9031C116.926 23.9031 117.26 24.0453 117.545 24.3227C117.822 24.6 117.964 24.9343 117.964 25.3326C117.964 25.7237 117.822 26.058 117.545 26.3425C117.267 26.6198 116.933 26.7621 116.535 26.7621C116.144 26.7621 115.802 26.6269 115.518 26.3496ZM117.851 29.1445C117.851 28.5614 117.758 28.1418 117.566 27.8857C117.374 27.6297 117.161 27.5017 116.919 27.5017C116.677 27.5017 116.378 27.4875 116.03 27.459C115.682 27.4306 115.397 27.3381 115.184 27.1817V37.245C116.051 37.2948 116.72 37.2094 117.189 36.9889C117.659 36.7685 117.879 36.3062 117.858 35.5879V29.1445H117.851Z" fill="#1F2845"/>
<path d="M129.507 30.7662V37.2522C129.095 37.2736 128.732 37.2736 128.44 37.2451C128.142 37.2167 127.864 37.1455 127.594 37.0389C127.324 36.9322 127.132 36.7544 127.004 36.5126C126.876 36.2708 126.826 35.965 126.833 35.5951V31.7476V31.712V30.8231C126.655 29.9554 125.845 29.614 124.408 29.7918C123.661 29.8843 123.227 29.9554 123.106 30.0052C123.142 30.2043 123.163 30.4461 123.163 30.7164V35.5951C123.178 35.965 123.114 36.2708 122.986 36.5126C122.858 36.7544 122.658 36.9322 122.395 37.0389C122.132 37.1455 121.855 37.2167 121.556 37.2451C121.257 37.2736 120.902 37.2807 120.489 37.2522V28.5757C120.489 27.8005 121.734 27.388 124.216 27.3311C127.729 27.2387 129.493 28.3837 129.507 30.7662Z" fill="#1F2845"/>
<path d="M132.75 29.8629C132.75 29.8273 132.743 29.7776 132.729 29.7207C132.714 29.6638 132.714 29.5429 132.722 29.3722C132.729 29.2015 132.743 29.0379 132.778 28.8815C132.807 28.725 132.871 28.5543 132.956 28.3552C133.049 28.156 133.162 27.9925 133.312 27.8573C133.461 27.7222 133.66 27.6084 133.916 27.5089C134.172 27.4164 134.471 27.3666 134.82 27.3666C134.926 27.3666 135.09 27.3666 135.317 27.3666C135.623 27.3524 135.943 27.3524 136.27 27.3666C136.597 27.3808 136.925 27.3951 137.252 27.4093C137.579 27.4306 137.899 27.4804 138.205 27.5586C138.511 27.644 138.809 27.7436 139.087 27.8645C139.364 27.9854 139.62 28.156 139.855 28.3694C140.089 28.5899 140.289 28.8388 140.459 29.1233C140.63 29.4077 140.765 29.7562 140.857 30.1758C140.95 30.5883 141 31.0577 141 31.584V31.712V31.84V31.9822V32.1103V32.2525V32.3947V32.5583V32.7361V32.9139V33.1273V33.4117V33.554C141 34.0447 140.943 34.4856 140.836 34.8839C140.729 35.2822 140.594 35.6022 140.438 35.8582C140.274 36.1071 140.075 36.3276 139.84 36.5196C139.606 36.7117 139.378 36.8468 139.172 36.9392C138.966 37.0317 138.724 37.1028 138.454 37.1526C138.183 37.2095 137.97 37.2379 137.821 37.2522C137.671 37.2664 137.494 37.2735 137.294 37.2735H134.834C134.798 37.2735 134.741 37.2735 134.67 37.2664C134.599 37.2593 134.464 37.245 134.272 37.2095C134.073 37.181 133.888 37.1384 133.71 37.0744C133.532 37.0175 133.333 36.9179 133.113 36.7828C132.892 36.6476 132.707 36.4841 132.551 36.2992C132.394 36.1143 132.266 35.8725 132.16 35.5809C132.053 35.2822 131.996 34.9479 131.996 34.5852C131.996 33.9309 132.081 33.3833 132.245 32.9352C132.409 32.4872 132.665 32.1458 132.999 31.904C133.34 31.6622 133.717 31.4915 134.13 31.3991C134.542 31.3066 135.047 31.2568 135.644 31.2568C136.676 31.2568 137.38 31.1857 137.757 31.0506C138.134 30.9155 138.319 30.7021 138.319 30.4176C138.319 30.0123 137.927 29.742 137.152 29.5998C136.377 29.4575 135.552 29.4291 134.677 29.5073C133.81 29.5713 133.162 29.6922 132.75 29.8629ZM138.397 32.5512C138.347 32.6081 138.283 32.6792 138.191 32.7646C138.098 32.8499 137.899 32.9566 137.593 33.0917C137.287 33.2268 136.96 33.2979 136.633 33.2979C136.05 33.2979 135.58 33.3691 135.218 33.5113C134.855 33.6535 134.677 33.8527 134.677 34.1158C134.677 34.4216 134.805 34.6563 135.068 34.8128C135.332 34.9692 135.851 35.0475 136.633 35.0475C136.953 35.0475 137.202 35.0475 137.373 35.0404C137.543 35.0332 137.707 34.9906 137.856 34.9052C138.006 34.8199 138.105 34.7417 138.169 34.6705C138.226 34.5994 138.276 34.4501 138.319 34.2154C138.361 33.9807 138.383 33.7602 138.39 33.5469C138.39 33.3335 138.397 32.9992 138.397 32.5512Z" fill="#1F2845"/>
</g>
<defs>
<clipPath id="clip0_51_635">
<rect width="141" height="64.5474" fill="white"/>
</clipPath>
</defs>
</svg>
