<svg width="40" height="40" viewBox="0 0 40 40" fill="none" xmlns="http://www.w3.org/2000/svg">
<path d="M19.9997 2.49655C10.3481 2.49655 2.49658 10.3484 2.49658 19.9997C2.49658 29.6512 10.3481 37.5034 19.9997 37.5034C29.6506 37.5034 37.5028 29.6512 37.5028 19.9997C37.5028 10.3484 29.6506 2.49655 19.9997 2.49655ZM24.9466 13.5459C24.9466 13.7184 24.8069 13.8581 24.6341 13.8584L22.6444 13.8597C21.3316 13.8597 21.0916 14.3709 21.0916 15.3778V17.4665H24.5041C24.5938 17.4665 24.6794 17.5053 24.7384 17.5728C24.7975 17.6403 24.825 17.73 24.8141 17.819L24.3281 21.5794C24.3081 21.7353 24.175 21.8519 24.0181 21.8519H21.0916V31.189C21.0916 31.3619 20.9519 31.5015 20.7791 31.5015H16.8966C16.7238 31.5015 16.5841 31.3619 16.5841 31.189V21.8519H13.6481C13.4753 21.8519 13.3356 21.7122 13.3356 21.5394V17.779C13.3356 17.6062 13.4753 17.4665 13.6481 17.4665H16.5841V15.0056C16.5841 11.7462 18.5566 9.72186 21.7325 9.72186C23.0978 9.72186 24.3044 9.82342 24.675 9.87249C24.8306 9.89311 24.9466 10.0256 24.9466 10.1822V13.5459Z" fill="#3A5299"/>
</svg>
