<svg width="32" height="32" viewBox="0 0 32 32" fill="none" xmlns="http://www.w3.org/2000/svg">
<path d="M15.9992 0C7.17661 0 -0.000549316 7.17745 -0.000549316 15.9997C-0.000549316 24.8223 7.17661 32 15.9992 32C24.8211 32 31.9989 24.8223 31.9989 15.9997C31.9989 7.17745 24.8211 0 15.9992 0ZM20.5211 10.1003C20.5211 10.258 20.3934 10.3857 20.2355 10.386L18.4167 10.3871C17.2166 10.3871 16.9972 10.8544 16.9972 11.7748V13.6842H20.1166C20.1986 13.6842 20.2769 13.7196 20.3309 13.7813C20.3849 13.843 20.41 13.925 20.4 14.0064L19.9558 17.4437C19.9375 17.5863 19.8158 17.6928 19.6724 17.6928H16.9972V26.228C16.9972 26.386 16.8696 26.5137 16.7116 26.5137H13.1626C13.0046 26.5137 12.8769 26.386 12.8769 26.228V17.6928H10.1932C10.0352 17.6928 9.9075 17.5651 9.9075 17.4072V13.9698C9.9075 13.8119 10.0352 13.6842 10.1932 13.6842H12.8769V11.4346C12.8769 8.4552 14.68 6.6047 17.5831 6.6047C18.8312 6.6047 19.9341 6.69754 20.2729 6.74239C20.4151 6.76124 20.5211 6.88236 20.5211 7.02548V10.1003Z" fill="white"/>
</svg>
