<svg width="32" height="32" viewBox="0 0 32 32" fill="none" xmlns="http://www.w3.org/2000/svg">
<path d="M24.2192 12.3523C24.2192 14.5862 22.9245 16.5309 21.011 17.5504C21.0002 12.3568 18.9117 7.16351 14.743 3.19999C14.743 5.74303 13.7216 8.28351 11.6816 10.2227L9.44422 12.3507C7.55464 14.1501 6.38379 16.6317 6.38379 19.3747C6.38413 23.7705 9.39305 27.4941 13.5597 28.8C10.605 27.5443 8.5299 24.6598 8.5299 21.4144C8.5299 19.3075 9.39305 17.3248 10.9618 15.8313L13.1988 13.7046C14.3747 12.5872 15.2887 11.2883 15.9132 9.87423C17.829 12.7568 18.8585 16.1005 18.8659 19.5933L18.873 23.0678L22.0613 21.368C23.1453 20.7904 24.0617 20.0032 24.7663 19.0774C25.0086 19.8249 25.1356 20.6109 25.1362 21.416C25.1362 24.6601 23.0632 27.5427 20.1098 28.7993C24.2731 27.4915 27.2813 23.7693 27.2813 19.375C27.279 16.8333 26.2596 14.2915 24.2192 12.3523Z" fill="#FEA800" stroke="#FEA800" stroke-miterlimit="10" stroke-linecap="round" stroke-linejoin="round"/>
</svg>
