<svg width="152" height="24" viewBox="0 0 152 24" fill="none" xmlns="http://www.w3.org/2000/svg">
<path d="M13.2784 0.828766L15.8851 6.3464C16.0923 6.78692 16.4922 7.09304 16.9564 7.16024L22.777 8.04127C23.9482 8.22046 24.4124 9.7212 23.5697 10.5798L19.356 14.873C19.0204 15.2164 18.8704 15.7092 18.949 16.1945L19.9417 22.2572C20.1417 23.4742 18.9204 24.4001 17.8706 23.8251L12.6642 20.9655C12.25 20.7341 11.75 20.7341 11.3358 20.9655L6.12945 23.8251C5.08675 24.4001 3.85835 23.4742 4.05832 22.2572L5.05103 16.1945C5.12959 15.7092 4.97962 15.2164 4.64395 14.873L0.430287 10.5798C-0.412445 9.7212 0.0517725 8.21299 1.22303 8.04127L7.0436 7.16024C7.50781 7.09304 7.90775 6.78692 8.11487 6.3464L10.7216 0.828766C11.2501 -0.276255 12.757 -0.276255 13.2784 0.828766Z" fill="#FEA800"/>
<path d="M45.2784 0.828766L47.8851 6.3464C48.0923 6.78692 48.4922 7.09304 48.9564 7.16024L54.777 8.04127C55.9482 8.22046 56.4124 9.7212 55.5697 10.5798L51.356 14.873C51.0204 15.2164 50.8704 15.7092 50.949 16.1945L51.9417 22.2572C52.1417 23.4742 50.9204 24.4001 49.8706 23.8251L44.6642 20.9655C44.25 20.7341 43.75 20.7341 43.3358 20.9655L38.1294 23.8251C37.0867 24.4001 35.8584 23.4742 36.0583 22.2572L37.051 16.1945C37.1296 15.7092 36.9796 15.2164 36.644 14.873L32.4303 10.5798C31.5876 9.7212 32.0518 8.21299 33.223 8.04127L39.0436 7.16024C39.5078 7.09304 39.9078 6.78692 40.1149 6.3464L42.7216 0.828766C43.2501 -0.276255 44.757 -0.276255 45.2784 0.828766Z" fill="#FEA800"/>
<path d="M77.2784 0.828766L79.8851 6.3464C80.0923 6.78692 80.4922 7.09304 80.9564 7.16024L86.777 8.04127C87.9482 8.22046 88.4124 9.7212 87.5697 10.5798L83.356 14.873C83.0204 15.2164 82.8704 15.7092 82.949 16.1945L83.9417 22.2572C84.1417 23.4742 82.9204 24.4001 81.8706 23.8251L76.6642 20.9655C76.25 20.7341 75.75 20.7341 75.3358 20.9655L70.1294 23.8251C69.0867 24.4001 67.8584 23.4742 68.0583 22.2572L69.051 16.1945C69.1296 15.7092 68.9796 15.2164 68.644 14.873L64.4303 10.5798C63.5876 9.7212 64.0518 8.21299 65.223 8.04127L71.0436 7.16024C71.5078 7.09304 71.9078 6.78692 72.1149 6.3464L74.7216 0.828766C75.2501 -0.276255 76.757 -0.276255 77.2784 0.828766Z" fill="#FEA800"/>
<path d="M109.278 0.828766L111.885 6.3464C112.092 6.78692 112.492 7.09304 112.956 7.16024L118.777 8.04127C119.948 8.22046 120.412 9.7212 119.57 10.5798L115.356 14.873C115.02 15.2164 114.87 15.7092 114.949 16.1945L115.942 22.2572C116.142 23.4742 114.92 24.4001 113.871 23.8251L108.664 20.9655C108.25 20.7341 107.75 20.7341 107.336 20.9655L102.129 23.8251C101.087 24.4001 99.8584 23.4742 100.058 22.2572L101.051 16.1945C101.13 15.7092 100.98 15.2164 100.644 14.873L96.4303 10.5798C95.5876 9.7212 96.0518 8.21299 97.223 8.04127L103.044 7.16024C103.508 7.09304 103.908 6.78692 104.115 6.3464L106.722 0.828766C107.25 -0.276255 108.757 -0.276255 109.278 0.828766Z" fill="#FEA800"/>
<path d="M141.278 0.828766L143.885 6.3464C144.092 6.78692 144.492 7.09304 144.956 7.16024L150.777 8.04127C151.948 8.22046 152.412 9.7212 151.57 10.5798L147.356 14.873C147.02 15.2164 146.87 15.7092 146.949 16.1945L147.942 22.2572C148.142 23.4742 146.92 24.4001 145.871 23.8251L140.664 20.9655C140.25 20.7341 139.75 20.7341 139.336 20.9655L134.129 23.8251C133.087 24.4001 131.858 23.4742 132.058 22.2572L133.051 16.1945C133.13 15.7092 132.98 15.2164 132.644 14.873L128.43 10.5798C127.588 9.7212 128.052 8.21299 129.223 8.04127L135.044 7.16024C135.508 7.09304 135.908 6.78692 136.115 6.3464L138.722 0.828766C139.25 -0.276255 140.757 -0.276255 141.278 0.828766Z" fill="#FBFBFB"/>
</svg>
