<svg width="92" height="14" viewBox="0 0 92 14" fill="none" xmlns="http://www.w3.org/2000/svg">
<path d="M7.47557 0.450194L8.94315 3.44743C9.05975 3.68673 9.28491 3.85302 9.54626 3.88952L12.8232 4.3681C13.4826 4.46544 13.7439 5.28066 13.2695 5.74708L10.8972 8.07917C10.7083 8.26573 10.6238 8.53342 10.668 8.79704L11.2269 12.0904C11.3395 12.7515 10.652 13.2544 10.0609 12.9421L7.12979 11.3887C6.89659 11.263 6.61513 11.263 6.38193 11.3887L3.4508 12.9421C2.86378 13.2544 2.17221 12.7515 2.28479 12.0904L2.84367 8.79704C2.8879 8.53342 2.80346 8.26573 2.61449 8.07917L0.242247 5.74708C-0.232202 5.28066 0.0291471 4.46139 0.68855 4.3681L3.96546 3.88952C4.22681 3.85302 4.45197 3.68673 4.56857 3.44743L6.03615 0.450194C6.32966 -0.150065 7.17804 -0.150065 7.47557 0.450194Z" fill="#FEA800"/>
<path d="M26.8667 0.450194L28.3343 3.44743C28.4509 3.68673 28.676 3.85302 28.9374 3.88952L32.2143 4.3681C32.8737 4.46544 33.135 5.28066 32.6606 5.74708L30.2883 8.07917C30.0994 8.26573 30.0109 8.53342 30.0592 8.79704L30.6181 12.0904C30.7306 12.7515 30.0431 13.2544 29.452 12.9421L26.5209 11.3887C26.2877 11.263 26.0063 11.263 25.773 11.3887L22.8419 12.9421C22.2549 13.2544 21.5633 12.7515 21.6759 12.0904L22.2348 8.79704C22.279 8.53342 22.1946 8.26573 22.0056 8.07917L19.6334 5.74708C19.1589 5.28066 19.4203 4.46139 20.0797 4.3681L23.3566 3.88952C23.6179 3.85302 23.8431 3.68673 23.9597 3.44743L25.4273 0.450194C25.7208 -0.150065 26.5732 -0.150065 26.8667 0.450194Z" fill="#FEA800"/>
<path d="M46.2607 0.450194L47.7283 3.44743C47.8449 3.68673 48.0701 3.85302 48.3314 3.88952L51.6083 4.3681C52.2677 4.46544 52.5291 5.28066 52.0546 5.74708L49.6824 8.07917C49.4934 8.26573 49.409 8.53342 49.4532 8.79704L50.0121 12.0904C50.1247 12.7515 49.4371 13.2544 48.8461 12.9421L45.9149 11.3887C45.6817 11.263 45.4003 11.263 45.1671 11.3887L42.236 12.9421C41.6489 13.2544 40.9574 12.7515 41.0699 12.0904L41.6288 8.79704C41.6731 8.53342 41.5886 8.26573 41.3996 8.07917L39.0274 5.74708C38.553 5.28066 38.8143 4.46139 39.4737 4.3681L42.7506 3.88952C43.012 3.85302 43.2371 3.68673 43.3537 3.44743L44.8213 0.450194C45.1148 -0.150065 45.9632 -0.150065 46.2607 0.450194Z" fill="#FEA800"/>
<path d="M84.5994 0.669833L84.5995 0.670073L86.0667 3.66646C86.0668 3.66668 86.0669 3.66691 86.067 3.66713C86.2545 4.05146 86.6191 4.32392 87.0483 4.38447C87.0489 4.38455 87.0495 4.38463 87.0501 4.38471L90.3231 4.86274C90.3232 4.86276 90.3233 4.86277 90.3234 4.86278C90.5695 4.89933 90.6753 5.21031 90.4919 5.39052L88.1197 7.72261L88.119 7.72335C87.8116 8.02677 87.6774 8.4591 87.7479 8.87977L87.7481 8.8807L88.307 12.174L88.307 12.1743C88.3511 12.4332 88.0861 12.6154 87.8676 12.5C87.8675 12.5 87.8675 12.5 87.8675 12.5L84.9401 10.9486C84.9394 10.9483 84.9388 10.9479 84.9382 10.9476C84.5579 10.7433 84.0999 10.7433 83.7195 10.9476C83.7189 10.9479 83.7183 10.9483 83.7176 10.9486L80.7897 12.5003L80.789 12.5007C80.575 12.6145 80.3066 12.4332 80.3507 12.1743L80.3507 12.174L80.9096 8.8807L80.9098 8.87977C80.9803 8.4591 80.8461 8.02677 80.5388 7.72335L80.538 7.72261L78.1658 5.39052L77.8239 5.73826L78.1658 5.39052C77.9795 5.20744 78.0924 4.89701 78.3316 4.86317L78.3316 4.86318L78.3338 4.86285L81.6094 4.38447C82.0387 4.3239 82.4033 4.05133 82.5908 3.66687C82.5909 3.66673 82.591 3.66659 82.591 3.66645L84.0582 0.670072L84.0583 0.669833C84.169 0.443389 84.4887 0.443389 84.5994 0.669833Z" stroke="#FEA800"/>
<path d="M65.6545 0.450194L67.1221 3.44743C67.2387 3.68673 67.4639 3.85302 67.7252 3.88952L71.0021 4.3681C71.6615 4.46544 71.9229 5.28066 71.4485 5.74708L69.0762 8.07917C68.8872 8.26573 68.8028 8.53342 68.847 8.79704L69.4059 12.0904C69.5185 12.7515 68.8309 13.2544 68.2399 12.9421L65.3088 11.3887C65.0756 11.263 64.7941 11.263 64.5609 11.3887L61.6298 12.9421C61.0427 13.2544 60.3512 12.7515 60.4637 12.0904L61.0226 8.79704C61.0669 8.53342 60.9824 8.26573 60.7935 8.07917L58.4212 5.74708C57.9468 5.28066 58.2081 4.46139 58.8675 4.3681L62.1444 3.88952C62.4058 3.85302 62.6309 3.68673 62.7475 3.44743L64.2151 0.450194C64.5126 -0.150065 65.361 -0.150065 65.6545 0.450194Z" fill="#FEA800"/>
</svg>
