<svg width="104" height="16" viewBox="0 0 104 16" fill="none" xmlns="http://www.w3.org/2000/svg">
<path d="M8.85225 0.552511L10.5901 4.23094C10.7282 4.52461 10.9948 4.72869 11.3043 4.77349L15.1846 5.36085C15.9655 5.48031 16.275 6.4808 15.7131 7.05322L12.904 9.91532C12.6803 10.1443 12.5803 10.4728 12.6326 10.7964L13.2945 14.8381C13.4278 15.6495 12.6136 16.2667 11.9137 15.8834L8.44279 13.977C8.16664 13.8227 7.83336 13.8227 7.55721 13.977L4.0863 15.8834C3.39116 16.2667 2.57223 15.6495 2.70555 14.8381L3.36735 10.7964C3.41973 10.4728 3.31974 10.1443 3.09597 9.91532L0.286858 7.05322C-0.274963 6.4808 0.0345148 5.47533 0.815351 5.36085L4.69573 4.77349C5.00521 4.72869 5.27183 4.52461 5.40991 4.23094L7.14775 0.552511C7.49531 -0.18417 8.49993 -0.18417 8.85225 0.552511Z" fill="#FEA800"/>
<path d="M30.8523 0.533101L32.5901 4.0823C32.7282 4.36566 32.9948 4.56257 33.3043 4.6058L37.1846 5.17252C37.9655 5.28778 38.275 6.25313 37.7131 6.80544L34.904 9.567C34.6803 9.78792 34.5755 10.1049 34.6326 10.4171L35.2945 14.3169C35.4278 15.0997 34.6136 15.6953 33.9137 15.3254L30.4428 13.486C30.1666 13.3371 29.8334 13.3371 29.5572 13.486L26.0863 15.3254C25.3912 15.6953 24.5722 15.0997 24.7055 14.3169L25.3674 10.4171C25.4197 10.1049 25.3197 9.78792 25.096 9.567L22.2869 6.80544C21.725 6.25313 22.0345 5.28298 22.8154 5.17252L26.6957 4.6058C27.0052 4.56257 27.2718 4.36566 27.4099 4.0823L29.1477 0.533101C29.4953 -0.1777 30.5047 -0.1777 30.8523 0.533101Z" fill="#FEA800"/>
<path fill-rule="evenodd" clip-rule="evenodd" d="M100 4.70741L99.3043 4.6058C98.9948 4.56258 98.7282 4.36566 98.5901 4.0823L96.8523 0.533101C96.5047 -0.1777 95.4953 -0.1777 95.1477 0.533101L93.4099 4.0823C93.2718 4.36566 93.0052 4.56258 92.6957 4.6058L88.8154 5.17252C88.0345 5.28298 87.725 6.25313 88.2869 6.80544L91.096 9.567C91.3197 9.78793 91.4197 10.1049 91.3673 10.4171L90.7055 14.3169C90.5722 15.0997 91.3912 15.6953 92.0863 15.3255L95.5572 13.486C95.8334 13.3371 96.1666 13.3371 96.4428 13.486L99.9137 15.3255C99.9423 15.3406 99.9711 15.3541 100 15.366V4.70741Z" fill="#FEA800"/>
<path d="M96.4031 0.752739L96.4032 0.752979L98.1406 4.30133C98.1407 4.30155 98.1408 4.30177 98.1409 4.30199C98.35 4.7304 98.756 5.0335 99.2334 5.10076C99.234 5.10084 99.2345 5.10091 99.2351 5.10099L103.112 5.66716C103.112 5.66718 103.112 5.66719 103.112 5.66721C103.479 5.72169 103.633 6.18279 103.363 6.44888L100.554 9.21044L100.553 9.21119C100.211 9.54896 100.061 10.0306 100.14 10.4998L100.14 10.5007L100.801 14.4005L100.802 14.4008C100.866 14.7815 100.475 15.0563 100.147 14.8834C100.147 14.8834 100.147 14.8834 100.147 14.8834L96.6801 13.0459C96.6795 13.0456 96.6789 13.0453 96.6783 13.045C96.255 12.8175 95.745 12.8175 95.3216 13.045C95.3211 13.0453 95.3205 13.0456 95.3199 13.0459L91.8522 14.8837L91.8515 14.884C91.5294 15.0554 91.1336 14.7815 91.1984 14.4008L91.1985 14.4005L91.8603 10.5007L91.8605 10.4998C91.9392 10.0306 91.7894 9.54897 91.4472 9.21119L91.4465 9.21044L88.6374 6.44888L88.2869 6.80544L88.6374 6.44888C88.3638 6.17991 88.5248 5.71861 88.8854 5.66759L88.8854 5.6676L88.8876 5.66727L92.7666 5.10075C93.244 5.03348 93.6501 4.73033 93.8591 4.30186C93.8592 4.30168 93.8593 4.3015 93.8594 4.30133L95.5968 0.752979L95.5969 0.752739C95.7617 0.415754 96.2383 0.415754 96.4031 0.752739Z" stroke="#FEA800"/>
<path d="M52.8523 0.533101L54.5901 4.08231C54.7282 4.36567 54.9948 4.56258 55.3043 4.6058L59.1846 5.17253C59.9655 5.28779 60.275 6.25314 59.7131 6.80545L56.904 9.56701C56.6803 9.78794 56.5803 10.1049 56.6326 10.4171L57.2944 14.3169C57.4278 15.0997 56.6136 15.6953 55.9137 15.3255L52.4428 13.486C52.1666 13.3371 51.8334 13.3371 51.5572 13.486L48.0863 15.3255C47.3912 15.6953 46.5722 15.0997 46.7055 14.3169L47.3674 10.4171C47.4197 10.1049 47.3197 9.78794 47.096 9.56701L44.2869 6.80545C43.725 6.25314 44.0345 5.28299 44.8153 5.17253L48.6957 4.6058C49.0052 4.56258 49.2718 4.36567 49.4099 4.08231L51.1477 0.533101C51.4953 -0.1777 52.4999 -0.1777 52.8523 0.533101Z" fill="#FEA800"/>
<path d="M74.8523 0.5331L76.5901 4.0823C76.7282 4.36566 76.9948 4.56257 77.3043 4.60579L81.1846 5.17251C81.9655 5.28778 82.275 6.25312 81.7131 6.80543L78.904 9.56699C78.6803 9.78791 78.5803 10.1049 78.6326 10.4171L79.2945 14.3169C79.4278 15.0997 78.6136 15.6952 77.9137 15.3254L74.4428 13.486C74.1666 13.3371 73.8334 13.3371 73.5572 13.486L70.0863 15.3254C69.3912 15.6952 68.5722 15.0997 68.7055 14.3169L69.3674 10.4171C69.4197 10.1049 69.3197 9.78791 69.096 9.56699L66.2869 6.80543C65.725 6.25312 66.0345 5.28297 66.8154 5.17251L70.6957 4.60579C71.0052 4.56257 71.2718 4.36566 71.4099 4.0823L73.1477 0.5331C73.5001 -0.1777 74.5047 -0.1777 74.8523 0.5331Z" fill="#FEA800"/>
</svg>
