<svg width="25" height="24" viewBox="0 0 25 24" fill="none" xmlns="http://www.w3.org/2000/svg">
<path d="M18.9722 4.5C18.9722 3.12125 17.8509 2 16.4722 2H14.8055C13.9363 2 13.1705 2.44625 12.7222 3.12083C12.2738 2.44583 11.508 2 10.6388 2H8.97217C7.59342 2 6.47217 3.12125 6.47217 4.5C6.47217 5.14083 6.71633 5.72375 7.11383 6.16667H2.72217V11.1667H3.5555V22H10.6388H11.4722H13.9722H14.8055H21.8888V11.1667H22.7222V6.16667H18.3305C18.728 5.72375 18.9722 5.14083 18.9722 4.5ZM14.8055 2.83333H16.4722C17.3913 2.83333 18.1388 3.58083 18.1388 4.5C18.1388 5.41917 17.3913 6.16667 16.4722 6.16667H14.8055H13.9722H13.1388V4.5C13.1388 3.58083 13.8863 2.83333 14.8055 2.83333ZM7.3055 4.5C7.3055 3.58083 8.053 2.83333 8.97217 2.83333H10.6388C11.558 2.83333 12.3055 3.58083 12.3055 4.5V6.16667H11.4722H10.6388H8.97217C8.053 6.16667 7.3055 5.41917 7.3055 4.5ZM14.9722 21.1667H10.4722V11.1667V10.3333H12.3055H13.1388H14.9722V11.1667V21.1667Z" fill="#0066B9"/>
<path d="M8.97217 7H10.6388V10.3333H3.5555M10.6388 21.1667H4.38883V11.1667M14.8055 21.1667H21.0555V11.1667M14.8055 10.3333H21.8888V7H16.4722M18.9722 4.5C18.9722 3.12125 17.8509 2 16.4722 2H14.8055C13.9363 2 13.1705 2.44625 12.7222 3.12083C12.2738 2.44583 11.508 2 10.6388 2H8.97217C7.59342 2 6.47217 3.12125 6.47217 4.5C6.47217 5.14083 6.71633 5.72375 7.11383 6.16667H2.72217V11.1667H3.5555V22H10.6388H11.4722H13.9722H14.8055H21.8888V11.1667H22.7222V6.16667H18.3305C18.728 5.72375 18.9722 5.14083 18.9722 4.5ZM14.8055 2.83333H16.4722C17.3913 2.83333 18.1388 3.58083 18.1388 4.5C18.1388 5.41917 17.3913 6.16667 16.4722 6.16667H14.8055H13.9722H13.1388V4.5C13.1388 3.58083 13.8863 2.83333 14.8055 2.83333ZM7.3055 4.5C7.3055 3.58083 8.053 2.83333 8.97217 2.83333H10.6388C11.558 2.83333 12.3055 3.58083 12.3055 4.5V6.16667H11.4722H10.6388H8.97217C8.053 6.16667 7.3055 5.41917 7.3055 4.5ZM14.9722 21.1667H10.4722V11.1667V10.3333H12.3055H13.1388H14.9722V11.1667V21.1667Z" stroke="#0066B9"/>
</svg>
