<svg width="25" height="24" viewBox="0 0 25 24" fill="none" xmlns="http://www.w3.org/2000/svg">
<path d="M15.805 19.1803L9.13288 16.4516C8.71641 16.3185 8.34717 16.0618 8.34717 15.5816V8.05162C8.34717 7.57149 8.69065 7.3338 9.13288 7.18168L15.805 4.453C16.2387 4.453 16.5907 4.84281 16.5907 5.32295V18.3151C16.5907 18.7904 16.2387 19.1803 15.805 19.1803Z" fill="#0066B9"/>
<path d="M7.41108 7.93628H2.54652C2.09141 7.93628 1.72217 8.3356 1.72217 8.74443V14.8768C1.72217 15.2904 2.09141 15.6279 2.54652 15.6279H7.41108V7.93628Z" fill="#0066B9"/>
<path d="M6.04583 20.9999H5.24724C5.02398 20.9999 4.83936 20.805 4.83936 20.5578V16.7833C4.83936 16.5361 5.02398 16.3459 5.24724 16.3459H6.04583C6.2691 16.3459 6.45372 16.5361 6.45372 16.7833V20.5578C6.45372 20.805 6.2691 20.9999 6.04583 20.9999Z" fill="#0066B9"/>
<path d="M23.0351 12.6097H18.0976C17.7198 12.6097 17.4106 12.2674 17.4106 11.8491C17.4106 11.4308 17.7198 11.0885 18.0976 11.0885H23.0351C23.413 11.0885 23.7221 11.4308 23.7221 11.8491C23.7221 12.2674 23.413 12.6097 23.0351 12.6097Z" fill="#0066B9"/>
<path d="M22.3137 18.5137L18.647 14.8581C18.3636 14.5776 17.93 14.6014 17.6767 14.9151C17.4234 15.2289 17.4448 15.709 17.7282 15.9895L21.3949 19.6451C21.6782 19.9256 22.1119 19.9018 22.3652 19.5881C22.6185 19.2791 22.5927 18.7942 22.3137 18.5137Z" fill="#0066B9"/>
<path d="M22.3137 5.32674L18.647 8.9824C18.3636 9.26288 17.93 9.23911 17.6767 8.92536C17.4234 8.61161 17.4448 8.13147 17.7282 7.851L21.3949 4.19534C21.6782 3.91487 22.1119 3.93864 22.3652 4.25239C22.6185 4.56138 22.5927 5.04627 22.3137 5.32674Z" fill="#0066B9"/>
</svg>
