<svg width="40" height="40" viewBox="0 0 40 40" fill="none" xmlns="http://www.w3.org/2000/svg">
<path d="M20.0167 23.5378C21.9504 23.5378 23.5189 22.0187 23.5189 20.1456C23.5189 18.2706 21.9501 16.7528 20.0167 16.7528C18.0836 16.7528 16.5157 18.2706 16.5157 20.1456C16.5157 22.0184 18.0836 23.5378 20.0167 23.5378Z" fill="#E63DD0"/>
<path d="M23.9839 16.8513H25.9542C26.3857 16.8513 26.7392 16.4979 26.7392 16.0657V14.1879C26.7392 13.7557 26.3857 13.4016 25.9542 13.4016H23.9839C23.551 13.4016 23.1989 13.7557 23.1989 14.1879V16.0657C23.1989 16.4979 23.551 16.8513 23.9839 16.8513Z" fill="#E63DD0"/>
<path d="M25.437 20.335C25.437 23.2337 23.0095 25.5856 20.0163 25.5856C17.0238 25.5856 14.597 23.234 14.597 20.335C14.597 19.814 14.6763 19.3128 14.8216 18.8381H13.2207V26.2031C13.2207 26.5847 13.532 26.8947 13.9135 26.8947H26.0535C26.4357 26.8947 26.747 26.5847 26.747 26.2031V18.8381H25.2126C25.3582 19.3128 25.437 19.814 25.437 20.335Z" fill="#E63DD0"/>
<path d="M19.9994 2.49655C10.3485 2.49655 2.49695 10.3484 2.49695 19.9997C2.49695 29.6512 10.3485 37.5034 19.9994 37.5034C29.651 37.5034 37.5032 29.6512 37.5032 19.9997C37.5032 10.3484 29.651 2.49655 19.9994 2.49655ZM28.7176 26.6622C28.7176 27.8928 27.7104 28.899 26.4801 28.899H13.5213C12.2907 28.899 11.2832 27.8928 11.2832 26.6622V13.7037C11.2832 12.4725 12.291 11.4656 13.5213 11.4656H26.4804C27.711 11.4656 28.7179 12.4725 28.7179 13.7037V26.6622H28.7176Z" fill="#E63DD0"/>
</svg>
