<svg width="60" height="60" viewBox="0 0 60 60" fill="none" xmlns="http://www.w3.org/2000/svg">
<path d="M30.5 48.0645C30.3602 48.0645 30.2235 48.1059 30.1072 48.1836C29.9909 48.2613 29.9003 48.3717 29.8468 48.5009C29.7933 48.6301 29.7793 48.7723 29.8066 48.9095C29.8338 49.0466 29.9012 49.1726 30.0001 49.2715C30.0989 49.3704 30.2249 49.4377 30.3621 49.465C30.4992 49.4923 30.6414 49.4783 30.7706 49.4248C30.8998 49.3712 31.0102 49.2806 31.0879 49.1643C31.1656 49.0481 31.2071 48.9114 31.2071 48.7715C31.2068 48.5841 31.1323 48.4044 30.9997 48.2718C30.8672 48.1393 30.6875 48.0647 30.5 48.0645V48.0645Z" stroke="#0066B9" stroke-width="0.5"/>
<path d="M43.9574 7H17.0422C15.9705 7.00104 14.943 7.35158 14.1852 7.97472C13.4274 8.59786 13.0012 9.44271 13 10.3239V48.6761C13.0012 49.5573 13.4274 50.4021 14.1852 51.0253C14.943 51.6484 15.9705 51.999 17.0422 52H43.9574C45.0292 51.999 46.0567 51.6484 46.8146 51.0253C47.5724 50.4022 47.9988 49.5573 48 48.6761V10.3239C47.9988 9.44267 47.5724 8.59782 46.8146 7.97469C46.0567 7.35155 45.0292 7.00103 43.9574 7ZM17.0422 7.90604H43.9574C44.6446 7.90722 45.3096 8.10621 45.837 8.46846C46.3644 8.83072 46.7209 9.33337 46.8446 9.88918H14.1554C14.279 9.33339 14.6354 8.83073 15.1627 8.46847C15.6901 8.10621 16.355 7.90722 17.0422 7.90604ZM46.8981 10.7952V45.0484H14.1019V10.7952H46.8981ZM43.9574 51.094H17.0422C16.2626 51.0932 15.5153 50.8382 14.964 50.3849C14.4128 49.9316 14.1028 49.3171 14.1019 48.6761V45.9544H46.8981V48.6761C46.8971 49.3171 46.587 49.9317 46.0357 50.3849C45.4845 50.8382 44.737 51.0932 43.9574 51.094Z" fill="#0066B9" stroke="#0066B9" stroke-width="0.5"/>
<path d="M30.4998 47.4561C30.2396 47.4561 29.9852 47.5332 29.7688 47.6778C29.5525 47.8224 29.3838 48.0279 29.2842 48.2683C29.1847 48.5087 29.1586 48.7733 29.2094 49.0285C29.2601 49.2837 29.3854 49.5182 29.5695 49.7022C29.7535 49.8862 29.9879 50.0115 30.2431 50.0623C30.4984 50.113 30.7629 50.087 31.0033 49.9874C31.2438 49.8878 31.4493 49.7192 31.5938 49.5028C31.7384 49.2864 31.8156 49.032 31.8156 48.7718C31.8152 48.423 31.6764 48.0885 31.4297 47.8419C31.1831 47.5952 30.8487 47.4565 30.4998 47.4561ZM30.4998 49.4789C30.36 49.4789 30.2233 49.4374 30.107 49.3597C29.9907 49.282 29.9001 49.1716 29.8466 49.0424C29.7931 48.9132 29.7791 48.771 29.8064 48.6339C29.8336 48.4967 29.901 48.3707 29.9999 48.2718C30.0987 48.173 30.2247 48.1056 30.3619 48.0783C30.499 48.051 30.6412 48.065 30.7704 48.1186C30.8996 48.1721 31.01 48.2627 31.0877 48.379C31.1654 48.4953 31.2069 48.632 31.2069 48.7718C31.2066 48.9592 31.1321 49.1389 30.9995 49.2715C30.867 49.404 30.6873 49.4786 30.4998 49.4789Z" fill="#0066B9" stroke="#0066B9" stroke-width="0.5"/>
</svg>
