<svg width="60" height="60" viewBox="0 0 60 60" fill="none" xmlns="http://www.w3.org/2000/svg">
<path d="M30.5 48.0645C30.3602 48.0645 30.2235 48.1059 30.1072 48.1836C29.9909 48.2613 29.9003 48.3717 29.8468 48.5009C29.7933 48.6301 29.7793 48.7723 29.8066 48.9095C29.8338 49.0466 29.9012 49.1726 30.0001 49.2715C30.0989 49.3704 30.2249 49.4377 30.3621 49.465C30.4992 49.4923 30.6414 49.4783 30.7706 49.4248C30.8998 49.3712 31.0102 49.2806 31.0879 49.1643C31.1656 49.0481 31.2071 48.9114 31.2071 48.7715C31.2068 48.5841 31.1323 48.4044 30.9997 48.2718C30.8672 48.1393 30.6875 48.0647 30.5 48.0645V48.0645Z" stroke="#0066B9" stroke-width="0.5"/>
<path d="M39.3435 7H21.6563C20.952 7.00104 20.2768 7.35158 19.7788 7.97472C19.2809 8.59786 19.0008 9.44271 19 10.3239V48.6761C19.0008 49.5573 19.2809 50.4021 19.7788 51.0253C20.2768 51.6484 20.952 51.999 21.6563 52H39.3435C40.0478 51.999 40.723 51.6484 41.221 51.0253C41.719 50.4022 41.9992 49.5573 42 48.6761V10.3239C41.9992 9.44267 41.719 8.59782 41.221 7.97469C40.723 7.35155 40.0478 7.00103 39.3435 7ZM21.6563 7.90604H39.3435C39.795 7.90722 40.232 8.10621 40.5786 8.46846C40.9252 8.83072 41.1594 9.33337 41.2407 9.88918H19.7593C19.8405 9.33339 20.0747 8.83073 20.4212 8.46847C20.7678 8.10621 21.2047 7.90722 21.6563 7.90604ZM41.2759 10.7952V45.0484H19.7241V10.7952H41.2759ZM39.3435 51.094H21.6563C21.144 51.0932 20.6529 50.8382 20.2907 50.3849C19.9284 49.9316 19.7247 49.3171 19.7241 48.6761V45.9544H41.2759V48.6761C41.2753 49.3171 41.0715 49.9317 40.7092 50.3849C40.3469 50.8382 39.8558 51.0932 39.3435 51.094Z" fill="#0066B9" stroke="#0066B9" stroke-width="0.5"/>
<path d="M30.4998 47.4561C30.2396 47.4561 29.9852 47.5332 29.7688 47.6778C29.5525 47.8224 29.3838 48.0279 29.2842 48.2683C29.1847 48.5087 29.1586 48.7733 29.2094 49.0285C29.2601 49.2837 29.3854 49.5182 29.5695 49.7022C29.7535 49.8862 29.9879 50.0115 30.2431 50.0623C30.4984 50.113 30.7629 50.087 31.0033 49.9874C31.2438 49.8878 31.4493 49.7192 31.5938 49.5028C31.7384 49.2864 31.8156 49.032 31.8156 48.7718C31.8152 48.423 31.6764 48.0885 31.4297 47.8419C31.1831 47.5952 30.8487 47.4565 30.4998 47.4561ZM30.4998 49.4789C30.36 49.4789 30.2233 49.4374 30.107 49.3597C29.9907 49.282 29.9001 49.1716 29.8466 49.0424C29.7931 48.9132 29.7791 48.771 29.8064 48.6339C29.8336 48.4967 29.901 48.3707 29.9999 48.2718C30.0987 48.173 30.2247 48.1056 30.3619 48.0783C30.499 48.051 30.6412 48.065 30.7704 48.1186C30.8996 48.1721 31.01 48.2627 31.0877 48.379C31.1654 48.4953 31.2069 48.632 31.2069 48.7718C31.2066 48.9592 31.1321 49.1389 30.9995 49.2715C30.867 49.404 30.6873 49.4786 30.4998 49.4789Z" fill="#0066B9" stroke="#0066B9" stroke-width="0.5"/>
<path d="M34.7985 17.4321L34.7757 17L34.3456 17.0464C34.3036 17.0508 30.1448 17.5522 29.8597 22.2014L29.8311 22.6667L30.2964 22.6351C30.344 22.6319 35.0538 22.256 34.7985 17.4321ZM33.9866 17.9515C33.9082 20.7535 31.7287 21.5327 30.7281 21.743C31.1091 19.0199 33.0837 18.1904 33.9866 17.9515Z" fill="#0066B9" stroke="#0066B9" stroke-width="0.5"/>
<path d="M38.8066 32.3726L38.5447 32.288C36.9604 31.7758 35.896 30.3243 35.896 28.6764C35.896 27.2103 36.7251 25.899 38.0598 25.2542L38.4579 25.062L38.2358 24.6796C38.1406 24.5156 37.2519 23.0639 35.3746 22.5835C33.8855 22.2024 32.2113 22.5395 30.3965 23.586C29.6285 23.1197 27.0764 21.7756 25.0463 23.1229C24.649 23.3426 20.4365 25.866 22.6289 32.6753C22.6933 32.8278 24.222 36.4094 26.031 37.7507C26.519 38.217 27.7672 38.7996 29.1933 37.8273C29.4404 37.7255 31.0938 37.0891 32.1428 37.8341C32.5299 38.0992 33.2061 38.3995 33.9203 38.3995C34.4619 38.3995 35.0255 38.2268 35.5015 37.7352C35.7235 37.543 37.752 35.7324 38.8066 32.8644L38.8374 32.7808L38.8066 32.3726ZM34.9543 37.1249L34.9227 37.1546C34.024 38.0984 32.6619 37.1957 32.6113 37.1621C32.0755 36.7811 31.4545 36.6569 30.8723 36.6569C29.8155 36.6569 28.8864 37.066 28.827 37.0929L28.7602 37.1306C27.5233 37.994 26.6762 37.2345 26.5864 37.1479L26.5382 37.1065C24.9021 35.9133 23.3985 32.3914 23.3963 32.3902C21.3442 26.0114 25.2752 23.9251 25.4422 23.8401L25.4875 23.8137C27.3915 22.5353 30.1284 24.3855 30.1556 24.4043L30.3739 24.5542L30.6 24.4175C32.3046 23.3872 33.8427 23.0369 35.1714 23.3773C36.2537 23.6543 36.944 24.3307 37.2815 24.7466C35.9102 25.5871 35.0765 27.0534 35.0765 28.6764C35.0765 30.543 36.1973 32.2018 37.9047 32.9234C36.8539 35.4887 34.9741 37.1081 34.9543 37.1249Z" fill="#0066B9" stroke="#0066B9" stroke-width="0.5"/>
</svg>
