<svg width="60" height="60" viewBox="0 0 60 60" fill="none" xmlns="http://www.w3.org/2000/svg">
<path d="M30 50C26.0444 50 22.1776 48.827 18.8886 46.6294C15.5996 44.4318 13.0362 41.3082 11.5224 37.6537C10.0087 33.9991 9.6126 29.9778 10.3843 26.0982C11.156 22.2186 13.0608 18.6549 15.8579 15.8579C18.6549 13.0608 22.2186 11.156 26.0982 10.3843C29.9778 9.6126 33.9991 10.0087 37.6537 11.5224C41.3082 13.0362 44.4318 15.5996 46.6294 18.8886C48.827 22.1776 50 26.0444 50 30C49.994 35.3025 47.885 40.3861 44.1356 44.1356C40.3861 47.885 35.3025 49.994 30 50ZM30 10.9007C26.2225 10.9007 22.5299 12.0209 19.389 14.1195C16.2481 16.2182 13.8001 19.2011 12.3546 22.691C10.909 26.181 10.5307 30.0212 11.2677 33.7261C12.0046 37.431 13.8237 40.8342 16.4948 43.5052C19.1658 46.1763 22.569 47.9954 26.2739 48.7323C29.9788 49.4693 33.819 49.091 37.309 47.6455C40.7989 46.1999 43.7818 43.7519 45.8805 40.611C47.9791 37.4701 49.0993 33.7775 49.0993 30C49.0933 24.9364 47.0792 20.0819 43.4987 16.5013C39.9181 12.9208 35.0636 10.9067 30 10.9007Z" fill="#0066B9" stroke="#0066B9"/>
<path d="M28.5047 35.5078L29.4054 31.5087L31.8418 30.7161L32.4228 27.6042L30.0449 28.1311L31.9319 19.5745H27.3834L25.3343 29.4821L22.8348 30.2657L22.416 33.4632L24.5867 32.9183L23.2897 39.5159H36.7236L37.5838 35.5078H28.5047ZM35.9985 38.6152H24.3705L25.7216 31.6934L23.4698 32.2563L23.641 30.9458L26.0954 30.1757L28.1039 20.4842H30.806L28.874 29.3065L31.3014 28.7841L31.0672 30.0316L28.6263 30.8062L27.3834 36.4085H36.4714L35.9985 38.6152Z" fill="#0066B9" stroke="#0066B9"/>
</svg>
