<svg width="60" height="60" viewBox="0 0 60 60" fill="none" xmlns="http://www.w3.org/2000/svg">
<path d="M10.0457 49.8729V46.6885C10.0457 45.489 9.28156 44.6823 8.05027 44.6718C7.40281 44.6612 6.73411 44.8628 6.26706 45.574C5.91679 45.0115 5.36476 44.6718 4.58996 44.6718C4.0486 44.6718 3.51792 44.831 3.10395 45.4254V44.7992H2V49.8729H3.11451V47.06C3.11451 46.179 3.60284 45.712 4.35641 45.712C5.0888 45.712 5.46036 46.1896 5.46036 47.0494V49.8729H6.57487V47.06C6.57487 46.179 7.08438 45.712 7.81677 45.712C8.57035 45.712 8.93123 46.1896 8.93123 47.0494V49.8729H10.0457ZM26.5406 44.7992H24.7362V43.2601H23.6217V44.7992H22.5921V45.8075H23.6217V48.1215C23.6217 49.2996 24.0781 50.0003 25.3837 50.0003C25.8613 50.0003 26.4132 49.8516 26.7635 49.6075L26.4451 48.6628C26.1161 48.8539 25.7551 48.9494 25.4686 48.9494C24.9166 48.9494 24.7362 48.6096 24.7362 48.1003V45.8075H26.5406V44.7992ZM35.9557 44.6718C35.3188 44.6718 34.9048 44.969 34.6183 45.4148V44.7992H33.525V49.8729H34.6288V47.0281C34.6288 46.1896 34.9897 45.7226 35.7116 45.7226C35.9344 45.7226 36.168 45.7544 36.4015 45.85L36.7411 44.8097C36.497 44.7142 36.1786 44.6718 35.9557 44.6718ZM21.7217 45.2025C21.1909 44.8522 20.4585 44.6718 19.6519 44.6718C18.3675 44.6718 17.5396 45.2874 17.5396 46.2957C17.5396 47.1237 18.1552 47.6332 19.2909 47.7924L19.8111 47.8667C20.4161 47.9515 20.7027 48.1108 20.7027 48.3974C20.7027 48.7901 20.2993 49.0131 19.5457 49.0131C18.7815 49.0131 18.2295 48.7689 17.858 48.4823L17.3379 49.3421C17.9429 49.7878 18.7072 50.0003 19.5351 50.0003C20.9999 50.0003 21.849 49.3102 21.849 48.3444C21.849 47.4527 21.1803 46.9857 20.0764 46.8264L19.5564 46.7521C19.0787 46.6885 18.6966 46.593 18.6966 46.2534C18.6966 45.8818 19.0574 45.6589 19.6625 45.6589C20.31 45.6589 20.9362 45.9031 21.244 46.0941L21.7217 45.2025ZM51.2935 44.6718C50.6566 44.6718 50.2427 44.969 49.9561 45.4148V44.7992H48.8629V49.8729H49.9667V47.0281C49.9667 46.1896 50.3277 45.7226 51.0494 45.7226C51.2724 45.7226 51.5059 45.7544 51.7394 45.85L52.0791 44.8097C51.8349 44.7142 51.5164 44.6718 51.2935 44.6718ZM37.0701 47.3359C37.0701 48.8751 38.1423 50.0003 39.7769 50.0003C40.5412 50.0003 41.0506 49.8304 41.6025 49.3952L41.0719 48.5035C40.6579 48.8008 40.2227 48.96 39.745 48.96C38.864 48.9494 38.2166 48.3124 38.2166 47.3359C38.2166 46.3595 38.864 45.7226 39.745 45.712C40.2227 45.712 40.6579 45.8712 41.0719 46.1685L41.6025 45.2768C41.0506 44.8416 40.5412 44.6718 39.7769 44.6718C38.1423 44.6718 37.0701 45.7969 37.0701 47.3359ZM47.4087 47.3359V44.7992H46.3048V45.4148C45.9545 44.9584 45.4238 44.6718 44.702 44.6718C43.2796 44.6718 42.1651 45.7863 42.1651 47.3359C42.1651 48.8857 43.2796 50.0003 44.702 50.0003C45.4238 50.0003 45.9545 49.7136 46.3048 49.2572V49.8729H47.4087V47.3359ZM43.3008 47.3359C43.3008 46.4443 43.8846 45.712 44.84 45.712C45.7528 45.712 46.3684 46.4125 46.3684 47.3359C46.3684 48.2594 45.7528 48.96 44.84 48.96C43.8846 48.96 43.3008 48.2275 43.3008 47.3359ZM29.9798 44.6718C28.4937 44.6718 27.4535 45.7544 27.4535 47.3359C27.4535 48.9494 28.5362 50.0003 30.0541 50.0003C30.8183 50.0003 31.5189 49.8091 32.1345 49.289L31.5931 48.4717C31.1686 48.8114 30.6272 49.0024 30.1177 49.0024C29.4065 49.0024 28.759 48.6734 28.5999 47.7605H32.368C32.3786 47.6226 32.3892 47.4846 32.3892 47.3359C32.3786 45.7544 31.4021 44.6718 29.9798 44.6718ZM29.9585 45.6589C30.6697 45.6589 31.1261 46.1047 31.2428 46.8902H28.6105C28.7272 46.1577 29.173 45.6589 29.9585 45.6589ZM57.6516 47.3359V42.7612H56.5477V45.4148C56.1974 44.9584 55.6667 44.6718 54.9449 44.6718C53.5226 44.6718 52.408 45.7863 52.408 47.3359C52.408 48.8857 53.5226 50.0003 54.9449 50.0003C55.6667 50.0003 56.1974 49.7136 56.5477 49.2572V49.8729H57.6516V47.3359ZM53.5438 47.3359C53.5438 46.4443 54.1276 45.712 55.0829 45.712C55.9957 45.712 56.6113 46.4125 56.6113 47.3359C56.6113 48.2594 55.9957 48.96 55.0829 48.96C54.1276 48.96 53.5438 48.2275 53.5438 47.3359ZM16.2659 47.3359V44.7992H15.1619V45.4148C14.8117 44.9584 14.281 44.6718 13.5591 44.6718C12.1368 44.6718 11.0223 45.7863 11.0223 47.3359C11.0223 48.8857 12.1368 50.0003 13.5591 50.0003C14.281 50.0003 14.8117 49.7136 15.1619 49.2572V49.8729H16.2659V47.3359ZM12.1581 47.3359C12.1581 46.4443 12.7419 45.712 13.6971 45.712C14.6099 45.712 15.2256 46.4125 15.2256 47.3359C15.2256 48.2594 14.6099 48.96 13.6971 48.96C12.7419 48.96 12.1581 48.2275 12.1581 47.3359Z" fill="#0066B9"/>
<path d="M18.5207 39.5649C26.6849 39.5649 33.3032 32.9466 33.3032 24.7825C33.3032 16.6183 26.6849 10 18.5207 10C10.3566 10 3.73828 16.6183 3.73828 24.7825C3.73828 32.9466 10.3566 39.5649 18.5207 39.5649Z" stroke="#0066B9" stroke-width="2" stroke-miterlimit="10" stroke-linecap="round" stroke-linejoin="round"/>
<path d="M41.1301 39.5649C49.2942 39.5649 55.9126 32.9466 55.9126 24.7825C55.9126 16.6183 49.2942 10 41.1301 10C32.966 10 26.3477 16.6183 26.3477 24.7825C26.3477 32.9466 32.966 39.5649 41.1301 39.5649Z" stroke="#0066B9" stroke-width="2" stroke-miterlimit="10" stroke-linecap="round" stroke-linejoin="round"/>
</svg>
