<svg width="109" height="49" viewBox="0 0 109 49" fill="none" xmlns="http://www.w3.org/2000/svg">
<path d="M26.2045 37.4359L31.105 23.9784L17.1905 28.7266C15.6163 29.2598 16.6319 27.9902 16.6319 27.9902L18.7902 25.2734C19.8059 23.9784 21.4817 23.9784 21.4817 23.9784C21.4817 23.9784 19.8059 23.9784 18.7902 22.6834L16.6319 19.9666C16.6319 19.9666 15.6163 18.6716 17.1905 19.2302L31.105 23.9784V33.2971C31.105 33.2971 31.105 34.9221 29.7847 35.9124L26.9916 37.9945C26.9916 37.9691 25.6459 38.9593 26.2045 37.4359ZM31.105 14.6598V23.9784L26.2045 10.521C25.6459 8.99748 26.9662 9.98775 26.9662 9.98775L29.7593 12.0698C31.105 13.0347 31.105 14.6598 31.105 14.6598Z" fill="white"/>
<path d="M34.4053 31.7481H39.3312V21.1599C40.2199 20.4997 41.3625 20.1442 42.302 20.1442C44.1302 20.1442 44.3333 21.4392 44.3333 22.9626V31.7481H49.2592V21.4899V21.1599C50.1479 20.4997 51.2652 20.1442 52.2046 20.1442C54.0328 20.1442 54.2614 21.3884 54.2614 22.8865V31.7481H59.2127V21.6169C59.2127 17.3004 56.572 15.9038 53.7281 15.9038C52.1285 15.9038 50.1733 16.5894 48.2944 18.0875C47.4818 16.7164 46.0345 15.9038 44.0794 15.9038C42.2258 15.9038 40.4484 16.7925 39.0265 17.859L38.5695 16.2847H34.4307V31.7481H34.4053ZM68.0235 39.4925C73.9143 39.4925 76.682 36.9787 76.682 34.211C76.682 28.4218 66.5254 30.9355 66.5254 28.3202C66.5254 28.1679 66.5254 27.9901 66.6524 27.6347C67.1094 27.7616 67.7696 27.8378 68.4044 27.8378C72.3654 27.8378 75.1331 25.578 75.1331 22.0232C75.1331 20.7536 74.7522 19.5348 74.0159 18.5953C74.2698 18.4938 74.7268 18.4684 74.93 18.4684C75.3108 18.4684 75.8186 18.5445 76.2249 18.6207L77.139 15.2183C76.8851 15.1929 76.3519 15.1421 76.0218 15.1421C73.7873 15.1421 72.7971 15.7007 71.9084 16.5132C71.7814 16.6402 71.6799 16.7164 71.5275 16.6148C70.8673 16.2339 69.7247 15.9038 68.3028 15.9038C63.5292 15.9038 61.5995 19.0016 61.5995 21.7185C61.5995 23.7498 62.5136 25.6287 64.3163 26.5936C63.0722 27.2792 62.2596 28.3456 62.2596 29.4375C62.2596 30.2246 62.6151 30.9609 63.2753 31.3418C61.8788 31.8242 60.533 33.0938 60.533 34.8966C60.533 37.4611 63.1483 39.4925 68.0235 39.4925ZM68.7344 36.1662C66.2715 36.1662 64.875 35.2775 64.875 34.0079C64.875 33.3223 65.2304 32.8399 65.5351 32.5606C67.1094 33.3731 72.0353 32.9161 72.0353 34.7443C72.0353 35.7091 70.4611 36.1662 68.7344 36.1662ZM68.379 24.2322C66.9063 24.2322 66.1953 23.0642 66.1953 21.8708C66.1953 20.2458 67.1348 19.484 68.3282 19.484C69.8263 19.484 70.588 20.7282 70.588 21.8962C70.5626 23.4451 69.6231 24.2322 68.379 24.2322ZM87.8034 31.7481H91.866C91.6121 30.9102 91.6121 29.666 91.6121 28.7011V21.7692C91.6121 18.0113 89.657 15.8784 84.8834 15.8784C82.4204 15.8784 80.3383 16.4624 78.5101 17.3765L80.0336 20.4743C81.1508 19.8903 82.6489 19.5348 83.9439 19.5348C85.6197 19.5348 86.6608 20.1188 86.6608 21.5661V21.7185L84.1978 21.82C82.6235 21.8962 81.227 22.1755 80.1098 22.7595C78.5101 23.5974 77.5199 24.8924 77.5199 26.9745C77.5199 29.9453 79.7543 32.0274 82.7759 32.0274C84.7056 32.0274 86.0514 31.3164 87.0924 30.4023L87.8034 31.7481ZM86.6608 24.867V27.7362C86.3053 27.9647 85.4928 28.2948 84.4009 28.2948C83.2329 28.2948 82.4712 27.7616 82.4712 26.6952C82.4712 26.035 82.6997 25.6541 83.1568 25.3494C83.5884 25.0955 84.1978 24.9686 84.9849 24.9178L86.6608 24.867Z" fill="white"/>
</svg>
