<svg width="165" height="86" viewBox="0 0 165 86" fill="none" xmlns="http://www.w3.org/2000/svg">
<path d="M0 12C0 5.37258 5.37258 0 12 0H153C159.627 0 165 5.37258 165 12V74C165 80.6274 159.627 86 153 86H12C5.37258 86 0 80.6274 0 74V12Z" fill="white"/>
<g clip-path="url(#clip0_428_22126)">
<path d="M85.7682 18H84.332V67.7647H85.7682V58.1895H103.909V52.392H89.9511V45.7156H101.883V39.8744H89.9511V33.4164H103.909V27.5752H85.7682V18Z" fill="#78BE21"/>
<path d="M29.3049 46.3489L24.15 38.0074L17.5426 27.6789L17.4771 27.5752H12V58.1895H18.0777V39.3722L22.6101 46.7037L29.9001 58.1895H35.4208V27.5752H29.3049V46.3489Z" fill="#0E1214"/>
<path d="M38.8389 58.1895H58.9123V52.392H44.9548V45.7156H56.8864V39.8744H44.9548V33.4164H58.9123V27.5752H38.8389V58.1895Z" fill="#0E1214"/>
<path d="M61.375 33.46H68.392V58.1895H74.5079V33.46H81.4812V27.5752H61.375V33.46Z" fill="#0E1214"/>
<path d="M124.272 46.3982L119.117 38.0622L112.509 27.7337L112.444 27.6245H106.967V58.2389H113.039V39.4215L117.571 46.753L124.867 58.2389H130.388V27.6245H124.272V46.3982Z" fill="#78BE21"/>
<path d="M132.889 27.6245V33.5094H139.906V58.2389H146.022V33.5094H152.995V27.6245H132.889Z" fill="#78BE21"/>
</g>
<defs>
<clipPath id="clip0_428_22126">
<rect width="141" height="49.7647" fill="white" transform="translate(12 18)"/>
</clipPath>
</defs>
</svg>
