<svg width="60" height="60" viewBox="0 0 60 60" fill="none" xmlns="http://www.w3.org/2000/svg">
<path fill-rule="evenodd" clip-rule="evenodd" d="M49.0652 46.2609H9.93478C8.31395 46.2609 7 44.9469 7 43.3261V15.9348C7 14.3139 8.31395 13 9.93478 13H49.0652C50.6861 13 52 14.3139 52 15.9348V43.3261C52 44.9469 50.6861 46.2609 49.0652 46.2609Z" stroke="#0066B9" stroke-width="2" stroke-miterlimit="10" stroke-linecap="round" stroke-linejoin="round"/>
<path d="M46.5636 29.7322C46.341 29.8873 46.0181 29.964 45.5762 29.964H45.3844H45.138L45.474 28.1492H45.6443H45.7963C46.1631 28.1492 46.431 28.2082 46.6156 28.328C46.7599 28.422 46.9309 28.608 46.9309 28.961C46.9309 29.3862 46.7319 29.615 46.5636 29.7322ZM20.4225 32.0099H17.0312L17.2504 30.8237H19.3775L19.6192 29.4875H17.5125L17.7162 28.3135H21.1015L20.4225 32.0099ZM48.3904 27.2953C47.8918 26.9535 47.1373 26.7812 46.148 26.7812H43.5572L42.5941 32.0101H39.2002L39.4179 30.8238H41.4626L41.7057 29.4914L39.6622 29.4951L39.881 28.3139H41.9867L42.2668 26.7814H37.9895L37.0754 31.7418H35.507L36.4277 26.7814H34.1916L33.2775 31.7418H31.7482L32.6699 26.7814H30.436L29.4705 32.0103H26.0525L26.2678 30.824H28.3218L28.5637 29.4992L26.5129 29.4973L26.7307 28.3139H28.8597L29.1385 26.7814H15.8128L15.0542 30.9251L13.5431 26.7813H11.2239L9.97559 33.5434H12.1904L12.9458 29.2858L14.4124 33.5434H22.3508L23.3158 28.3137H24.558L23.5925 33.5434H44.481L45.086 30.2419L46.0667 33.5434H48.2827L47.2674 30.8458L47.4992 30.7957C48.0099 30.6864 48.4097 30.4508 48.687 30.0978C48.9649 29.7415 49.106 29.2841 49.106 28.7346C49.1062 28.0947 48.8725 27.6241 48.3904 27.2953Z" fill="#0066B9"/>
</svg>
