<svg width="141" height="50" viewBox="0 0 141 50" fill="none" xmlns="http://www.w3.org/2000/svg">
<g clip-path="url(#clip0_51_492)">
<path d="M73.7682 0H72.332V49.7647H73.7682V40.1895H91.9085V34.392H77.9511V27.7156H89.8826V21.8744H77.9511V15.4164H91.9085V9.57517H73.7682V0Z" fill="#78BE21"/>
<path d="M17.3049 28.3489L12.15 20.0074L5.54258 9.67892L5.47705 9.5752H0V40.1895H6.07773V21.3722L10.6101 28.7037L17.9001 40.1895H23.4208V9.5752H17.3049V28.3489Z" fill="#0E1214"/>
<path d="M26.8394 40.1895H46.9128V34.392H32.9553V27.7156H44.8869V21.8744H32.9553V15.4164H46.9128V9.5752H26.8394V40.1895Z" fill="#0E1214"/>
<path d="M49.3755 15.46H56.3924V40.1895H62.5084V15.46H69.4817V9.5752H49.3755V15.46Z" fill="#0E1214"/>
<path d="M112.271 28.3982L107.116 20.0622L100.509 9.73369L100.443 9.62451H94.9663V40.2389H101.039V21.4215L105.571 28.753L112.866 40.2389H118.387V9.62451H112.271V28.3982Z" fill="#78BE21"/>
<path d="M120.888 9.62451V15.5094H127.905V40.2389H134.021V15.5094H140.994V9.62451H120.888Z" fill="#78BE21"/>
</g>
<defs>
<clipPath id="clip0_51_492">
<rect width="141" height="49.7647" fill="white"/>
</clipPath>
</defs>
</svg>
