<svg width="32" height="32" viewBox="0 0 32 32" fill="none" xmlns="http://www.w3.org/2000/svg">
<path d="M16 3L18.9888 6.80138L23.6412 5.48278L23.8248 10.3149L28.3637 11.9828L25.672 16L28.3637 20.0172L23.8248 21.6851L23.6412 26.5172L18.9888 25.1986L16 29L13.0112 25.1986L8.35879 26.5172L8.17519 21.6851L3.63627 20.0172L6.328 16L3.63627 11.9828L8.17519 10.3149L8.35879 5.48278L13.0112 6.80138L16 3Z" fill="#FEA800"/>
<path d="M12.2 14V18.984H11.528L8.84 15.491V18.984H8V14H8.672L11.353 17.486V14H12.2Z" fill="white"/>
<path d="M13.2842 14H16.6162V14.714H14.1662V16.093H16.4692V16.807H14.1662V18.27H16.6162V18.984H13.2842V14Z" fill="white"/>
<path d="M24.5873 14L22.8233 18.984H22.0883L20.8353 15.4L19.5683 18.984H18.8333L17.0763 14H17.9933L19.2393 17.717L20.5343 14H21.1783L22.4453 17.745L23.7193 14H24.5873Z" fill="white"/>
</svg>
