<svg width="60" height="23" viewBox="0 0 60 23" fill="none" xmlns="http://www.w3.org/2000/svg">
<path fill-rule="evenodd" clip-rule="evenodd" d="M21.5833 0H20.7984V0.782195H20.0389V1.54576H18.6235V2.30932H17.9158V3.7992H17.1802V3.10082H16.4445V3.7992H17.1802V4.52551H15.9789V5.05628H15.9665C14.2978 3.79942 12.2222 3.05425 9.97287 3.05425C4.46623 3.05425 0 7.52048 0 13.0271C0 18.5337 4.46623 23 9.97287 23C15.4795 23 19.9457 18.5337 19.9457 13.0271C19.9457 10.6145 19.0884 8.4016 17.6619 6.67653H17.9996V6.07126H18.6235V4.52551H19.3498V3.7992H20.1506V3.08219H19.3498V3.7992H18.6235V2.30932H20.0389V1.54576H20.8024V0.783168H21.5833V0ZM18.6235 3.7992H17.9158V4.52551H17.1802V5.27045H17.9158V4.52551H18.6235V3.7992ZM13.8186 7.57045V7.38921C12.7156 6.62838 11.3779 6.183 9.93563 6.183C6.15371 6.183 3.08219 9.2452 3.08219 13.0271C3.08219 16.809 6.15371 19.8713 9.93563 19.8713C13.7175 19.8713 16.7798 16.809 16.7798 13.0271C16.7798 11.5685 16.3243 10.217 15.5477 9.10689H15.3178L15.3271 9.97288H14.7032L14.7126 10.6992H14.1352L14.1259 11.5186C13.0374 13.0853 12.2826 14.7299 11.6024 16.37C11.5752 16.4358 11.5534 16.4977 11.5331 16.5556C11.489 16.6812 11.4515 16.7878 11.3789 16.8729C11.1503 17.1411 10.8093 17.2252 10.5316 17.2174C10.0118 17.2028 9.55431 16.9609 9.31174 16.398C9.21923 16.1833 9.13204 15.976 9.04686 15.7734C8.38258 14.1937 7.84077 12.9053 5.85709 10.7085C5.49655 10.3092 5.5806 9.79931 5.8664 9.63766C6.14141 9.48211 6.52508 9.59367 6.95587 9.83321C8.16126 10.5035 8.83188 11.189 10.2615 13.0923C10.7824 11.8351 11.6822 10.1359 12.8036 8.29677H13.3251V7.57045H13.8186ZM22.9069 13.8931V5.20528H23.2794H24.6389H25.0113L27.8514 10.6247V5.20528H29.5834V13.8931H27.7117L24.6389 7.86844V13.8931H22.9069ZM33.5409 7.35626C31.7067 7.35626 30.2259 8.83707 30.2259 10.6712C30.2259 12.5054 31.7067 13.9955 33.5409 13.9955C35.3751 13.9955 36.8652 12.5054 36.8652 10.6712C36.8652 8.83707 35.3751 7.35626 33.5409 7.35626ZM33.5502 8.9672C34.4884 8.9672 35.2449 9.733 35.2449 10.6712C35.2449 11.6095 34.4884 12.366 33.5502 12.366C32.612 12.366 31.8462 11.6095 31.8462 10.6712C31.8462 9.733 32.612 8.9672 33.5502 8.9672ZM37.3147 13.8931V7.49687L38.4153 7.49687L38.9467 8.86548C39.1753 8.44793 39.5471 7.78171 40.453 7.55331C40.6669 7.49937 40.884 7.49687 41.1666 7.49687H42.0508L42.3753 5.68145L43.8944 5.68616L43.8991 7.49687H45.2583L45.2536 8.78553H43.8991V11.7908C43.8973 12.368 44.0244 12.6095 44.5764 12.6045C44.772 12.6027 45.029 12.5504 45.2442 12.4681L45.47 13.7662C45.0111 13.9349 44.5272 14.0013 44.0308 14.0013C42.9441 14.0013 42.3826 13.5964 42.1518 12.8575C42.0513 12.5358 42.0288 12.1584 42.0273 11.7109L42.0178 8.78553L41.3124 8.77612C40.382 8.78837 40.0774 9.02839 39.731 9.43761C39.397 9.83223 39.196 10.3766 39.196 11.297V13.8931H37.3147ZM48.7885 7.35626C46.9543 7.35626 45.4735 8.83707 45.4735 10.6712C45.4735 12.5054 46.9543 13.9955 48.7885 13.9955C50.6226 13.9955 52.1128 12.5054 52.1128 10.6712C52.1128 8.83707 50.6226 7.35626 48.7885 7.35626ZM48.7978 8.9672C49.736 8.9672 50.4925 9.733 50.4925 10.6712C50.4925 11.6095 49.736 12.366 48.7978 12.366C47.8595 12.366 47.0937 11.6095 47.0937 10.6712C47.0937 9.733 47.8595 8.9672 48.7978 8.9672ZM54.0174 8.48294C54.6755 7.77509 55.3824 7.36096 56.2429 7.35622C57.4366 7.34965 58.3675 8.17645 58.366 9.77727V13.8931H56.4943L56.485 9.83314C56.4842 9.33663 56.2341 8.89322 55.5445 8.89266C55.0014 8.89221 54.5773 9.28537 54.3899 9.49792V13.8931H52.5555V7.4959H53.6543L54.0174 8.48294ZM58.5361 8.23841V7.62722H58.3572V7.5002H58.8569V7.62722H58.6738V8.23841H58.5361ZM58.9515 7.5002V8.23841H59.0794V7.6532L59.2282 8.23841H59.3274L59.4905 7.66378V8.23841H59.5951V7.5002H59.4071L59.2826 7.98916L59.1502 7.5002H58.9515ZM19.3485 2.313H18.6235V3.07789H19.3485V2.313ZM20.7984 1.54808H21.5833V2.31297H20.7984V1.54808ZM23.3191 20.7728H22.9731V16.0058H23.5557V17.768C23.7858 17.4794 24.1086 17.2808 24.4657 17.2918C25.4333 17.3214 25.7908 18.1838 25.8016 19.0168C25.8145 20.0158 25.2655 20.8296 24.3786 20.8388C23.9991 20.8427 23.6681 20.6737 23.4521 20.3568L23.3191 20.7728ZM23.5591 20.0188C23.5932 20.0501 23.6233 20.0794 23.6513 20.1067C23.8186 20.2695 23.9087 20.3572 24.3032 20.3607C24.995 20.367 25.1727 19.5989 25.1713 19.0656C25.1695 18.393 24.9845 17.8171 24.384 17.7997C24.006 17.7888 23.7477 17.9756 23.5667 18.18L23.5591 20.0188ZM26.3806 21.523L26.3048 21.9623C26.9825 22.1232 27.6172 21.9705 27.8887 21.1059L29.0649 17.3602H28.4729L27.665 20.242L26.8098 17.3602H26.2036L27.4143 20.9759C27.2222 21.5146 26.8693 21.6201 26.3806 21.523ZM30.8473 20.2701L31.1436 19.861C31.5947 20.1838 31.9345 20.3151 32.4892 20.3175C33.0893 20.3202 33.4726 20.008 33.4692 19.5252C33.4649 18.8945 32.9597 18.7213 32.4163 18.535C31.7905 18.3205 31.1139 18.0886 31.0926 17.1208C31.0751 16.3279 31.781 15.9377 32.4619 15.9342C32.9757 15.9316 33.458 16.0092 33.786 16.2408L33.5298 16.7019C33.3756 16.549 32.8211 16.4466 32.5199 16.4444C31.9952 16.4404 31.664 16.6481 31.649 17.0888C31.6288 17.6824 32.1318 17.8547 32.683 18.0435C33.3357 18.2671 34.0559 18.5139 34.0538 19.5112C34.052 20.369 33.4117 20.8149 32.4874 20.823C31.6337 20.8305 30.9987 20.4448 30.8473 20.2701ZM37.9116 17.3658V20.768L38.5067 20.7702V18.2734C38.5698 18.2234 38.6255 18.1773 38.6764 18.1353C38.931 17.9251 39.0645 17.8148 39.39 17.8079C39.7775 17.7997 39.8517 18.0639 39.8517 18.5201V20.7702H40.4562V18.2609C40.4787 18.2408 40.5027 18.2179 40.5284 18.1932C40.6916 18.037 40.9256 17.8129 41.3183 17.8046C41.7281 17.7959 41.7856 18.1064 41.7856 18.5852V20.7702L42.3682 20.768V18.3972C42.3682 17.8093 42.2036 17.2857 41.4854 17.2915C41.0684 17.2949 40.6566 17.5334 40.3499 17.8908C40.2872 17.6392 40.0803 17.2964 39.5937 17.2948C39.182 17.2935 38.6927 17.5446 38.4102 17.9204L38.2705 17.3658H37.9116ZM45.256 20.3625C44.9546 20.6779 44.5673 20.8295 44.2044 20.826C43.6259 20.8204 43.1573 20.4686 43.1596 19.8966C43.1622 19.1982 43.6436 19.0047 44.0562 18.8677C44.4162 18.7481 44.7118 18.6976 45.0307 18.6431L45.1572 18.6213C45.1732 18.0143 45.0447 17.7901 44.5481 17.7866C44.1096 17.7835 43.7319 17.9794 43.5615 18.0678L43.5515 18.073L43.3404 17.6837C43.5038 17.5562 43.9149 17.2982 44.5875 17.2924C45.3255 17.2861 45.7651 17.7005 45.7655 18.4751L45.7664 20.7701H45.4075L45.2561 20.3625H45.256ZM45.1619 19.0177C44.7958 19.0889 44.5943 19.1496 44.3067 19.241C43.9378 19.3583 43.7594 19.5444 43.7636 19.8834C43.768 20.2384 44.0022 20.3753 44.2935 20.3684C44.6421 20.3602 44.8667 20.2464 45.1597 20.0253L45.1619 19.0177ZM52.0141 20.7137L51.9251 20.3092C51.9251 20.3092 51.7447 20.3786 51.5539 20.3706L51.546 20.3703C51.3503 20.3621 51.1452 20.3536 51.1452 19.8547V17.7841H51.911V17.3602H51.1452V16.389L50.7289 16.3904L50.5548 17.3602H50.0472V17.7841H50.5548V19.8241C50.5548 20.3553 50.6628 20.8212 51.3814 20.8191L51.4057 20.8191C51.5406 20.8192 51.822 20.8194 52.0141 20.7137ZM54.8828 20.0229L55.1301 20.376L55.1005 20.3992C54.8489 20.5975 54.557 20.8274 53.956 20.8293C52.9158 20.8325 52.4513 20.0362 52.4556 19.0896C52.46 18.1461 52.8956 17.2977 53.8549 17.2925C55.0475 17.286 55.2154 18.4376 55.2149 19.2404H53.0864C53.0872 19.885 53.3496 20.3527 53.8861 20.3577C54.4406 20.3628 54.8828 20.0229 54.8828 20.0229ZM53.0862 18.8323H54.5992C54.5695 18.2981 54.4316 17.736 53.8606 17.7429C53.248 17.7503 53.1273 18.3149 53.0862 18.8323ZM57.1847 20.8197C57.6847 20.816 58.0716 20.6113 58.315 20.3755L58.026 20.025C57.7398 20.2733 57.4738 20.3513 57.2537 20.3492C56.5131 20.3422 56.3711 19.694 56.3696 19.0523C56.368 18.2822 56.579 17.783 57.2567 17.7735C57.5328 17.7696 57.8488 17.9287 57.9923 18.0431L58.2502 17.652C58.0218 17.4666 57.7045 17.2905 57.2631 17.2913C56.2677 17.293 55.7556 18.052 55.7559 19.0682C55.7562 20.0883 56.2276 20.8267 57.1847 20.8197ZM34.507 21.9623L34.5829 21.523C35.0716 21.6201 35.4245 21.5146 35.6166 20.9759L34.4058 17.3602H35.012L35.8673 20.242L36.6751 17.3602H37.2672L36.091 21.1059C35.8195 21.9705 35.1848 22.1232 34.507 21.9623ZM46.7577 17.3658V20.7679L47.3528 20.7701V18.2733C47.7315 17.9732 47.952 17.8161 48.3426 17.8078C48.73 17.7996 48.8043 18.0638 48.8043 18.5201V20.7701H49.4088V18.4205C49.4088 17.8458 49.166 17.2998 48.5463 17.2948C48.0681 17.2909 47.5389 17.5445 47.2563 17.9204L47.1167 17.3658H46.7577Z" fill="white"/>
</svg>
