<svg width="60" height="60" viewBox="0 0 60 60" fill="none" xmlns="http://www.w3.org/2000/svg">
<path fill-rule="evenodd" clip-rule="evenodd" d="M5 34.9604H7.64004C8.02884 34.9604 8.38124 35.0132 8.69696 35.1185C9.0124 35.2237 9.28044 35.3752 9.50051 35.5727C9.71906 35.7688 9.89202 36.0103 10.0072 36.2803C10.1255 36.5546 10.1842 36.8607 10.1842 37.1987V37.2179C10.1842 37.594 10.1139 37.9241 9.97311 38.2077C9.83735 38.4855 9.64071 38.7291 9.39781 38.9204C9.15517 39.1117 8.87076 39.2567 8.5446 39.3554C8.21872 39.4545 7.87027 39.5038 7.49953 39.5038H6.16696V41.6561H5V34.9604ZM7.53931 38.4421C7.98708 38.4421 8.34061 38.3301 8.60018 38.1061C8.85891 37.8818 8.9887 37.5937 8.9887 37.2419V37.2227C8.9887 36.8254 8.8575 36.5264 8.59511 36.3246C8.33271 36.1229 7.98087 36.0222 7.5396 36.0222H6.16696V38.4421H7.5396H7.53931ZM13.766 41.6561V41.0342C13.5939 41.2382 13.3738 41.4106 13.1058 41.5505C12.838 41.691 12.5127 41.7613 12.1304 41.7613C11.8878 41.7613 11.6584 41.7274 11.4417 41.6609C11.2347 41.5992 11.0415 41.4985 10.8723 41.3643C10.7081 41.2317 10.5743 41.0652 10.4801 40.8762C10.3814 40.6821 10.3317 40.4572 10.3317 40.2019V40.183C10.3317 39.9025 10.3831 39.6585 10.4852 39.4514C10.5842 39.2479 10.7301 39.0708 10.911 38.9348C11.0924 38.7976 11.3091 38.6955 11.5613 38.6286C11.8283 38.5598 12.1032 38.526 12.379 38.5282C12.6851 38.5282 12.945 38.5474 13.1585 38.5857C13.3721 38.6238 13.5778 38.6752 13.7753 38.7387V38.6427C13.7753 38.2926 13.6687 38.0246 13.4551 37.8395C13.2412 37.6547 12.9337 37.5621 12.5319 37.5621C12.2449 37.5621 11.9899 37.5909 11.7667 37.6482C11.5435 37.7057 11.3173 37.7822 11.0879 37.8778L10.7719 36.9499C11.0496 36.8234 11.3377 36.7211 11.633 36.644C11.9261 36.5676 12.2799 36.5289 12.6947 36.5289C13.4469 36.5289 14.005 36.7157 14.3687 37.0887C14.7321 37.4617 14.9138 37.9862 14.9138 38.6622V41.6561H13.766ZM13.7945 39.5419C13.6254 39.4784 13.4509 39.4304 13.2731 39.3986C13.0634 39.3596 12.8504 39.3404 12.6371 39.3413C12.2737 39.3413 11.9899 39.4116 11.7859 39.5518C11.5819 39.692 11.4801 39.8833 11.4801 40.1254V40.1449C11.4801 40.3872 11.5737 40.5721 11.7622 40.6993C11.9501 40.8274 12.1812 40.8906 12.4557 40.8906C12.6467 40.8906 12.8236 40.8652 12.9861 40.8144C13.1397 40.7681 13.2839 40.6953 13.4122 40.5991C13.5304 40.5103 13.6268 40.3958 13.6943 40.2642C13.7612 40.1336 13.7945 39.9886 13.7945 39.8292V39.5419ZM16.7449 43.2152C16.5023 43.2152 16.2873 43.1878 16.0993 43.1337C15.9085 43.0784 15.7241 43.0031 15.5492 42.9091L15.9413 42.0482C16.05 42.1055 16.1597 42.1518 16.2715 42.1865C16.3844 42.222 16.5021 42.2399 16.6205 42.2395C16.7864 42.2395 16.9235 42.1981 17.0318 42.1151C17.1402 42.0322 17.2423 41.8792 17.338 41.6561L15.2337 36.6056H16.4675L17.9023 40.3554L19.2128 36.6056H20.4182L18.4093 41.7994C18.3071 42.0609 18.2019 42.281 18.0936 42.4596C17.9849 42.6379 17.8642 42.7832 17.7302 42.8947C17.6006 43.0038 17.4511 43.0867 17.29 43.1387C17.1306 43.1895 16.9489 43.2152 16.7449 43.2152ZM20.9675 34.9604H22.0555L25.635 39.5899V34.9604H26.802V41.6558H25.8187L22.1342 36.8926V41.6561H20.9672L20.9675 34.9604ZM30.1254 41.7709C29.762 41.7709 29.4223 41.7068 29.1069 41.579C28.7997 41.4572 28.52 41.2754 28.2841 41.0441C28.0513 40.8141 27.8682 40.5385 27.7339 40.2163C27.6002 39.8946 27.5333 39.5391 27.5333 39.1498V39.1306C27.5333 38.7672 27.594 38.4261 27.715 38.1072C27.8302 37.798 28.004 37.5138 28.2268 37.2704C28.4461 37.0317 28.7112 36.8398 29.0064 36.7061C29.306 36.569 29.6379 36.5001 30.0013 36.5001C30.403 36.5001 30.7554 36.5738 31.0579 36.7202C31.3509 36.859 31.6092 37.0617 31.8138 37.3133C32.0146 37.5621 32.1662 37.8508 32.268 38.1789C32.3865 38.5658 32.4367 38.9705 32.4164 39.3746C32.413 39.4288 32.408 39.4847 32.402 39.5422H28.6907C28.7544 39.9564 28.9187 40.2738 29.1833 40.4939C29.4477 40.714 29.7682 40.8237 30.1446 40.8237C30.4315 40.8237 30.6804 40.7729 30.8909 40.6708C31.1011 40.569 31.3084 40.4188 31.5124 40.2213L32.1916 40.8237C31.9519 41.1088 31.6576 41.343 31.3259 41.5124C30.991 41.6846 30.5907 41.7709 30.1254 41.7709ZM31.2732 38.777C31.2555 38.5984 31.2138 38.423 31.149 38.2556C31.0898 38.1005 31.0023 37.9578 30.8909 37.8347C30.7814 37.7162 30.6498 37.6203 30.5035 37.5525C30.3534 37.4823 30.183 37.4473 29.9917 37.4473C29.6345 37.4473 29.3396 37.5703 29.1069 37.8155C28.8741 38.061 28.7322 38.3815 28.6811 38.777H31.2732ZM36.4325 41.6561V41.0342C36.2604 41.2382 36.0403 41.4106 35.7723 41.5505C35.5045 41.691 35.1795 41.7613 34.7969 41.7613C34.5542 41.7613 34.3249 41.7274 34.1082 41.6609C33.9012 41.5992 33.708 41.4985 33.5388 41.3643C33.3746 41.2316 33.2408 41.0652 33.1466 40.8762C33.0479 40.6821 32.9985 40.4572 32.9985 40.2019V40.183C32.9985 39.9025 33.0493 39.6585 33.1517 39.4514C33.2506 39.2479 33.3964 39.0708 33.5772 38.9348C33.7589 38.7976 33.9756 38.6955 34.2278 38.6286C34.4948 38.5598 34.7697 38.526 35.0455 38.5282C35.3516 38.5282 35.6112 38.5474 35.825 38.5857C36.0339 38.6229 36.2401 38.6739 36.4421 38.7387V38.6427C36.4421 38.2926 36.3352 38.0246 36.1216 37.8395C35.9077 37.6547 35.6002 37.5621 35.1984 37.5621C34.9117 37.5621 34.6564 37.5909 34.4332 37.6482C34.2017 37.7086 33.9747 37.7853 33.7541 37.8778L33.4386 36.9499C33.7191 36.8226 34.0058 36.7205 34.2992 36.644C34.5926 36.5676 34.9464 36.5289 35.3609 36.5289C36.1137 36.5289 36.6715 36.7157 37.0349 37.0887C37.3986 37.4617 37.5803 37.9862 37.5803 38.6622V41.6561H36.4325ZM36.461 39.5419C36.292 39.4783 36.1176 39.4304 35.9399 39.3986C35.7302 39.3596 35.5172 39.3404 35.3039 39.3413C34.9402 39.3413 34.6564 39.4116 34.4524 39.5518C34.2484 39.692 34.1465 39.8833 34.1465 40.1254V40.1449C34.1465 40.3872 34.2405 40.5721 34.4287 40.6993C34.6166 40.8274 34.8477 40.8906 35.1219 40.8906C35.3018 40.8924 35.4808 40.8667 35.6529 40.8144C35.8062 40.7681 35.9503 40.6952 36.0784 40.5991C36.1997 40.5069 36.2937 40.3951 36.3605 40.2642C36.4277 40.1336 36.461 39.9886 36.461 39.8292V39.5419ZM38.6242 36.6056H39.7909V37.7438C39.9503 37.3612 40.1766 37.0551 40.47 36.8254C40.7634 36.5961 41.133 36.4911 41.5797 36.51V37.7342H41.5128C41.2575 37.7342 41.0247 37.776 40.8145 37.8587C40.6067 37.9397 40.4202 38.0673 40.2694 38.2317C40.1162 38.3976 39.9983 38.6063 39.9153 38.858C39.8324 39.11 39.7912 39.402 39.7912 39.7335V41.6561H38.6239V36.6056H38.6242ZM42.3632 34.9604H43.6921L45.8519 38.1264L48.0121 34.9604H49.3404V41.6558H48.1035V36.8545L45.8621 40.0109H45.8215L43.6004 36.8734V41.6558H42.3632V34.9604Z" fill="#0066B9"/>
<mask id="mask0_456_2270" style="mask-type:alpha" maskUnits="userSpaceOnUse" x="50" y="36" width="5" height="6">
<path d="M50.1133 36.5H55.0009V41.7705H50.1133V36.5Z" fill="white"/>
</mask>
<g mask="url(#mask0_456_2270)">
<path fill-rule="evenodd" clip-rule="evenodd" d="M52.7053 41.7712C52.3419 41.7712 52.0022 41.7071 51.6868 41.5793C51.3797 41.4575 51.1 41.2757 50.8641 41.0444C50.6313 40.8147 50.4479 40.5388 50.3139 40.2168C50.1801 39.8946 50.1133 39.5394 50.1133 39.1503V39.1311C50.1133 38.7677 50.1739 38.4266 50.295 38.1075C50.4103 37.7983 50.584 37.5142 50.8068 37.2707C51.026 37.0321 51.291 36.8401 51.5861 36.7064C51.886 36.5695 52.2175 36.501 52.5809 36.501C52.9827 36.501 53.3351 36.5743 53.6378 36.7211C53.9308 36.8599 54.1891 37.0626 54.3937 37.3141C54.5943 37.5627 54.7458 37.8513 54.848 38.1795C54.9663 38.5664 55.0164 38.971 54.9961 39.3752C54.993 39.4294 54.9879 39.4852 54.982 39.5428H51.2706C51.3341 39.9573 51.4986 40.2744 51.763 40.4945C52.0276 40.7145 52.3482 40.8246 52.7245 40.8246C53.0115 40.8246 53.26 40.7735 53.4705 40.6714C53.681 40.5698 53.8881 40.4194 54.0924 40.2219L54.7712 40.8243C54.5316 41.1093 54.2374 41.3435 53.9059 41.513C53.571 41.6851 53.1706 41.7715 52.7053 41.7715V41.7712ZM53.8531 38.777C53.8354 38.5984 53.7936 38.4231 53.729 38.2556C53.6696 38.1006 53.582 37.9578 53.4705 37.8347C53.3611 37.7162 53.2295 37.6203 53.0831 37.5525C52.9336 37.4823 52.7626 37.4473 52.5716 37.4473C52.2141 37.4473 51.9193 37.5706 51.6868 37.8155C51.4538 38.061 51.3121 38.3815 51.2608 38.777H53.8531Z" fill="#0066B9"/>
</g>
<path fill-rule="evenodd" clip-rule="evenodd" d="M29.3263 16C25.6112 16 22.5996 19.0116 22.5996 22.7266V29.4536H29.3263C33.0413 29.4536 36.0529 26.4419 36.0529 22.7266C36.0529 19.0116 33.0413 16.0003 29.3263 16.0003" fill="white"/>
<path fill-rule="evenodd" clip-rule="evenodd" d="M29.3263 16C25.6112 16 22.5996 19.0116 22.5996 22.7266V29.4536H29.3263C33.0413 29.4536 36.0529 26.4419 36.0529 22.7266C36.0529 19.0116 33.0413 16.0003 29.3263 16.0003V16ZM29.3263 26.0898H25.9631V22.7266C25.9631 20.8693 27.4686 19.3635 29.3263 19.3635C31.1839 19.3635 32.6897 20.8693 32.6897 22.7266C32.6897 24.5843 31.1839 26.0898 29.3263 26.0898Z" fill="#002868"/>
<path fill-rule="evenodd" clip-rule="evenodd" d="M25.9634 26.0901H25.9628L25.9617 26.0884L25.9628 26.087V22.7266C25.9628 20.8693 27.4689 19.3635 29.3263 19.3635C30.2545 19.3635 31.0953 19.7398 31.7039 20.3482L31.7045 20.3487L35.8241 24.4681C35.9725 23.9125 36.0529 23.329 36.0529 22.7269C36.0529 19.0116 33.0413 16 29.3265 16C25.6112 16 22.5996 19.0116 22.5996 22.7269V29.4533H29.3265L25.9634 26.0901Z" fill="#0066B9"/>
</svg>
