<svg width="60" height="60" viewBox="0 0 60 60" fill="none" xmlns="http://www.w3.org/2000/svg">
<path d="M43.6517 27.3333H40.9532C40.7945 27.3333 40.6358 27.492 40.5564 27.6507L39.4453 34.6348C39.4453 34.7936 39.5247 34.8729 39.6834 34.8729H41.112C41.2707 34.8729 41.3501 34.7936 41.3501 34.6348L41.6675 32.6507C41.6675 32.492 41.8263 32.3333 42.0644 32.3333H42.9374C44.7628 32.3333 45.7945 31.4602 46.0326 29.7142C46.1913 28.9999 46.0326 28.365 45.7152 27.9682C45.239 27.5713 44.5247 27.3333 43.6517 27.3333ZM43.9691 29.9523C43.8104 30.9047 43.0961 30.9047 42.3818 30.9047H41.9056L42.2231 29.0793C42.2231 28.9999 42.3025 28.9206 42.4612 28.9206H42.6199C43.0961 28.9206 43.5723 28.9206 43.8104 29.238C43.9691 29.3174 43.9691 29.5555 43.9691 29.9523Z" fill="#0066B9"/>
<path d="M24.2064 27.3333H21.5079C21.3492 27.3333 21.1905 27.492 21.1111 27.6507L20 34.6348C20 34.7936 20.0794 34.8729 20.2381 34.8729H21.5079C21.6667 34.8729 21.8254 34.7142 21.9048 34.5555L22.2222 32.6507C22.2222 32.492 22.381 32.3333 22.619 32.3333H23.4921C25.3175 32.3333 26.3492 31.4602 26.5873 29.7142C26.746 28.9999 26.5873 28.365 26.2698 27.9682C25.7937 27.5713 25.1587 27.3333 24.2064 27.3333ZM24.5238 29.9523C24.3651 30.9047 23.6508 30.9047 22.9365 30.9047H22.5397L22.8571 29.0793C22.8571 28.9999 22.9365 28.9206 23.0952 28.9206H23.254C23.7302 28.9206 24.2063 28.9206 24.4444 29.238C24.5238 29.3174 24.6032 29.5555 24.5238 29.9523Z" fill="#0066B9"/>
<path d="M32.3815 29.8731H31.1117C31.0323 29.8731 30.8736 29.9525 30.8736 30.0318L30.7942 30.4286L30.7149 30.2699C30.3974 29.8731 29.8419 29.7144 29.2069 29.7144C27.7784 29.7144 26.5085 30.8255 26.2704 32.3334C26.1117 33.1271 26.3498 33.8413 26.7466 34.3175C27.1434 34.7937 27.699 34.9524 28.4133 34.9524C29.6038 34.9524 30.2387 34.2382 30.2387 34.2382L30.1593 34.635C30.1593 34.7937 30.2387 34.8731 30.3974 34.8731H31.5879C31.7466 34.8731 31.9053 34.7144 31.9847 34.5556L32.699 30.1112C32.6196 30.0318 32.4609 29.8731 32.3815 29.8731ZM30.5561 32.4128C30.3974 33.1271 29.8419 33.6826 29.0482 33.6826C28.6514 33.6826 28.3339 33.5239 28.1752 33.3651C28.0165 33.1271 27.9371 32.8096 27.9371 32.4128C28.0165 31.6985 28.6514 31.1429 29.3657 31.1429C29.7625 31.1429 30.0006 31.3017 30.2387 31.4604C30.4768 31.6985 30.5561 32.0953 30.5561 32.4128Z" fill="#0066B9"/>
<path d="M51.7448 29.8731H50.475C50.3956 29.8731 50.2369 29.9525 50.2369 30.0318L50.1575 30.4286L50.0781 30.2699C49.7607 29.8731 49.2051 29.7144 48.5702 29.7144C47.1416 29.7144 45.8718 30.8255 45.6337 32.3334C45.475 33.1271 45.7131 33.8413 46.1099 34.3175C46.5067 34.7937 47.0623 34.9524 47.7766 34.9524C48.967 34.9524 49.602 34.2382 49.602 34.2382L49.5226 34.635C49.5226 34.7937 49.602 34.8731 49.7607 34.8731H50.9512C51.1099 34.8731 51.2686 34.7144 51.348 34.5556L52.0623 30.1112C51.9829 30.0318 51.9035 29.8731 51.7448 29.8731ZM49.9194 32.4128C49.7607 33.1271 49.2051 33.6826 48.4115 33.6826C48.0147 33.6826 47.6972 33.5239 47.5385 33.3651C47.3797 33.1271 47.3004 32.8096 47.3004 32.4128C47.3797 31.6985 48.0147 31.1429 48.7289 31.1429C49.1258 31.1429 49.3639 31.3017 49.602 31.4604C49.9194 31.6985 49.9988 32.0953 49.9194 32.4128Z" fill="#0066B9"/>
<path d="M39.2849 29.873H37.9357C37.777 29.873 37.6976 29.9524 37.6183 30.0318L35.8722 32.7302L35.0786 30.1905C34.9992 30.0318 34.9199 29.9524 34.6818 29.9524H33.4119C33.2532 29.9524 33.1738 30.1111 33.1738 30.2699L34.6024 34.4762L33.2532 36.381C33.1738 36.5397 33.2532 36.7778 33.4119 36.7778H34.6818C34.8405 36.7778 34.9199 36.6984 34.9992 36.6191L39.3643 30.3492C39.6024 30.1111 39.4437 29.873 39.2849 29.873Z" fill="#0066B9"/>
<path d="M53.2537 27.5715L52.1426 34.7143C52.1426 34.873 52.2219 34.9524 52.3807 34.9524H53.4918C53.6505 34.9524 53.8092 34.7937 53.8886 34.635L54.9997 27.6508C54.9997 27.4921 54.9204 27.4127 54.7616 27.4127H53.4918C53.4124 27.3334 53.3331 27.4127 53.2537 27.5715Z" fill="#0066B9"/>
<path d="M14.127 24.9524C13.5714 24.3175 12.5397 24 11.1111 24H7.14286C6.90476 24 6.66667 24.2381 6.5873 24.4762L5 34.873C5 35.1111 5.15873 35.2698 5.31746 35.2698H7.77778L8.4127 31.381V31.5397C8.49206 31.3016 8.73016 31.0635 8.96825 31.0635H10.1587C12.4603 31.0635 14.2063 30.1111 14.7619 27.4921C14.7619 27.4127 14.7619 27.3333 14.7619 27.254C14.6825 27.254 14.6825 27.254 14.7619 27.254C14.8413 26.2222 14.6825 25.5873 14.127 24.9524Z" fill="#002868"/>
<path d="M14.6819 27.2542C14.6819 27.3335 14.6819 27.4129 14.6819 27.4922C14.1264 30.1907 12.3803 31.0637 10.0787 31.0637H8.88827C8.65017 31.0637 8.41208 31.3018 8.33271 31.5399L7.53906 36.3811C7.53906 36.5399 7.61843 36.6986 7.85652 36.6986H9.92001C10.1581 36.6986 10.3962 36.5399 10.3962 36.3018V36.2224L10.793 33.7621V33.6034C10.793 33.3653 11.0311 33.2065 11.2692 33.2065H11.5867C13.5708 33.2065 15.1581 32.4129 15.5549 30.0319C15.7137 29.0795 15.6343 28.2065 15.1581 27.651C15.0787 27.4922 14.92 27.3335 14.6819 27.2542Z" fill="#0066B9"/>
<path d="M14.1283 27.0159C14.049 27.0159 13.9696 26.9366 13.8903 26.9366C13.8109 26.9366 13.7315 26.9366 13.6522 26.8572C13.3347 26.7778 13.0172 26.7778 12.6204 26.7778H9.52517C9.44581 26.7778 9.36644 26.7778 9.28708 26.8572C9.12835 26.9366 9.04898 27.0953 9.04898 27.254L8.41406 31.381V31.5397C8.49343 31.3016 8.73152 31.0635 8.96962 31.0635H10.1601C12.4617 31.0635 14.2077 30.1112 14.7633 27.4921C14.7633 27.4128 14.7633 27.3334 14.8426 27.254C14.6839 27.1747 14.6045 27.0953 14.4458 27.0953C14.2077 27.0159 14.2077 27.0159 14.1283 27.0159Z" fill="#002868"/>
</svg>
