<svg width="60" height="60" viewBox="0 0 60 60" fill="none" xmlns="http://www.w3.org/2000/svg">
<path fill-rule="evenodd" clip-rule="evenodd" d="M6.7125 23C8.675 23 10.2675 24.5913 10.2675 26.555C10.2675 26.5932 10.2623 26.6297 10.2571 26.6663L10.2571 26.6663C10.2531 26.6944 10.2491 26.7225 10.2475 26.7513C10.0075 26.5388 9.7 26.3988 9.3525 26.3988H9.19875C8.96375 25.24 7.9375 24.3675 6.71 24.3675C5.48375 24.3675 4.45875 25.24 4.22375 26.3988H4.07125C3.725 26.3988 3.4175 26.5388 3.1775 26.7513C3.17586 26.7223 3.17185 26.6939 3.16784 26.6655C3.16266 26.6289 3.1575 26.5923 3.1575 26.555C3.1575 24.5925 4.75 23 6.7125 23ZM10.4238 32.9163C10.4238 33.6113 9.86 34.175 9.16375 34.175H4.25875C3.5625 34.175 3 33.6113 3 32.9163V28.01C3 27.315 3.5625 26.7513 4.25875 26.7513H9.16375C9.86 26.7513 10.4238 27.315 10.4238 28.01V32.9163ZM18.7137 32.4425C18.7137 33.1325 18.1537 33.6938 17.4637 33.6938H14.87V36.2762H13.2175V32.4425V31.9412V28.2738C13.2175 27.5838 13.7762 27.0238 14.4675 27.0238H17.4637C18.1537 27.0238 18.7137 27.5838 18.7137 28.2738V32.4425ZM25.4937 32.4875C25.4937 33.1788 24.935 33.7375 24.2437 33.7375H21.295C20.6037 33.7375 20.045 33.1788 20.045 32.4875V30.71C20.045 29.2063 21.5487 29.2063 21.5487 29.2063H23.0912H23.4813H23.8325C23.8463 28.8288 23.63 28.7362 23.4813 28.7112V28.6975H23.425C23.3762 28.6938 23.345 28.6975 23.345 28.6975H20.0438V28.6388V28.2725V27.0225H21.2938H23.755H24.2437C24.935 27.0225 25.4937 27.5813 25.4937 28.2725V32.4875ZM32.37 28.1963V28.465V32.215V32.41V34.6563H32.355C32.2937 35.9475 31.3325 36.2112 31.0025 36.2625V36.2775H26.8812V34.5388H30.1625C30.1625 34.5388 30.69 34.5388 30.69 33.9525V33.66H28.1312C27.44 33.66 26.8812 33.1012 26.8812 32.41V28.465V28.1963V26.9463H28.1312H28.535V28.465V31.4537H28.5387C28.5525 31.68 28.6362 32.02 29.03 32.02H30.1825C30.1825 32.02 30.6713 32.04 30.69 31.4537V28.465V26.9463H31.12H32.37V28.1963ZM38.7375 28.1963V28.7038H36.745H35.7738C35.535 28.7038 35.3387 28.8988 35.3387 29.14C35.3387 29.3813 35.5337 29.5775 35.7738 29.5775H37.39C37.39 29.5775 38.7525 29.6613 38.7375 31.1663V32.49C38.7375 33.1813 38.1787 33.74 37.4875 33.74H35.8275H34.9338H33.6838V32.49V32.085H35.8275H36.6313C36.6326 32.085 36.634 32.0853 36.6353 32.0857C36.6365 32.086 36.6376 32.0865 36.6387 32.0869C36.6412 32.0878 36.6437 32.0887 36.6462 32.0887C36.8875 32.0887 37.0838 31.8938 37.0838 31.6513C37.0838 31.4113 36.8887 31.215 36.6462 31.215H35.1838C33.7188 31.215 33.685 29.7213 33.685 29.7213V28.1975C33.685 27.5063 34.2438 26.9475 34.935 26.9475H36.7463H37.4888H38.7388V28.1963H38.7375ZM45.4162 32.5113C45.4162 33.2088 44.85 33.775 44.1512 33.775H41.19C40.4912 33.775 39.925 33.2088 39.925 32.5113V30.73C39.925 29.2063 41.3725 29.245 41.3725 29.245H42.8962H43.385H43.795C43.795 28.8212 43.5562 28.7075 43.385 28.6813V28.6788H43.3512C43.2712 28.67 43.21 28.6788 43.21 28.6788H41.3937H39.9262V28.2513V26.9875H41.1912H41.3937H44.1525C44.8512 26.9875 45.4175 27.5525 45.4175 28.2513V32.5113H45.4162ZM49.655 26.1063H49.1475C49.1475 26.1063 48.425 26.1063 48.445 26.7513V26.9875H49.6562V28.7038H48.445V33.775H46.7463V26.9463V26.795V26.5363H46.7537C46.7537 26.5134 46.7561 26.4859 46.7583 26.4589C46.7594 26.4461 46.7604 26.4333 46.7612 26.4213V26.3975C46.7637 25.9563 46.8375 25.6338 46.9375 25.3838C46.96 25.315 46.9887 25.2575 47.0175 25.2013C47.115 25.0213 47.22 24.9113 47.32 24.8275L47.315 24.8238C47.315 24.8238 47.3462 24.7975 47.395 24.76C47.4212 24.7413 47.4387 24.7313 47.4637 24.7175C47.5712 24.6475 47.74 24.575 47.9637 24.535C47.9776 24.5317 47.9922 24.5261 48.0069 24.5206C48.0253 24.5136 48.0439 24.5065 48.0612 24.5038H48.64H49.265H49.655V26.1063ZM56.1 30.0125L52.33 31.4575C52.2525 32.2 52.8188 32.0238 52.8188 32.0238H54.3813H56.1V32.5238V33.7738H54.85H54.3813H51.8625C51.1712 33.7738 50.6125 33.215 50.6125 32.5238V28.2363C50.6125 27.545 51.1712 26.9863 51.8625 26.9863H54.8512C55.5425 26.9863 56.1012 27.545 56.1012 28.2363V30.0125H56.1ZM16.6458 28.6988H15.337C15.337 28.6988 14.8683 28.66 14.8683 29.5188V31.335C14.8683 31.335 14.7908 32.0188 15.4158 32.0188H16.5295C16.5295 32.0188 17.0183 32.0188 17.0183 31.4525V29.245C17.0183 29.245 17.0758 28.6988 16.6458 28.6988ZM23.4828 30.8275C23.0528 30.8075 22.1153 30.8275 22.1153 30.8275C22.1153 30.8275 21.7053 30.8075 21.7053 31.16V31.6512C21.7053 31.6512 21.6853 32.02 22.0565 32.02H23.4628C23.4628 32.02 23.8528 32.045 23.8528 31.6512V31.2587C23.8528 31.2587 23.9128 30.8475 23.4828 30.8275ZM42.0772 30.8087H43.3659C43.7372 30.8087 43.7372 31.2762 43.7372 31.2762V31.65C43.7372 32.0237 43.3859 32.0387 43.3859 32.0387H41.9797C41.5697 32.0387 41.6084 31.6112 41.6084 31.6112V31.16C41.6084 30.8087 42.0772 30.8087 42.0772 30.8087ZM52.8004 28.7425H54.1279C54.2604 28.7425 54.3141 28.7763 54.3291 28.8213C54.5166 29.0475 54.0504 29.17 54.0454 29.1713L52.3116 29.855C52.3116 29.855 52.2916 29.5613 52.3116 29.1388C52.3316 28.7163 52.8004 28.7425 52.8004 28.7425Z" fill="#0066B9"/>
</svg>
