<svg width="20" height="20" viewBox="0 0 20 20" fill="none" xmlns="http://www.w3.org/2000/svg">
<path d="M13.75 11.6665C12.5 11.6665 11.5 11.9998 10.75 12.4165C11.9167 13.4165 12.4167 14.5832 12.5 14.6665L12.5833 14.8332V16.6665H19.25V14.9998C19.1667 14.9998 17.8333 11.6665 13.75 11.6665Z" fill="white"/>
<path d="M13.75 9.99984C15.3609 9.99984 16.6667 8.694 16.6667 7.08317C16.6667 5.47234 15.3609 4.1665 13.75 4.1665C12.1392 4.1665 10.8334 5.47234 10.8334 7.08317C10.8334 8.694 12.1392 9.99984 13.75 9.99984Z" fill="white"/>
<path d="M3.33337 7.08317C3.33337 5.49984 4.66671 4.1665 6.25004 4.1665C7.83337 4.1665 9.16671 5.49984 9.16671 7.08317C9.16671 8.6665 7.83337 9.99984 6.25004 9.99984C4.66671 9.99984 3.33337 8.6665 3.33337 7.08317ZM6.25004 11.6665C2.16671 11.6665 0.833374 14.9998 0.833374 14.9998V16.6665H11.6667V14.9998C11.6667 14.9998 10.3334 11.6665 6.25004 11.6665Z" fill="white"/>
</svg>
