<svg width="80" height="80" viewBox="0 0 80 80" fill="none" xmlns="http://www.w3.org/2000/svg">
<g filter="url(#filter0_b_386_2986)">
<circle cx="40" cy="40" r="40" fill="#F1E73D"/>
<path d="M19.4215 42.5647C19.8955 42.5647 20.3264 42.6071 20.7574 42.7342C21.1021 42.8189 21.4468 42.9884 21.7054 43.2426C21.9639 43.4544 22.1363 43.7086 22.2656 44.0052C22.3949 44.3442 22.438 44.6831 22.438 45.0221C22.438 45.361 22.3949 45.7423 22.2225 46.0389C22.0932 46.3355 21.8778 46.6321 21.6192 46.8439C21.3607 47.0981 21.0159 47.2676 20.6712 47.3523C20.2403 47.4794 19.8093 47.5642 19.3784 47.5218H18.0857V50.5299H17.0084V42.5647H19.4215ZM19.4215 46.7168C19.7232 46.7168 19.9817 46.6744 20.2403 46.5897C20.4557 46.505 20.6712 46.4202 20.8436 46.2507C21.0159 46.1236 21.1452 45.9118 21.2314 45.7423C21.3176 45.5305 21.3607 45.2763 21.3607 45.0644C21.4037 44.5984 21.1883 44.1747 20.8866 43.8781C20.585 43.5815 20.0679 43.4544 19.4215 43.4544H18.1288V46.7592H19.4215V46.7168ZM29.3327 49.6826V50.6147H24.6787V42.5647H25.756V49.6826H29.3327ZM38.6406 50.5723H37.7787C37.6926 50.5723 37.6064 50.5299 37.5202 50.4876C37.4771 50.4452 37.3909 50.3605 37.3909 50.3181L36.6152 48.3692H32.9524L32.1768 50.3181C32.1337 50.4028 32.0906 50.4452 32.0475 50.4876C31.9613 50.5299 31.8751 50.5723 31.7889 50.5723H30.9271L34.2021 42.5647H35.3225L38.6406 50.5723ZM36.3136 47.6065L35.0208 44.3442C34.9777 44.2594 34.9347 44.1323 34.8916 44.0052C34.8485 43.8781 34.8054 43.751 34.7623 43.5815C34.6761 43.8358 34.633 44.09 34.5037 44.3442L33.211 47.6065H36.3136ZM47.3021 42.5647V50.5723H46.7419C46.6557 50.5723 46.6126 50.5723 46.5264 50.5299C46.4402 50.4876 46.3972 50.4452 46.3541 50.3605L41.657 44.3442V50.5723H40.709V42.5647H41.3985C41.4416 42.5647 41.4416 42.5647 41.4847 42.6071C41.5277 42.6071 41.5277 42.6494 41.5708 42.6494L41.657 42.7342L46.3541 48.7505V48.4539V42.5647H47.3021ZM55.3603 49.6826V50.5723H50.3185V42.5647H55.3603V43.4544H51.4389V46.1236H54.6277V46.971H51.4389V49.7249H55.3603V49.6826ZM63.634 43.4544H61.0054V50.5723H59.885V43.4544H57.2563V42.5223H63.634V43.4544ZM23.1705 59.4549C23.2136 59.4549 23.2998 59.4973 23.3429 59.5397L23.7738 60.0057C23.4291 60.387 23.0412 60.6836 22.5672 60.8955C22.007 61.1073 21.4468 61.2344 20.8435 61.2344C20.2833 61.2344 19.7662 61.1497 19.2491 60.9378C18.7751 60.7684 18.3873 60.4718 18.0426 60.0905C17.6978 59.7091 17.4393 59.2855 17.2669 58.777C17.0945 58.2263 16.9653 57.6755 17.0084 57.1247C17.0084 56.5739 17.0945 55.9807 17.31 55.4723C17.4824 55.0063 17.784 54.5402 18.1287 54.1589C18.4735 53.7776 18.9044 53.5234 19.3784 53.3115C19.8955 53.0997 20.4557 53.015 21.0159 53.015C21.533 53.015 22.0501 53.0997 22.5672 53.2692C22.9982 53.4387 23.386 53.6929 23.7307 54.0318L23.386 54.5402C23.3429 54.5826 23.3429 54.625 23.2998 54.625C23.2567 54.6673 23.2136 54.6673 23.1705 54.6673C23.0843 54.6673 22.9982 54.625 22.912 54.5402L22.5241 54.286C22.0501 54.0318 21.5761 53.9047 21.059 53.9471C20.6712 53.9471 20.2833 54.0318 19.8955 54.1589C19.5508 54.286 19.2491 54.4979 18.9906 54.7944C18.732 55.091 18.5166 55.43 18.3873 55.7689C18.258 56.1926 18.1718 56.6586 18.1718 57.0823C18.1718 57.5484 18.258 57.9721 18.3873 58.4381C18.5166 58.8194 18.732 59.1584 18.9906 59.4126C19.2491 59.6668 19.5508 59.8786 19.8955 60.0481C20.2403 60.1752 20.6281 60.2599 21.0159 60.2599C21.2314 60.2599 21.4468 60.2599 21.6623 60.2176C21.8347 60.1752 22.0501 60.1328 22.2225 60.0905C22.3949 60.0481 22.5241 59.9634 22.6965 59.8786C22.8689 59.7939 22.9981 59.6668 23.1274 59.5397C22.9981 59.4973 23.0843 59.4549 23.1705 59.4549ZM32.9093 61.1073H32.0475C31.9613 61.1073 31.8751 61.0649 31.7889 61.0226C31.7458 60.9802 31.6597 60.8955 31.6597 60.8531L30.884 58.9042H27.2212L26.4455 60.8531C26.4024 60.9378 26.3593 60.9802 26.3162 61.0226C26.2301 61.0649 26.1439 61.1073 26.0577 61.1073H25.1958L28.4708 53.0997H29.5912L32.9093 61.1073ZM30.5824 58.1415L29.2896 54.8792C29.2465 54.7944 29.2034 54.6673 29.1603 54.5402C29.1172 54.4131 29.0741 54.286 29.031 54.1165C28.9879 54.3708 28.9018 54.625 28.7725 54.8792L27.4797 58.1415H30.5824ZM39.33 54.3284L39.2008 54.4555C39.1577 54.4979 39.1146 54.4979 39.0715 54.4979C38.9853 54.4979 38.8991 54.4555 38.856 54.4131C38.7698 54.3284 38.6406 54.286 38.5113 54.2013C38.3389 54.1165 38.2097 54.0318 38.0373 53.9894C37.8218 53.9047 37.6064 53.9047 37.3478 53.9047C37.1323 53.9047 36.9169 53.9471 36.7014 53.9894C36.5291 54.0318 36.3567 54.1165 36.2274 54.2437C36.0981 54.3708 36.012 54.4979 35.9258 54.625C35.8827 54.7944 35.8396 54.9639 35.8396 55.1334C35.8396 55.3452 35.8827 55.5147 36.012 55.6842C36.1412 55.8536 36.2705 55.9807 36.4429 56.0655C36.6583 56.1926 36.8307 56.2773 37.0462 56.3197C37.2616 56.4044 37.5202 56.4892 37.7787 56.5739C38.0373 56.6586 38.2528 56.7434 38.5113 56.8705C38.7268 56.9552 38.9422 57.0823 39.1146 57.2518C39.287 57.4213 39.4593 57.5907 39.5455 57.8449C39.6748 58.0992 39.7179 58.3957 39.7179 58.6923C39.7179 59.0313 39.6748 59.3702 39.5455 59.6668C39.4162 59.9634 39.2439 60.2599 39.0284 60.4718C38.7698 60.726 38.4682 60.8955 38.1666 61.0226C37.7787 61.1497 37.3909 61.2344 37.0031 61.2344C36.5291 61.2344 36.012 61.1497 35.5379 60.9378C35.107 60.7684 34.7623 60.5141 34.4176 60.1752L34.8054 59.6244C34.8485 59.582 34.8916 59.5397 34.9347 59.5397C34.9777 59.5397 35.0208 59.4973 35.0639 59.4973C35.107 59.4973 35.1932 59.5397 35.2363 59.5397C35.2794 59.582 35.3656 59.6244 35.4518 59.6668C35.5379 59.7091 35.6241 59.7939 35.7103 59.8786C35.8396 59.9634 35.9258 60.0057 36.055 60.0905C36.1843 60.1752 36.3567 60.2176 36.486 60.2176C36.6583 60.2599 36.8738 60.2599 37.0462 60.2599C37.3047 60.2599 37.5202 60.2176 37.7356 60.1328C37.908 60.0481 38.1235 59.9634 38.2527 59.8363C38.382 59.7091 38.5113 59.5397 38.5975 59.3702C38.6837 59.2007 38.7268 58.9889 38.7268 58.777C38.7268 58.5652 38.6837 58.3534 38.5544 58.1839C38.4251 58.0144 38.2958 57.8873 38.1235 57.8026C37.908 57.6755 37.7356 57.5907 37.5202 57.5484C37.3047 57.4636 37.0462 57.4213 36.7876 57.3365C36.5291 57.2518 36.3136 57.1671 36.055 57.0823C35.8396 56.9976 35.6241 56.8705 35.4518 56.701C35.2794 56.5315 35.107 56.3197 35.0208 56.1078C34.8054 55.5571 34.8054 54.9639 35.0208 54.4131C35.1501 54.1589 35.2794 53.9047 35.4949 53.6929C35.7103 53.481 36.0119 53.3116 36.2705 53.1844C36.6152 53.0573 36.96 52.9726 37.3478 53.015C37.7787 53.015 38.2096 53.0997 38.5975 53.2268C38.9853 53.3539 39.287 53.5658 39.5886 53.82L39.33 54.3284ZM43.3807 61.1073H42.2603V53.0997H43.3807V61.1073ZM53.0333 53.0997V61.1073H52.4731C52.3869 61.1073 52.3008 61.1073 52.2577 61.0649C52.1715 61.0226 52.1284 60.9802 52.0853 60.8955L47.3883 54.8368V61.0649H46.4402V53.0997H47.1297C47.1728 53.0997 47.1728 53.0997 47.2159 53.1421C47.259 53.1421 47.259 53.1844 47.3021 53.1844L47.3883 53.2692L52.0853 59.2855V58.9889V53.0997H53.0333ZM63.634 57.1247C63.634 57.6755 63.5478 58.2686 63.3323 58.777C63.16 59.2431 62.8583 59.7091 62.5136 60.0905C62.1688 60.4718 61.7379 60.726 61.2208 60.9378C60.1866 61.3191 58.98 61.3191 57.9458 60.9378C57.4718 60.7684 57.0409 60.4718 56.6961 60.0905C56.3514 59.7091 56.0498 59.2855 55.8774 58.777C55.6619 58.2263 55.5758 57.6755 55.5758 57.1247C55.5758 56.5739 55.6619 55.9807 55.8774 55.4723C56.0498 55.0063 56.3514 54.5402 56.6961 54.1589C57.0409 53.7776 57.4718 53.5234 57.9458 53.3115C59.0231 52.9302 60.1866 52.9302 61.2208 53.3115C61.6948 53.481 62.1257 53.7776 62.5136 54.1589C62.8583 54.5402 63.16 54.9639 63.3323 55.4723C63.5478 55.9807 63.634 56.5315 63.634 57.1247ZM62.5136 57.1247C62.5136 56.6586 62.4705 56.235 62.2981 55.8113C62.1688 55.43 61.9965 55.091 61.7379 54.8368C61.4794 54.5826 61.1777 54.3708 60.833 54.2013C60.0573 53.9047 59.1955 53.9047 58.4629 54.2013C58.1182 54.3284 57.8165 54.5402 57.558 54.8368C57.2994 55.1334 57.084 55.4723 56.9547 55.8113C56.8254 56.235 56.7392 56.701 56.7392 57.1247C56.7392 57.5907 56.7823 58.0144 56.9547 58.4381C57.084 58.8194 57.2563 59.1584 57.558 59.4126C57.8165 59.6668 58.1182 59.8786 58.4629 60.0481C59.2386 60.3447 60.0573 60.3447 60.833 60.0481C61.1777 59.921 61.4794 59.7091 61.7379 59.4126C61.9965 59.116 62.2119 58.777 62.2981 58.4381C62.4274 58.0144 62.5136 57.5484 62.5136 57.1247Z" fill="black"/>
<path d="M46.3411 21.4879H34.7571C38.228 19.1748 42.8269 19.1748 46.3411 21.4879ZM42.9137 33.3536L40.0936 39.2222C39.92 39.5649 39.6597 39.8647 39.356 40.1217C39.7465 40.1646 40.0936 40.1646 40.484 40.1646C46.211 40.1646 50.8099 35.6239 50.8533 29.9695C50.8533 29.2841 50.8099 28.6416 50.6364 27.9562C48.2501 30.0124 45.6904 31.8115 42.9137 33.3536ZM35.755 39.0508L37.1433 36.3093C35.9285 36.8662 34.7571 37.2945 33.7158 37.6372C34.3232 38.1941 35.0174 38.6653 35.755 39.0508ZM53.5432 22.2161C53.066 21.3594 51.2004 21.4451 48.5538 22.1733C50.3327 21.7449 51.5475 21.7878 51.9379 22.3447C52.3284 22.9872 51.5475 24.2723 49.9856 25.7716C49.3782 24.4436 48.4671 23.2442 47.339 22.259V23.2014C47.339 23.6297 47.2956 24.0153 47.1655 24.4436C47.0787 24.7007 46.9485 24.9577 46.8184 25.2147L44.5623 29.9267C43.5644 30.5692 42.5666 31.1689 41.5687 31.7258C40.5708 32.2827 39.5729 32.8396 38.6185 33.3108L41.829 26.9281C42.0459 26.5426 42.2195 26.2428 42.4364 25.9429C42.6533 25.6431 42.8703 25.3432 43.1306 25.0862H34.6269C34.4968 25.0862 34.3666 25.0433 34.2799 25.0005C34.1497 24.9577 34.0629 24.872 33.9762 24.7863C33.8894 24.7006 33.8026 24.615 33.7592 24.4865C33.7158 24.4008 33.6725 24.2723 33.6725 24.1438V22.2161C29.5942 25.6859 28.9 31.6401 32.0238 35.9238C29.9413 36.5235 28.4661 36.5235 28.0757 35.8809C27.7286 35.2812 28.336 34.2103 29.5942 32.9252C27.5984 34.81 26.6439 36.3521 27.1212 37.2089C28.1191 38.9223 34.8005 36.9518 42.0893 32.7967C49.3782 28.6416 54.5411 23.9296 53.5432 22.2161Z" fill="white"/>
</g>
<defs>
<filter id="filter0_b_386_2986" x="-14" y="-14" width="108" height="108" filterUnits="userSpaceOnUse" color-interpolation-filters="sRGB">
<feFlood flood-opacity="0" result="BackgroundImageFix"/>
<feGaussianBlur in="BackgroundImage" stdDeviation="7"/>
<feComposite in2="SourceAlpha" operator="in" result="effect1_backgroundBlur_386_2986"/>
<feBlend mode="normal" in="SourceGraphic" in2="effect1_backgroundBlur_386_2986" result="shape"/>
</filter>
</defs>
</svg>
