<svg width="141" height="32" viewBox="0 0 141 32" fill="none" xmlns="http://www.w3.org/2000/svg">
<g clip-path="url(#clip0_51_593)">
<path d="M32.5815 11.7243C32.5593 11.6708 32.5464 11.6186 32.5241 11.5638C31.1894 8.29151 26.1178 7.2999 20.2712 8.79515L19.3122 8.19757C22.1905 6.95544 25.057 6.30698 27.4591 6.48442C31.0419 6.75582 32.7942 8.79514 32.5815 11.7243ZM27.3834 18.5978C23.6348 23.3706 16.8605 26.6742 12.2508 26.3324C7.64895 25.984 6.9509 21.8362 10.7008 17.0634C10.7751 16.9655 10.856 16.869 10.9343 16.7711L10.9462 22.7547C10.9214 24.2761 12.3866 24.9898 13.4396 24.3857L27.2217 15.9804C28.2994 15.2824 28.1859 13.7206 27.1708 13.1191L21.5825 9.9029C23.0934 9.44884 24.543 9.23486 25.8308 9.33011C30.4366 9.67847 31.1294 13.825 27.3835 18.5978L27.3834 18.5978ZM9.85409 28.9001C5.62407 28.5818 3.93702 25.7935 5.03823 21.9967C5.03157 22.6295 5.13088 23.2362 5.36574 23.7999C7.01886 27.8642 14.4403 28.4148 21.9401 25.0407C22.094 24.9715 22.2467 24.8958 22.398 24.828C18.1876 27.5458 13.497 29.1702 9.85409 28.9002V28.9001ZM14.7274 7.6522L23.9794 13.4832C24.6631 13.8929 24.7453 14.9601 24.0172 15.4338L14.6713 21.1329C13.9575 21.5439 12.9568 21.0546 12.9764 20.0148L12.932 8.69862C12.9725 7.75397 13.9067 7.18379 14.7274 7.6522H14.7274ZM36.1436 9.75155C34.2048 4.98658 26.1518 3.93755 17.4374 7.02069L13.5701 4.59777C12.3658 3.91016 10.9906 4.74782 10.924 6.1413L10.9266 10.0764C3.41645 14.5765 -0.938828 21.0547 0.915233 25.6148C3.06417 30.8821 12.6893 31.6049 22.415 27.2235C32.1433 22.8448 38.2887 15.0215 36.1436 9.75155Z" fill="#161F49"/>
<path d="M43.874 16.6195L43.0338 19.7131C42.9085 20.1841 42.812 20.6134 42.735 20.9826C42.6554 21.3715 42.6228 21.6494 42.6228 21.8216C42.6228 22.153 42.7128 22.4061 42.8967 22.5966C43.0898 22.7858 43.3456 22.8784 43.66 22.8784C44.1532 22.8784 44.666 22.6005 45.197 22.0447C45.7254 21.4876 46.2317 20.6917 46.7262 19.6479C47.3173 18.3131 47.8 16.9992 48.1719 15.684C48.5307 14.3845 48.7199 13.3616 48.7199 12.6335C48.7199 12.1051 48.6103 11.6784 48.3976 11.3614C48.1836 11.0404 47.9096 10.876 47.5886 10.876C46.8567 10.876 46.1899 11.3496 45.578 12.2812C44.9661 13.2232 44.3985 14.665 43.874 16.6195H43.874ZM38.5949 9.43294C39.901 9.32986 41.1379 9.19287 42.3252 9.04021C43.5074 8.88753 44.6464 8.71011 45.7463 8.49482L44.8212 11.8115C45.745 10.5289 46.6257 9.5869 47.4699 9.00759C48.2984 8.4087 49.1596 8.12427 50.0651 8.12427C51.2967 8.12427 52.2531 8.51309 52.9173 9.28811C53.5918 10.071 53.9219 11.1826 53.9219 12.6205C53.9219 13.8339 53.6962 15.1151 53.2356 16.4525C52.7724 17.7925 52.1214 19.0372 51.3085 20.1932C50.3521 21.5371 49.3435 22.5444 48.2645 23.2112C47.1802 23.8831 46.0386 24.2223 44.8212 24.2223C44.3215 24.2223 43.8557 24.1532 43.4134 24.0031C42.9802 23.8479 42.5875 23.6378 42.2313 23.3534L41.284 26.9493C41.2188 27.1646 41.1679 27.3955 41.1431 27.6212C41.1065 27.8417 41.0975 28.0648 41.0975 28.288C41.0975 28.7198 41.2214 29.033 41.4771 29.2078C41.7342 29.3813 42.2535 29.4883 43.0337 29.5379V30.3782H34.2031V29.5014C34.2331 29.5014 34.2762 29.4973 34.3323 29.4869C34.391 29.4725 34.4366 29.4673 34.4588 29.4673C35.0081 29.4673 35.4165 29.3264 35.6905 29.0381C35.9671 28.751 36.2477 28.0034 36.5438 26.7848L40.0588 12.4677C40.1202 12.2393 40.1671 12.0058 40.205 11.784C40.2401 11.57 40.2611 11.3939 40.2611 11.2764C40.2611 10.8824 40.1424 10.6188 39.9127 10.474C39.6752 10.3122 39.2355 10.2392 38.5949 10.2392L38.5949 9.43294Z" fill="#161F49"/>
<path d="M54.7977 1.53567C56.1181 1.42868 57.3785 1.28518 58.6036 1.11032C59.8197 0.93679 60.9757 0.735857 62.0599 0.489258L57.2101 19.6861C57.1787 19.7918 57.1423 19.9184 57.1006 20.0854C57.0366 20.3333 57.0131 20.4925 57.0131 20.5773C57.0131 20.803 57.0549 20.9831 57.1436 21.107C57.2375 21.2362 57.3693 21.2988 57.5403 21.2988C57.7151 21.2988 57.9121 21.1788 58.1391 20.9322C58.3636 20.6908 58.7994 20.0554 59.4478 19.0259L60.2215 19.6131C59.2482 21.2427 58.3101 22.4274 57.4281 23.1607C56.546 23.8927 55.6301 24.2567 54.6724 24.2567C53.8282 24.2567 53.168 24.0231 52.7127 23.5469C52.2521 23.0707 52.0264 22.3844 52.0264 21.4985C52.0264 21.0627 52.2625 19.9067 52.7283 18.033L52.7753 17.8438L55.9941 5.34949C56.023 5.23469 56.0633 5.06375 56.1155 4.83933C56.3203 4.01734 56.4104 3.48762 56.4104 3.25928C56.4104 2.94483 56.3047 2.71651 56.0855 2.56385C55.8715 2.41643 55.5375 2.33683 55.0743 2.33683H54.7977L54.7977 1.53567Z" fill="#161F49"/>
<path d="M69.9809 11.4774C69.9809 11.0181 69.8843 10.6541 69.6834 10.3801C69.4825 10.1087 69.2228 9.97432 68.8979 9.97432C68.436 9.97432 67.9924 10.1987 67.5619 10.6554C67.1313 11.1173 66.6381 11.8793 66.0731 12.9465C65.4129 14.2187 64.8949 15.4582 64.5231 16.6808C64.1408 17.9138 63.9516 18.9563 63.9516 19.8213C63.9516 20.3471 64.0573 20.7529 64.2661 21.0608C64.4761 21.3505 64.7645 21.4979 65.1154 21.4979C65.636 21.4979 66.1671 21.1887 66.7177 20.5559C67.267 19.927 67.7863 19.0398 68.2782 17.8981C68.7949 16.626 69.2019 15.3851 69.5138 14.203C69.823 13.0118 69.9809 12.105 69.9809 11.4774H69.9809ZM75.8314 8.66043L73.2441 18.1564V18.1905C72.85 19.6531 72.6517 20.5038 72.6517 20.7478C72.6517 20.9735 72.6908 21.1536 72.7822 21.2945C72.867 21.4367 72.9779 21.498 73.1266 21.498C73.5455 21.498 74.0922 20.9944 74.7484 19.9832C74.9468 19.6948 75.0994 19.4665 75.2038 19.3073L75.9554 19.8997C75.1112 21.3819 74.2696 22.4779 73.4111 23.1759C72.5526 23.8766 71.6249 24.2223 70.6372 24.2223C69.8139 24.2223 69.185 24.0397 68.7609 23.6783C68.3238 23.3038 68.1112 22.7715 68.1112 22.0604C68.1112 21.849 68.1267 21.5763 68.1725 21.2566C68.2103 20.9317 68.2782 20.5116 68.3682 19.9988C67.5867 21.4276 66.7347 22.4909 65.8148 23.1772C64.8989 23.8766 63.8746 24.2223 62.746 24.2223C61.5796 24.2223 60.6623 23.8596 59.9878 23.1316C59.3106 22.3957 58.9727 21.3975 58.9727 20.1267C58.9727 18.6641 59.2923 17.1245 59.9486 15.4961C60.5958 13.8887 61.466 12.4495 62.5633 11.2139C63.4284 10.221 64.3235 9.45773 65.2551 8.92278C66.1932 8.38783 67.0895 8.12427 67.952 8.12427C68.7766 8.12427 69.4159 8.3252 69.8922 8.72314C70.3671 9.12762 70.6789 9.74216 70.829 10.5602L71.3052 8.66051L75.8314 8.66043Z" fill="#161F49"/>
<path d="M74.324 9.97416V9.09736C75.5844 8.95644 76.8604 8.78162 78.1612 8.5859C79.4517 8.38888 80.1549 8.29364 80.2528 8.29364C80.7721 8.29364 81.4518 10.5783 82.2751 15.1554C82.6092 16.9768 82.8832 18.4446 83.0985 19.5432C84.0796 17.5535 84.7503 16.1013 85.113 15.1932C85.4744 14.2903 85.6519 13.6184 85.6519 13.1891C85.6519 12.8564 85.3491 12.4519 84.7464 11.9913C84.1449 11.5255 83.8369 10.9906 83.8369 10.3995C83.8369 9.71452 84.0457 9.1626 84.4711 8.74378C84.8873 8.33147 85.4444 8.12402 86.1398 8.12402C86.8274 8.12402 87.3702 8.33147 87.759 8.74378C88.1413 9.1626 88.3397 9.74844 88.3397 10.4935C88.3397 11.4303 87.8895 12.9399 86.9984 15.0157C86.1046 17.0877 84.8834 19.4206 83.3372 22.0301C81.5875 25.005 79.9905 27.1643 78.5579 28.5317C77.124 29.8978 75.7435 30.5776 74.4166 30.5776C73.5346 30.5776 72.8444 30.3818 72.3394 29.9891C71.8371 29.5938 71.584 29.0536 71.584 28.3647C71.584 27.7384 71.7993 27.2309 72.239 26.8186C72.6735 26.4102 73.2241 26.2079 73.8947 26.2079C74.4192 26.2079 74.9829 26.418 75.5844 26.8316C76.1832 27.2517 76.5916 27.4501 76.79 27.4501C77.1514 27.4501 77.5585 27.1474 78.019 26.5433C78.4927 25.9313 78.7288 25.3572 78.7288 24.8001C78.7288 24.3943 78.691 23.8763 78.6192 23.2553C78.5488 22.6277 78.4353 21.8618 78.2891 20.9524C77.9838 19.0018 77.6746 17.2208 77.3667 15.6225C77.0509 14.0267 76.7704 12.7663 76.5186 11.8452C76.2968 11.0545 76.0737 10.5404 75.8479 10.2977C75.6222 10.0577 75.2569 9.93896 74.735 9.93896H74.6945C74.5432 9.95967 74.427 9.97409 74.324 9.97409" fill="#161F49"/>
<path d="M94.5013 19.9289C93.5267 21.3028 92.569 22.357 91.6361 23.0851C90.7123 23.8209 89.8681 24.1863 89.1009 24.1863C88.4825 24.1863 87.9997 23.9814 87.6435 23.5861C87.2873 23.1816 87.106 22.6401 87.106 21.9617C87.106 21.7229 87.1307 21.458 87.1777 21.1605C87.2208 20.8604 87.2899 20.5278 87.3826 20.1768L90.1643 9.30032H87.2351L87.5078 8.36481C88.7669 8.08949 89.8799 7.48932 90.8519 6.56033C91.8187 5.62743 92.6968 4.33964 93.468 2.69043H94.4674L93.16 8.15084H95.8361L95.566 9.30032H92.8077L90.1369 19.8062C90.0756 20.045 90.0286 20.2537 89.996 20.4508C89.9738 20.6426 89.9529 20.8187 89.9529 20.9675C89.9529 21.3172 90.0286 21.5807 90.1865 21.7686C90.3313 21.9552 90.5518 22.0452 90.8193 22.0452C91.169 22.0452 91.58 21.8417 92.0666 21.415C92.552 20.9975 93.1666 20.3112 93.9037 19.3652L94.5013 19.9289Z" fill="#161F49"/>
<path d="M97.233 16.3482C99.3858 16.2451 101.201 15.6554 102.656 14.592C104.122 13.5117 104.845 12.2996 104.845 10.9243C104.845 10.4638 104.729 10.118 104.495 9.88576C104.27 9.66267 103.919 9.54783 103.448 9.54783C102.143 9.54783 100.931 10.1389 99.8216 11.3445C98.7113 12.5579 97.8514 14.2228 97.233 16.3482H97.233ZM96.9786 17.5003C96.8781 17.8904 96.8142 18.2675 96.7685 18.6263C96.715 18.9747 96.7007 19.3022 96.7007 19.5984C96.7007 20.5091 96.9212 21.2045 97.3752 21.6834C97.8215 22.1635 98.4804 22.5184 99.3389 22.5184C100.184 22.5184 101.156 22.1165 102.226 21.5359C103.309 20.9592 104.527 20.085 105.868 18.9173L106.576 19.9898C104.975 21.4329 103.468 22.5001 102.051 23.1812C100.64 23.8767 99.2567 24.2159 97.8984 24.2159C96.5689 24.2159 95.5251 23.8127 94.7931 23.0207C94.0546 22.2183 93.688 21.0949 93.688 19.6297C93.688 18.2297 93.975 16.8049 94.5491 15.3618C95.1232 13.924 95.9087 12.6336 96.9003 11.5167C97.8619 10.4455 98.9201 9.63263 100.059 9.06376C101.215 8.50141 102.393 8.21045 103.607 8.21045C104.725 8.21045 105.6 8.47272 106.248 8.992C106.893 9.50738 107.22 10.2185 107.22 11.124C107.22 12.7536 106.27 14.1693 104.388 15.3592C102.503 16.5465 100.033 17.255 96.9786 17.5003Z" fill="#161F49"/>
<path d="M118.014 17.7239L117.972 19.7828C116.959 21.2663 115.86 22.3727 114.663 23.1112C113.467 23.8432 112.161 24.2072 110.747 24.2072C109.198 24.2072 107.932 23.6892 106.96 22.6402C105.992 21.6081 105.509 20.2329 105.509 18.525C105.509 17.2698 105.783 15.9898 106.331 14.6838C106.873 13.3725 107.635 12.2087 108.607 11.174C109.495 10.2385 110.492 9.50782 111.597 9.0068C112.692 8.49664 113.811 8.23438 114.965 8.23438C116.174 8.23438 117.135 8.51621 117.851 9.06812C118.566 9.62133 118.925 10.3559 118.925 11.2823C118.925 11.8316 118.742 12.3078 118.366 12.6993C117.996 13.0946 117.557 13.2877 117.045 13.2877C116.626 13.2877 116.288 13.1559 116.028 12.878C115.77 12.604 115.641 12.2491 115.641 11.8055C115.641 11.4963 115.741 11.1427 115.954 10.7304C116.159 10.3246 116.258 10.0715 116.258 9.96971C116.258 9.7792 116.157 9.62655 115.942 9.50782C115.728 9.38909 115.446 9.33037 115.08 9.33037C114.335 9.33037 113.581 9.55738 112.803 10.0271C112.032 10.5046 111.357 11.1466 110.778 11.9621C110.072 12.9511 109.527 14.004 109.144 15.1157C108.767 16.2247 108.581 17.3024 108.581 18.3697C108.581 19.5753 108.883 20.5395 109.495 21.2428C110.114 21.9474 110.944 22.4249 111.994 22.4249C112.822 22.4249 113.637 22.0374 114.436 21.5207C115.241 20.9949 116.574 19.9485 118.014 17.7239" fill="#161F49"/>
<path d="M116.189 24.2249L121.668 4.3757C121.7 4.25435 121.72 4.1317 121.734 3.99861C121.755 3.87727 121.76 3.7507 121.76 3.64896C121.76 3.29538 121.67 3.05269 121.5 2.91568C121.326 2.79434 120.829 2.7278 120.017 2.7278H118.77L118.963 1.8223C119.969 1.78184 120.908 1.66312 121.784 1.49221C122.65 1.30954 123.48 1.07468 124.249 0.768066H125.239L121.447 14.4784C123.389 12.4991 125.178 10.9673 126.805 9.86352C128.428 8.77927 129.725 8.22867 130.692 8.22867C131.202 8.22867 131.571 8.35001 131.816 8.59267C132.055 8.84317 132.184 9.22287 132.184 9.73303C132.184 9.89221 132.158 10.0814 132.111 10.3097C132.068 10.5459 132.009 10.8042 131.939 11.0821L129.171 20.4216C129.123 20.6003 129.077 20.8026 129.042 21.0192C129.004 21.2279 128.985 21.4445 128.985 21.6533C128.985 21.7733 129.042 21.8777 129.141 21.9742C129.241 22.0656 129.362 22.2287 129.492 22.2287C129.763 22.2287 130.142 21.9312 130.616 21.5632C131.093 21.1953 131.594 20.6917 132.124 20.0549L132.688 20.539C131.735 21.7211 130.817 22.6318 129.936 23.2516C129.051 23.8779 128.235 24.1936 127.491 24.1936C127.004 24.1936 126.621 24.0736 126.34 23.8387C126.054 23.5986 125.919 23.2803 125.919 22.8641C125.919 22.7179 125.931 22.56 125.963 22.3917C125.992 22.2247 126.047 22.0434 126.113 21.8437L128.956 12.1846C129.008 11.9733 129.042 11.8115 129.061 11.7019C129.078 11.5962 129.083 11.4905 129.083 11.4018C129.083 11.1551 129.016 10.9673 128.873 10.8342C128.737 10.7116 128.539 10.6476 128.278 10.6476C127.873 10.6476 127.276 10.8994 126.489 11.4109C125.696 11.9211 124.791 12.6504 123.75 13.5938C122.82 14.4288 122.132 15.1399 121.7 15.7283C121.269 16.3181 120.953 16.9287 120.757 17.5628L118.872 24.2249C118.656 24.1924 117.894 24.1675 117.673 24.1531C117.452 24.1376 117.774 24.1376 117.546 24.1376C117.315 24.1376 117.084 24.1376 116.861 24.1531C116.644 24.1676 116.42 24.1923 116.189 24.2249" fill="#161F49"/>
<path d="M83.6495 29.6851V29.9434C83.6482 30.0765 83.6624 30.1978 83.6991 30.314C83.7774 30.6271 84.0318 30.7837 84.4663 30.7837C84.6281 30.7837 84.7742 30.7615 84.906 30.7158C85.2022 30.6258 85.3522 30.4027 85.3613 30.0543C85.3587 29.8156 85.2622 29.629 85.0691 29.4985C84.9308 29.4085 84.7677 29.3211 84.5785 29.231L84.0057 28.9714C83.7787 28.8709 83.5895 28.7679 83.4395 28.6609C83.1237 28.4404 82.9645 28.1259 82.9645 27.7136C82.9686 27.2622 83.1472 26.9438 83.4956 26.7546C83.7565 26.6124 84.1114 26.5393 84.5668 26.5354C85.12 26.5354 85.5205 26.6398 85.7645 26.8499C85.9589 27.0182 86.0568 27.3496 86.0568 27.8428V27.9354H85.27V27.8245L85.2545 27.5844C85.2062 27.2243 84.9727 27.0482 84.5551 27.0573C84.0254 27.0573 83.7579 27.27 83.7514 27.694C83.7514 27.9641 83.9184 28.1846 84.2485 28.3542C84.456 28.4625 84.6869 28.5682 84.9453 28.6778C85.2062 28.7848 85.4176 28.8879 85.5794 28.9857C85.9591 29.218 86.1495 29.565 86.1495 30.0335C86.1418 30.8776 85.582 31.303 84.4677 31.303C83.9902 31.3096 83.6222 31.2286 83.3652 31.0668C83.0638 30.8737 82.9007 30.6023 82.8746 30.2422L82.8643 29.8704V29.6851L83.6495 29.6851Z" fill="#161F49"/>
<path d="M86.6754 28.0983C86.678 27.7173 86.7145 27.4394 86.7811 27.2619C86.8881 26.9827 87.119 26.7818 87.4765 26.6656C87.7349 26.5782 88.0128 26.5352 88.3116 26.5352C88.6051 26.5352 88.8831 26.5782 89.1453 26.6656C89.4976 26.7818 89.7272 26.9827 89.8355 27.2619C89.9021 27.4354 89.9399 27.7173 89.9451 28.0983V29.6522C89.9451 29.9315 89.9296 30.1754 89.8981 30.3777C89.8107 30.9896 89.2888 31.3001 88.3337 31.3027C87.6409 31.3027 87.1764 31.1605 86.9403 30.8722C86.7602 30.6569 86.6715 30.2485 86.6754 29.6522L86.6754 28.0983ZM87.4635 29.647C87.4661 30.0371 87.4949 30.2929 87.5483 30.4064C87.6017 30.5212 87.7048 30.6151 87.851 30.683C88.001 30.7495 88.1537 30.7834 88.3116 30.7834C88.4538 30.7834 88.5921 30.7572 88.7226 30.6986C88.9731 30.5995 89.1101 30.422 89.1349 30.1676C89.1478 30.0228 89.1545 29.8506 89.1571 29.647V28.0943C89.1622 27.7577 89.123 27.5202 89.0449 27.3846C88.9209 27.1653 88.6743 27.0545 88.3116 27.0571C88.1694 27.0571 88.0376 27.0778 87.9136 27.1262C87.6566 27.2136 87.5131 27.395 87.4831 27.6651C87.466 27.7877 87.4609 27.9313 87.4635 28.0943V29.647Z" fill="#161F49"/>
<path d="M90.6578 26.6016H91.4433V29.6951L91.451 30.1035C91.4784 30.5537 91.7407 30.7807 92.2365 30.7833C92.7336 30.7833 93.0063 30.5719 93.0533 30.1466C93.0714 29.9978 93.0807 29.8478 93.0832 29.6951V26.6016H93.87V29.7447C93.8674 30.0018 93.8582 30.2001 93.8426 30.3423C93.8179 30.5576 93.7317 30.7376 93.5804 30.8825C93.2933 31.163 92.8536 31.3 92.2613 31.3026C91.6467 31.3 91.2031 31.1643 90.933 30.8903C90.7817 30.7337 90.6969 30.5524 90.6773 30.3423C90.6644 30.217 90.6577 30.02 90.6577 29.7447L90.6578 26.6016Z" fill="#161F49"/>
<path d="M95.9205 26.6016H96.3902C96.5716 26.6016 96.7386 26.6186 96.8899 26.6433C97.4705 26.736 97.7641 27.1052 97.7732 27.7563C97.7732 28.0981 97.6963 28.3539 97.5436 28.5352C97.3948 28.7035 97.1039 28.817 96.6772 28.8784V28.8758C96.9434 28.902 97.1352 28.9423 97.2526 28.9971C97.421 29.0806 97.5266 29.2163 97.5684 29.4003C97.5957 29.5216 97.6114 29.6665 97.6193 29.8295L97.6533 30.3749C97.6662 30.5824 97.6884 30.7455 97.7185 30.8642C97.7355 30.949 97.7733 31.073 97.8347 31.2361H97.0153L96.9357 30.9399C96.9135 30.8564 96.8991 30.7494 96.8926 30.6202L96.8612 30.204L96.835 29.7695C96.7983 29.4381 96.6379 29.2372 96.3548 29.1719C96.2361 29.1472 96.0938 29.1341 95.9438 29.1341H95.3997V31.2361H94.6104V26.6016L95.9205 26.6016ZM95.3999 27.1235V28.6109H95.9622C96.1306 28.6109 96.2715 28.6005 96.398 28.582C96.6381 28.5442 96.8051 28.4476 96.8977 28.2911C96.9578 28.188 96.9865 28.0171 96.9865 27.777C96.9865 27.52 96.8991 27.3399 96.7229 27.2407C96.5951 27.1651 96.3589 27.1259 96.0066 27.1233L95.3999 27.1235Z" fill="#161F49"/>
<path d="M100.734 27.8241L100.73 27.6088C100.71 27.2382 100.491 27.0543 100.068 27.0569C99.6927 27.0582 99.4487 27.156 99.3352 27.3491C99.2725 27.4418 99.2386 27.5383 99.2321 27.6335L99.2254 28.0145V29.8438C99.228 30.1752 99.2606 30.3892 99.3207 30.4831C99.4511 30.6828 99.6755 30.7832 99.9952 30.7832C100.411 30.7806 100.649 30.5836 100.701 30.1909L100.734 29.8921V29.7329H101.52V29.8946L101.514 30.1843C101.487 30.5301 101.372 30.7949 101.158 30.9802C101.028 31.0937 100.874 31.172 100.7 31.2177C100.491 31.2751 100.265 31.3025 100.019 31.3025C99.8071 31.3066 99.6088 31.287 99.4144 31.2477C98.7659 31.1263 98.441 30.6945 98.4371 29.9482V28.1019C98.4358 27.8997 98.4464 27.7144 98.475 27.5409C98.5038 27.3295 98.5741 27.1521 98.6863 27.0138C98.9368 26.7006 99.387 26.5401 100.035 26.5349C100.942 26.5401 101.432 26.8285 101.501 27.3974C101.514 27.5069 101.52 27.6283 101.52 27.7627V27.9427H100.734L100.734 27.8241Z" fill="#161F49"/>
<path d="M102.207 26.6016H104.781V27.1235H102.994V28.5926H104.67V29.1145H102.994V30.7128H104.831V31.2361H102.207V26.6016Z" fill="#161F49"/>
<path d="M106.871 28.0983C106.873 27.7173 106.906 27.4394 106.976 27.2619C107.08 26.9827 107.312 26.7818 107.67 26.6656C107.928 26.5782 108.206 26.5352 108.505 26.5352C108.798 26.5352 109.078 26.5782 109.341 26.6656C109.691 26.7818 109.922 26.9827 110.031 27.2619C110.098 27.4354 110.134 27.7173 110.14 28.0983V29.6522C110.14 29.9315 110.124 30.1754 110.095 30.3777C110.003 30.9896 109.485 31.3001 108.527 31.3027C107.833 31.3027 107.368 31.1605 107.135 30.8722C106.955 30.6569 106.867 30.2485 106.871 29.6522V28.0983ZM107.657 29.647C107.661 30.0371 107.689 30.2929 107.744 30.4064C107.798 30.5212 107.898 30.6151 108.046 30.683C108.194 30.7495 108.348 30.7834 108.505 30.7834C108.65 30.7834 108.785 30.7572 108.918 30.6986C109.165 30.5995 109.302 30.422 109.327 30.1676C109.341 30.0228 109.349 29.8506 109.35 29.647V28.0943C109.356 27.7577 109.318 27.5202 109.24 27.3846C109.114 27.1653 108.868 27.0545 108.505 27.0571C108.363 27.0571 108.232 27.0778 108.108 27.1262C107.851 27.2136 107.708 27.395 107.679 27.6651C107.661 27.7877 107.654 27.9313 107.657 28.0943L107.657 29.647Z" fill="#161F49"/>
<path d="M113.366 26.6016V27.1235H111.645V28.5887H113.3V29.1093H111.645V31.2361H110.856V26.6016H113.366Z" fill="#161F49"/>
<path d="M115.983 29.6851V29.9434C115.979 30.0765 115.993 30.1978 116.03 30.314C116.108 30.6271 116.365 30.7837 116.796 30.7837C116.958 30.7837 117.105 30.7615 117.238 30.7158C117.532 30.6258 117.683 30.4027 117.694 30.0543C117.691 29.8156 117.596 29.629 117.401 29.4985C117.263 29.4085 117.099 29.3211 116.91 29.231L116.337 28.9714C116.111 28.8709 115.922 28.7679 115.768 28.6609C115.456 28.4404 115.297 28.1259 115.297 27.7136C115.304 27.2622 115.478 26.9438 115.829 26.7546C116.088 26.6124 116.445 26.5393 116.898 26.5354C117.451 26.5354 117.85 26.6398 118.098 26.8499C118.293 27.0182 118.388 27.3496 118.388 27.8428V27.9354H117.602V27.8245L117.587 27.5844C117.537 27.2243 117.305 27.0482 116.886 27.0573C116.354 27.0573 116.09 27.27 116.082 27.694C116.082 27.9641 116.251 28.1846 116.581 28.3542C116.786 28.4625 117.019 28.5682 117.278 28.6778C117.537 28.7848 117.75 28.8879 117.913 28.9857C118.29 29.218 118.482 29.565 118.482 30.0335C118.473 30.8776 117.913 31.303 116.8 31.303C116.321 31.3096 115.953 31.2286 115.698 31.0668C115.395 30.8737 115.232 30.6023 115.208 30.2422L115.195 29.8704V29.6851L115.983 29.6851Z" fill="#161F49"/>
<path d="M119.036 26.6016H119.822V29.6951L119.828 30.1035C119.856 30.5537 120.121 30.7807 120.614 30.7833C121.111 30.7833 121.384 30.5719 121.432 30.1466C121.447 29.9978 121.457 29.8478 121.459 29.6951V26.6016H122.247V29.7447C122.245 30.0018 122.235 30.2001 122.217 30.3423C122.197 30.5576 122.109 30.7376 121.959 30.8825C121.669 31.163 121.228 31.3 120.639 31.3026C120.024 31.3 119.579 31.1643 119.308 30.8903C119.159 30.7337 119.074 30.5524 119.055 30.3423C119.043 30.217 119.036 30.02 119.036 29.7447L119.036 26.6016Z" fill="#161F49"/>
<path d="M125.312 27.8241L125.308 27.6088C125.29 27.2382 125.067 27.0543 124.644 27.0569C124.27 27.0582 124.027 27.156 123.912 27.3491C123.851 27.4418 123.817 27.5383 123.809 27.6335L123.802 28.0145V29.8438C123.806 30.1752 123.837 30.3892 123.901 30.4831C124.028 30.6828 124.254 30.7832 124.572 30.7832C124.99 30.7806 125.226 30.5836 125.281 30.1909L125.312 29.8921V29.7329H126.099V29.8946L126.091 30.1843C126.069 30.5301 125.948 30.7949 125.735 30.9802C125.604 31.0937 125.452 31.172 125.277 31.2177C125.067 31.2751 124.841 31.3025 124.597 31.3025C124.384 31.3066 124.184 31.287 123.993 31.2477C123.345 31.1263 123.02 30.6945 123.018 29.9482V28.1019C123.014 27.8997 123.026 27.7144 123.053 27.5409C123.08 27.3295 123.149 27.1521 123.264 27.0138C123.515 26.7006 123.964 26.5401 124.614 26.5349C125.522 26.5401 126.011 26.8285 126.079 27.3974C126.091 27.5069 126.099 27.6283 126.099 27.7627V27.9427H125.312L125.312 27.8241Z" fill="#161F49"/>
<path d="M129.112 27.8241L129.108 27.6088C129.088 27.2382 128.87 27.0543 128.445 27.0569C128.069 27.0582 127.827 27.156 127.712 27.3491C127.649 27.4418 127.615 27.5383 127.611 27.6335L127.602 28.0145V29.8438C127.605 30.1752 127.639 30.3892 127.699 30.4831C127.829 30.6828 128.054 30.7832 128.372 30.7832C128.791 30.7806 129.026 30.5836 129.079 30.1909L129.112 29.8921V29.7329H129.898V29.8946L129.892 30.1843C129.866 30.5301 129.747 30.7949 129.536 30.9802C129.406 31.0937 129.252 31.172 129.076 31.2177C128.87 31.2751 128.64 31.3025 128.395 31.3025C128.185 31.3066 127.983 31.287 127.792 31.2477C127.144 31.1263 126.819 30.6945 126.815 29.9482V28.1019C126.811 27.8997 126.825 27.7144 126.853 27.5409C126.88 27.3295 126.948 27.1521 127.062 27.0138C127.314 26.7006 127.765 26.5401 128.413 26.5349C129.322 26.5401 129.81 26.8285 129.879 27.3974C129.892 27.5069 129.898 27.6283 129.898 27.7627V27.9427H129.112L129.112 27.8241Z" fill="#161F49"/>
<path d="M130.584 26.6016H133.158V27.1235H131.371V28.5926H133.047V29.1145H131.371V30.7128H133.208V31.2361H130.584V26.6016Z" fill="#161F49"/>
<path d="M134.364 29.6851V29.9434C134.361 30.0765 134.377 30.1978 134.413 30.314C134.492 30.6271 134.746 30.7837 135.178 30.7837C135.34 30.7837 135.489 30.7615 135.62 30.7158C135.914 30.6258 136.067 30.4027 136.078 30.0543C136.073 29.8156 135.977 29.629 135.783 29.4985C135.645 29.4085 135.481 29.3211 135.292 29.231L134.72 28.9714C134.493 28.8709 134.304 28.7679 134.152 28.6609C133.839 28.4404 133.68 28.1259 133.68 27.7136C133.685 27.2622 133.86 26.9438 134.211 26.7546C134.47 26.6124 134.826 26.5393 135.281 26.5354C135.834 26.5354 136.234 26.6398 136.481 26.8499C136.675 27.0182 136.771 27.3496 136.771 27.8428V27.9354H135.984V27.8245L135.969 27.5844C135.921 27.2243 135.686 27.0482 135.268 27.0573C134.74 27.0573 134.471 27.27 134.466 27.694C134.466 27.9641 134.633 28.1846 134.962 28.3542C135.168 28.4625 135.401 28.5682 135.661 28.6778C135.921 28.7848 136.131 28.8879 136.295 28.9857C136.672 29.218 136.865 29.565 136.865 30.0335C136.856 30.8776 136.298 31.303 135.182 31.303C134.702 31.3096 134.337 31.2286 134.081 31.0668C133.777 30.8737 133.614 30.6023 133.592 30.2422L133.577 29.8704V29.6851L134.364 29.6851Z" fill="#161F49"/>
<path d="M138.012 29.6851V29.9434C138.008 30.0765 138.024 30.1978 138.059 30.314C138.137 30.6271 138.394 30.7837 138.825 30.7837C138.988 30.7837 139.134 30.7615 139.265 30.7158C139.561 30.6258 139.712 30.4027 139.724 30.0543C139.72 29.8156 139.622 29.629 139.429 29.4985C139.292 29.4085 139.126 29.3211 138.937 29.231L138.367 28.9714C138.14 28.8709 137.951 28.7679 137.799 28.6609C137.484 28.4404 137.326 28.1259 137.326 27.7136C137.331 27.2622 137.508 26.9438 137.857 26.7546C138.116 26.6124 138.471 26.5393 138.928 26.5354C139.482 26.5354 139.879 26.6398 140.126 26.8499C140.32 27.0182 140.419 27.3496 140.419 27.8428V27.9354H139.632V27.8245L139.614 27.5844C139.567 27.2243 139.333 27.0482 138.914 27.0573C138.387 27.0573 138.118 27.27 138.113 27.694C138.113 27.9641 138.277 28.1846 138.611 28.3542C138.815 28.4625 139.048 28.5682 139.306 28.6778C139.567 28.7848 139.777 28.8879 139.939 28.9857C140.319 29.218 140.511 29.565 140.511 30.0335C140.501 30.8776 139.942 31.303 138.829 31.303C138.351 31.3096 137.985 31.2286 137.728 31.0668C137.422 30.8737 137.261 30.6023 137.237 30.2422L137.223 29.8704V29.6851L138.012 29.6851Z" fill="#161F49"/>
</g>
<defs>
<clipPath id="clip0_51_593">
<rect width="141" height="31.7926" fill="white"/>
</clipPath>
</defs>
</svg>
