<svg width="60" height="60" viewBox="0 0 60 60" fill="none" xmlns="http://www.w3.org/2000/svg">
<path d="M29.9999 44.2858C37.8897 44.2858 44.2857 37.8899 44.2857 30.0001C44.2857 22.1103 37.8897 15.7144 29.9999 15.7144C22.1102 15.7144 15.7142 22.1103 15.7142 30.0001C15.7142 37.8899 22.1102 44.2858 29.9999 44.2858Z" stroke="#0066B9" stroke-width="2" stroke-miterlimit="10" stroke-linecap="round" stroke-linejoin="round"/>
<path d="M30 50C41.0457 50 50 41.0457 50 30C50 18.9543 41.0457 10 30 10C18.9543 10 10 18.9543 10 30C10 41.0457 18.9543 50 30 50Z" stroke="#0066B9" stroke-width="2" stroke-miterlimit="10" stroke-linecap="round" stroke-linejoin="round"/>
<path d="M30 10V15.7143" stroke="#0066B9" stroke-width="2" stroke-miterlimit="10" stroke-linecap="round" stroke-linejoin="round"/>
<path d="M15.8572 15.8572L19.8572 19.8572" stroke="#0066B9" stroke-width="2" stroke-miterlimit="10" stroke-linecap="round" stroke-linejoin="round"/>
<path d="M10 30H15.7143" stroke="#0066B9" stroke-width="2" stroke-miterlimit="10" stroke-linecap="round" stroke-linejoin="round"/>
<path d="M15.8572 44.1428L19.8572 40.1428" stroke="#0066B9" stroke-width="2" stroke-miterlimit="10" stroke-linecap="round" stroke-linejoin="round"/>
<path d="M30 49.9999V44.2856" stroke="#0066B9" stroke-width="2" stroke-miterlimit="10" stroke-linecap="round" stroke-linejoin="round"/>
<path d="M44.1428 44.1428L40.1428 40.1428" stroke="#0066B9" stroke-width="2" stroke-miterlimit="10" stroke-linecap="round" stroke-linejoin="round"/>
<path d="M50.0001 30H44.2858" stroke="#0066B9" stroke-width="2" stroke-miterlimit="10" stroke-linecap="round" stroke-linejoin="round"/>
<path d="M44.1428 15.8572L40.1428 19.8572" stroke="#0066B9" stroke-width="2" stroke-miterlimit="10" stroke-linecap="round" stroke-linejoin="round"/>
<path d="M30.0001 22.8572L24.2858 30L30.0001 37.1429L35.7143 30L30.0001 22.8572Z" stroke="#0066B9" stroke-width="2" stroke-miterlimit="10" stroke-linecap="round" stroke-linejoin="round"/>
</svg>
