<svg width="141" height="65" viewBox="0 0 141 65" fill="none" xmlns="http://www.w3.org/2000/svg">
<g clip-path="url(#clip0_51_686)">
<path d="M121.278 25.1949C114.278 25.63 117.421 34.7462 125.159 34.265C132.729 33.7944 128.736 24.7315 121.278 25.1949Z" fill="#F19021"/>
<path d="M118.323 19.5642C113.863 19.5642 109.503 20.8868 105.794 23.3648C102.086 25.8427 99.1954 29.3647 97.4886 33.4853C95.7817 37.6059 95.3352 42.1402 96.2053 46.5146C97.0754 50.8891 99.2232 54.9073 102.377 58.0611C105.531 61.2149 109.549 63.3626 113.923 64.2328C118.298 65.1029 122.832 64.6563 126.953 62.9495C131.073 61.2427 134.595 58.3523 137.073 54.6438C139.551 50.9353 140.874 46.5753 140.874 42.1152C140.874 36.1343 138.498 30.3984 134.269 26.1693C130.04 21.9401 124.304 19.5642 118.323 19.5642ZM118.323 62.3027C114.331 62.3034 110.429 61.1203 107.109 58.9031C103.79 56.6859 101.203 53.5341 99.6745 49.8463C98.1464 46.1586 97.7462 42.1005 98.5245 38.1853C99.3029 34.2701 101.225 30.6737 104.047 27.8508C106.87 25.0279 110.466 23.1054 114.381 22.3264C118.296 21.5473 122.354 21.9468 126.042 23.4742C129.73 25.0017 132.882 27.5885 135.1 30.9075C137.318 34.2265 138.502 38.1287 138.502 42.1205C138.502 47.4725 136.376 52.6054 132.592 56.3902C128.807 60.175 123.675 62.3017 118.323 62.3027ZM117.643 3.82123C112.289 7.86796 113.22 14.0739 113.22 14.0739C113.22 14.0739 109.855 5.33942 105.485 0C104.895 6.87359 107.049 15.981 107.049 15.981C107.049 15.981 104.313 10.3344 97.608 10.0183C103.169 13.2145 105.327 18.973 105.82 20.5178C109.135 18.472 112.925 17.3251 116.817 17.1902C116.379 15.7519 114.82 9.69157 117.643 3.82123Z" fill="#F19021"/>
<path d="M1.96388 44.3258V49.0455H0V36.8858H4.13374C5.53533 36.8858 6.58889 37.219 7.29442 37.8855C7.99995 38.552 8.35508 39.4646 8.35982 40.6236C8.35982 41.773 7.99817 42.6774 7.27489 43.3368C6.5516 43.9961 5.50692 44.3258 4.14084 44.3258H1.96388ZM6.35509 40.6236C6.35509 39.9346 6.16273 39.409 5.778 39.0468C5.39328 38.6845 4.77653 38.504 3.92776 38.5052H1.96388V42.7242H3.92776C5.5448 42.7242 6.35391 42.024 6.35509 40.6236ZM16.4657 49.0455L13.4347 44.1891H12.039V49.0455H10.0751V36.8858H14.3651C15.7537 36.8858 16.8072 37.2244 17.5258 37.9015C18.2443 38.5786 18.603 39.4747 18.6018 40.5898C18.6018 41.5368 18.3349 42.3175 17.801 42.9319C17.2671 43.5463 16.4977 43.9363 15.4927 44.1021L18.6888 49.0455H16.4657ZM12.039 42.7934H14.2053C15.7916 42.7934 16.5841 42.0932 16.5829 40.6928C16.5829 40.0275 16.3905 39.5079 16.0058 39.1338C15.6205 38.7609 15.0221 38.5744 14.2053 38.5744H12.039V42.7934ZM27.6275 46.4104H22.4941L21.5636 49.0455H19.463L23.9413 37.0758H26.1981L30.6586 49.0455H28.5562L27.6275 46.4104ZM27.0753 44.8958L25.0599 39.2137L23.0445 44.8958H27.0753ZM40.5792 37.85C41.5432 38.5619 42.2213 39.5946 42.4916 40.7621H40.4247C40.1672 40.1152 39.7116 39.5664 39.1232 39.1942C38.4818 38.7926 37.7364 38.5888 36.9799 38.6082C36.2635 38.5965 35.5574 38.7807 34.9379 39.1409C34.3319 39.5 33.8419 40.0257 33.5263 40.6555C33.1752 41.3757 33.004 42.1702 33.0273 42.971C33.0043 43.7994 33.1816 44.6211 33.544 45.3663C33.8655 46.0082 34.3721 46.5389 34.9983 46.8899C35.6663 47.2528 36.417 47.4363 37.177 47.4226C38.1312 47.4392 39.0573 47.0999 39.7748 46.4708C40.4969 45.8458 40.9332 44.9875 41.0835 43.8961H36.6177V42.4489H42.7313V44.3258C42.6024 45.2005 42.2756 46.0343 41.776 46.7638C41.2692 47.5001 40.5893 48.1007 39.7961 48.5128C38.9257 48.9597 37.9582 49.1842 36.9799 49.1663C35.8825 49.1887 34.7993 48.9152 33.8441 48.3743C32.9483 47.8581 32.2193 47.0958 31.7435 46.1778C31.2562 45.1771 31.003 44.0787 31.003 42.9657C31.003 41.8526 31.2562 40.7542 31.7435 39.7535C32.2173 38.8393 32.9432 38.0801 33.8352 37.5659C34.789 37.0305 35.8687 36.7602 36.9622 36.7828C38.4099 36.7828 39.6156 37.1385 40.5792 37.85ZM56.5975 37.0758V49.0455H54.6158V40.0731L51.1551 49.0455H49.4327L45.9524 40.0731V49.0455H43.9903V37.0758H46.3661L50.3276 46.6342L54.2198 37.0758H56.5975ZM66.2073 46.4104H61.0828L60.1523 49.0455H58.0446L62.5228 37.0758H64.7779L69.2402 49.0455H67.1378L66.2073 46.4104ZM65.6569 44.8958L63.6415 39.2137L61.6261 44.8958H65.6569ZM77.6444 36.8858V38.4697H74.2511V49.0455H72.2694V38.4697H68.8957V36.8858H77.6444ZM80.6577 36.8858V49.0455H78.6956V36.8858H80.6577ZM91.768 37.9015C92.7643 38.6733 93.4687 39.7609 93.7656 40.9858H91.681C91.4148 40.2762 90.9369 39.6656 90.312 39.2368C89.6302 38.79 88.8272 38.5643 88.0125 38.5904C87.3291 38.5795 86.6569 38.7644 86.0752 39.1231C85.4936 39.4954 85.0279 40.0232 84.731 40.6466C84.408 41.3733 84.241 42.1597 84.241 42.955C84.241 43.7503 84.408 44.5367 84.731 45.2634C85.0274 45.8876 85.4932 46.4161 86.0752 46.7886C86.6569 47.1475 87.3291 47.3324 88.0125 47.3213C88.827 47.348 89.63 47.1229 90.312 46.6768C90.9335 46.2521 91.411 45.6482 91.681 44.9455H93.7656C93.4705 46.1682 92.7655 47.2529 91.768 48.0192C90.7807 48.7721 89.5407 49.1485 88.048 49.1485C86.9793 49.1687 85.9253 48.8974 84.9992 48.3637C84.1198 47.8469 83.4083 47.0873 82.9501 46.176C82.473 45.1724 82.2255 44.0751 82.2255 42.9639C82.2255 41.8526 82.473 40.7553 82.9501 39.7517C83.41 38.8393 84.1209 38.0773 84.9992 37.5552C85.9237 37.0168 86.9783 36.7428 88.048 36.7633C89.5395 36.7645 90.7795 37.1439 91.768 37.9015ZM103.029 44.3258V49.0455H101.067V36.8858H105.201C106.6 36.8858 107.654 37.219 108.362 37.8855C109.069 38.552 109.425 39.4646 109.427 40.6236C109.427 41.773 109.065 42.6774 108.342 43.3368C107.619 43.9961 106.574 44.3258 105.208 44.3258H103.029ZM107.428 40.6236C107.428 39.9346 107.235 39.409 106.85 39.0468C106.466 38.6845 105.848 38.504 104.998 38.5052H103.029V42.7242H104.993C106.616 42.7242 107.428 42.024 107.428 40.6236ZM112.795 47.5131H116.998V49.0455H110.832V36.8858H112.795V47.5131ZM125.989 46.4104H120.857L119.926 49.0455H117.824L122.304 37.0758H124.559L129.021 49.0455H126.919L125.989 46.4104ZM125.438 44.8958L123.423 39.2137L121.407 44.8958H125.438ZM136.904 36.8858L132.857 44.6188V49.0455H130.881V44.6188L126.816 36.8858H129.091L131.882 42.5182L134.672 36.8858H136.904Z" fill="black"/>
</g>
<defs>
<clipPath id="clip0_51_686">
<rect width="141" height="64.6696" fill="white"/>
</clipPath>
</defs>
</svg>
