<svg width="141" height="36" viewBox="0 0 141 36" fill="none" xmlns="http://www.w3.org/2000/svg">
<path fill-rule="evenodd" clip-rule="evenodd" d="M78.208 0.410639C77.8342 0.133545 77.404 0 76.9776 0C76.3048 0 75.6403 0.333863 75.2249 0.956324L63.6829 18.1461C63.0015 19.159 63.2348 20.5582 64.2051 21.2692C64.5791 21.545 65.0084 21.6778 65.4347 21.6778C66.1086 21.6778 66.7719 21.3467 67.1892 20.726L78.7285 3.5337C79.4092 2.52235 79.1766 1.12213 78.208 0.410639Z" fill="#E46F2A"/>
<path fill-rule="evenodd" clip-rule="evenodd" d="M140.754 28.2249L128.428 1.36528C128.059 0.559509 127.293 0.0895996 126.495 0.0895996C126.185 0.0895996 125.87 0.160874 125.57 0.310674C124.503 0.846606 124.053 2.18531 124.565 3.30219L136.889 30.1648C137.257 30.9696 138.024 31.4385 138.823 31.4385C139.134 31.4385 139.448 31.3664 139.749 31.2166C140.816 30.681 141.266 29.342 140.754 28.2249Z" fill="#E46F2A"/>
<path fill-rule="evenodd" clip-rule="evenodd" d="M113.837 11.0211C113.854 10.9055 113.873 10.7875 113.873 10.6657V8.13407C113.873 8.05104 113.856 7.97177 113.849 7.89049C113.849 7.87423 113.852 7.85998 113.852 7.84372C113.852 3.56828 110.531 0.0895996 106.45 0.0895996C106.439 0.0895996 106.427 0.0941011 106.417 0.0941011C106.403 0.0941011 106.393 0.0895996 106.381 0.0895996H101.053C99.869 0.0895996 98.9116 1.09469 98.9116 2.33336C98.9116 3.57278 99.869 4.57612 101.053 4.57612H106.387C106.398 4.57612 106.407 4.57437 106.418 4.57437C106.429 4.57437 106.439 4.57612 106.45 4.57612C108.169 4.57612 109.569 6.04286 109.569 7.84372C109.569 7.9265 109.583 8.00428 109.593 8.08556C109.592 8.10181 109.588 8.11807 109.588 8.13407V10.5069C109.581 10.5719 109.568 10.6349 109.568 10.7017C109.568 12.5006 108.169 13.9675 106.45 13.9675C106.439 13.9675 106.429 13.9693 106.418 13.9693C106.407 13.9693 106.397 13.9675 106.387 13.9675H101.053C99.869 13.9675 98.9106 14.9706 98.9106 16.2093C98.9106 17.448 99.869 18.4531 101.053 18.4531H106.381C106.392 18.4531 106.403 18.4476 106.414 18.4476C106.427 18.4476 106.437 18.4531 106.45 18.4531C110.428 18.4531 113.675 15.1474 113.837 11.0211Z" fill="#E46F2A"/>
<path fill-rule="evenodd" clip-rule="evenodd" d="M87.9105 0.0895996C83.8287 0.0895996 80.5068 3.56828 80.5068 7.84373C80.5068 9.08214 81.4678 10.0855 82.6499 10.0855C83.833 10.0855 84.7929 9.08214 84.7929 7.84373C84.7929 6.04287 86.1912 4.57612 87.9105 4.57612C89.6303 4.57612 91.0296 6.04287 91.0296 7.84373C91.0296 9.08214 91.9886 10.0855 93.1726 10.0855C94.3557 10.0855 95.3147 9.08214 95.3147 7.84373C95.3147 3.56828 91.9929 0.0895996 87.9105 0.0895996Z" fill="#E46F2A"/>
<mask id="mask0_51_552" style="mask-type:alpha" maskUnits="userSpaceOnUse" x="0" y="0" width="96" height="36">
<path d="M0 0.0893555H95.3149V35.5444H0V0.0893555Z" fill="white"/>
</mask>
<g mask="url(#mask0_51_552)">
<path fill-rule="evenodd" clip-rule="evenodd" d="M93.1726 21.4512C91.9886 21.4512 91.0296 22.4573 91.0296 23.6959C91.0296 25.4965 89.6303 26.9618 87.9105 26.9618C86.1912 26.9618 84.7929 25.4965 84.7929 23.6959C84.7929 22.4573 83.833 21.4512 82.6499 21.4512C81.4678 21.4512 80.5068 22.4573 80.5068 23.6959C80.5068 27.9686 83.8287 31.4471 87.9105 31.4471C91.9929 31.4471 95.3147 27.9686 95.3147 23.6959C95.3147 22.4573 94.3557 21.4512 93.1726 21.4512Z" fill="#E46F2A"/>
<path fill-rule="evenodd" clip-rule="evenodd" d="M7.39002 0.0893555C3.30934 0.0893555 -0.0141602 3.56803 -0.0141602 7.84348C-0.0141602 9.0819 0.944146 10.0852 2.12889 10.0852C3.31101 10.0852 4.27099 9.0819 4.27099 7.84348C4.27099 6.04262 5.67023 4.57587 7.39002 4.57587C9.10909 4.57587 10.5086 6.04262 10.5086 7.84348C10.5086 9.0819 11.4676 10.0852 12.6514 10.0852C13.8354 10.0852 14.7935 9.0819 14.7935 7.84348C14.7935 3.56803 11.4726 0.0893555 7.39002 0.0893555Z" fill="#E46F2A"/>
<path fill-rule="evenodd" clip-rule="evenodd" d="M12.6514 21.4512C11.4676 21.4512 10.5086 22.4573 10.5086 23.6959C10.5086 25.4965 9.10909 26.9618 7.39002 26.9618C5.67023 26.9618 4.27099 25.4965 4.27099 23.6959C4.27099 22.4573 3.31101 21.4512 2.12889 21.4512C0.944146 21.4512 -0.0141602 22.4573 -0.0141602 23.6959C-0.0141602 27.9686 3.30934 31.4471 7.39002 31.4471C7.97785 31.4471 8.54825 31.366 9.09978 31.2325L10.7455 34.3901C11.1246 35.1163 11.8321 35.5357 12.5687 35.5574C12.5876 35.5592 12.6093 35.5592 12.6292 35.5592C12.9772 35.5592 13.3269 35.4699 13.6527 35.2851C14.6936 34.6887 15.0753 33.3274 14.5076 32.2411L12.8014 28.968C14.0334 27.5822 14.7935 25.7329 14.7935 23.6959C14.7935 22.4573 13.8354 21.4512 12.6514 21.4512Z" fill="#E46F2A"/>
</g>
<path fill-rule="evenodd" clip-rule="evenodd" d="M58.3159 21.4512C57.1345 21.4512 56.1738 22.4573 56.1738 23.6959C56.1738 25.4965 54.7736 26.9618 53.0546 26.9618C51.3355 26.9618 49.9353 25.4965 49.9353 23.6959C49.9353 22.4573 48.9772 21.4512 47.7932 21.4512C46.6111 21.4512 45.6504 22.4573 45.6504 23.6959C45.6504 27.9686 48.972 31.4471 53.0546 31.4471C57.1372 31.4471 60.4597 27.9686 60.4597 23.6959C60.4597 22.4573 59.4997 21.4512 58.3159 21.4512Z" fill="#E46F2A"/>
<path fill-rule="evenodd" clip-rule="evenodd" d="M31.2683 21.4512C30.0862 21.4512 29.1279 22.4573 29.1279 23.6959C29.1279 25.4965 27.7268 26.9618 26.007 26.9618C24.2879 26.9618 22.8887 25.4965 22.8887 23.6959C22.8887 22.4573 21.9304 21.4512 20.7473 21.4512C19.5635 21.4512 18.6035 22.4573 18.6035 23.6959C18.6035 27.9686 21.9244 31.4471 26.007 31.4471C30.0877 31.4471 33.4112 27.9686 33.4112 23.6959C33.4112 22.4573 32.4521 21.4512 31.2683 21.4512Z" fill="#E46F2A"/>
<path fill-rule="evenodd" clip-rule="evenodd" d="M53.0546 0.0895996C48.972 0.0895996 45.6504 3.56828 45.6504 7.84373C45.6504 9.08214 46.6111 10.0855 47.7932 10.0855C48.9772 10.0855 49.9353 9.08214 49.9353 7.84373C49.9353 6.04287 51.3355 4.57612 53.0546 4.57612C54.7736 4.57612 56.1738 6.04287 56.1738 7.84373C56.1738 9.08214 57.1345 10.0855 58.3159 10.0855C59.4997 10.0855 60.4597 9.08214 60.4597 7.84373C60.4597 3.56828 57.1372 0.0895996 53.0546 0.0895996Z" fill="#E46F2A"/>
<path fill-rule="evenodd" clip-rule="evenodd" d="M82.6502 11.3611C82.5255 11.3611 82.403 11.3511 82.2788 11.3386L89.9383 22.749C90.3372 21.2677 91.6333 20.1761 93.173 20.1761C93.2685 20.1761 93.3643 20.1851 93.4615 20.1921L85.8615 8.87476C85.4413 10.3137 84.1608 11.3611 82.6502 11.3611Z" fill="#E46F2A"/>
<path fill-rule="evenodd" clip-rule="evenodd" d="M67.5788 10.126V2.33336C67.5788 1.09469 66.6191 0.0895996 65.436 0.0895996C64.2529 0.0895996 63.293 1.09469 63.293 2.33336V16.5079L67.5788 10.126Z" fill="#E46F2A"/>
<path fill-rule="evenodd" clip-rule="evenodd" d="M47.7933 20.1756C48.6075 20.1756 49.3547 20.4832 49.938 20.9876V10.5486C49.3547 11.0548 48.6075 11.3606 47.7933 11.3606C46.9816 11.3606 46.2347 11.0575 45.6528 10.5531V20.9856C46.2347 20.4812 46.9816 20.1756 47.7933 20.1756Z" fill="#E46F2A"/>
<path fill-rule="evenodd" clip-rule="evenodd" d="M141 25.8181V2.33336C141 1.09469 140.042 0.0895996 138.859 0.0895996C137.674 0.0895996 136.716 1.09469 136.716 2.33336V16.4801L141 25.8181Z" fill="#E46F2A"/>
<path fill-rule="evenodd" clip-rule="evenodd" d="M101.053 12.6899H103.2V5.85337H101.053C100.242 5.85337 99.4974 5.55002 98.9141 5.04785V13.4947C99.4974 12.9948 100.242 12.6899 101.053 12.6899Z" fill="#E46F2A"/>
<path fill-rule="evenodd" clip-rule="evenodd" d="M118.783 0.0895996C117.598 0.0895996 116.639 1.09469 116.639 2.33336V29.1995C116.639 30.4391 117.598 31.4422 118.783 31.4422C119.968 31.4422 120.924 30.4391 120.924 29.1995V2.33336C120.924 1.09469 119.968 0.0895996 118.783 0.0895996Z" fill="#E46F2A"/>
<path fill-rule="evenodd" clip-rule="evenodd" d="M65.4351 22.9534C64.7397 22.9534 64.0728 22.7316 63.5032 22.3147C63.4308 22.2614 63.3627 22.2001 63.293 22.1414V29.199C63.293 30.4387 64.2529 31.4418 65.436 31.4418C66.6191 31.4418 67.5788 30.4387 67.5788 29.199V22.1414C66.9817 22.6565 66.2269 22.9534 65.4351 22.9534Z" fill="#E46F2A"/>
<path fill-rule="evenodd" clip-rule="evenodd" d="M39.5264 0.0895996C38.345 0.0895996 37.3843 1.09469 37.3843 2.33336V29.1995C37.3843 30.4391 38.345 31.4422 39.5264 31.4422C40.7104 31.4422 41.6701 30.4391 41.6701 29.1995V2.33336C41.6701 1.09469 40.7104 0.0895996 39.5264 0.0895996Z" fill="#E46F2A"/>
<path fill-rule="evenodd" clip-rule="evenodd" d="M72.746 14.6655L69.9155 18.8785L75.0362 30.1583C75.404 30.9673 76.172 31.4382 76.9741 31.4382C77.281 31.4382 77.5944 31.3679 77.8927 31.2219C78.9612 30.6895 79.4143 29.3507 78.906 28.2311L72.746 14.6655Z" fill="#E46F2A"/>
<path fill-rule="evenodd" clip-rule="evenodd" d="M124.354 5.78809V29.199C124.354 30.4387 125.314 31.4418 126.497 31.4418C127.68 31.4418 128.639 30.4387 128.639 29.199V15.1262L124.354 5.78809Z" fill="#E46F2A"/>
<path fill-rule="evenodd" clip-rule="evenodd" d="M101.053 19.7283C100.242 19.7283 99.4974 19.4232 98.9141 18.9253V29.199C98.9141 30.4387 99.874 31.4418 101.057 31.4418C102.239 31.4418 103.2 30.4387 103.2 29.199V19.7283H101.053Z" fill="#E46F2A"/>
<path fill-rule="evenodd" clip-rule="evenodd" d="M20.7473 20.1762C21.5608 20.1762 22.3078 20.4838 22.8911 20.9882V2.33336C22.8911 1.09469 21.9304 0.0895996 20.7473 0.0895996C19.5635 0.0895996 18.6035 1.09469 18.6035 2.33336V20.9862C19.1885 20.4818 19.933 20.1762 20.7473 20.1762Z" fill="#E46F2A"/>
<mask id="mask1_51_552" style="mask-type:alpha" maskUnits="userSpaceOnUse" x="0" y="0" width="34" height="21">
<path d="M0 0.0893555H33.4096V20.9879H0V0.0893555Z" fill="white"/>
</mask>
<g mask="url(#mask1_51_552)">
<path fill-rule="evenodd" clip-rule="evenodd" d="M31.2684 20.1761C32.0817 20.1761 32.8279 20.4818 33.4095 20.9862V2.33336C33.4095 1.09469 32.4521 0.0895996 31.2684 0.0895996C30.0843 0.0895996 29.1279 1.09469 29.1279 2.33336V20.9882C29.7096 20.4818 30.4565 20.1761 31.2684 20.1761Z" fill="#E46F2A"/>
<path fill-rule="evenodd" clip-rule="evenodd" d="M2.12868 20.1756C2.94129 20.1756 3.69178 20.4832 4.27245 20.9876V10.5486C3.69178 11.0548 2.94129 11.3606 2.12868 11.3606C1.31513 11.3606 0.568929 11.0575 -0.0126953 10.5531V20.9856C0.568929 20.4812 1.31513 20.1756 2.12868 20.1756Z" fill="#E46F2A"/>
</g>
<path fill-rule="evenodd" clip-rule="evenodd" d="M12.6511 11.3606C11.8361 11.3606 11.0899 11.0548 10.5083 10.5486V20.9876C11.0899 20.4812 11.8361 20.1756 12.6511 20.1756C13.4637 20.1756 14.2099 20.4812 14.7915 20.9856V10.5531C14.2099 11.0548 13.4637 11.3606 12.6511 11.3606Z" fill="#E46F2A"/>
</svg>
