<svg width="60" height="60" viewBox="0 0 60 60" fill="none" xmlns="http://www.w3.org/2000/svg">
<path d="M33.9681 31.8014C33.1618 31.5044 32.4985 30.9119 32.1127 30.1441L32.0001 29.9235L32.1352 29.7208C32.603 28.9994 33.3274 28.4827 34.1617 28.2752C35.9631 27.8248 37.1431 27.1853 37.67 26.3792C38.303 25.4135 38.5265 24.2359 38.2913 23.1055C38.0561 21.975 37.3814 20.9843 36.4157 20.3513C35.4501 19.7183 34.2725 19.4948 33.142 19.73C32.0116 19.9652 31.0209 20.6398 30.3878 21.6055C29.8564 22.4116 29.7483 23.7492 30.0591 25.5776C30.2062 26.4249 30.0242 27.2964 29.5502 28.014L29.4196 28.2211H29.1764C28.3224 28.1706 27.5187 27.8009 26.9246 27.1853C25.6366 25.8343 24.4928 25.1498 23.5335 25.0957C22.3882 25.0438 21.2686 25.4462 20.4184 26.2153C19.5681 26.9845 19.0558 28.0581 18.9929 29.2029C18.93 30.3477 19.3215 31.4711 20.0824 32.3287C20.8433 33.1864 21.912 33.709 23.0561 33.7829C24.0064 33.837 25.2268 33.265 26.6589 32.0806C27.3212 31.5299 28.1679 31.2514 29.0278 31.3015H29.271L29.3835 31.5177C29.7709 32.2858 29.8561 33.1713 29.6222 33.9991C29.1088 35.8005 29.0728 37.12 29.5096 37.9802C29.7401 38.5327 30.082 39.0317 30.5141 39.4459C30.9462 39.8602 31.4591 40.1809 32.0208 40.3878C32.5825 40.5947 33.1809 40.6835 33.7785 40.6486C34.3761 40.6137 34.96 40.4559 35.4938 40.1849C36.0276 39.914 36.4997 39.5358 36.8807 39.0741C37.2616 38.6123 37.5431 38.0769 37.7077 37.5014C37.8722 36.9258 37.9162 36.3225 37.8368 35.7292C37.7575 35.1358 37.5566 34.5653 37.2466 34.0532C36.8098 33.193 35.7064 32.4274 33.9681 31.8014ZM34.9228 39.1106C34.1068 39.5222 33.1608 39.5935 32.2923 39.3091C31.4237 39.0246 30.7032 38.4075 30.2887 37.5929C29.9645 36.9489 30.023 35.7915 30.4644 34.2648C30.7684 33.2139 30.6605 32.0866 30.1626 31.1124L29.8159 30.4504L29.0548 30.4098H28.8161C27.8106 30.409 26.8368 30.7613 26.0645 31.4051C24.835 32.4229 23.8127 32.9408 23.0877 32.9003C22.194 32.8241 21.3651 32.4029 20.7767 31.7259C20.1884 31.0489 19.8868 30.1694 19.936 29.2738C19.9852 28.3782 20.3813 27.537 21.0403 26.9286C21.6993 26.3201 22.5693 25.9922 23.466 26.0144C24.182 26.055 25.1503 26.6809 26.2581 27.8158C27.0182 28.5902 28.0429 29.0487 29.1268 29.0993L29.8879 29.1443L30.3068 28.5049C30.9016 27.5941 31.13 26.4921 30.9463 25.42C30.6805 23.8437 30.7481 22.6954 31.1399 22.0919C31.6414 21.3276 32.425 20.793 33.3195 20.6048C34.2141 20.4166 35.1467 20.5902 35.9136 21.0876C36.6772 21.5907 37.2112 22.3751 37.3992 23.27C37.5873 24.1649 37.4143 25.0979 36.9179 25.8658C36.5216 26.4648 35.4948 26.9917 33.9456 27.379C32.8897 27.6397 31.9722 28.2916 31.3786 29.2029L30.9643 29.8469L31.3065 30.5269C31.7975 31.4979 32.6372 32.2474 33.6574 32.6255C35.157 33.1795 36.1163 33.81 36.445 34.454C36.8577 35.271 36.9292 36.2185 36.6438 37.0882C36.3584 37.958 35.7394 38.6789 34.9228 39.0926V39.1106Z" fill="#0066B9" stroke="#0066B9"/>
<path d="M30 50C26.0444 50 22.1776 48.827 18.8886 46.6294C15.5996 44.4318 13.0362 41.3082 11.5224 37.6537C10.0087 33.9991 9.6126 29.9778 10.3843 26.0982C11.156 22.2186 13.0608 18.6549 15.8579 15.8579C18.6549 13.0608 22.2186 11.156 26.0982 10.3843C29.9778 9.6126 33.9991 10.0087 37.6537 11.5224C41.3082 13.0362 44.4318 15.5996 46.6294 18.8886C48.827 22.1776 50 26.0444 50 30C49.994 35.3025 47.885 40.3861 44.1356 44.1355C40.3861 47.885 35.3025 49.994 30 50ZM30 10.9007C26.2225 10.9007 22.5299 12.0209 19.389 14.1195C16.2481 16.2182 13.8001 19.2011 12.3546 22.691C10.909 26.181 10.5307 30.0212 11.2677 33.7261C12.0046 37.431 13.8237 40.8342 16.4948 43.5052C19.1658 46.1763 22.569 47.9954 26.2739 48.7323C29.9788 49.4693 33.819 49.091 37.309 47.6455C40.7989 46.1999 43.7818 43.7519 45.8805 40.611C47.9791 37.4701 49.0993 33.7775 49.0993 30C49.0933 24.9364 47.0792 20.0819 43.4987 16.5013C39.9181 12.9208 35.0636 10.9067 30 10.9007Z" fill="#0066B9" stroke="#0066B9"/>
</svg>
