<svg width="34" height="34" viewBox="0 0 34 34" fill="none" xmlns="http://www.w3.org/2000/svg">
<path d="M17.0001 27.2863C22.6807 27.2863 27.2858 22.6812 27.2858 17.0006C27.2858 11.3199 22.6807 6.71484 17.0001 6.71484C11.3195 6.71484 6.71439 11.3199 6.71439 17.0006C6.71439 22.6812 11.3195 27.2863 17.0001 27.2863Z" stroke="white" stroke-width="2" stroke-miterlimit="10" stroke-linecap="round" stroke-linejoin="round"/>
<path d="M17 33C25.8365 33 33 25.8366 33 17C33 8.16344 25.8365 1 17 1C8.16344 1 1 8.16344 1 17C1 25.8366 8.16344 33 17 33Z" stroke="white" stroke-width="2" stroke-miterlimit="10" stroke-linecap="round" stroke-linejoin="round"/>
<path d="M17 1V6.71429" stroke="white" stroke-width="2" stroke-miterlimit="10" stroke-linecap="round" stroke-linejoin="round"/>
<path d="M10.8285 2.25635L13.1142 7.51349" stroke="white" stroke-width="2" stroke-miterlimit="10" stroke-linecap="round" stroke-linejoin="round"/>
<path d="M5.68597 5.68604L9.68597 9.68603" stroke="white" stroke-width="2" stroke-miterlimit="10" stroke-linecap="round" stroke-linejoin="round"/>
<path d="M2.2572 10.8286L7.51434 13.1143" stroke="white" stroke-width="2" stroke-miterlimit="10" stroke-linecap="round" stroke-linejoin="round"/>
<path d="M1 17H6.71428" stroke="white" stroke-width="2" stroke-miterlimit="10" stroke-linecap="round" stroke-linejoin="round"/>
<path d="M2.2572 23.1719L7.51434 20.8862" stroke="white" stroke-width="2" stroke-miterlimit="10" stroke-linecap="round" stroke-linejoin="round"/>
<path d="M5.68597 28.314L9.68597 24.314" stroke="white" stroke-width="2" stroke-miterlimit="10" stroke-linecap="round" stroke-linejoin="round"/>
<path d="M10.8285 31.7425L13.1142 26.4854" stroke="white" stroke-width="2" stroke-miterlimit="10" stroke-linecap="round" stroke-linejoin="round"/>
<path d="M17 32.9994V27.2852" stroke="white" stroke-width="2" stroke-miterlimit="10" stroke-linecap="round" stroke-linejoin="round"/>
<path d="M23.1716 31.7425L20.8859 26.4854" stroke="white" stroke-width="2" stroke-miterlimit="10" stroke-linecap="round" stroke-linejoin="round"/>
<path d="M28.3143 28.314L24.3143 24.314" stroke="white" stroke-width="2" stroke-miterlimit="10" stroke-linecap="round" stroke-linejoin="round"/>
<path d="M31.743 23.1719L26.4858 20.8862" stroke="white" stroke-width="2" stroke-miterlimit="10" stroke-linecap="round" stroke-linejoin="round"/>
<path d="M32.9999 17H27.2856" stroke="white" stroke-width="2" stroke-miterlimit="10" stroke-linecap="round" stroke-linejoin="round"/>
<path d="M31.743 10.8286L26.4858 13.1143" stroke="white" stroke-width="2" stroke-miterlimit="10" stroke-linecap="round" stroke-linejoin="round"/>
<path d="M28.3143 5.68604L24.3143 9.68603" stroke="white" stroke-width="2" stroke-miterlimit="10" stroke-linecap="round" stroke-linejoin="round"/>
<path d="M23.1716 2.25635L20.8859 7.51349" stroke="white" stroke-width="2" stroke-miterlimit="10" stroke-linecap="round" stroke-linejoin="round"/>
<path d="M16.9606 13.4538C18.1794 13.4538 19.1675 12.4658 19.1675 11.2469C19.1675 10.0281 18.1794 9.04004 16.9606 9.04004C15.7417 9.04004 14.7537 10.0281 14.7537 11.2469C14.7537 12.4658 15.7417 13.4538 16.9606 13.4538Z" stroke="white" stroke-width="2" stroke-miterlimit="10" stroke-linecap="round" stroke-linejoin="round"/>
<path d="M22.675 19.1672C23.8938 19.1672 24.8819 18.1792 24.8819 16.9603C24.8819 15.7415 23.8938 14.7534 22.675 14.7534C21.4562 14.7534 20.4681 15.7415 20.4681 16.9603C20.4681 18.1792 21.4562 19.1672 22.675 19.1672Z" stroke="white" stroke-width="2" stroke-miterlimit="10" stroke-linecap="round" stroke-linejoin="round"/>
<path d="M11.2463 19.1672C12.4651 19.1672 13.4532 18.1792 13.4532 16.9603C13.4532 15.7415 12.4651 14.7534 11.2463 14.7534C10.0275 14.7534 9.0394 15.7415 9.0394 16.9603C9.0394 18.1792 10.0275 19.1672 11.2463 19.1672Z" stroke="white" stroke-width="2" stroke-miterlimit="10" stroke-linecap="round" stroke-linejoin="round"/>
<path d="M16.9606 24.8821C18.1794 24.8821 19.1675 23.894 19.1675 22.6752C19.1675 21.4563 18.1794 20.4683 16.9606 20.4683C15.7417 20.4683 14.7537 21.4563 14.7537 22.6752C14.7537 23.894 15.7417 24.8821 16.9606 24.8821Z" stroke="white" stroke-width="2" stroke-miterlimit="10" stroke-linecap="round" stroke-linejoin="round"/>
<path d="M13.1378 17H20.8619" stroke="white" stroke-width="2" stroke-miterlimit="10" stroke-linecap="round" stroke-linejoin="round"/>
<path d="M17 20.8623V13.1382" stroke="white" stroke-width="2" stroke-miterlimit="10" stroke-linecap="round" stroke-linejoin="round"/>
</svg>
