<svg width="42" height="42" viewBox="0 0 42 42" fill="none" xmlns="http://www.w3.org/2000/svg">
<path d="M21.0002 33.8578C28.101 33.8578 33.8573 28.1015 33.8573 21.0007C33.8573 13.8999 28.101 8.14355 21.0002 8.14355C13.8994 8.14355 8.14307 13.8999 8.14307 21.0007C8.14307 28.1015 13.8994 33.8578 21.0002 33.8578Z" stroke="#0066B9" stroke-width="2" stroke-miterlimit="10" stroke-linecap="round" stroke-linejoin="round"/>
<path d="M21 41C32.0457 41 41 32.0457 41 21C41 9.9543 32.0457 1 21 1C9.9543 1 1 9.9543 1 21C1 32.0457 9.9543 41 21 41Z" stroke="#0066B9" stroke-width="2" stroke-miterlimit="10" stroke-linecap="round" stroke-linejoin="round"/>
<path d="M21 1V8.14286" stroke="#0066B9" stroke-width="2" stroke-miterlimit="10" stroke-linecap="round" stroke-linejoin="round"/>
<path d="M13.2856 2.57031L16.1428 9.14174" stroke="#0066B9" stroke-width="2" stroke-miterlimit="10" stroke-linecap="round" stroke-linejoin="round"/>
<path d="M6.85742 6.85742L11.8574 11.8574" stroke="#0066B9" stroke-width="2" stroke-miterlimit="10" stroke-linecap="round" stroke-linejoin="round"/>
<path d="M2.57129 13.2856L9.14271 16.1428" stroke="#0066B9" stroke-width="2" stroke-miterlimit="10" stroke-linecap="round" stroke-linejoin="round"/>
<path d="M1 21H8.14285" stroke="#0066B9" stroke-width="2" stroke-miterlimit="10" stroke-linecap="round" stroke-linejoin="round"/>
<path d="M2.57129 28.7151L9.14271 25.8579" stroke="#0066B9" stroke-width="2" stroke-miterlimit="10" stroke-linecap="round" stroke-linejoin="round"/>
<path d="M6.85742 35.1426L11.8574 30.1426" stroke="#0066B9" stroke-width="2" stroke-miterlimit="10" stroke-linecap="round" stroke-linejoin="round"/>
<path d="M13.2856 39.4279L16.1428 32.8564" stroke="#0066B9" stroke-width="2" stroke-miterlimit="10" stroke-linecap="round" stroke-linejoin="round"/>
<path d="M21 40.9993V33.8564" stroke="#0066B9" stroke-width="2" stroke-miterlimit="10" stroke-linecap="round" stroke-linejoin="round"/>
<path d="M28.7146 39.4279L25.8574 32.8564" stroke="#0066B9" stroke-width="2" stroke-miterlimit="10" stroke-linecap="round" stroke-linejoin="round"/>
<path d="M35.1431 35.1426L30.1431 30.1426" stroke="#0066B9" stroke-width="2" stroke-miterlimit="10" stroke-linecap="round" stroke-linejoin="round"/>
<path d="M39.4288 28.7151L32.8574 25.8579" stroke="#0066B9" stroke-width="2" stroke-miterlimit="10" stroke-linecap="round" stroke-linejoin="round"/>
<path d="M40.9998 21H33.8569" stroke="#0066B9" stroke-width="2" stroke-miterlimit="10" stroke-linecap="round" stroke-linejoin="round"/>
<path d="M39.4288 13.2856L32.8574 16.1428" stroke="#0066B9" stroke-width="2" stroke-miterlimit="10" stroke-linecap="round" stroke-linejoin="round"/>
<path d="M35.1431 6.85742L30.1431 11.8574" stroke="#0066B9" stroke-width="2" stroke-miterlimit="10" stroke-linecap="round" stroke-linejoin="round"/>
<path d="M28.7146 2.57031L25.8574 9.14174" stroke="#0066B9" stroke-width="2" stroke-miterlimit="10" stroke-linecap="round" stroke-linejoin="round"/>
<path d="M20.9505 16.5675C22.4741 16.5675 23.7091 15.3325 23.7091 13.8089C23.7091 12.2854 22.4741 11.0503 20.9505 11.0503C19.427 11.0503 18.1919 12.2854 18.1919 13.8089C18.1919 15.3325 19.427 16.5675 20.9505 16.5675Z" stroke="#0066B9" stroke-width="2" stroke-miterlimit="10" stroke-linecap="round" stroke-linejoin="round"/>
<path d="M28.0936 23.7087C29.6171 23.7087 30.8522 22.4736 30.8522 20.95C30.8522 19.4265 29.6171 18.1914 28.0936 18.1914C26.57 18.1914 25.335 19.4265 25.335 20.95C25.335 22.4736 26.57 23.7087 28.0936 23.7087Z" stroke="#0066B9" stroke-width="2" stroke-miterlimit="10" stroke-linecap="round" stroke-linejoin="round"/>
<path d="M13.8079 23.7087C15.3315 23.7087 16.5666 22.4736 16.5666 20.95C16.5666 19.4265 15.3315 18.1914 13.8079 18.1914C12.2844 18.1914 11.0493 19.4265 11.0493 20.95C11.0493 22.4736 12.2844 23.7087 13.8079 23.7087Z" stroke="#0066B9" stroke-width="2" stroke-miterlimit="10" stroke-linecap="round" stroke-linejoin="round"/>
<path d="M20.9505 30.8527C22.4741 30.8527 23.7091 29.6176 23.7091 28.0941C23.7091 26.5705 22.4741 25.3354 20.9505 25.3354C19.427 25.3354 18.1919 26.5705 18.1919 28.0941C18.1919 29.6176 19.427 30.8527 20.9505 30.8527Z" stroke="#0066B9" stroke-width="2" stroke-miterlimit="10" stroke-linecap="round" stroke-linejoin="round"/>
<path d="M16.1724 21H25.8275" stroke="#0066B9" stroke-width="2" stroke-miterlimit="10" stroke-linecap="round" stroke-linejoin="round"/>
<path d="M21 25.828V16.1729" stroke="#0066B9" stroke-width="2" stroke-miterlimit="10" stroke-linecap="round" stroke-linejoin="round"/>
</svg>
