<svg width="60" height="60" viewBox="0 0 60 60" fill="none" xmlns="http://www.w3.org/2000/svg">
<path d="M30.0001 42.8578C37.1009 42.8578 42.8572 37.1015 42.8572 30.0007C42.8572 22.8999 37.1009 17.1436 30.0001 17.1436C22.8993 17.1436 17.1429 22.8999 17.1429 30.0007C17.1429 37.1015 22.8993 42.8578 30.0001 42.8578Z" stroke="#0066B9" stroke-width="2" stroke-miterlimit="10" stroke-linecap="round" stroke-linejoin="round"/>
<path d="M30 50C41.0457 50 50 41.0457 50 30C50 18.9543 41.0457 10 30 10C18.9543 10 10 18.9543 10 30C10 41.0457 18.9543 50 30 50Z" stroke="#0066B9" stroke-width="2" stroke-miterlimit="10" stroke-linecap="round" stroke-linejoin="round"/>
<path d="M30 10V17.1429" stroke="#0066B9" stroke-width="2" stroke-miterlimit="10" stroke-linecap="round" stroke-linejoin="round"/>
<path d="M22.2856 11.5703L25.1428 18.1417" stroke="#0066B9" stroke-width="2" stroke-miterlimit="10" stroke-linecap="round" stroke-linejoin="round"/>
<path d="M15.8574 15.8574L20.8574 20.8574" stroke="#0066B9" stroke-width="2" stroke-miterlimit="10" stroke-linecap="round" stroke-linejoin="round"/>
<path d="M11.5715 22.2856L18.143 25.1428" stroke="#0066B9" stroke-width="2" stroke-miterlimit="10" stroke-linecap="round" stroke-linejoin="round"/>
<path d="M10 30H17.1429" stroke="#0066B9" stroke-width="2" stroke-miterlimit="10" stroke-linecap="round" stroke-linejoin="round"/>
<path d="M11.5715 37.7151L18.143 34.8579" stroke="#0066B9" stroke-width="2" stroke-miterlimit="10" stroke-linecap="round" stroke-linejoin="round"/>
<path d="M15.8574 44.1426L20.8574 39.1426" stroke="#0066B9" stroke-width="2" stroke-miterlimit="10" stroke-linecap="round" stroke-linejoin="round"/>
<path d="M22.2856 48.4279L25.1428 41.8564" stroke="#0066B9" stroke-width="2" stroke-miterlimit="10" stroke-linecap="round" stroke-linejoin="round"/>
<path d="M30 49.9993V42.8564" stroke="#0066B9" stroke-width="2" stroke-miterlimit="10" stroke-linecap="round" stroke-linejoin="round"/>
<path d="M37.7144 48.4279L34.8573 41.8564" stroke="#0066B9" stroke-width="2" stroke-miterlimit="10" stroke-linecap="round" stroke-linejoin="round"/>
<path d="M44.143 44.1426L39.1429 39.1426" stroke="#0066B9" stroke-width="2" stroke-miterlimit="10" stroke-linecap="round" stroke-linejoin="round"/>
<path d="M48.4286 37.7151L41.8572 34.8579" stroke="#0066B9" stroke-width="2" stroke-miterlimit="10" stroke-linecap="round" stroke-linejoin="round"/>
<path d="M49.9999 30H42.8571" stroke="#0066B9" stroke-width="2" stroke-miterlimit="10" stroke-linecap="round" stroke-linejoin="round"/>
<path d="M48.4286 22.2856L41.8572 25.1428" stroke="#0066B9" stroke-width="2" stroke-miterlimit="10" stroke-linecap="round" stroke-linejoin="round"/>
<path d="M44.143 15.8574L39.1429 20.8574" stroke="#0066B9" stroke-width="2" stroke-miterlimit="10" stroke-linecap="round" stroke-linejoin="round"/>
<path d="M37.7144 11.5703L34.8573 18.1417" stroke="#0066B9" stroke-width="2" stroke-miterlimit="10" stroke-linecap="round" stroke-linejoin="round"/>
<path d="M29.9508 25.5675C31.4743 25.5675 32.7094 24.3325 32.7094 22.8089C32.7094 21.2854 31.4743 20.0503 29.9508 20.0503C28.4272 20.0503 27.1921 21.2854 27.1921 22.8089C27.1921 24.3325 28.4272 25.5675 29.9508 25.5675Z" stroke="#0066B9" stroke-width="2" stroke-miterlimit="10" stroke-linecap="round" stroke-linejoin="round"/>
<path d="M37.0937 32.7087C38.6172 32.7087 39.8523 31.4736 39.8523 29.95C39.8523 28.4265 38.6172 27.1914 37.0937 27.1914C35.5702 27.1914 34.3351 28.4265 34.3351 29.95C34.3351 31.4736 35.5702 32.7087 37.0937 32.7087Z" stroke="#0066B9" stroke-width="2" stroke-miterlimit="10" stroke-linecap="round" stroke-linejoin="round"/>
<path d="M22.8079 32.7087C24.3315 32.7087 25.5666 31.4736 25.5666 29.95C25.5666 28.4265 24.3315 27.1914 22.8079 27.1914C21.2844 27.1914 20.0493 28.4265 20.0493 29.95C20.0493 31.4736 21.2844 32.7087 22.8079 32.7087Z" stroke="#0066B9" stroke-width="2" stroke-miterlimit="10" stroke-linecap="round" stroke-linejoin="round"/>
<path d="M29.9508 39.8527C31.4743 39.8527 32.7094 38.6176 32.7094 37.0941C32.7094 35.5705 31.4743 34.3354 29.9508 34.3354C28.4272 34.3354 27.1921 35.5705 27.1921 37.0941C27.1921 38.6176 28.4272 39.8527 29.9508 39.8527Z" stroke="#0066B9" stroke-width="2" stroke-miterlimit="10" stroke-linecap="round" stroke-linejoin="round"/>
<path d="M25.1722 30H34.8274" stroke="#0066B9" stroke-width="2" stroke-miterlimit="10" stroke-linecap="round" stroke-linejoin="round"/>
<path d="M30 34.828V25.1729" stroke="#0066B9" stroke-width="2" stroke-miterlimit="10" stroke-linecap="round" stroke-linejoin="round"/>
</svg>
