<svg width="141" height="51" viewBox="0 0 141 51" fill="none" xmlns="http://www.w3.org/2000/svg">
<path fill-rule="evenodd" clip-rule="evenodd" d="M99.741 38.4452C99.584 36.9427 98.9883 35.9042 98.0116 35.4402C96.6621 34.7988 95.7938 34.733 89.8527 34.731C86.0959 34.731 84.6694 34.8191 83.4253 35.1727C80.8914 35.8799 79.9795 37.2942 79.549 41.1837C79.2146 44.1006 79.1366 45.2495 79.2268 46.1117C79.3798 47.5929 79.9725 48.6091 80.9491 49.0731C82.2277 49.6719 83.4324 49.7823 88.5812 49.7823C90.5518 49.7823 92.4656 49.7377 93.3886 49.6942C95.7806 49.5392 97.1747 48.9201 98.1403 47.5949C98.8535 46.6 99.1869 45.3619 99.4766 42.8655C99.7725 40.2131 99.8231 39.2192 99.741 38.4452ZM83.8782 44.5666C83.7464 43.3073 84.1243 40.3904 84.5225 39.5505C85.0078 38.4897 85.7201 38.3347 89.9854 38.3347C94.5152 38.3347 95.04 38.4897 95.1859 39.8818C95.2487 40.4786 95.1778 41.4735 94.9752 43.13C94.6702 45.2738 94.0988 45.9374 92.3917 46.0914C91.6247 46.1583 90.5001 46.1806 88.5113 46.1806C84.711 46.1806 84.022 45.9374 83.8782 44.5666ZM45.1353 44.921C45.1093 45.1782 45.1069 45.4373 45.1282 45.695C45.1698 46.0922 45.4413 46.3576 45.8476 46.4458C46.2771 46.5339 47.499 46.6008 48.6266 46.6008C50.4827 46.6008 52.356 46.5562 52.9011 46.4903C54.2334 46.3353 54.7147 45.8713 54.6103 44.8774C54.5657 44.457 54.3347 44.1479 53.9913 44.0375C53.5333 43.8825 53.5333 43.8825 51.1889 43.8602H47.1231C45.112 43.8602 43.8628 43.7498 43.1333 43.5289C41.9905 43.1753 41.3593 42.4236 41.2367 41.2524C41.0574 39.5513 41.5174 37.4024 42.259 36.4794C43.3329 35.1309 45.1515 34.7773 50.9194 34.7773C55.3165 34.7773 56.4086 34.8665 57.5353 35.2839C58.4785 35.6375 59.0195 36.3669 59.135 37.4723C59.1908 38.0022 59.1806 38.532 59.0499 39.3973H54.6934C54.7115 39.229 54.7155 39.0596 54.7055 38.8907C54.6225 38.0954 54.0754 37.9414 51.4908 37.9414C49.656 37.9414 47.6966 38.0072 46.9965 38.0731C46.0998 38.1622 45.6075 38.7367 45.6956 39.5766C45.707 39.714 45.7494 39.847 45.8196 39.9656C45.8898 40.0842 45.9859 40.1854 46.1009 40.2615C46.5054 40.5042 46.5233 40.5047 48.309 40.548L48.3186 40.5482H52.4948C52.7603 40.5482 53.508 40.5705 54.6893 40.6151C56.3316 40.6809 56.8686 40.7478 57.5424 41.0568C58.4653 41.4327 58.9608 42.1622 59.0803 43.2858C59.2566 44.9656 58.8493 46.9767 58.1148 47.9706C57.0702 49.389 55.2506 49.7385 49.1079 49.7385C45.2184 49.7385 44.0188 49.6727 42.8436 49.4295C41.4414 49.1205 40.7484 48.4163 40.6207 47.2006C40.5508 46.537 40.568 46.0729 40.7352 44.924L45.1353 44.921ZM63.6365 34.888H68.1227L66.9242 45.981H77.0668L76.6768 49.6283H62.0479L63.6365 34.888ZM108.523 38.5334H101.961L102.351 34.8861H119.963L119.572 38.5334H113.009L111.811 49.6274H107.326L108.523 38.5334ZM125.451 45.6941C125.43 45.4364 125.432 45.1773 125.458 44.92L121.055 44.9231C120.889 46.072 120.87 46.536 120.94 47.1996C121.073 48.4154 121.766 49.1195 123.169 49.4286C124.343 49.6717 125.544 49.7376 129.433 49.7376C135.575 49.7376 137.395 49.388 138.439 47.9696C139.174 46.9757 139.582 44.9646 139.405 43.2848C139.285 42.1612 138.79 41.4318 137.867 41.0559C137.193 40.7469 136.656 40.68 135.014 40.6141C133.839 40.5696 133.085 40.5473 132.819 40.5473H128.643L128.633 40.547C126.849 40.5037 126.83 40.5033 126.425 40.2606C126.31 40.1849 126.214 40.0838 126.143 39.9651C126.073 39.8464 126.031 39.7132 126.02 39.5757C125.932 38.7358 126.423 38.1613 127.32 38.0722C128.02 38.0063 129.981 37.9404 131.814 37.9404C134.4 37.9404 134.946 38.0944 135.03 38.8898C135.039 39.0587 135.035 39.2281 135.017 39.3963H139.374C139.503 38.5311 139.513 38.0012 139.458 37.4714C139.342 36.366 138.801 35.6365 137.858 35.283C136.731 34.8655 135.639 34.7764 131.242 34.7764C125.475 34.7764 123.656 35.13 122.583 36.4785C121.84 37.4014 121.38 39.5503 121.559 41.2514C121.682 42.4226 122.313 43.1744 123.456 43.528C124.185 43.7488 125.435 43.8593 127.446 43.8593H131.512C133.856 43.8816 133.856 43.8816 134.315 44.0366C134.657 44.147 134.889 44.456 134.933 44.8765C135.037 45.8704 134.556 46.3344 133.225 46.4894C132.679 46.5553 130.805 46.5998 128.949 46.5998C127.823 46.5998 126.6 46.533 126.17 46.4448C125.764 46.3567 125.492 46.0912 125.451 45.6941Z" fill="#AB0000"/>
<path fill-rule="evenodd" clip-rule="evenodd" d="M140.589 11.7313L140.656 11.0654L123.459 11.0603L122.96 15.9798H132.835C132.64 17.9031 132.485 18.3481 132.037 18.7535C131.271 19.3831 129.891 19.4934 123.491 19.4934L118.913 19.421C116.923 19.3468 116.309 19.1985 115.765 18.7172C114.979 18.0894 114.896 16.7198 115.312 12.6144C115.96 6.21493 116.002 6.1787 124.878 6.1787C130.502 6.1787 132.259 6.32705 132.949 6.84453C133.396 7.17744 133.436 7.51035 133.33 8.91444H140.837C141.169 5.29036 141.025 3.77415 140.113 2.5529C138.681 0.629601 135.312 0 126.17 0C117.551 0 113.502 0.481256 111.605 1.73873C109.385 3.1756 108.507 5.6595 107.832 12.3177C107.011 20.418 107.234 22.2309 109.269 23.6747C111.198 25.0788 113.828 25.4134 122.262 25.4134C128.918 25.4134 131.559 25.2651 134.164 24.7476C137.184 24.1594 138.947 22.4586 139.535 19.5728C139.766 18.3895 140.349 14.0996 140.589 11.7313ZM45.2433 0.376009H63.4034C71.9108 0.376009 71.9108 0.376011 73.408 1.3368C75.1795 2.48388 75.5642 4.14844 75.133 8.40902C74.7742 11.9607 74.2619 13.3665 72.9354 14.4014C72.135 14.9931 71.4037 15.2898 69.8305 15.5106C73.5943 15.9556 74.1429 17.063 73.4236 22.7553L73.1907 25.0494H65.7838L65.9149 23.754C66.1961 20.9803 66.1392 20.0937 65.6113 19.4641C65.1525 18.8724 64.6057 18.7983 61.4991 18.7983H50.8839L50.2491 25.0494H42.7422L45.2433 0.376009ZM62.089 12.623H62.0891C65.7942 12.5489 65.7942 12.5489 66.3427 12.2522C67.0499 11.8451 67.3466 11.1068 67.507 9.5147C67.6675 7.92259 67.4484 7.18604 66.7791 6.85313C66.2529 6.59345 66.1776 6.59267 62.7345 6.55677L62.7031 6.55644H52.1258L51.51 12.623H62.089ZM107.382 0.376009L106.744 6.66339H95.758L93.895 25.0477H86.0155L87.8733 6.66339H76.8958L77.5323 0.376009H107.382Z" fill="black"/>
<path fill-rule="evenodd" clip-rule="evenodd" d="M31.7198 2.43249C31.7804 0.460147 30.1694 0.431885 30.1694 0.431885H5.37081C5.37081 0.431885 3.63265 0.45611 3.44086 2.65253C3.34769 3.72595 3.15946 5.88876 2.94169 8.39099C2.68766 11.31 2.39342 14.6909 2.16298 17.3431L1.68655 22.816L1.52303 24.6693L1.47054 25.2749C1.46097 25.3887 1.45085 25.5058 1.44045 25.626L1.44044 25.6262C1.4311 25.7341 1.42155 25.8446 1.412 25.9572L0.778104 33.2248C1.29343 32.1264 2.03453 31.1489 2.95305 30.3562C3.87157 29.5635 4.94689 28.9733 6.10886 28.6241C7.27084 28.275 8.49337 28.1747 9.69671 28.3298C10.9001 28.4849 12.0572 28.892 13.0926 29.5244C12.1476 31.5605 11.9035 33.8522 12.3984 36.0417C12.8933 38.2312 14.0993 40.1952 15.828 41.627C15.0256 42.8505 13.9279 43.8523 12.6364 44.54H26.3499C26.3499 44.54 28.0881 44.5158 28.2798 42.3194C28.3283 41.7562 28.403 40.8941 28.4958 39.8424C27.2498 41.1134 25.6415 41.9685 23.8909 42.2907C22.1404 42.6129 20.333 42.3865 18.7161 41.6424C17.0991 40.8983 15.7515 39.6729 14.8575 38.1337C13.9635 36.5945 13.5668 34.8167 13.7217 33.0435C13.8766 31.2703 14.5754 29.5883 15.7227 28.2273C16.8699 26.8664 18.4096 25.8932 20.131 25.4406C21.8525 24.9881 23.6717 25.0784 25.34 25.6992C27.0082 26.3199 28.4439 27.4409 29.4507 28.9087C29.7354 25.6201 29.9595 23.0542 29.9595 23.0542H29.9453L30.022 22.1519H30.0382C30.0382 22.1519 31.4029 6.46398 31.7138 2.88267C31.7268 2.73296 31.7288 2.5825 31.7198 2.43249ZM20.128 5.07506L10.9547 11.4302C13.0866 7.96392 16.0158 5.6605 20.128 5.07506ZM9.29329 26.7627C9.07815 23.9174 8.01255 21.2024 6.23485 18.9703C7.73791 19.1612 9.19632 19.6121 10.5449 20.3027C11.6269 22.5263 12.2176 24.9567 12.277 27.4289C11.3219 27.0571 10.3159 26.8325 9.29329 26.7627ZM17.439 24.8853C16.1561 22.5919 14.2853 20.6818 12.019 19.3515C9.75277 18.0213 7.17296 17.319 4.54513 17.3169C4.31499 17.3169 4.08082 17.3169 3.84664 17.333V15.1528C4.09091 15.1427 4.32105 15.1366 4.54513 15.1366C7.604 15.1389 10.6054 15.9677 13.2319 17.5356C15.8584 19.1035 18.0123 21.352 19.4659 24.0434C18.7614 24.2488 18.0817 24.5312 17.439 24.8853ZM23.6145 5.25675C23.4574 5.4867 23.3029 5.71778 23.1485 5.94851C22.8883 6.33762 22.6287 6.72576 22.3588 7.10595C21.4659 8.37469 20.4143 9.52396 19.2297 10.5257C17.4532 12.0378 15.4425 13.1239 13.129 13.5721C12.7795 13.6393 12.4256 13.6814 12.072 13.7235L12.072 13.7235C11.8944 13.7447 11.717 13.7658 11.5402 13.7901L11.5139 13.6771C15.178 10.1846 19.3125 7.34618 23.7053 4.86309L23.7861 4.94182C23.7352 5.05014 23.6779 5.1553 23.6145 5.25675ZM34.254 5.87189C33.9887 5.3906 33.5799 5.00406 33.0845 4.76615L29.6506 44.0757C29.6362 44.5668 29.4334 45.0336 29.0843 45.3794C28.7352 45.7251 28.2664 45.9233 27.7752 45.9329H3.78811C3.82243 47.7236 5.5828 47.7236 5.5828 47.7236H29.3337C31.0456 47.7236 31.2051 45.9067 31.2051 45.9067L34.5643 7.45112C34.6277 6.90524 34.5192 6.35319 34.254 5.87189ZM37.1073 9.05307C36.842 8.57165 36.4328 8.1852 35.9371 7.94777L32.5152 47.2674C32.5008 47.7586 32.298 48.2253 31.9489 48.5711C31.5998 48.9168 31.1311 49.115 30.6398 49.1247H6.66081C6.69513 50.9133 8.4555 50.9133 8.4555 50.9133H32.1983C33.9102 50.9133 34.0697 49.0964 34.0697 49.0964L37.4168 10.6327C37.4808 10.0868 37.3726 9.53448 37.1073 9.05307ZM0.259265 39.1883C0.218782 39.6573 0.180033 40.0945 0.144878 40.4912C0.0871173 41.1429 0.0390557 41.6852 0.00893698 42.0792C-0.00297899 42.2351 -0.00297899 42.3917 0.00893698 42.5476C-0.0516262 44.5199 1.56137 44.5482 1.56137 44.5482H4.54916C3.50725 43.9934 2.58945 43.2319 1.85184 42.3104C1.11424 41.3888 0.572336 40.3265 0.259265 39.1883ZM2.26593 35.2556C2.34879 34.644 2.54312 34.0528 2.83926 33.5114C3.15979 32.925 3.59271 32.4075 4.1133 31.9884C4.63389 31.5694 5.23194 31.257 5.87329 31.0691C6.51463 30.8813 7.18671 30.8216 7.85111 30.8936C8.51552 30.9656 9.15924 31.1677 9.74549 31.4886C10.2234 31.7493 10.6557 32.0861 11.0254 32.4858C8.0053 31.753 4.2847 32.9138 2.26593 35.2556ZM16.474 31.9006C16.5667 31.2126 16.785 30.5475 17.118 29.9384C17.552 29.1431 18.1688 28.4624 18.9176 27.9523C19.6664 27.4423 20.5257 27.1176 21.4246 27.0051C22.3236 26.8925 23.2364 26.9952 24.0879 27.3048C24.9393 27.6144 25.7049 28.1219 26.3216 28.7856C22.9341 27.96 18.7391 29.2762 16.474 31.9006Z" fill="#AB0000"/>
<rect x="42.0923" y="28.6907" width="98.1527" height="1.51004" fill="#AB0000"/>
</svg>
