<svg width="60" height="78" viewBox="0 0 60 78" fill="none" xmlns="http://www.w3.org/2000/svg">
<path d="M60 0H0V78L30 59.7447L60 78V0Z" fill="#FEA800"/>
<path d="M28.8736 20.335V22H21.6736V20.335H24.3106V12.748C24.3106 12.448 24.3196 12.139 24.3376 11.821L22.4656 13.387C22.3576 13.471 22.2496 13.525 22.1416 13.549C22.0396 13.567 21.9406 13.567 21.8446 13.549C21.7546 13.531 21.6736 13.501 21.6016 13.459C21.5296 13.411 21.4756 13.36 21.4396 13.306L20.7376 12.343L24.7066 8.968H26.5336V20.335H28.8736ZM34.698 13.711L34.248 14.269C34.5 14.143 34.77 14.047 35.058 13.981C35.352 13.909 35.667 13.873 36.003 13.873C36.495 13.873 36.972 13.954 37.434 14.116C37.902 14.278 38.313 14.524 38.667 14.854C39.021 15.178 39.306 15.583 39.522 16.069C39.738 16.555 39.846 17.122 39.846 17.77C39.846 18.376 39.735 18.946 39.513 19.48C39.291 20.008 38.979 20.47 38.577 20.866C38.175 21.262 37.689 21.574 37.119 21.802C36.555 22.03 35.931 22.144 35.247 22.144C34.551 22.144 33.927 22.033 33.375 21.811C32.823 21.589 32.352 21.28 31.962 20.884C31.572 20.482 31.272 20.002 31.062 19.444C30.858 18.88 30.756 18.256 30.756 17.572C30.756 16.96 30.879 16.333 31.125 15.691C31.377 15.043 31.764 14.371 32.286 13.675L35.391 9.508C35.499 9.364 35.655 9.241 35.859 9.139C36.069 9.037 36.309 8.986 36.579 8.986H38.559L34.698 13.711ZM35.202 20.326C35.556 20.326 35.88 20.266 36.174 20.146C36.474 20.026 36.729 19.858 36.939 19.642C37.155 19.426 37.323 19.174 37.443 18.886C37.563 18.592 37.623 18.274 37.623 17.932C37.623 17.56 37.566 17.227 37.452 16.933C37.338 16.633 37.176 16.381 36.966 16.177C36.756 15.967 36.504 15.808 36.21 15.7C35.916 15.592 35.592 15.538 35.238 15.538C34.884 15.538 34.563 15.598 34.275 15.718C33.987 15.838 33.741 16.006 33.537 16.222C33.333 16.432 33.174 16.684 33.06 16.978C32.946 17.266 32.889 17.578 32.889 17.914C32.889 18.274 32.937 18.604 33.033 18.904C33.135 19.198 33.282 19.45 33.474 19.66C33.672 19.87 33.915 20.035 34.203 20.155C34.491 20.269 34.824 20.326 35.202 20.326ZM25.127 28.902C25.079 28.986 25.027 29.048 24.971 29.088C24.919 29.124 24.853 29.142 24.773 29.142C24.689 29.142 24.597 29.112 24.497 29.052C24.401 28.988 24.285 28.918 24.149 28.842C24.013 28.766 23.853 28.698 23.669 28.638C23.489 28.574 23.275 28.542 23.027 28.542C22.803 28.542 22.607 28.57 22.439 28.626C22.271 28.678 22.129 28.752 22.013 28.848C21.901 28.944 21.817 29.06 21.761 29.196C21.705 29.328 21.677 29.474 21.677 29.634C21.677 29.838 21.733 30.008 21.845 30.144C21.961 30.28 22.113 30.396 22.301 30.492C22.489 30.588 22.703 30.674 22.943 30.75C23.183 30.826 23.429 30.908 23.681 30.996C23.933 31.08 24.179 31.18 24.419 31.296C24.659 31.408 24.873 31.552 25.061 31.728C25.249 31.9 25.399 32.112 25.511 32.364C25.627 32.616 25.685 32.922 25.685 33.282C25.685 33.674 25.617 34.042 25.481 34.386C25.349 34.726 25.153 35.024 24.893 35.28C24.637 35.532 24.323 35.732 23.951 35.88C23.579 36.024 23.153 36.096 22.673 36.096C22.397 36.096 22.125 36.068 21.857 36.012C21.589 35.96 21.331 35.884 21.083 35.784C20.839 35.684 20.609 35.564 20.393 35.424C20.177 35.284 19.985 35.128 19.817 34.956L20.291 34.182C20.331 34.126 20.383 34.08 20.447 34.044C20.511 34.004 20.579 33.984 20.651 33.984C20.751 33.984 20.859 34.026 20.975 34.11C21.091 34.19 21.229 34.28 21.389 34.38C21.549 34.48 21.735 34.572 21.947 34.656C22.163 34.736 22.421 34.776 22.721 34.776C23.181 34.776 23.537 34.668 23.789 34.452C24.041 34.232 24.167 33.918 24.167 33.51C24.167 33.282 24.109 33.096 23.993 32.952C23.881 32.808 23.731 32.688 23.543 32.592C23.355 32.492 23.141 32.408 22.901 32.34C22.661 32.272 22.417 32.198 22.169 32.118C21.921 32.038 21.677 31.942 21.437 31.83C21.197 31.718 20.983 31.572 20.795 31.392C20.607 31.212 20.455 30.988 20.339 30.72C20.227 30.448 20.171 30.114 20.171 29.718C20.171 29.402 20.233 29.094 20.357 28.794C20.485 28.494 20.669 28.228 20.909 27.996C21.149 27.764 21.445 27.578 21.797 27.438C22.149 27.298 22.553 27.228 23.009 27.228C23.521 27.228 23.993 27.308 24.425 27.468C24.857 27.628 25.225 27.852 25.529 28.14L25.127 28.902ZM28.713 28.608V31.014H31.749V32.256H28.713V34.71H32.565V36H27.093V27.324H32.565V28.608H28.713ZM36.8153 31.686C37.1113 31.686 37.3693 31.65 37.5893 31.578C37.8093 31.502 37.9913 31.396 38.1353 31.26C38.2833 31.12 38.3933 30.952 38.4653 30.756C38.5373 30.556 38.5733 30.334 38.5733 30.09C38.5733 29.858 38.5373 29.648 38.4653 29.46C38.3933 29.272 38.2853 29.112 38.1413 28.98C37.9973 28.848 37.8153 28.748 37.5953 28.68C37.3753 28.608 37.1153 28.572 36.8153 28.572H35.6093V31.686H36.8153ZM36.8153 27.324C37.3953 27.324 37.8973 27.392 38.3213 27.528C38.7453 27.664 39.0953 27.854 39.3713 28.098C39.6473 28.342 39.8513 28.634 39.9833 28.974C40.1193 29.314 40.1873 29.686 40.1873 30.09C40.1873 30.51 40.1173 30.896 39.9773 31.248C39.8373 31.596 39.6273 31.896 39.3473 32.148C39.0673 32.4 38.7153 32.596 38.2913 32.736C37.8713 32.876 37.3793 32.946 36.8153 32.946H35.6093V36H33.9953V27.324H36.8153ZM21.9641 48.62C22.1241 48.62 22.2501 48.666 22.3421 48.758C22.4381 48.846 22.4861 48.964 22.4861 49.112V50H16.5341V49.508C16.5341 49.408 16.5541 49.304 16.5941 49.196C16.6381 49.084 16.7061 48.984 16.7981 48.896L19.4321 46.256C19.6521 46.032 19.8481 45.818 20.0201 45.614C20.1961 45.41 20.3421 45.208 20.4581 45.008C20.5741 44.808 20.6621 44.606 20.7221 44.402C20.7861 44.194 20.8181 43.976 20.8181 43.748C20.8181 43.54 20.7881 43.358 20.7281 43.202C20.6681 43.042 20.5821 42.908 20.4701 42.8C20.3621 42.692 20.2301 42.612 20.0741 42.56C19.9221 42.504 19.7501 42.476 19.5581 42.476C19.3821 42.476 19.2181 42.502 19.0661 42.554C18.9181 42.602 18.7861 42.672 18.6701 42.764C18.5541 42.852 18.4561 42.956 18.3761 43.076C18.2961 43.196 18.2361 43.328 18.1961 43.472C18.1281 43.656 18.0401 43.778 17.9321 43.838C17.8241 43.898 17.6681 43.912 17.4641 43.88L16.6841 43.742C16.7441 43.326 16.8601 42.962 17.0321 42.65C17.2041 42.334 17.4181 42.072 17.6741 41.864C17.9341 41.652 18.2301 41.494 18.5621 41.39C18.8981 41.282 19.2581 41.228 19.6421 41.228C20.0421 41.228 20.4081 41.288 20.7401 41.408C21.0721 41.524 21.3561 41.69 21.5921 41.906C21.8281 42.122 22.0121 42.382 22.1441 42.686C22.2761 42.99 22.3421 43.328 22.3421 43.7C22.3421 44.02 22.2941 44.316 22.1981 44.588C22.1061 44.86 21.9801 45.12 21.8201 45.368C21.6641 45.616 21.4801 45.856 21.2681 46.088C21.0561 46.32 20.8341 46.556 20.6021 46.796L18.6461 48.794C18.8341 48.738 19.0201 48.696 19.2041 48.668C19.3921 48.636 19.5701 48.62 19.7381 48.62H21.9641ZM29.6991 45.662C29.6991 46.418 29.6171 47.076 29.4531 47.636C29.2931 48.192 29.0691 48.652 28.7811 49.016C28.4971 49.38 28.1591 49.652 27.7671 49.832C27.3791 50.008 26.9591 50.096 26.5071 50.096C26.0551 50.096 25.6351 50.008 25.2471 49.832C24.8631 49.652 24.5291 49.38 24.2451 49.016C23.9611 48.652 23.7391 48.192 23.5791 47.636C23.4191 47.076 23.3391 46.418 23.3391 45.662C23.3391 44.902 23.4191 44.244 23.5791 43.688C23.7391 43.132 23.9611 42.672 24.2451 42.308C24.5291 41.944 24.8631 41.674 25.2471 41.498C25.6351 41.318 26.0551 41.228 26.5071 41.228C26.9591 41.228 27.3791 41.318 27.7671 41.498C28.1591 41.674 28.4971 41.944 28.7811 42.308C29.0691 42.672 29.2931 43.132 29.4531 43.688C29.6171 44.244 29.6991 44.902 29.6991 45.662ZM28.1691 45.662C28.1691 45.034 28.1231 44.514 28.0311 44.102C27.9391 43.69 27.8151 43.362 27.6591 43.118C27.5071 42.874 27.3311 42.704 27.1311 42.608C26.9311 42.508 26.7231 42.458 26.5071 42.458C26.2951 42.458 26.0891 42.508 25.8891 42.608C25.6931 42.704 25.5191 42.874 25.3671 43.118C25.2151 43.362 25.0931 43.69 25.0011 44.102C24.9131 44.514 24.8691 45.034 24.8691 45.662C24.8691 46.29 24.9131 46.81 25.0011 47.222C25.0931 47.634 25.2151 47.962 25.3671 48.206C25.5191 48.45 25.6931 48.622 25.8891 48.722C26.0891 48.818 26.2951 48.866 26.5071 48.866C26.7231 48.866 26.9311 48.818 27.1311 48.722C27.3311 48.622 27.5071 48.45 27.6591 48.206C27.8151 47.962 27.9391 47.634 28.0311 47.222C28.1231 46.81 28.1691 46.29 28.1691 45.662ZM35.886 48.62C36.046 48.62 36.172 48.666 36.264 48.758C36.36 48.846 36.408 48.964 36.408 49.112V50H30.456V49.508C30.456 49.408 30.476 49.304 30.516 49.196C30.56 49.084 30.628 48.984 30.72 48.896L33.354 46.256C33.574 46.032 33.77 45.818 33.942 45.614C34.118 45.41 34.264 45.208 34.38 45.008C34.496 44.808 34.584 44.606 34.644 44.402C34.708 44.194 34.74 43.976 34.74 43.748C34.74 43.54 34.71 43.358 34.65 43.202C34.59 43.042 34.504 42.908 34.392 42.8C34.284 42.692 34.152 42.612 33.996 42.56C33.844 42.504 33.672 42.476 33.48 42.476C33.304 42.476 33.14 42.502 32.988 42.554C32.84 42.602 32.708 42.672 32.592 42.764C32.476 42.852 32.378 42.956 32.298 43.076C32.218 43.196 32.158 43.328 32.118 43.472C32.05 43.656 31.962 43.778 31.854 43.838C31.746 43.898 31.59 43.912 31.386 43.88L30.606 43.742C30.666 43.326 30.782 42.962 30.954 42.65C31.126 42.334 31.34 42.072 31.596 41.864C31.856 41.652 32.152 41.494 32.484 41.39C32.82 41.282 33.18 41.228 33.564 41.228C33.964 41.228 34.33 41.288 34.662 41.408C34.994 41.524 35.278 41.69 35.514 41.906C35.75 42.122 35.934 42.382 36.066 42.686C36.198 42.99 36.264 43.328 36.264 43.7C36.264 44.02 36.216 44.316 36.12 44.588C36.028 44.86 35.902 45.12 35.742 45.368C35.586 45.616 35.402 45.856 35.19 46.088C34.978 46.32 34.756 46.556 34.524 46.796L32.568 48.794C32.756 48.738 32.942 48.696 33.126 48.668C33.314 48.636 33.492 48.62 33.66 48.62H35.886ZM43.1709 48.89V50H38.3709V48.89H40.1289V43.832C40.1289 43.632 40.1349 43.426 40.1469 43.214L38.8989 44.258C38.8269 44.314 38.7549 44.35 38.6829 44.366C38.6149 44.378 38.5489 44.378 38.4849 44.366C38.4249 44.354 38.3709 44.334 38.3229 44.306C38.2749 44.274 38.2389 44.24 38.2149 44.204L37.7469 43.562L40.3929 41.312H41.6109V48.89H43.1709Z" fill="white"/>
</svg>
