<svg width="80" height="80" viewBox="0 0 80 80" fill="none" xmlns="http://www.w3.org/2000/svg">
    <g clip-path="url(#clip0_428_5022)" filter="url(#filter0_b_428_5022)">
    <circle cx="40" cy="40" r="40" fill="#FD1153"/>
    <g clip-path="url(#clip1_428_5022)">
    <path d="M38.7027 32.3129L37.7824 34.7882L39.793 36.4494L37.2139 36.3175L36.2937 38.7918L35.6204 36.2355L33.0402 36.1025L35.2033 34.6552L34.529 32.0979L36.5406 33.7602L38.7027 32.3129Z" fill="white"/>
    <path d="M39.9829 37.3315L40.3761 38.5916L41.6666 38.5969L40.6188 39.3706L41.012 40.6316L39.9715 39.8484L38.9247 40.6221L39.3282 39.3652L38.2887 38.582L39.5793 38.5884L39.9829 37.3315Z" fill="white"/>
    <path d="M29.6602 32L29.6644 33.1781L30.7578 33.5388L29.6664 33.906L29.6706 35.0841L28.9921 34.1337L27.9007 34.5009L28.573 33.5463L27.8945 32.5949L28.989 32.9557L29.6602 32Z" fill="white"/>
    <path d="M33.1004 32.499L33.1035 33.3919L33.9335 33.6654L33.1056 33.9442L33.1087 34.8371L32.5941 34.1166L31.7673 34.3954L32.2767 33.6707L31.7621 32.9492L32.591 33.2227L33.1004 32.499Z" fill="white"/>
    <path d="M25.4927 32.8015L25.4948 33.5401L26.1816 33.7667L25.4958 33.9977L25.499 34.7384L25.0736 34.1403L24.3878 34.3723L24.8101 33.7721L24.3847 33.174L25.0705 33.4007L25.4927 32.8015Z" fill="white"/>
    <path d="M55.0322 44.8375H53.1337C53.0375 44.8375 52.9632 44.9471 52.9106 45.1664L52.8069 45.74C52.7197 46.1614 52.5848 46.3721 52.4022 46.3721H51.4623C51.279 46.3721 51.2268 46.1593 51.3057 45.7336L51.7891 43.1742H55.3165C55.4202 43.1742 55.4949 43.0678 55.5364 42.8453L55.8352 41.2075C56.1319 39.5931 55.8922 38.7886 55.1152 38.7854L51.6127 38.7726C50.8229 38.7726 50.28 39.5807 49.9839 41.1969L49.294 44.7567C49.1498 45.4537 49.1094 46.0028 49.1685 46.4062H47.1973C47.1005 46.4062 47.0749 46.2948 47.1206 46.072L50.0576 39.0057C50.1313 38.846 50.1198 38.7652 50.0244 38.7652H49.7381C49.653 38.7652 49.5731 38.8492 49.4995 39.0195L46.9504 45.2196L46.8467 39.0663C46.8342 38.8535 46.7813 38.7545 46.6848 38.7535L44.8319 38.7471C44.7365 38.7471 44.6888 38.8322 44.6898 39.0014L44.805 46.0741C44.7583 46.2976 44.6857 46.4083 44.5892 46.4094H42.4645C42.4057 46.4094 42.367 46.4683 42.3483 46.586L42.2445 47.0692C42.2259 47.1873 42.2445 47.2458 42.2891 47.2458L49.4756 47.2363C49.5057 47.2363 49.5326 47.1979 49.5565 47.1245C49.687 47.1999 49.8353 47.2368 49.985 47.2309H53.5611C54.2921 47.2309 54.8078 46.5215 55.1079 45.1025C55.1442 44.9291 55.1183 44.8375 55.0322 44.8375ZM52.3587 40.2433C52.4354 39.829 52.5644 39.6222 52.7456 39.6229H53.6721C53.8526 39.6229 53.9097 39.8301 53.8433 40.2444L53.448 42.2845H51.9572L52.3587 40.2433ZM62.422 39.1536C62.4579 38.9251 62.4286 38.8109 62.3338 38.8109L56.9629 38.7907C56.4615 38.7907 56.2083 39.3742 56.2035 40.5413L56.4867 47.0543C56.4867 47.1703 56.5251 47.2277 56.5905 47.2277H58.4309C58.527 47.2277 58.5962 47.1121 58.6384 46.8808L58.3272 40.2604C58.3514 39.846 58.4676 39.6392 58.6757 39.6399H60.0348C60.1296 39.6399 60.1617 39.7531 60.1313 39.9794L58.7307 47.9631C58.5924 48.7584 58.341 49.1568 57.9765 49.1582L55.5789 49.1635C55.5305 49.1635 55.4935 49.2224 55.4679 49.3402L55.3797 49.8255C55.3538 49.9436 55.3694 50.0021 55.4275 50.0021L59.8055 49.9894C60.3139 49.9894 60.6676 49.4147 60.8668 48.2653L62.422 39.1536ZM73.3785 44.7588L73.6327 43.0933C73.6763 42.7251 73.6189 42.5406 73.4605 42.5399H70.8254C70.7216 42.5399 70.6884 42.4335 70.7216 42.2206L71.0256 40.3051C71.0872 39.8964 71.211 39.6924 71.397 39.6932L73.7666 39.7006C73.8592 39.7006 73.9229 39.602 73.9574 39.4048L73.9875 39.2068C74.0207 38.9812 73.991 38.8684 73.8983 38.8684L70.2485 38.8546C69.476 38.8546 68.9711 39.6534 68.7339 41.2512L68.4745 42.8347C68.4171 43.2036 68.4731 43.3881 68.6426 43.3881H71.2891C71.3922 43.3881 71.4119 43.5775 71.3482 43.9564L71.0785 45.7655C71.0156 46.1756 70.89 46.381 70.7019 46.3817H67.3727C67.3492 46.3817 67.3261 46.3876 67.3053 46.3987H67.0169C66.9124 46.3987 66.8779 46.2888 66.9131 46.0688L67.8074 40.4956C67.9872 39.3909 67.8299 38.8382 67.3354 38.8375L63.5175 38.8237C63.4705 38.8237 63.4401 38.8801 63.4262 38.9929L63.3484 39.4494C63.3339 39.5623 63.3484 39.6187 63.3837 39.6187L65.3684 39.625C65.6588 39.625 65.7484 39.9535 65.6371 40.6105L64.7563 46.0614C64.7179 46.2817 64.6473 46.3923 64.5425 46.3923H63.6026C63.3951 46.3831 63.3699 46.1096 63.5269 45.5718L64.9223 41.9748C65.0557 41.5789 65.0191 41.3806 64.8123 41.3799H63.3152C63.1174 41.3799 62.9417 41.5828 62.7882 41.9886L61.8151 44.4576C61.5699 45.0553 61.4365 45.6951 61.4219 46.3434C61.4219 46.9322 61.664 47.2263 62.1481 47.2256L67.241 47.2182L71.8628 47.2118C72.6357 47.2128 73.1399 46.3913 73.3754 44.7588H73.3785Z" fill="white"/>
    <path d="M8.20251 40.5935L12.481 40.6137C12.5214 40.6137 12.5484 40.5871 12.564 40.5339C12.5793 40.4796 12.587 40.4233 12.5868 40.3668C12.5879 40.2774 12.5728 40.1887 12.5422 40.105L11.0524 37.5179C11.0343 37.4721 11.0292 37.4219 11.0379 37.3732C11.0369 37.3343 11.0422 37.2954 11.0534 37.2582C11.0572 37.2452 11.0652 37.2338 11.0762 37.226C11.0871 37.2183 11.1003 37.2146 11.1136 37.2157L14.9221 37.2412C15.0113 37.2412 15.0757 37.1607 15.1151 36.9996L15.2333 36.5569C15.2426 36.5318 15.2475 36.5051 15.2479 36.4782C15.2479 36.4548 15.2479 36.4282 15.2479 36.3994C15.2479 36.2664 15.2074 36.1994 15.1286 36.1983L11.5691 36.1728C9.7836 36.1611 8.64862 37.5775 8.15894 40.4466C8.14753 40.5445 8.16309 40.5935 8.20251 40.5935ZM13.4406 42.6548L9.16735 42.6421C9.11755 42.6421 9.07605 42.6783 9.04493 42.7485C9.0122 42.8301 8.99596 42.9178 8.9972 43.006C8.9972 43.0656 8.9972 43.1242 9.00343 43.1827C9.00693 43.2383 9.01919 43.2929 9.03974 43.3444L10.1602 45.9816C10.1768 46.0244 10.1869 46.0696 10.1903 46.1156C10.1903 46.1454 10.1695 46.1603 10.1291 46.1603H6.36311C6.25106 46.1603 6.17325 46.2497 6.13072 46.4264L6.01763 46.8414C6.00588 46.8782 5.99992 46.9166 6 46.9553C6 47.1234 6.04772 47.2075 6.14939 47.2075H9.93921C10.3782 47.2095 10.8125 47.114 11.2122 46.9276C11.6232 46.7333 11.9873 46.4485 12.2787 46.0933C12.6132 45.6799 12.8757 45.2105 13.0547 44.7056C13.2761 44.0824 13.4157 43.4318 13.4697 42.7708C13.4697 42.6932 13.4614 42.6538 13.4406 42.6538V42.6548ZM14.2374 41.4842C14.2467 41.4459 14.254 41.4118 14.2592 41.3778C14.2637 41.3539 14.2661 41.3297 14.2664 41.3054C14.2664 41.1699 14.2263 41.1018 14.1461 41.1011L7.74292 41.0734C7.71874 41.0731 7.69477 41.0781 7.6726 41.088C7.65042 41.0979 7.63055 41.1125 7.61428 41.1309C7.57246 41.1811 7.54325 41.241 7.52921 41.3054L7.43376 41.7141C7.4107 41.7751 7.39468 41.8387 7.38604 41.9035C7.38173 41.9635 7.39133 42.0237 7.41405 42.0791C7.42191 42.0968 7.43464 42.1118 7.45067 42.1222C7.4667 42.1326 7.48534 42.1379 7.50431 42.1376L13.921 42.161C14.0213 42.161 14.0904 42.0738 14.1285 41.8993V41.9131L14.2374 41.4842ZM25.1566 41.0947C25.4782 39.4505 25.2344 38.6311 24.4304 38.6258L20.7879 38.5981C19.9673 38.5981 19.3967 39.4122 19.075 41.0617L18.3281 44.6864C18.1725 45.3959 18.1247 45.9574 18.1849 46.371H16.3476C16.2369 46.371 16.2061 46.2572 16.2552 46.0294L18.188 36.7804C18.2828 36.3327 18.2268 36.1078 18.02 36.1057L16.1256 36.5931C16.0073 36.6314 15.9233 36.7645 15.8745 36.9933L13.866 46.3668C13.7449 46.9344 13.811 47.2182 14.0641 47.2182H18.3021C18.3426 47.2182 18.3768 47.1586 18.4059 47.0404L18.4204 46.9702C18.4976 47.0547 18.592 47.1208 18.6969 47.1639C18.8018 47.2069 18.9146 47.2258 19.0273 47.2192H22.7456C23.5662 47.2192 24.1357 46.3774 24.4542 44.7013L25.1566 41.0947ZM21.5463 46.3476H20.57C20.3791 46.3476 20.3266 46.1312 20.4123 45.6985L21.5535 40.0965C21.6365 39.6708 21.7721 39.4597 21.9602 39.4633L22.924 39.4686C23.1114 39.4686 23.1692 39.6814 23.0973 40.1071L21.9768 45.6963C21.88 46.1291 21.7365 46.3452 21.5463 46.3444V46.3476ZM27.4764 46.3891C27.1582 46.3891 27.0655 46.0458 27.1983 45.359L28.3115 39.4952H29.1944C29.3023 39.4952 29.3777 39.3806 29.4205 39.1515L29.4454 38.994C29.4876 38.7648 29.46 38.6499 29.3624 38.6492H28.4661L28.8001 36.8592C28.8852 36.4122 28.8257 36.188 28.6217 36.1866L26.7543 36.6708C26.6374 36.7084 26.5572 36.8411 26.5136 37.0688L24.8838 45.4835C24.6707 46.6399 24.8288 47.2182 25.3579 47.2182H29.1083H32.6948C33.506 47.2182 34.0549 46.3806 34.3391 44.712L34.6504 43.0092C34.705 42.6325 34.6493 42.4438 34.4833 42.4431L31.7175 42.4335C31.6089 42.4335 31.5743 42.3228 31.6137 42.1015L31.9768 40.1327C32.0515 39.7127 32.1864 39.5034 32.3814 39.5048L34.8713 39.5176C34.9689 39.5176 35.0384 39.4186 35.0788 39.2175L35.1151 39.0174C35.1546 38.7889 35.1259 38.6744 35.029 38.6736L31.1998 38.6513C30.3885 38.6513 29.8397 39.4601 29.5523 41.099L29.2411 42.7176C29.1719 43.0951 29.2262 43.2841 29.4039 43.2849L32.1822 43.2934C32.2901 43.2934 32.3064 43.4867 32.231 43.8734L31.9052 45.7283C31.8292 46.1469 31.6908 46.3561 31.4903 46.3561L27.4764 46.3891ZM40.9207 46.37L41.3834 43.4807H41.7621C41.8088 43.4807 41.841 43.4243 41.8586 43.3136L41.8752 43.237C41.8925 43.1256 41.8755 43.0699 41.8244 43.0699H41.4498L41.5536 42.4399C41.6034 42.1561 41.6961 42.0142 41.8316 42.0142H42.1429C42.1892 42.0142 42.2238 41.9542 42.2466 41.8343L42.2611 41.7162C42.2784 41.6098 42.2615 41.5566 42.2103 41.5566H41.1469C40.8011 41.5566 40.5663 41.9376 40.4425 42.6995L39.8802 46.2284C39.811 46.613 39.691 46.8056 39.5202 46.8063H39.0886C39.0819 46.8063 39.0753 46.808 39.0695 46.8114C39.0637 46.8147 39.0588 46.8196 39.0554 46.8255C39.179 46.5663 39.2603 46.288 39.2961 46.0018L39.5783 44.2629C39.7083 43.4675 39.5814 43.0702 39.1975 43.0709H37.4681C37.0787 43.0709 36.8214 43.469 36.6962 44.265L36.4047 46.006C36.2615 46.8141 36.385 47.2182 36.7751 47.2182L38.5263 47.2128C38.7421 47.2128 38.9174 47.0873 39.0523 46.8361C39.0429 46.8542 39.0372 46.8742 39.0357 46.8946L38.9973 47.1266C38.99 47.183 38.9973 47.2107 39.0232 47.2107H40.4165C40.6704 47.2057 40.8398 46.9244 40.9249 46.3668L40.9207 46.37ZM37.9432 46.7957H37.4868C37.3968 46.7957 37.3685 46.6924 37.4017 46.486L37.8519 43.7935C37.8841 43.5892 37.9464 43.487 38.0345 43.486H38.4921C38.5813 43.486 38.6114 43.5924 38.5844 43.7925L38.1383 46.4839C38.1009 46.6896 38.0373 46.7925 37.9474 46.7925L37.9432 46.7957Z" fill="white"/>
    </g>
    </g>
    <defs>
    <filter id="filter0_b_428_5022" x="-14" y="-14" width="108" height="108" filterUnits="userSpaceOnUse" color-interpolation-filters="sRGB">
    <feFlood flood-opacity="0" result="BackgroundImageFix"/>
    <feGaussianBlur in="BackgroundImage" stdDeviation="7"/>
    <feComposite in2="SourceAlpha" operator="in" result="effect1_backgroundBlur_428_5022"/>
    <feBlend mode="normal" in="SourceGraphic" in2="effect1_backgroundBlur_428_5022" result="shape"/>
    </filter>
    <clipPath id="clip0_428_5022">
    <rect width="80" height="80" fill="white"/>
    </clipPath>
    <clipPath id="clip1_428_5022">
    <rect width="68" height="18" fill="white" transform="translate(6 32)"/>
    </clipPath>
    </defs>
    </svg>
    