<svg width="38" height="47" viewBox="0 0 38 47" fill="none" xmlns="http://www.w3.org/2000/svg">
<path d="M19.8761 4.49883L18.9893 2.96756L18.135 4.51724C14.9565 10.2833 10.4716 14.8011 5.72068 19.587C5.30413 20.0066 4.88554 20.4283 4.4656 20.853L4.46527 20.8534C3.38785 21.9441 2.51102 23.0347 1.90965 24.283C1.30248 25.5433 1 26.9141 1 28.536C1 33.6555 5.34725 37.7512 10.584 37.7512C12.9276 37.7512 15.0824 36.9378 16.7551 35.5844C16.2454 37.9246 15.1833 40.8393 13.6381 44.2545L12.9992 45.6667H14.5492H23.7115H25.2966L24.614 44.236C23.491 41.8826 22.5121 39.6461 21.8351 37.6323C21.5918 36.9085 21.3912 36.2241 21.2371 35.582C22.9099 36.9378 25.066 37.7512 27.4074 37.7512C32.6474 37.7512 37 33.6565 37 28.536C37 25.3306 34.9732 22.735 33.1675 20.862C26.9862 14.4485 22.7475 9.45677 19.8761 4.49883Z" stroke="#0066B9" stroke-width="2"/>
</svg>
