<svg width="60" height="60" viewBox="0 0 60 60" fill="none" xmlns="http://www.w3.org/2000/svg">
<path d="M30.8761 9.49883L29.9893 7.96756L29.135 9.51724C25.9565 15.2833 21.4716 19.8011 16.7207 24.587C16.3041 25.0066 15.8855 25.4283 15.4656 25.853L15.4653 25.8534C14.3879 26.9441 13.511 28.0347 12.9096 29.283C12.3025 30.5433 12 31.9141 12 33.536C12 38.6555 16.3472 42.7512 21.584 42.7512C23.9276 42.7512 26.0824 41.9378 27.7551 40.5844C27.2454 42.9246 26.1833 45.8393 24.6381 49.2545L23.9992 50.6667H25.5492H34.7115H36.2966L35.614 49.236C34.491 46.8826 33.5121 44.6461 32.8351 42.6323C32.5918 41.9085 32.3912 41.2241 32.2371 40.582C33.9099 41.9378 36.066 42.7512 38.4074 42.7512C43.6474 42.7512 48 38.6565 48 33.536C48 30.3306 45.9732 27.735 44.1675 25.862C37.9862 19.4485 33.7475 14.4568 30.8761 9.49883Z" stroke="#0066B9" stroke-width="2"/>
</svg>
