<svg width="14" height="14" viewBox="0 0 14 14" fill="none" xmlns="http://www.w3.org/2000/svg">
<path d="M7.74572 0.483447L9.26633 3.70207C9.38715 3.95904 9.62045 4.13761 9.89124 4.17681L13.2866 4.69074C13.9698 4.79527 14.2406 5.6707 13.749 6.17157L11.291 8.67591C11.0952 8.87626 11.0077 9.16371 11.0536 9.44681L11.6326 12.9834C11.7493 13.6933 11.0369 14.2334 10.4245 13.898L7.38744 12.2299C7.14581 12.0949 6.85419 12.0949 6.61256 12.2299L3.57551 13.898C2.96727 14.2334 2.2507 13.6933 2.36735 12.9834L2.94643 9.44681C2.99226 9.16371 2.90478 8.87626 2.70897 8.67591L0.251001 6.17157C-0.240593 5.6707 0.0302006 4.79091 0.713432 4.69074L4.10877 4.17681C4.37956 4.13761 4.61286 3.95904 4.73367 3.70207L6.25428 0.483447C6.56256 -0.161149 7.4416 -0.161149 7.74572 0.483447Z" fill="#FEA800"/>
</svg>
