<svg width="65" height="16" viewBox="0 0 65 16" fill="none" xmlns="http://www.w3.org/2000/svg">
<path fill-rule="evenodd" clip-rule="evenodd" d="M11.4673 1.07492L10.1722 4.03975C9.91646 3.9722 9.66492 3.90118 9.41581 3.83084C8.81857 3.6622 8.23523 3.49749 7.64153 3.39403C7.22575 3.3216 6.74209 3.39579 6.34037 3.54463C5.5139 3.85088 5.34261 4.79921 6.0151 5.37121C6.35326 5.65875 6.7797 5.85065 7.19418 6.03717L7.32231 6.09498C7.62918 6.23419 7.94329 6.35845 8.25725 6.48266L8.25725 6.48266L8.25726 6.48266L8.25727 6.48267L8.25728 6.48267L8.25728 6.48267L8.25729 6.48267L8.2573 6.48268L8.2573 6.48268L8.25731 6.48268C8.71719 6.66462 9.17677 6.84644 9.61287 7.07489C11.1965 7.90419 11.9249 9.25655 11.8192 11.0604C11.7206 12.7438 10.9741 14.0565 9.43751 14.7265C6.4912 16.0114 3.56047 15.646 0.595215 14.4521L1.72063 11.7308L1.98981 11.0798C2.22901 11.1539 2.46475 11.2321 2.69879 11.3098L2.6988 11.3098L2.69882 11.3098L2.69883 11.3098L2.69884 11.3098L2.69885 11.3098L2.69886 11.3098L2.69887 11.3098L2.69888 11.3098L2.69889 11.3098C3.23983 11.4894 3.77174 11.666 4.31639 11.7803C4.87302 11.8969 5.47091 11.9023 6.03951 11.846C6.59091 11.7914 7.01657 11.4651 7.1078 10.8532C7.19205 10.2886 6.89212 9.89991 6.43682 9.66762C6.1048 9.49815 5.75808 9.35858 5.41114 9.21892C5.18445 9.12766 4.95767 9.03637 4.73485 8.93668C4.59773 8.87537 4.45952 8.81559 4.32121 8.75576C3.85526 8.55423 3.38819 8.35221 2.95816 8.08953C1.5165 7.20929 0.882594 5.88851 1.00972 4.18929C1.13151 2.56156 1.92427 1.37448 3.37744 0.70493C5.56991 -0.305023 7.82119 -0.109934 10.065 0.540361C10.3756 0.630496 10.6767 0.754206 10.9949 0.884952C11.1475 0.947631 11.3039 1.01193 11.4673 1.07492ZM12.57 0.618214H17.0481V2.21108L17.048 3.92987C17.0477 5.78193 17.0474 7.63402 17.05 9.48617L17.05 9.53475V9.5348C17.0502 9.8312 17.0504 10.1307 17.0946 10.4221C17.2151 11.2157 17.6902 11.6978 18.488 11.7429C18.9445 11.7688 19.4037 11.7439 19.8745 11.7183C20.0866 11.7068 20.3011 11.6952 20.5188 11.688V0.631596H25.0375C25.0403 0.680411 25.0441 0.730353 25.0479 0.781077V0.781098V0.781121V0.781145V0.781172V0.781199V0.781229V0.781262V0.781296V0.781334C25.0563 0.893483 25.065 1.00945 25.065 1.12554C25.0655 2.03012 25.0653 2.93471 25.0651 3.8393C25.0645 6.14194 25.0639 8.4446 25.0751 10.7473C25.0771 11.1361 24.9766 11.2975 24.5965 11.4515C21.8559 12.5625 19.1276 13.7047 16.4084 14.8678C15.9983 15.0431 15.6617 15.0701 15.2591 14.8911C13.3841 14.0575 12.5773 12.4956 12.5371 10.5501C12.4891 8.22852 12.5008 5.90573 12.5126 3.58299V3.5829V3.5827V3.58267V3.58265V3.58263V3.58261V3.58259V3.58257V3.58255V3.58252V3.5825C12.5174 2.63929 12.5221 1.69609 12.5229 0.752968C12.5231 0.730695 12.5326 0.708517 12.5457 0.678385C12.553 0.661354 12.5615 0.641781 12.57 0.618214ZM39.0517 9.41574L37.404 9.90191C37.2954 12.6252 38.5831 14.5135 41.0739 15.0814C43.9887 15.7458 46.8739 15.4203 49.7032 14.4891C50.0529 14.374 50.0548 14.1467 50.0541 13.8591C50.0508 12.5108 50.0507 11.1625 50.0506 9.81414C50.0505 8.93356 50.0504 8.05299 50.0495 7.17244C50.0493 7.07387 50.0379 6.97536 50.0258 6.87028C50.0199 6.81894 50.0138 6.76603 50.0087 6.71077C49.7539 6.76285 49.5031 6.81367 49.255 6.86394L49.2549 6.86395L49.2549 6.86396L49.2548 6.86397L49.2547 6.86398L49.2547 6.86399L49.2546 6.864C48.7082 6.97472 48.1752 7.08272 47.6432 7.19533C47.104 7.3094 46.5657 7.42819 46.0348 7.54534L46.0346 7.54537L46.0334 7.54564C45.8054 7.59594 45.5788 7.64594 45.3541 7.69514C45.3435 7.72191 45.3332 7.74361 45.3245 7.76208C45.3093 7.79415 45.2987 7.81651 45.2986 7.83893C45.2928 8.62069 45.2878 9.40245 45.2869 10.1842V10.1877C45.2852 11.6401 45.2852 11.6401 43.8439 11.698C42.463 11.7534 41.8411 11.168 41.8031 9.76857C41.7966 9.5286 41.7982 9.28848 41.7999 9.02174C41.8008 8.89012 41.8017 8.75202 41.8017 8.60426L39.0517 9.41574ZM36.8599 1.0585L35.4952 4.22253C35.3642 4.17619 35.236 4.12614 35.1091 4.0766C34.8378 3.97067 34.5725 3.86706 34.2978 3.807C32.5425 3.42339 31.2001 4.45271 30.8885 6.41862C30.8125 6.89836 30.7762 7.39078 30.7845 7.87627C30.7903 8.20923 30.8336 8.54163 30.879 8.89031C30.8995 9.04758 30.9204 9.20816 30.9385 9.37359L26.4831 10.804C25.8295 7.63834 25.795 4.61365 28.031 2.0424C29.4601 0.398935 31.3974 -0.0934818 33.5063 0.0419768C34.6747 0.117219 35.7957 0.378393 36.8599 1.0585ZM64.7642 4.52569L60.3187 5.03254V15.2364H64.7642V4.52569ZM55.8326 5.60708V15.2286H51.3523C51.3496 15.1872 51.3463 15.1473 51.3432 15.1085L51.3432 15.1084C51.3367 15.029 51.3305 14.954 51.3305 14.879C51.3301 14.1275 51.3304 13.376 51.3307 12.6246C51.3314 10.721 51.3322 8.81749 51.3218 6.91401C51.3197 6.53123 51.417 6.3838 51.8171 6.32194C52.777 6.17331 53.7325 5.99571 54.7023 5.81547L54.7023 5.81546C55.0766 5.74589 55.453 5.67593 55.8326 5.60708ZM59.4516 2.21138L59.9017 0.183081C56.9252 -0.187493 54.1061 0.113826 51.3628 1.06779V5.10513L55.8133 4.60204C55.9135 3.74996 55.9367 3.68657 56.8002 3.66369C57.3121 3.65012 57.8254 3.68739 58.3607 3.72627C58.6034 3.7439 58.8507 3.76185 59.1044 3.77555L59.4516 2.21138ZM41.7649 6.66868L37.2964 7.63626V0.629036H41.7649V6.66868ZM29.143 12.8443C28.7571 12.9915 28.3691 13.1394 27.978 13.2875C29.9358 15.6223 34.7369 16.1544 36.834 14.3099L35.5383 11.2114C35.3111 11.2515 35.091 11.2916 34.8757 11.3309C34.3582 11.4254 33.8687 11.5148 33.3764 11.5843C33.2544 11.6014 33.1246 11.5855 32.9961 11.5698C32.8315 11.5496 32.6693 11.5297 32.5289 11.5799C31.4009 11.9836 30.2811 12.4105 29.1431 12.8443L29.143 12.8443ZM50.0373 0.629628V5.29685L45.3212 5.99985V0.629628H50.0373ZM64.7738 0.612288H60.3157V4.23328L64.7738 3.99077V0.612288Z" fill="white"/>
</svg>
