<svg width="60" height="60" viewBox="0 0 60 60" fill="none" xmlns="http://www.w3.org/2000/svg">
<path d="M45.2 50.0002C44.9878 50.0002 44.7843 49.9159 44.6343 49.7659C44.4843 49.6159 44.4 49.4124 44.4 49.2002V45.2002C44.4 41.3811 42.8829 37.7184 40.1823 35.0179C37.4818 32.3173 33.8191 30.8002 30 30.8002C26.1809 30.8002 22.5182 32.3173 19.8177 35.0179C17.1171 37.7184 15.6 41.3811 15.6 45.2002V49.2002C15.6 49.4124 15.5157 49.6159 15.3657 49.7659C15.2157 49.9159 15.0122 50.0002 14.8 50.0002C14.5878 50.0002 14.3843 49.9159 14.2343 49.7659C14.0843 49.6159 14 49.4124 14 49.2002V45.2002C14 40.9567 15.6857 36.8871 18.6863 33.8865C21.6869 30.8859 25.7565 29.2002 30 29.2002C34.2435 29.2002 38.3131 30.8859 41.3137 33.8865C44.3143 36.8871 46 40.9567 46 45.2002V49.2002C46 49.4124 45.9157 49.6159 45.7657 49.7659C45.6157 49.9159 45.4122 50.0002 45.2 50.0002Z" fill="#0066B9" stroke="#0066B9"/>
<path d="M30 26C28.4178 26 26.871 25.5308 25.5554 24.6518C24.2398 23.7727 23.2145 22.5233 22.609 21.0615C22.0035 19.5997 21.845 17.9911 22.1537 16.4393C22.4624 14.8874 23.2243 13.462 24.3432 12.3431C25.462 11.2243 26.8874 10.4624 28.4393 10.1537C29.9911 9.84504 31.5997 10.0035 33.0615 10.609C34.5233 11.2145 35.7727 12.2398 36.6518 13.5554C37.5308 14.871 38 16.4178 38 18C38 20.1217 37.1572 22.1566 35.6569 23.6569C34.1566 25.1571 32.1217 26 30 26ZM30 11.6C28.7342 11.6 27.4968 11.9754 26.4444 12.6786C25.3919 13.3818 24.5716 14.3814 24.0872 15.5508C23.6028 16.7203 23.476 18.0071 23.723 19.2486C23.9699 20.4901 24.5795 21.6304 25.4745 22.5255C26.3696 23.4205 27.5099 24.0301 28.7514 24.277C29.9929 24.524 31.2797 24.3972 32.4492 23.9128C33.6186 23.4284 34.6182 22.6081 35.3214 21.5557C36.0247 20.5032 36.4 19.2658 36.4 18C36.4 16.3026 35.7257 14.6748 34.5255 13.4745C33.3253 12.2743 31.6974 11.6 30 11.6Z" fill="#0066B9" stroke="#0066B9"/>
</svg>
