<svg width="43" height="20" viewBox="0 0 43 20" fill="none" xmlns="http://www.w3.org/2000/svg">
<g clip-path="url(#clip0_681_101)">
<path d="M22.6403 16.8235C22.5773 16.7911 22.4933 16.7371 22.3883 16.7155C22.3043 16.6938 22.1573 16.6938 21.9473 16.6938H21.6953V18.1633H22.0943C22.2413 18.1633 22.3463 18.1633 22.4303 18.1417C22.5143 18.1201 22.5983 18.1093 22.6298 18.0553C22.6928 18.0229 22.7348 17.9472 22.7768 17.85C22.8293 17.7419 22.8398 17.6123 22.8398 17.4394C22.8398 17.2665 22.8188 17.126 22.7768 17.0612C22.7348 16.9424 22.7033 16.8559 22.6403 16.8235Z" fill="white"/>
<path d="M14.3663 16.6724C14.1353 16.6724 13.9673 16.7372 13.8308 16.8669C13.6838 17.0073 13.6313 17.191 13.6313 17.4503C13.6313 17.7096 13.6943 17.8825 13.8308 18.0338C13.9778 18.1743 14.1458 18.2283 14.3663 18.2283C14.5658 18.2283 14.7653 18.1634 14.8913 18.0338C15.0383 17.9149 15.0908 17.7096 15.0908 17.4503C15.0908 17.191 15.0278 16.9965 14.8913 16.8993C14.7863 16.7372 14.6078 16.6724 14.3663 16.6724Z" fill="white"/>
<path d="M26.1266 16.7047C26.0636 16.7047 25.9376 16.6831 25.7276 16.6831H25.4546V17.3098H25.7591C25.9586 17.3098 26.1161 17.2882 26.2001 17.2774C26.2631 17.2558 26.3366 17.2125 26.3681 17.1693C26.3996 17.1369 26.4311 17.0613 26.4311 16.9965C26.4311 16.91 26.4101 16.8452 26.3471 16.802C26.2841 16.7695 26.2106 16.7047 26.1266 16.7047Z" fill="white"/>
<path d="M28.6466 16.6724C28.4156 16.6724 28.2476 16.7372 28.1111 16.8669C27.9641 17.0073 27.9116 17.191 27.9116 17.4503C27.9116 17.7096 27.9746 17.8825 28.1111 18.0338C28.2581 18.1743 28.4261 18.2283 28.6466 18.2283C28.8461 18.2283 29.0456 18.1634 29.1716 18.0338C29.3186 17.9149 29.3711 17.7096 29.3711 17.4503C29.3711 17.191 29.3081 16.9965 29.1716 16.8993C29.0561 16.7372 28.8881 16.6724 28.6466 16.6724Z" fill="white"/>
<path d="M12.0986 16.9639C12.0986 16.8991 12.0776 16.8451 12.0356 16.791C12.0041 16.7586 11.8991 16.7262 11.8361 16.7046C11.8046 16.7046 11.6681 16.7046 11.4371 16.7046H11.0171V17.2556H11.4161C11.6681 17.2556 11.8361 17.2556 11.8991 17.234C11.9621 17.2124 12.0356 17.2016 12.0461 17.1476C12.0881 17.0828 12.0986 17.0287 12.0986 16.9639Z" fill="white"/>
<path d="M6.60706 16.7047C6.54406 16.7047 6.41806 16.6831 6.20806 16.6831H5.93506V17.3098H6.23956C6.43906 17.3098 6.59656 17.2882 6.68056 17.2774C6.74356 17.2558 6.81706 17.2125 6.84856 17.1693C6.88006 17.1369 6.91156 17.0613 6.91156 16.9965C6.91156 16.91 6.89056 16.8452 6.82756 16.802C6.76456 16.7587 6.71206 16.7047 6.60706 16.7047Z" fill="white"/>
<path d="M9.12708 16.7047C9.06408 16.7047 8.93808 16.6831 8.72808 16.6831H8.45508V17.3098H8.75958C8.95908 17.3098 9.11658 17.2882 9.20058 17.2774C9.26358 17.2558 9.33708 17.2125 9.36858 17.1693C9.40008 17.1369 9.43158 17.0613 9.43158 16.9965C9.43158 16.91 9.41058 16.8452 9.34758 16.802C9.28458 16.7695 9.23208 16.7047 9.12708 16.7047Z" fill="white"/>
<path d="M3.3833 17.6556H4.1183L3.7298 16.8452L3.3833 17.6556Z" fill="white"/>
<path d="M32.0273 16.9639C32.0273 16.8991 32.0063 16.8451 31.9643 16.791C31.9328 16.7586 31.8278 16.7262 31.7648 16.7046C31.7333 16.7046 31.5968 16.7046 31.3658 16.7046H30.9458V17.2556H31.3448C31.5968 17.2556 31.7648 17.2556 31.8278 17.234C31.8908 17.2124 31.9643 17.2016 31.9748 17.1476C32.0063 17.0828 32.0273 17.0287 32.0273 16.9639Z" fill="white"/>
<path d="M35.8286 17.6556H36.5636L36.1751 16.8452L35.8286 17.6556Z" fill="white"/>
<path d="M42.0234 2.90721C42.0024 1.45935 41.0784 0.292409 39.6924 0.0547002C39.3564 -0.0101297 38.9994 0.000675311 38.6634 0.000675311C26.7564 0.000675311 14.8389 0.000675311 2.96344 0.000675311C1.22044 0.000675311 0.0234375 1.21083 0.0234375 3.02607V8.66626V17.0725C0.0234375 18.8662 1.50394 20.0331 2.94244 20.0115C8.96944 19.9791 15.0069 19.9899 21.0234 19.9899H39.3039C39.4509 19.9899 39.6084 19.9899 39.7239 19.9575C41.0889 19.6981 42.0129 18.5528 42.0129 17.0509C42.0339 13.9391 42.0129 10.8273 42.0339 7.71542C42.0234 6.12709 42.0234 4.51715 42.0234 2.90721ZM4.52794 18.5528L4.29694 18.0558H3.21544L2.98444 18.5528H2.39644L3.45694 16.327H4.02394L5.11594 18.5528H4.52794ZM7.39444 17.3427C7.33144 17.4291 7.24744 17.5155 7.16344 17.5479C7.07944 17.5804 6.97444 17.6344 6.89044 17.656C6.77494 17.6776 6.57544 17.6776 6.32344 17.6776H5.96644V18.5204H5.43094V16.327H6.30244C6.63844 16.327 6.83794 16.3486 6.95344 16.3594C7.10044 16.3918 7.25794 16.4674 7.35244 16.5647C7.45744 16.6727 7.49944 16.824 7.49944 16.9969C7.47844 17.1374 7.44694 17.2562 7.39444 17.3427ZM9.91444 17.3427C9.85144 17.4291 9.76744 17.5155 9.68344 17.5479C9.59944 17.5804 9.49444 17.6344 9.41044 17.656C9.29494 17.6776 9.09544 17.6776 8.84344 17.6776H8.48644V18.5204H7.95094V16.327H8.82244C9.15844 16.327 9.35794 16.3486 9.47344 16.3594C9.62044 16.3918 9.77794 16.4674 9.87244 16.5647C9.97744 16.6727 10.0194 16.824 10.0194 16.9969C9.99844 17.1374 9.96694 17.2562 9.91444 17.3427ZM12.2244 18.5528L11.8254 18.0666C11.6784 17.8937 11.5944 17.7857 11.5209 17.7424C11.4579 17.71 11.4159 17.656 11.3529 17.656C11.2899 17.6344 11.2059 17.6344 11.0799 17.6344H10.9749V18.5636H10.4394V16.3162H11.5944C11.8989 16.3162 12.0984 16.3378 12.2349 16.381C12.3714 16.4134 12.4659 16.4891 12.5499 16.5863C12.6339 16.6944 12.6864 16.7916 12.6864 16.9321C12.6864 17.1049 12.6234 17.2454 12.4974 17.3427C12.3609 17.4507 12.1929 17.5155 11.9724 17.5479C12.1089 17.6128 12.1719 17.6884 12.2769 17.7424C12.3609 17.8073 12.4659 17.9369 12.5919 18.1098L12.9279 18.542H12.2559L12.2244 18.5528ZM15.3324 18.2611C15.1014 18.4556 14.7969 18.5744 14.3874 18.5744C13.9884 18.5744 13.6839 18.4664 13.4109 18.2611C13.1589 18.0666 13.0539 17.7965 13.0539 17.4183C13.0539 17.213 13.0854 17.0077 13.1904 16.8672C13.2534 16.7592 13.3374 16.6619 13.4424 16.5539C13.5474 16.4458 13.6734 16.4026 13.7994 16.3594C13.9674 16.2946 14.1564 16.273 14.3874 16.273C14.7864 16.273 15.0909 16.381 15.3639 16.5863C15.5949 16.7808 15.7209 17.0509 15.7209 17.4291C15.6789 17.7965 15.5634 18.0666 15.3324 18.2611ZM17.3904 18.5528H16.8024L15.8259 16.327H16.4139L17.1069 17.9693L17.7789 16.327H18.3669L17.3904 18.5528ZM20.6874 18.5528H18.6399V16.327H20.6349V16.6944H19.1754V17.1914H20.5404V17.5588H19.1754V18.1638H20.6874V18.5528ZM23.3439 17.9153C23.2809 18.0666 23.1759 18.2287 23.0394 18.2935C22.9344 18.3799 22.8084 18.434 22.6719 18.4664C22.5354 18.488 22.3989 18.4988 22.1889 18.4988H21.1599V16.3162H22.1469C22.3779 16.3162 22.5459 16.3378 22.6509 16.3486C22.8189 16.381 22.9554 16.4566 23.0499 16.5431C23.1549 16.6511 23.2389 16.7484 23.3019 16.9105C23.3649 17.0617 23.3859 17.2346 23.3859 17.4291C23.3754 17.71 23.3544 17.8073 23.3439 17.9153ZM26.9034 17.3427C26.8404 17.4291 26.7564 17.5155 26.6724 17.5479C26.5884 17.5804 26.4834 17.6344 26.3994 17.656C26.2629 17.6776 26.0844 17.6776 25.8324 17.6776H25.4754V18.5204H24.9399V16.327H25.8114C26.1474 16.327 26.3469 16.3486 26.4624 16.3594C26.6094 16.3918 26.7669 16.4674 26.8614 16.5647C26.9664 16.6727 27.0084 16.824 27.0084 16.9969C26.9874 17.1374 26.9664 17.2562 26.9034 17.3427ZM29.5914 18.2611C29.3604 18.4556 29.0559 18.5744 28.6464 18.5744C28.2474 18.5744 27.9429 18.4664 27.6699 18.2611C27.4389 18.0666 27.3129 17.7965 27.3129 17.4183C27.3129 17.213 27.3444 17.0077 27.4494 16.8672C27.5124 16.7592 27.5964 16.6619 27.7014 16.5539C27.8064 16.4458 27.9324 16.4026 28.0584 16.3594C28.2264 16.2946 28.4154 16.273 28.6464 16.273C29.0454 16.273 29.3499 16.381 29.6229 16.5863C29.8539 16.7808 29.9799 17.0509 29.9799 17.4291C29.9484 17.7965 29.8434 18.0666 29.5914 18.2611ZM32.1429 18.5528L31.7439 18.0666C31.5969 17.8937 31.5129 17.7857 31.4604 17.7424C31.3974 17.71 31.3554 17.656 31.2924 17.656C31.2294 17.6344 31.1454 17.6344 31.0194 17.6344H30.9144V18.5636H30.3789V16.3162H31.5339C31.8384 16.3162 32.0379 16.3378 32.1744 16.381C32.3109 16.4134 32.4054 16.4891 32.4894 16.5863C32.5734 16.6944 32.6259 16.7916 32.6259 16.9321C32.6259 17.1049 32.5629 17.2454 32.4369 17.3427C32.3214 17.4507 32.1534 17.5155 31.9119 17.5479C32.0484 17.6128 32.1114 17.6884 32.1954 17.7424C32.2794 17.8073 32.3844 17.9369 32.5104 18.1098L32.8464 18.542H32.1744L32.1429 18.5528ZM34.2639 18.5528H33.7284V16.6835H32.9199V16.3162H35.0724V16.6835H34.2849V18.5528H34.2639ZM36.9834 18.5528L36.7524 18.0558H35.6814L35.4504 18.5528H34.8624L35.9019 16.327H36.4689L37.5609 18.5528H36.9834ZM39.7764 18.5528H37.8654V16.327H38.4009V18.1638H39.7659L39.7764 18.5528ZM41.4354 12.2967C41.4354 13.7662 40.4274 14.8035 38.9784 14.8035C27.0504 14.8035 15.1014 14.8035 3.17344 14.8251C1.86094 14.8467 0.684937 13.7554 0.705938 12.3399C0.726937 9.34697 0.758438 6.37561 0.684937 3.37183C0.674438 2.15086 1.80844 0.832658 3.11044 0.832658C9.09544 0.865073 15.0699 0.854268 21.0549 0.854268V0.832658H38.5899C38.9469 0.832658 39.3249 0.832658 39.6819 0.919098C40.7109 1.15681 41.4459 2.41018 41.4459 3.33941C41.4144 6.31078 41.4354 9.30375 41.4354 12.2967Z" fill="white"/>
<path d="M18.8081 2.58249H20.0681C20.8766 5.0028 21.6851 7.42312 22.5041 9.86504C22.5671 9.86504 22.6091 9.88665 22.6721 9.88665C23.6486 7.29346 24.6041 4.70027 25.5911 1.99902C26.5361 4.67866 27.4391 7.29346 28.3631 9.89746H28.5101C29.3816 7.47714 30.2951 5.03522 31.1771 2.6041H32.4686C31.1246 6.23457 29.8016 9.83263 28.4681 13.3875C28.4366 13.3875 28.3631 13.3875 28.3211 13.3875C27.4076 10.7727 26.4836 8.15786 25.5386 5.46742C24.5306 8.16866 23.5541 10.7619 22.5986 13.355C22.5356 13.355 22.4936 13.355 22.4306 13.355C21.2546 9.78941 20.0366 6.22377 18.8081 2.58249Z" fill="white"/>
<path d="M11.815 7.54204C12.13 10.0164 10.954 12.2962 8.4865 12.9661C5.3575 13.8521 2.7115 11.6047 2.218 8.61173C1.777 5.82404 3.6145 3.16602 6.019 2.49611C8.035 1.92345 10.0825 2.75543 11.458 4.74355C11.1535 5.02448 10.849 5.32702 10.639 5.52151C9.946 4.98126 9.358 4.28974 8.623 3.9872C6.1345 2.96073 3.8035 4.75435 3.5515 7.2503C3.3205 9.46532 4.4965 11.1941 6.4705 11.81C8.0035 12.307 10.1035 10.9996 10.3555 9.38969C10.3765 9.28164 10.3555 9.15198 10.3555 8.93588C9.4525 8.93588 8.5915 8.93588 7.6885 8.93588C7.6885 8.43885 7.6885 8.04987 7.6885 7.61767C7.8775 7.59606 8.0455 7.55284 8.1925 7.55284C9.4 7.54204 10.5865 7.54204 11.815 7.54204Z" fill="white"/>
<path d="M33.5605 10.1139C33.193 11.0431 32.8255 11.9291 32.4475 12.8583C32.0485 12.8583 31.6705 12.8583 31.1875 12.8583C32.668 9.28189 34.075 5.70544 35.6185 1.94531C37.1095 5.68383 38.5375 9.23867 39.9865 12.8691C39.514 12.8691 39.1255 12.8691 38.674 12.8691C38.317 11.9831 37.9705 11.0755 37.561 10.1031C36.2905 10.1139 34.9465 10.1139 33.5605 10.1139ZM35.6605 5.1868C35.629 5.1868 35.5555 5.20841 35.5135 5.20841C35.041 6.41857 34.5685 7.60712 34.0855 8.83888H37.0885C36.616 7.59631 36.1435 6.38616 35.6605 5.1868Z" fill="white"/>
<path d="M14.2717 8.47109V12.8471C13.8517 12.8471 13.4947 12.8471 13.0957 12.8471C13.0957 9.42193 13.0957 6.01836 13.0957 2.42031C14.2927 2.42031 15.4687 2.3987 16.5397 2.67963C17.8207 3.00377 18.4087 4.51647 18.2197 5.89951C17.9992 7.42301 16.9912 8.37384 15.4687 8.47109C15.1117 8.4927 14.7442 8.47109 14.2717 8.47109ZM14.3242 7.26093C15.3322 7.26093 16.2772 7.4014 16.8442 6.41814C17.2117 5.75904 17.1592 4.7974 16.7077 4.32198C16.0357 3.63046 15.5632 3.77093 14.3242 3.77093V7.26093Z" fill="white"/>
</g>
<defs>
<clipPath id="clip0_681_101">
<rect width="42" height="20" fill="white" transform="translate(0.0234375)"/>
</clipPath>
</defs>
</svg>
