<svg width="40" height="40" viewBox="0 0 40 40" fill="none" xmlns="http://www.w3.org/2000/svg">
<path d="M19.9988 2.49655C10.3478 2.49655 2.49597 10.3484 2.49597 19.9997C2.49597 29.6512 10.3478 37.5034 19.9988 37.5034C29.6503 37.5034 37.5022 29.6512 37.5022 19.9997C37.5019 10.3484 29.65 2.49655 19.9988 2.49655ZM29.3144 15.4347C28.8447 16.1356 28.271 16.7444 27.6069 17.2465C27.6097 17.3481 27.6116 17.4497 27.6116 17.5512C27.6116 22.6556 23.7275 27.9353 17.2275 27.9353C15.241 27.9353 13.306 27.3687 11.6322 26.2965C11.5097 26.2181 11.4575 26.0659 11.5066 25.9287C11.555 25.7919 11.6913 25.7047 11.8366 25.7231C12.1107 25.7547 12.3822 25.7703 12.6441 25.7703C13.9191 25.7703 15.1341 25.4275 16.2007 24.7725C14.9132 24.4615 13.8525 23.5015 13.4375 22.2034C13.4041 22.0981 13.4282 21.9834 13.5013 21.9006C13.5747 21.8181 13.6866 21.7794 13.7944 21.8015C13.8532 21.8128 13.9122 21.8225 13.971 21.8306C12.8857 21.139 12.1816 19.9231 12.1816 18.5769V18.5322C12.1816 18.4215 12.2403 18.319 12.3357 18.2631C12.431 18.2065 12.5491 18.2053 12.6457 18.259C12.7816 18.3344 12.9225 18.3997 13.0672 18.4547C12.5191 17.7778 12.2103 16.9256 12.2103 16.029C12.2103 15.3484 12.3907 14.6784 12.7316 14.0919C12.7832 14.0031 12.8747 13.9453 12.9772 13.9372C13.0816 13.9294 13.1791 13.9715 13.2441 14.0512C14.9063 16.0894 17.3225 17.3715 19.9216 17.6078C19.9032 17.4537 19.8941 17.2978 19.8941 17.1412C19.8941 15.0172 21.6225 13.2891 23.7469 13.2891C24.7491 13.2891 25.7188 13.6844 26.4341 14.3787C27.1338 14.2228 27.8007 13.9584 28.4188 13.5915C28.53 13.5244 28.6713 13.5344 28.7728 13.6156C28.8744 13.6962 28.9157 13.8312 28.8763 13.955C28.7222 14.4381 28.4747 14.8819 28.1513 15.2637C28.416 15.1837 28.6753 15.0875 28.9285 14.975C29.056 14.9194 29.205 14.9531 29.2944 15.0597C29.3838 15.1662 29.3919 15.319 29.3144 15.4347Z" fill="#009DF6"/>
</svg>
