<svg width="32" height="32" viewBox="0 0 32 32" fill="none" xmlns="http://www.w3.org/2000/svg">
<path d="M15.9994 0C7.17745 0 0 7.17745 0 15.9997C0 24.8223 7.17745 32 15.9994 32C24.822 32 31.9994 24.8223 31.9994 15.9997C31.9992 7.17745 24.8217 0 15.9994 0ZM24.5149 11.8268C24.0856 12.4676 23.5611 13.024 22.9541 13.4831C22.9566 13.5759 22.9584 13.6687 22.9584 13.7616C22.9584 18.4275 19.4079 23.2537 13.4662 23.2537C11.6503 23.2537 9.88149 22.7358 8.3515 21.7557C8.23953 21.684 8.19182 21.5449 8.23667 21.4195C8.28095 21.2944 8.40549 21.2147 8.53832 21.2315C8.78885 21.2604 9.03708 21.2747 9.27647 21.2747C10.442 21.2747 11.5526 20.9613 12.5275 20.3626C11.3506 20.0783 10.3811 19.2008 10.0018 18.0142C9.97119 17.9179 9.99318 17.8131 10.06 17.7374C10.1272 17.662 10.2294 17.6265 10.328 17.6468C10.3817 17.6571 10.4357 17.666 10.4894 17.6734C9.49728 17.0412 8.85369 15.9297 8.85369 14.6991V14.6583C8.85369 14.5571 8.9074 14.4634 8.99452 14.4123C9.08165 14.3606 9.18963 14.3595 9.27789 14.4086C9.40215 14.4774 9.53099 14.5371 9.66325 14.5874C9.1622 13.9687 8.87997 13.1897 8.87997 12.3701C8.87997 11.748 9.0448 11.1355 9.35645 10.5993C9.40358 10.5182 9.48728 10.4654 9.58098 10.4579C9.67639 10.4508 9.76551 10.4894 9.82493 10.5622C11.3443 12.4253 13.5531 13.5973 15.9289 13.8133C15.912 13.6725 15.9037 13.5299 15.9037 13.3868C15.9037 11.4452 17.4837 9.86549 19.4256 9.86549C20.3417 9.86549 21.2281 10.2268 21.882 10.8616C22.5216 10.719 23.1312 10.4774 23.6962 10.142C23.7979 10.0806 23.927 10.0897 24.0199 10.164C24.1127 10.2377 24.1504 10.3611 24.1144 10.4742C23.9736 10.9159 23.7473 11.3215 23.4517 11.6706C23.6936 11.5974 23.9307 11.5095 24.1621 11.4066C24.2787 11.3558 24.4149 11.3866 24.4966 11.484C24.5783 11.5814 24.5857 11.7211 24.5149 11.8268Z" fill="white"/>
</svg>
