<svg width="92" height="14" viewBox="0 0 92 14" fill="none" xmlns="http://www.w3.org/2000/svg">
<path d="M7.47557 0.450194L8.94315 3.44743C9.05975 3.68673 9.28491 3.85302 9.54626 3.88952L12.8232 4.3681C13.4826 4.46544 13.7439 5.28066 13.2695 5.74708L10.8972 8.07917C10.7083 8.26573 10.6238 8.53342 10.668 8.79704L11.2269 12.0904C11.3395 12.7515 10.652 13.2544 10.0609 12.9421L7.12979 11.3887C6.89659 11.263 6.61513 11.263 6.38193 11.3887L3.4508 12.9421C2.86378 13.2544 2.17221 12.7515 2.28479 12.0904L2.84367 8.79704C2.8879 8.53342 2.80346 8.26573 2.61449 8.07917L0.242247 5.74708C-0.232202 5.28066 0.0291471 4.46139 0.68855 4.3681L3.96546 3.88952C4.22681 3.85302 4.45197 3.68673 4.56857 3.44743L6.03615 0.450194C6.32966 -0.150065 7.17804 -0.150065 7.47557 0.450194Z" fill="#FEA800"/>
<path d="M26.8667 0.450194L28.3343 3.44743C28.4509 3.68673 28.676 3.85302 28.9374 3.88952L32.2143 4.3681C32.8737 4.46544 33.135 5.28066 32.6606 5.74708L30.2883 8.07917C30.0994 8.26573 30.0109 8.53342 30.0592 8.79704L30.6181 12.0904C30.7306 12.7515 30.0431 13.2544 29.452 12.9421L26.5209 11.3887C26.2877 11.263 26.0063 11.263 25.773 11.3887L22.8419 12.9421C22.2549 13.2544 21.5633 12.7515 21.6759 12.0904L22.2348 8.79704C22.279 8.53342 22.1946 8.26573 22.0056 8.07917L19.6334 5.74708C19.1589 5.28066 19.4203 4.46139 20.0797 4.3681L23.3566 3.88952C23.6179 3.85302 23.8431 3.68673 23.9597 3.44743L25.4273 0.450194C25.7208 -0.150065 26.5732 -0.150065 26.8667 0.450194Z" fill="#FEA800"/>
<path d="M49.3319 7.72261L49.3311 7.72335C49.0238 8.02677 48.8895 8.4591 48.9601 8.87977L48.9602 8.8807L49.5191 12.174L49.5192 12.1743C49.5632 12.4331 49.2986 12.6152 49.0801 12.5002C49.0799 12.5001 49.0798 12.5001 49.0797 12.5L46.1522 10.9486C46.1516 10.9483 46.1511 10.948 46.1505 10.9477C45.7701 10.7433 45.3119 10.7433 44.9315 10.9477C44.931 10.948 44.9304 10.9483 44.9298 10.9486L42.0018 12.5003L42.0011 12.5007C41.7871 12.6145 41.5188 12.4332 41.5628 12.1743L41.5629 12.174L42.1218 8.8807L42.1219 8.87977C42.1925 8.4591 42.0583 8.02677 41.7509 7.72335L41.7502 7.72261L39.3779 5.39052C39.1917 5.20744 39.3046 4.89701 39.5437 4.86317L39.5437 4.86318L39.546 4.86285L42.8215 4.38447C43.2507 4.32392 43.6153 4.05146 43.8029 3.66713C43.803 3.66691 43.8031 3.66668 43.8032 3.66645L45.2704 0.670072L45.2705 0.669833C45.3798 0.446182 45.6969 0.440065 45.8123 0.671439C45.8125 0.671709 45.8126 0.67198 45.8127 0.672251L47.2788 3.66645C47.2789 3.66657 47.2789 3.66669 47.279 3.6668C47.4665 4.05131 47.8312 4.32391 48.2605 4.38447C48.2611 4.38455 48.2617 4.38463 48.2622 4.38471L51.5353 4.86274C51.5354 4.86276 51.5355 4.86277 51.5356 4.86278C51.7816 4.89933 51.8874 5.21031 51.7041 5.39052L49.3319 7.72261Z" stroke="#FEA800"/>
<path d="M84.5991 0.669833L84.5993 0.670073L86.0664 3.66646C86.0665 3.66668 86.0666 3.66691 86.0668 3.66713C86.2543 4.05146 86.6189 4.32392 87.0481 4.38447C87.0487 4.38455 87.0493 4.38463 87.0499 4.38471L90.3229 4.86274C90.323 4.86276 90.3231 4.86277 90.3232 4.86278C90.5692 4.89933 90.675 5.21031 90.4917 5.39052L88.1195 7.72261L88.1187 7.72335C87.8114 8.02677 87.6771 8.4591 87.7477 8.87977L87.7478 8.8807L88.3067 12.174L88.3068 12.1743C88.3509 12.4332 88.0859 12.6154 87.8673 12.5C87.8673 12.5 87.8673 12.5 87.8673 12.5L84.9398 10.9486C84.9392 10.9483 84.9386 10.9479 84.938 10.9476C84.5576 10.7433 84.0996 10.7433 83.7193 10.9476C83.7187 10.9479 83.718 10.9483 83.7174 10.9486L80.7894 12.5003L80.7887 12.5007C80.5747 12.6145 80.3064 12.4332 80.3504 12.1743L80.3505 12.174L80.9094 8.8807L80.9095 8.87977C80.9801 8.4591 80.8459 8.02677 80.5385 7.72335L80.5378 7.72261L78.1655 5.39052L77.8237 5.73826L78.1655 5.39052C77.9793 5.20744 78.0922 4.89701 78.3313 4.86317L78.3313 4.86318L78.3336 4.86285L81.6091 4.38447C82.0384 4.3239 82.4031 4.05133 82.5906 3.66687C82.5907 3.66673 82.5907 3.66659 82.5908 3.66645L84.058 0.670072L84.0581 0.669833C84.1688 0.443389 84.4884 0.443389 84.5991 0.669833Z" stroke="#FEA800"/>
<path d="M65.2056 0.669833L65.2057 0.670073L66.6729 3.66646L67.1224 3.44743L66.6733 3.66731L66.6733 3.66721C66.8608 4.05149 67.2254 4.32392 67.6546 4.38447C67.6551 4.38455 67.6557 4.38463 67.6563 4.38471L70.9294 4.86274C70.9295 4.86276 70.9296 4.86277 70.9297 4.86278C71.1757 4.89933 71.2815 5.21031 71.0982 5.39052L68.7259 7.72261L68.7252 7.72335C68.4178 8.02677 68.2836 8.4591 68.3542 8.87977L68.3543 8.8807L68.9132 12.174L68.9132 12.1743C68.9573 12.4332 68.6923 12.6154 68.4738 12.5C68.4738 12.5 68.4737 12.5 68.4737 12.5L65.5463 10.9486C65.5457 10.9483 65.5451 10.948 65.5446 10.9477C65.1642 10.7433 64.7061 10.7433 64.3257 10.9476C64.3251 10.9479 64.3245 10.9483 64.3239 10.9486L61.3959 12.5003L61.3952 12.5007C61.1812 12.6145 60.9128 12.4332 60.9569 12.1743L60.9569 12.174L61.5158 8.8807L61.516 8.87977C61.5866 8.4591 61.4523 8.02677 61.145 7.72335L61.1442 7.72261L58.772 5.39052C58.5857 5.20744 58.6986 4.89701 58.9378 4.86317L58.9378 4.86318L58.94 4.86285L62.2156 4.38447C62.6449 4.3239 63.0096 4.05127 63.1971 3.66675C63.1972 3.66665 63.1972 3.66655 63.1973 3.66646L64.6633 0.672251C64.6635 0.671974 64.6636 0.671697 64.6638 0.67142C64.7792 0.440065 65.0963 0.446188 65.2056 0.669833Z" stroke="#FEA800"/>
</svg>
