<svg width="60" height="60" viewBox="0 0 60 60" fill="none" xmlns="http://www.w3.org/2000/svg">
<path d="M30 59C46.0163 59 59 46.0163 59 30C59 13.9837 46.0163 1 30 1C13.9837 1 1 13.9837 1 30C1 46.0163 13.9837 59 30 59Z" stroke="#0066B9" stroke-width="2" stroke-linecap="round" stroke-linejoin="round"/>
<path d="M35.176 36.48V39H23.704V36.72L29.512 30.456C30.2 29.704 30.704 29.016 31.024 28.392C31.344 27.768 31.504 27.152 31.504 26.544C31.504 25.76 31.272 25.168 30.808 24.768C30.36 24.368 29.712 24.168 28.864 24.168C27.36 24.168 25.816 24.76 24.232 25.944L23.2 23.688C23.872 23.08 24.736 22.6 25.792 22.248C26.848 21.88 27.912 21.696 28.984 21.696C30.696 21.696 32.048 22.12 33.04 22.968C34.048 23.8 34.552 24.928 34.552 26.352C34.552 27.328 34.336 28.248 33.904 29.112C33.488 29.976 32.784 30.944 31.792 32.016L27.592 36.48H35.176Z" fill="#0066B9"/>
</svg>
