<svg width="60" height="60" viewBox="0 0 60 60" fill="none" xmlns="http://www.w3.org/2000/svg">
<path d="M25.83 22.3091L22.4277 37.9803H26.5517L29.8509 22.3091H25.83Z" fill="#0066B9"/>
<path d="M19.8464 22.3089L15.6193 32.9282L13.8666 23.8554C13.6604 22.8244 12.8356 22.3089 12.0108 22.3089H5.10307L5 22.7213C6.4434 23.0306 7.98993 23.5461 9.02093 24.0616C9.63953 24.3709 9.74259 24.6802 9.94879 25.4019L13.1449 37.877H17.4751L24.0735 22.2058H19.8464V22.3089Z" fill="#0066B9"/>
<path d="M51.9055 22.309H48.4C47.5752 22.309 46.9567 22.7214 46.6474 23.4431L40.5645 37.9802H44.7915L45.6164 35.6089H50.7714L51.2869 37.9802H54.9985L51.9055 22.309ZM46.9567 32.4128L49.1217 26.5361L50.359 32.4128H46.9567Z" fill="#0066B9"/>
<path d="M35.2068 26.6395C35.2068 26.124 35.7223 25.5054 36.9595 25.2992C37.5781 25.1961 39.1246 25.1961 40.9804 26.0209L41.7021 22.7217C40.7742 22.4124 39.4339 22 37.8874 22C33.8665 22 31.0828 24.1651 31.0828 27.155C31.0828 29.4232 33.1448 30.6604 34.5882 31.3821C36.1347 32.1038 36.6502 32.6193 36.6502 33.341C36.6502 34.372 35.413 34.8875 34.1758 34.8875C32.1138 34.8875 30.9797 34.372 30.0518 33.8565L29.3301 37.2588C30.258 37.6712 32.0107 38.0836 33.8665 38.0836C38.0936 38.0836 40.8773 36.0216 40.8773 32.7224C40.8773 28.8046 35.1037 28.4953 35.2068 26.6395Z" fill="#0066B9"/>
</svg>
