<svg width="60" height="60" viewBox="0 0 60 60" fill="none" xmlns="http://www.w3.org/2000/svg">
<path d="M28.2758 10.7906L6.41328 48.6563C6.23936 48.9594 6.14804 49.3028 6.14844 49.6523C6.14884 50.0018 6.24095 50.345 6.41556 50.6478C6.59017 50.9505 6.84117 51.2021 7.14348 51.3774C7.44578 51.5527 7.78881 51.6457 8.13828 51.6469H51.8633C52.2127 51.6457 52.5558 51.5527 52.8581 51.3774C53.1604 51.2021 53.4114 50.9505 53.586 50.6478C53.7606 50.345 53.8527 50.0018 53.8531 49.6523C53.8535 49.3028 53.7622 48.9594 53.5883 48.6563L31.7258 10.7906C31.5499 10.4891 31.2981 10.2389 30.9955 10.0651C30.6928 9.89118 30.3498 9.79968 30.0008 9.79968C29.6517 9.79968 29.3088 9.89118 29.0061 10.0651C28.7034 10.2389 28.4516 10.4891 28.2758 10.7906Z" fill="#DC2626"/>
<path d="M27.188 43.125C27.188 42.5687 27.3529 42.0249 27.662 41.5624C27.971 41.0999 28.4103 40.7394 28.9242 40.5266C29.4381 40.3137 30.0036 40.258 30.5492 40.3665C31.0948 40.475 31.5959 40.7429 31.9892 41.1362C32.3826 41.5296 32.6504 42.0307 32.7589 42.5763C32.8675 43.1218 32.8118 43.6873 32.5989 44.2013C32.386 44.7152 32.0255 45.1544 31.563 45.4635C31.1005 45.7725 30.5568 45.9375 30.0005 45.9375C29.6269 45.9534 29.2541 45.8915 28.9056 45.7558C28.5572 45.6201 28.2408 45.4135 27.9764 45.1491C27.712 44.8847 27.5053 44.5682 27.3696 44.2198C27.2339 43.8714 27.1721 43.4986 27.188 43.125ZM28.2099 38.7562L27.4974 24.6937H32.4286L31.7442 38.7562H28.2099Z" fill="#333333"/>
</svg>
