<svg width="60" height="60" viewBox="0 0 60 60" fill="none" xmlns="http://www.w3.org/2000/svg">
<path d="M30.5 48.0645C30.3602 48.0645 30.2235 48.1059 30.1072 48.1836C29.9909 48.2613 29.9003 48.3717 29.8468 48.5009C29.7933 48.6301 29.7793 48.7723 29.8066 48.9095C29.8338 49.0466 29.9012 49.1726 30.0001 49.2715C30.0989 49.3704 30.2249 49.4377 30.3621 49.465C30.4992 49.4923 30.6414 49.4783 30.7706 49.4248C30.8998 49.3712 31.0102 49.2806 31.0879 49.1643C31.1656 49.0481 31.2071 48.9114 31.2071 48.7715C31.2068 48.5841 31.1323 48.4044 30.9997 48.2718C30.8672 48.1393 30.6875 48.0647 30.5 48.0645V48.0645Z" stroke="#0066B9" stroke-width="0.5"/>
<path d="M39.3435 7H21.6563C20.952 7.00104 20.2768 7.35158 19.7788 7.97472C19.2809 8.59786 19.0008 9.44271 19 10.3239V48.6761C19.0008 49.5573 19.2809 50.4021 19.7788 51.0253C20.2768 51.6484 20.952 51.999 21.6563 52H39.3435C40.0478 51.999 40.723 51.6484 41.221 51.0253C41.719 50.4022 41.9992 49.5573 42 48.6761V10.3239C41.9992 9.44267 41.719 8.59782 41.221 7.97469C40.723 7.35155 40.0478 7.00103 39.3435 7ZM21.6563 7.90604H39.3435C39.795 7.90722 40.232 8.10621 40.5786 8.46846C40.9252 8.83072 41.1594 9.33337 41.2407 9.88918H19.7593C19.8405 9.33339 20.0747 8.83073 20.4212 8.46847C20.7678 8.10621 21.2047 7.90722 21.6563 7.90604ZM41.2759 10.7952V45.0484H19.7241V10.7952H41.2759ZM39.3435 51.094H21.6563C21.144 51.0932 20.6529 50.8382 20.2907 50.3849C19.9284 49.9316 19.7247 49.3171 19.7241 48.6761V45.9544H41.2759V48.6761C41.2753 49.3171 41.0715 49.9317 40.7092 50.3849C40.3469 50.8382 39.8558 51.0932 39.3435 51.094Z" fill="#0066B9" stroke="#0066B9" stroke-width="0.5"/>
<path d="M30.4998 47.4561C30.2396 47.4561 29.9852 47.5332 29.7688 47.6778C29.5525 47.8224 29.3838 48.0279 29.2842 48.2683C29.1847 48.5087 29.1586 48.7733 29.2094 49.0285C29.2601 49.2837 29.3854 49.5182 29.5695 49.7022C29.7535 49.8862 29.9879 50.0115 30.2431 50.0623C30.4984 50.113 30.7629 50.087 31.0033 49.9874C31.2438 49.8878 31.4493 49.7192 31.5938 49.5028C31.7384 49.2864 31.8156 49.032 31.8156 48.7718C31.8152 48.423 31.6764 48.0885 31.4297 47.8419C31.1831 47.5952 30.8487 47.4565 30.4998 47.4561ZM30.4998 49.4789C30.36 49.4789 30.2233 49.4374 30.107 49.3597C29.9907 49.282 29.9001 49.1716 29.8466 49.0424C29.7931 48.9132 29.7791 48.771 29.8064 48.6339C29.8336 48.4967 29.901 48.3707 29.9999 48.2718C30.0987 48.173 30.2247 48.1056 30.3619 48.0783C30.499 48.051 30.6412 48.065 30.7704 48.1186C30.8996 48.1721 31.01 48.2627 31.0877 48.379C31.1654 48.4953 31.2069 48.632 31.2069 48.7718C31.2066 48.9592 31.1321 49.1389 30.9995 49.2715C30.867 49.404 30.6873 49.4786 30.4998 49.4789Z" fill="#0066B9" stroke="#0066B9" stroke-width="0.5"/>
<path d="M39.1403 21.0948C39.0572 21.0221 38.9471 20.9888 38.8371 21.0034L31.1407 22.0335C30.9505 22.059 30.8086 22.2213 30.8086 22.4131V29.1506C30.8086 29.3621 30.9801 29.5336 31.1916 29.5336H38.888C39.0995 29.5336 39.271 29.3621 39.271 29.1506V21.383C39.271 21.2724 39.2233 21.1675 39.1403 21.0948ZM38.505 28.7676H31.5746V22.7483L38.505 21.8206V28.7676Z" fill="#0066B9" stroke="#0066B9" stroke-width="0.3"/>
<path d="M29.6593 30.3203C29.6593 30.3203 29.6588 30.3203 29.6586 30.3203L22.4188 30.3353C22.2075 30.3356 22.0366 30.5071 22.0366 30.7183V36.4633C22.0366 36.6561 22.18 36.8188 22.3712 36.8433L29.6109 37.7648C29.6272 37.7669 29.6433 37.7678 29.6593 37.7678C29.7519 37.7678 29.8422 37.7342 29.9125 37.6723C29.995 37.5995 30.0423 37.4948 30.0423 37.3848V30.7033C30.0423 30.6016 30.0019 30.5041 29.9299 30.4321C29.8581 30.3605 29.7607 30.3203 29.6593 30.3203ZM29.2764 36.9501L22.8026 36.126V31.1005L29.2764 31.087V36.9501Z" fill="#0066B9" stroke="#0066B9" stroke-width="0.3"/>
<path d="M29.6108 22.221L22.3342 23.1575C22.143 23.182 22 23.3447 22 23.5373V29.1509C22 29.3624 22.1715 29.5339 22.383 29.5339H29.6596C29.8711 29.5339 30.0426 29.3624 30.0426 29.1509V22.6008C30.0426 22.4907 29.9953 22.3859 29.9126 22.3132C29.8299 22.2405 29.7194 22.2066 29.6108 22.221ZM29.2766 28.7679H22.766V23.8741L29.2766 23.0362V28.7679Z" fill="#0066B9" stroke="#0066B9" stroke-width="0.3"/>
<path d="M38.8886 30.3351L31.1921 30.3242H31.1916C31.09 30.3242 30.9928 30.3644 30.921 30.4362C30.849 30.508 30.8086 30.6054 30.8086 30.7072V37.5761C30.8086 37.7678 30.9503 37.9299 31.1403 37.9557L38.8367 38.9966C38.8538 38.9988 38.871 38.9999 38.888 38.9999C38.9802 38.9999 39.0697 38.9667 39.1401 38.9053C39.2233 38.8326 39.271 38.7275 39.271 38.617V30.718C39.271 30.5067 39.0999 30.3354 38.8886 30.3351ZM38.505 38.1786L31.5746 37.2414V31.0907L38.505 31.1004V38.1786Z" fill="#0066B9" stroke="#0066B9" stroke-width="0.3"/>
<path d="M30.5 48.0645C30.3602 48.0645 30.2235 48.1059 30.1072 48.1836C29.9909 48.2613 29.9003 48.3717 29.8468 48.5009C29.7933 48.6301 29.7793 48.7723 29.8066 48.9095C29.8338 49.0466 29.9012 49.1726 30.0001 49.2715C30.0989 49.3704 30.2249 49.4377 30.3621 49.465C30.4992 49.4923 30.6414 49.4783 30.7706 49.4248C30.8998 49.3712 31.0102 49.2806 31.0879 49.1643C31.1656 49.0481 31.2071 48.9114 31.2071 48.7715C31.2068 48.5841 31.1323 48.4044 30.9997 48.2718C30.8672 48.1393 30.6875 48.0647 30.5 48.0645V48.0645Z" stroke="#0066B9" stroke-width="0.5"/>
<path d="M39.3435 7H21.6563C20.952 7.00104 20.2768 7.35158 19.7788 7.97472C19.2809 8.59786 19.0008 9.44271 19 10.3239V48.6761C19.0008 49.5573 19.2809 50.4021 19.7788 51.0253C20.2768 51.6484 20.952 51.999 21.6563 52H39.3435C40.0478 51.999 40.723 51.6484 41.221 51.0253C41.719 50.4022 41.9992 49.5573 42 48.6761V10.3239C41.9992 9.44267 41.719 8.59782 41.221 7.97469C40.723 7.35155 40.0478 7.00103 39.3435 7ZM21.6563 7.90604H39.3435C39.795 7.90722 40.232 8.10621 40.5786 8.46846C40.9252 8.83072 41.1594 9.33337 41.2407 9.88918H19.7593C19.8405 9.33339 20.0747 8.83073 20.4212 8.46847C20.7678 8.10621 21.2047 7.90722 21.6563 7.90604ZM41.2759 10.7952V45.0484H19.7241V10.7952H41.2759ZM39.3435 51.094H21.6563C21.144 51.0932 20.6529 50.8382 20.2907 50.3849C19.9284 49.9316 19.7247 49.3171 19.7241 48.6761V45.9544H41.2759V48.6761C41.2753 49.3171 41.0715 49.9317 40.7092 50.3849C40.3469 50.8382 39.8558 51.0932 39.3435 51.094Z" fill="#0066B9" stroke="#0066B9" stroke-width="0.5"/>
<path d="M30.4998 47.4561C30.2396 47.4561 29.9852 47.5332 29.7688 47.6778C29.5525 47.8224 29.3838 48.0279 29.2842 48.2683C29.1847 48.5087 29.1586 48.7733 29.2094 49.0285C29.2601 49.2837 29.3854 49.5182 29.5695 49.7022C29.7535 49.8862 29.9879 50.0115 30.2431 50.0623C30.4984 50.113 30.7629 50.087 31.0033 49.9874C31.2438 49.8878 31.4493 49.7192 31.5938 49.5028C31.7384 49.2864 31.8156 49.032 31.8156 48.7718C31.8152 48.423 31.6764 48.0885 31.4297 47.8419C31.1831 47.5952 30.8487 47.4565 30.4998 47.4561ZM30.4998 49.4789C30.36 49.4789 30.2233 49.4374 30.107 49.3597C29.9907 49.282 29.9001 49.1716 29.8466 49.0424C29.7931 48.9132 29.7791 48.771 29.8064 48.6339C29.8336 48.4967 29.901 48.3707 29.9999 48.2718C30.0987 48.173 30.2247 48.1056 30.3619 48.0783C30.499 48.051 30.6412 48.065 30.7704 48.1186C30.8996 48.1721 31.01 48.2627 31.0877 48.379C31.1654 48.4953 31.2069 48.632 31.2069 48.7718C31.2066 48.9592 31.1321 49.1389 30.9995 49.2715C30.867 49.404 30.6873 49.4786 30.4998 49.4789Z" fill="#0066B9" stroke="#0066B9" stroke-width="0.5"/>
<path d="M39.1403 21.0948C39.0572 21.0221 38.9471 20.9888 38.8371 21.0034L31.1407 22.0335C30.9505 22.059 30.8086 22.2213 30.8086 22.4131V29.1506C30.8086 29.3621 30.9801 29.5336 31.1916 29.5336H38.888C39.0995 29.5336 39.271 29.3621 39.271 29.1506V21.383C39.271 21.2724 39.2233 21.1675 39.1403 21.0948ZM38.505 28.7676H31.5746V22.7483L38.505 21.8206V28.7676Z" fill="#0066B9" stroke="#0066B9" stroke-width="0.3"/>
<path d="M29.6593 30.3203C29.6593 30.3203 29.6588 30.3203 29.6586 30.3203L22.4188 30.3353C22.2075 30.3356 22.0366 30.5071 22.0366 30.7183V36.4633C22.0366 36.6561 22.18 36.8188 22.3712 36.8433L29.6109 37.7648C29.6272 37.7669 29.6433 37.7678 29.6593 37.7678C29.7519 37.7678 29.8422 37.7342 29.9125 37.6723C29.995 37.5995 30.0423 37.4948 30.0423 37.3848V30.7033C30.0423 30.6016 30.0019 30.5041 29.9299 30.4321C29.8581 30.3605 29.7607 30.3203 29.6593 30.3203ZM29.2764 36.9501L22.8026 36.126V31.1005L29.2764 31.087V36.9501Z" fill="#0066B9" stroke="#0066B9" stroke-width="0.3"/>
<path d="M29.6108 22.221L22.3342 23.1575C22.143 23.182 22 23.3447 22 23.5373V29.1509C22 29.3624 22.1715 29.5339 22.383 29.5339H29.6596C29.8711 29.5339 30.0426 29.3624 30.0426 29.1509V22.6008C30.0426 22.4907 29.9953 22.3859 29.9126 22.3132C29.8299 22.2405 29.7194 22.2066 29.6108 22.221ZM29.2766 28.7679H22.766V23.8741L29.2766 23.0362V28.7679Z" fill="#0066B9" stroke="#0066B9" stroke-width="0.3"/>
<path d="M38.8886 30.3351L31.1921 30.3242H31.1916C31.09 30.3242 30.9928 30.3644 30.921 30.4362C30.849 30.508 30.8086 30.6054 30.8086 30.7072V37.5761C30.8086 37.7678 30.9503 37.9299 31.1403 37.9557L38.8367 38.9966C38.8538 38.9988 38.871 38.9999 38.888 38.9999C38.9802 38.9999 39.0697 38.9667 39.1401 38.9053C39.2233 38.8326 39.271 38.7275 39.271 38.617V30.718C39.271 30.5067 39.0999 30.3354 38.8886 30.3351ZM38.505 38.1786L31.5746 37.2414V31.0907L38.505 31.1004V38.1786Z" fill="#0066B9" stroke="#0066B9" stroke-width="0.3"/>
</svg>
