<svg width="94" height="68" viewBox="0 0 94 68" fill="none" xmlns="http://www.w3.org/2000/svg">
<path d="M38.6439 1.398C40.3689 0.730774 42.1578 0.254183 43.9787 0C44.3301 3.55856 45.3523 6.99003 46.9814 10.1355C48.6106 6.99003 49.6648 3.52679 50.0481 0C51.8689 0.254183 53.6578 0.730774 55.3828 1.398C54.9995 4.28933 54.2648 7.11712 53.2106 9.81781C56.1495 8.73753 58.7689 6.95825 60.8773 4.57529C62.3467 5.71911 63.6564 7.0218 64.8064 8.48335C61.1967 12.5503 56.4051 15.251 51.1342 16.2042C52.7314 17.9199 54.4884 19.4132 56.4051 20.6841C59.6634 17.4433 63.5926 14.9968 67.9051 13.567C68.6717 15.2827 69.2148 17.062 69.5981 18.8731C66.6912 19.8263 64.0078 21.3514 61.6759 23.3213C64.3592 24.2745 67.1384 24.8146 69.9814 24.9099C69.8537 26.7845 69.5342 28.6273 68.9912 30.4384C60.5898 29.8983 52.6995 26.0537 46.9814 19.7309C41.2634 26.0855 33.3731 29.93 24.9717 30.4384C24.4287 28.6273 24.1092 26.7845 23.9814 24.9099C26.8245 24.8146 29.6356 24.2427 32.3189 23.226C29.9551 21.256 27.2717 19.7309 24.3967 18.746C24.7801 16.9349 25.3551 15.1874 26.0898 13.5035C30.4023 14.9332 34.3314 17.3798 37.5898 20.6206C39.5384 19.3497 41.2953 17.8246 42.8926 16.1088C37.6217 15.1557 32.7981 12.4232 29.2203 8.35626C30.3703 6.89471 31.712 5.59202 33.1814 4.4482C35.2578 6.83117 37.9092 8.61045 40.8481 9.69072C39.762 7.05358 39.0273 4.25756 38.6439 1.398ZM36.4398 28.532C38.1328 27.7695 39.762 26.8798 41.2953 25.8313C43.212 28.3414 45.1287 30.915 46.9814 33.4251C48.8981 30.915 50.8148 28.3732 52.6676 25.8313C54.2009 26.8481 55.8301 27.7695 57.5231 28.532C54.9676 32.0588 52.2523 35.4903 49.7287 38.9853C49.7287 41.5907 49.7287 44.2278 49.7287 46.8332C47.9078 47.0556 46.087 47.0556 44.2981 46.8332V38.9853L36.4398 28.532Z" fill="#F96432"/>
<path d="M72.0483 56.0299C73.123 55.3499 74.417 55.0868 75.6453 55.328C76.8077 55.4815 77.9263 55.9641 78.8474 56.7317L77.5534 58.6618C76.6103 57.8722 75.404 57.4774 74.1977 57.5432C73.6494 57.609 73.0572 58.0257 73.145 58.6398C73.2327 59.2539 73.6055 59.4733 74.0223 59.6268C75.3821 60.1532 76.8954 60.2848 78.0798 61.2059C79.3299 62.3245 79.5493 64.2326 78.6062 65.6363C77.9921 66.4917 77.049 67.04 76.0181 67.1716C73.9126 67.4786 71.8071 66.8207 70.2279 65.3731L71.6755 63.5746C72.5309 64.3642 73.5836 64.8467 74.7241 64.9783C75.3382 65.088 75.9743 64.9345 76.4787 64.5397C76.6761 64.3203 76.7638 63.9914 76.72 63.6843C76.6542 63.3772 76.4787 63.1141 76.1936 62.9825C74.768 62.2148 73.0134 62.2368 71.6974 61.184C70.9956 60.5918 70.6227 59.6706 70.6885 58.7495C70.7104 57.6967 71.2149 56.6659 72.0483 56.0299ZM13.971 56.0299C15.4186 55.2841 17.0854 55.1087 18.6646 55.5254C19.6296 55.7667 20.5508 56.2272 21.2965 56.9072L19.7173 58.8591C18.9936 58.1573 18.0724 57.7406 17.0854 57.6967C16.0546 57.609 15.0238 58.0476 14.3658 58.8591C13.0718 60.4822 13.2253 62.8509 14.7167 64.2765C16.0546 65.3292 17.8969 65.395 19.2787 64.4081C19.2787 63.9914 19.2787 63.5746 19.2787 63.1579H18.0943C18.0943 62.4999 18.0943 61.842 18.0943 61.1621H21.6474V65.5705C20.0902 66.9522 18.0285 67.6102 15.9888 67.369C14.4755 67.2154 13.0937 66.4478 12.1287 65.2415C11.0321 63.772 10.6373 61.8858 11.0101 60.0654C11.383 58.3328 12.4577 56.8633 13.971 56.0299ZM26.0339 56.2492C27.5692 55.328 29.4115 55.0648 31.1223 55.5254C32.0653 55.7667 32.9646 56.2272 33.6884 56.8852C33.162 57.5213 32.6356 58.1792 32.1311 58.8153C31.3854 58.0915 30.4423 57.6748 29.4115 57.6529C28.3149 57.5871 27.2402 58.0915 26.6042 59.0346C25.4637 60.7015 25.7269 62.9825 27.2183 64.3203C28.5561 65.2634 30.3327 65.2634 31.6925 64.3203V63.1141H30.5301V61.1182H34.0831C34.0831 62.5877 34.0831 64.0572 34.0831 65.5486C32.7891 66.6891 31.1442 67.3251 29.4334 67.347C27.7885 67.4348 26.1874 66.8426 24.9811 65.6802C23.8187 64.4739 23.2265 62.807 23.3143 61.1182C23.3801 59.1443 24.389 57.3239 26.0339 56.2492ZM0 55.5254C0.965031 55.5254 1.93006 55.5254 2.89509 55.5254C3.77239 57.2581 4.69356 58.9907 5.59279 60.7234L8.31243 55.5254H11.1198C9.69418 58.1792 8.20276 60.7892 6.77715 63.465C6.77715 64.6932 6.77715 65.9653 6.77715 67.1935H4.34264C4.34264 65.9653 4.34264 64.7151 4.34264 63.4869C2.91703 60.8111 1.42561 58.1792 0 55.5254ZM36.079 55.5254H39.8953C42.0008 55.4157 44.0186 56.4904 45.1591 58.3328C46.1022 59.9996 46.2338 62.0394 45.4661 63.8159C44.545 65.8118 42.593 67.1277 40.4436 67.1935C38.996 67.1935 37.5266 67.1935 36.0571 67.1935C36.079 63.2895 36.079 59.4075 36.079 55.5254ZM38.5574 57.7845C38.5574 60.1312 38.5574 62.4999 38.5574 64.8467C39.6759 64.8467 40.8822 64.9783 41.8692 64.3203C42.8342 63.6185 43.3825 62.4999 43.3825 61.2937C43.3825 60.0874 42.7904 58.9688 41.8253 58.2889C40.8603 57.6967 39.6759 57.8283 38.5574 57.7845ZM47.5716 55.5254C49.2824 55.5254 50.9931 55.5254 52.6819 55.5254C54.1075 55.4815 55.4454 56.2272 56.1911 57.4774C56.9588 59.0346 56.6956 60.9208 55.5331 62.171C55.1384 62.5438 54.6778 62.807 54.1953 63.0044L56.9588 67.1716H54.0637C53.2741 65.9214 52.4626 64.6932 51.6511 63.443H50.9931V61.184C51.8266 61.1401 52.7477 61.3595 53.4934 60.855C53.954 60.5041 54.1953 59.9338 54.1295 59.3417C54.0637 58.7495 53.7128 58.245 53.1864 58.0038C52.1555 57.8064 51.1028 57.7406 50.05 57.8283V67.1935H47.5936C47.5716 63.2895 47.5716 59.4075 47.5716 55.5254ZM57.7703 67.2154L62.5954 55.4815H64.8764L69.7016 67.2154H67.0696C66.7187 66.3162 66.3678 65.4608 66.0388 64.5835H62.2664L63.1437 62.3464H65.1615L63.6701 58.5521C62.5296 61.4472 61.3891 64.3423 60.2486 67.2374H57.7703V67.2154ZM81.1284 55.5254H83.5848V67.1935H81.1284V55.5254ZM85.6465 55.5254H88.1468C88.1468 58.6398 88.1468 61.7542 88.1468 64.8687H93.4106V67.1935H85.6465C85.6465 63.2895 85.6246 59.4075 85.6465 55.5254Z" fill="black"/>
</svg>
