<svg width="32" height="32" viewBox="0 0 32 32" fill="none" xmlns="http://www.w3.org/2000/svg">
<path d="M17.6173 15.1959L17.6175 15.1961C17.7683 15.3461 17.8878 15.524 17.9693 15.7197C18.0507 15.9154 18.0926 16.125 18.0926 16.3367C18.0926 16.5483 18.0507 16.7579 17.9693 16.9536C17.8878 17.1493 17.7683 17.3272 17.6175 17.4772L17.6174 17.4773L14.4525 20.6276L14.4446 20.6197L14.4366 20.6277L11.271 17.4775C11.271 17.4775 11.2709 17.4774 11.2709 17.4774C10.9668 17.1743 10.7964 16.7639 10.7964 16.3367C10.7964 15.9093 10.9668 15.4989 11.271 15.1958C11.4218 15.0458 11.6009 14.9267 11.7982 14.8453C11.9955 14.764 12.2072 14.722 12.4209 14.722C12.6347 14.722 12.8463 14.764 13.0437 14.8453C13.2411 14.9267 13.4202 15.0459 13.571 15.196L13.5711 15.196L14.0919 15.7143L14.4446 16.0653L14.7973 15.7143L15.3181 15.196L15.3182 15.1959C15.4689 15.0459 15.648 14.9267 15.8453 14.8454C16.0425 14.764 16.2541 14.7221 16.4678 14.7221C16.6814 14.7221 16.893 14.764 17.0903 14.8454C17.2875 14.9267 17.4666 15.0459 17.6173 15.1959Z" stroke="#0066B9"/>
<path d="M19.4412 8.88892H9.44789C8.28014 8.88892 7.3335 9.82846 7.3335 10.9874V24.5681C7.3335 25.727 8.28014 26.6666 9.44789 26.6666H19.4412C20.609 26.6666 21.5556 25.727 21.5556 24.5681V10.9874C21.5556 9.82846 20.609 8.88892 19.4412 8.88892Z" stroke="#0066B9" stroke-linecap="round" stroke-linejoin="round"/>
<path d="M21.6913 24.2674L22.1344 24.2927C22.6914 24.3241 23.2378 24.1262 23.6536 23.7423C24.0694 23.3583 24.3207 22.8198 24.3524 22.2449L25.1081 8.20244C25.1386 7.62731 24.9468 7.0632 24.5749 6.63379C24.2031 6.20439 23.6814 5.94473 23.1244 5.91177L13.1809 5.33642C12.6238 5.30476 12.0773 5.50264 11.6614 5.8866C11.2455 6.27057 10.9943 6.80922 10.9628 7.38428L10.8892 8.76024" stroke="#0066B9" stroke-linecap="round" stroke-linejoin="round"/>
</svg>
