<svg width="32" height="32" viewBox="0 0 32 32" fill="none" xmlns="http://www.w3.org/2000/svg">
<path d="M15.9999 23.6191C20.2078 23.6191 23.619 20.2079 23.619 16C23.619 11.7921 20.2078 8.38098 15.9999 8.38098C11.792 8.38098 8.38086 11.7921 8.38086 16C8.38086 20.2079 11.792 23.6191 15.9999 23.6191Z" stroke="black" stroke-opacity="0.8" stroke-miterlimit="10" stroke-linecap="round" stroke-linejoin="round"/>
<path d="M16.0002 26.6667C21.8912 26.6667 26.6668 21.8911 26.6668 16C26.6668 10.109 21.8912 5.33337 16.0002 5.33337C10.1091 5.33337 5.3335 10.109 5.3335 16C5.3335 21.8911 10.1091 26.6667 16.0002 26.6667Z" stroke="black" stroke-opacity="0.8" stroke-miterlimit="10" stroke-linecap="round" stroke-linejoin="round"/>
<path d="M16 5.33337V8.38099" stroke="black" stroke-opacity="0.8" stroke-miterlimit="10" stroke-linecap="round" stroke-linejoin="round"/>
<path d="M8.45752 8.4574L10.5909 10.5907" stroke="black" stroke-opacity="0.8" stroke-miterlimit="10" stroke-linecap="round" stroke-linejoin="round"/>
<path d="M5.3335 16H8.38111" stroke="black" stroke-opacity="0.8" stroke-miterlimit="10" stroke-linecap="round" stroke-linejoin="round"/>
<path d="M8.45752 23.5428L10.5909 21.4094" stroke="black" stroke-opacity="0.8" stroke-miterlimit="10" stroke-linecap="round" stroke-linejoin="round"/>
<path d="M16 26.6668V23.6191" stroke="black" stroke-opacity="0.8" stroke-miterlimit="10" stroke-linecap="round" stroke-linejoin="round"/>
<path d="M23.543 23.5428L21.4097 21.4094" stroke="black" stroke-opacity="0.8" stroke-miterlimit="10" stroke-linecap="round" stroke-linejoin="round"/>
<path d="M26.6668 16H23.6191" stroke="black" stroke-opacity="0.8" stroke-miterlimit="10" stroke-linecap="round" stroke-linejoin="round"/>
<path d="M23.543 8.4574L21.4097 10.5907" stroke="black" stroke-opacity="0.8" stroke-miterlimit="10" stroke-linecap="round" stroke-linejoin="round"/>
<path d="M16.0003 12.1907L12.9526 16.0002L16.0003 19.8097L19.0479 16.0002L16.0003 12.1907Z" stroke="black" stroke-opacity="0.8" stroke-miterlimit="10" stroke-linecap="round" stroke-linejoin="round"/>
</svg>
