<svg width="32" height="32" viewBox="0 0 32 32" fill="none" xmlns="http://www.w3.org/2000/svg">
<path d="M20.5925 5.33337H11.4078C8.05305 5.33337 5.3335 8.05292 5.3335 11.4077V20.5924C5.3335 23.9472 8.05305 26.6667 11.4078 26.6667H20.5925C23.9473 26.6667 26.6668 23.9472 26.6668 20.5924V11.4077C26.6668 8.05292 23.9473 5.33337 20.5925 5.33337Z" stroke="black" stroke-opacity="0.8" stroke-linecap="round" stroke-linejoin="round"/>
<path d="M19.43 9.83305C19.755 9.6159 20.1371 9.5 20.5279 9.5C21.0521 9.5 21.5547 9.7082 21.9253 10.0788L22.2789 9.72526L21.9253 10.0788C22.2959 10.4494 22.5041 10.9521 22.5041 11.4762C22.5041 11.867 22.3882 12.2491 22.1711 12.5741C21.9539 12.8991 21.6453 13.1524 21.2842 13.302C20.9231 13.4515 20.5258 13.4907 20.1424 13.4144C19.7591 13.3382 19.4069 13.15 19.1306 12.8736C18.8542 12.5972 18.666 12.2451 18.5897 11.8617C18.5135 11.4784 18.5526 11.081 18.7022 10.7199C18.8518 10.3588 19.1051 10.0502 19.43 9.83305Z" stroke="black" stroke-opacity="0.8"/>
<path d="M17.9726 16.0003C17.9726 17.0897 17.0895 17.9727 16.0002 17.9727C14.9109 17.9727 14.0278 17.0897 14.0278 16.0003C14.0278 14.911 14.9109 14.028 16.0002 14.028C17.0895 14.028 17.9726 14.911 17.9726 16.0003Z" stroke="black" stroke-opacity="0.8"/>
<path d="M10.3749 18.888C10.6998 18.6708 11.0819 18.5549 11.4728 18.5549C11.9969 18.5549 12.4995 18.7631 12.8702 19.1337C13.2408 19.5044 13.449 20.007 13.449 20.5311C13.449 20.922 13.3331 21.304 13.1159 21.629C12.8988 21.954 12.5901 22.2073 12.229 22.3569C11.8679 22.5064 11.4706 22.5456 11.0872 22.4693C10.7039 22.3931 10.3518 22.2049 10.0754 21.9285C9.79902 21.6521 9.61081 21.3 9.53455 20.9167C9.4583 20.5333 9.49744 20.136 9.64701 19.7749C9.79658 19.4138 10.0499 19.1051 10.3749 18.888Z" stroke="black" stroke-opacity="0.8"/>
</svg>
