<svg width="32" height="32" viewBox="0 0 32 32" fill="none" xmlns="http://www.w3.org/2000/svg">
<path d="M16.0002 22.8577C19.7873 22.8577 22.8573 19.7877 22.8573 16.0006C22.8573 12.2135 19.7873 9.14343 16.0002 9.14343C12.2131 9.14343 9.14307 12.2135 9.14307 16.0006C9.14307 19.7877 12.2131 22.8577 16.0002 22.8577Z" stroke="black" stroke-opacity="0.8" stroke-miterlimit="10" stroke-linecap="round" stroke-linejoin="round"/>
<path d="M16.0002 26.6667C21.8912 26.6667 26.6668 21.8911 26.6668 16C26.6668 10.109 21.8912 5.33337 16.0002 5.33337C10.1091 5.33337 5.3335 10.109 5.3335 16C5.3335 21.8911 10.1091 26.6667 16.0002 26.6667Z" stroke="black" stroke-opacity="0.8" stroke-miterlimit="10" stroke-linecap="round" stroke-linejoin="round"/>
<path d="M16 5.33337V9.1429" stroke="black" stroke-opacity="0.8" stroke-miterlimit="10" stroke-linecap="round" stroke-linejoin="round"/>
<path d="M11.8857 6.17078L13.4096 9.67554" stroke="black" stroke-opacity="0.8" stroke-miterlimit="10" stroke-linecap="round" stroke-linejoin="round"/>
<path d="M8.45752 8.45752L11.1242 11.1242" stroke="black" stroke-opacity="0.8" stroke-miterlimit="10" stroke-linecap="round" stroke-linejoin="round"/>
<path d="M6.17188 11.8859L9.67663 13.4097" stroke="black" stroke-opacity="0.8" stroke-miterlimit="10" stroke-linecap="round" stroke-linejoin="round"/>
<path d="M5.3335 16H9.14302" stroke="black" stroke-opacity="0.8" stroke-miterlimit="10" stroke-linecap="round" stroke-linejoin="round"/>
<path d="M6.17188 20.1148L9.67663 18.5909" stroke="black" stroke-opacity="0.8" stroke-miterlimit="10" stroke-linecap="round" stroke-linejoin="round"/>
<path d="M8.45752 23.5425L11.1242 20.8759" stroke="black" stroke-opacity="0.8" stroke-miterlimit="10" stroke-linecap="round" stroke-linejoin="round"/>
<path d="M11.8857 25.8285L13.4096 22.3237" stroke="black" stroke-opacity="0.8" stroke-miterlimit="10" stroke-linecap="round" stroke-linejoin="round"/>
<path d="M16 26.6662V22.8567" stroke="black" stroke-opacity="0.8" stroke-miterlimit="10" stroke-linecap="round" stroke-linejoin="round"/>
<path d="M20.1146 25.8285L18.5908 22.3237" stroke="black" stroke-opacity="0.8" stroke-miterlimit="10" stroke-linecap="round" stroke-linejoin="round"/>
<path d="M23.5431 23.5425L20.8765 20.8759" stroke="black" stroke-opacity="0.8" stroke-miterlimit="10" stroke-linecap="round" stroke-linejoin="round"/>
<path d="M25.8285 20.1148L22.3237 18.5909" stroke="black" stroke-opacity="0.8" stroke-miterlimit="10" stroke-linecap="round" stroke-linejoin="round"/>
<path d="M26.667 16H22.8574" stroke="black" stroke-opacity="0.8" stroke-miterlimit="10" stroke-linecap="round" stroke-linejoin="round"/>
<path d="M25.8285 11.8859L22.3237 13.4097" stroke="black" stroke-opacity="0.8" stroke-miterlimit="10" stroke-linecap="round" stroke-linejoin="round"/>
<path d="M23.5431 8.45752L20.8765 11.1242" stroke="black" stroke-opacity="0.8" stroke-miterlimit="10" stroke-linecap="round" stroke-linejoin="round"/>
<path d="M20.1146 6.17078L18.5908 9.67554" stroke="black" stroke-opacity="0.8" stroke-miterlimit="10" stroke-linecap="round" stroke-linejoin="round"/>
<path d="M15.9742 13.6361C16.7868 13.6361 17.4455 12.9774 17.4455 12.1649C17.4455 11.3523 16.7868 10.6936 15.9742 10.6936C15.1616 10.6936 14.5029 11.3523 14.5029 12.1649C14.5029 12.9774 15.1616 13.6361 15.9742 13.6361Z" stroke="black" stroke-opacity="0.8" stroke-miterlimit="10" stroke-linecap="round" stroke-linejoin="round"/>
<path d="M19.7838 17.445C20.5963 17.445 21.255 16.7863 21.255 15.9737C21.255 15.1611 20.5963 14.5024 19.7838 14.5024C18.9712 14.5024 18.3125 15.1611 18.3125 15.9737C18.3125 16.7863 18.9712 17.445 19.7838 17.445Z" stroke="black" stroke-opacity="0.8" stroke-miterlimit="10" stroke-linecap="round" stroke-linejoin="round"/>
<path d="M12.1641 17.445C12.9767 17.445 13.6354 16.7863 13.6354 15.9737C13.6354 15.1611 12.9767 14.5024 12.1641 14.5024C11.3516 14.5024 10.6929 15.1611 10.6929 15.9737C10.6929 16.7863 11.3516 17.445 12.1641 17.445Z" stroke="black" stroke-opacity="0.8" stroke-miterlimit="10" stroke-linecap="round" stroke-linejoin="round"/>
<path d="M15.9742 21.2547C16.7868 21.2547 17.4455 20.596 17.4455 19.7834C17.4455 18.9708 16.7868 18.3121 15.9742 18.3121C15.1616 18.3121 14.5029 18.9708 14.5029 19.7834C14.5029 20.596 15.1616 21.2547 15.9742 21.2547Z" stroke="black" stroke-opacity="0.8" stroke-miterlimit="10" stroke-linecap="round" stroke-linejoin="round"/>
<path d="M13.4253 16H18.5747" stroke="black" stroke-opacity="0.8" stroke-miterlimit="10" stroke-linecap="round" stroke-linejoin="round"/>
<path d="M16 18.575V13.4255" stroke="black" stroke-opacity="0.8" stroke-miterlimit="10" stroke-linecap="round" stroke-linejoin="round"/>
</svg>
