<svg width="32" height="32" viewBox="0 0 32 32" fill="none" xmlns="http://www.w3.org/2000/svg">
<path fill-rule="evenodd" clip-rule="evenodd" d="M10.5335 18.6963C8.67818 18.6963 6.51183 19.5606 6.51183 21.9968C6.51183 24.2139 8.31585 26.0185 10.5335 26.0185C12.7511 26.0185 14.5551 24.2139 14.5551 21.9968C14.5551 19.5606 12.3887 18.6963 10.5335 18.6963ZM10.5335 27.1968C7.666 27.1968 5.3335 24.8643 5.3335 21.9968C5.3335 19.3179 7.42326 17.5179 10.5335 17.5179C13.6437 17.5179 15.7334 19.3179 15.7334 21.9968C15.7334 24.8643 13.4009 27.1968 10.5335 27.1968Z" fill="black" fill-opacity="0.8"/>
<path fill-rule="evenodd" clip-rule="evenodd" d="M10.5337 21.4811C9.29347 21.4811 8.74554 20.8342 8.68721 20.7599C8.48513 20.5054 8.52872 20.1348 8.78384 19.9327C9.03836 19.7306 9.40953 19.7742 9.61162 20.0293C9.6128 20.0293 9.87557 20.3027 10.5337 20.3027C11.1959 20.3027 11.4575 20.0258 11.4687 20.014C11.6831 19.7807 12.0508 19.7495 12.2923 19.9551C12.5339 20.1607 12.5769 20.5113 12.3801 20.7599C12.3218 20.8342 11.7739 21.4811 10.5337 21.4811Z" fill="black" fill-opacity="0.8"/>
<path fill-rule="evenodd" clip-rule="evenodd" d="M21.4671 18.6963C19.6118 18.6963 17.4454 19.5606 17.4454 21.9968C17.4454 24.2139 19.2494 26.0185 21.4671 26.0185C23.6847 26.0185 25.4887 24.2139 25.4887 21.9968C25.4887 19.5606 23.3223 18.6963 21.4671 18.6963ZM21.4671 27.1968C18.5996 27.1968 16.2671 24.8643 16.2671 21.9968C16.2671 19.3179 18.3569 17.5179 21.4671 17.5179C24.5773 17.5179 26.667 19.3179 26.667 21.9968C26.667 24.8643 24.3345 27.1968 21.4671 27.1968Z" fill="black" fill-opacity="0.8"/>
<path fill-rule="evenodd" clip-rule="evenodd" d="M21.4668 21.4811C20.2266 21.4811 19.6786 20.8342 19.6203 20.7599C19.4182 20.5054 19.4618 20.1348 19.7169 19.9327C19.972 19.7306 20.3426 19.7742 20.5447 20.0293C20.5459 20.0293 20.8087 20.3027 21.4668 20.3027C22.129 20.3027 22.3906 20.0258 22.4012 20.014C22.6156 19.7807 22.9839 19.7495 23.2254 19.9551C23.4664 20.1607 23.5094 20.5113 23.3132 20.7599C23.2549 20.8336 22.7069 21.4811 21.4668 21.4811Z" fill="black" fill-opacity="0.8"/>
<path fill-rule="evenodd" clip-rule="evenodd" d="M10.5335 21.2292H10.5323C10.2071 21.2286 9.94375 20.9641 9.94434 20.6389C9.94787 18.9674 10.8322 17.9122 11.6877 16.8924C12.9402 15.3983 14.2358 13.8523 13.4493 9.942C13.385 9.62267 13.5918 9.31218 13.9106 9.24796C14.2293 9.18139 14.5404 9.39054 14.6046 9.70928C15.5031 14.1757 13.8882 16.1017 12.5909 17.6495C11.7719 18.6257 11.125 19.3975 11.1227 20.6412C11.1221 20.9665 10.8581 21.2292 10.5335 21.2292Z" fill="black" fill-opacity="0.8"/>
<path fill-rule="evenodd" clip-rule="evenodd" d="M21.4664 21.4783C21.1995 21.4783 20.958 21.2956 20.8937 21.024C20.8649 20.9015 17.9179 8.75936 11.6833 9.74975C11.3658 9.80336 11.06 9.58183 11.0087 9.26015C10.9581 8.93846 11.1778 8.63681 11.4989 8.58614C18.8075 7.43197 21.9118 20.2092 22.0403 20.7542C22.1151 21.0706 21.9189 21.3875 21.6025 21.4624C21.5571 21.473 21.5112 21.4783 21.4664 21.4783Z" fill="black" fill-opacity="0.8"/>
<path fill-rule="evenodd" clip-rule="evenodd" d="M15.0916 8.98486C15.481 9.38961 16.4691 10.2563 17.6916 10.1767C18.884 10.1102 20.0647 9.21758 21.2071 7.52078C19.4202 6.52627 17.9632 6.26468 16.8691 6.74426C15.7385 7.24093 15.256 8.44695 15.0916 8.98486ZM17.5461 11.3598C15.4339 11.3598 14.0358 9.57815 13.9757 9.49979C13.8732 9.36664 13.8326 9.19578 13.8638 9.03081C13.8826 8.93065 14.3487 6.57164 16.3842 5.67022C17.9579 4.97265 19.9622 5.35973 22.3424 6.82027C22.6199 6.99054 22.7065 7.35346 22.5368 7.63096C21.0763 10.01 19.4644 11.2632 17.7458 11.3539C17.6786 11.358 17.612 11.3598 17.5461 11.3598Z" fill="black" fill-opacity="0.8"/>
</svg>
