<svg width="80" height="80" viewBox="0 0 80 80" fill="none" xmlns="http://www.w3.org/2000/svg">
<g filter="url(#filter0_b_93_6916)">
<circle cx="40" cy="40" r="40" fill="#0F1338"/>
<g clip-path="url(#clip0_93_6916)">
<path fill-rule="evenodd" clip-rule="evenodd" d="M39.953 27C19.5176 27 2.96873 33.0485 3.00004 40.5C3.03139 47.9515 19.6116 54 40.047 54C60.4824 54 77.0312 47.9515 76.9999 40.5C76.9686 33.0485 60.3883 27 39.953 27ZM40.047 53.6258C20.5206 53.6258 4.66122 47.8268 4.62987 40.7182C4.59853 33.5785 20.4265 27.8107 39.9843 27.8107C59.5421 27.8107 75.3701 33.6097 75.4015 40.7182C75.4015 47.8268 59.5734 53.6258 40.047 53.6258Z" fill="url(#paint0_linear_93_6916)"/>
<path fill-rule="evenodd" clip-rule="evenodd" d="M39.9531 27.7793C59.4795 27.7793 75.3389 33.5783 75.3702 40.6869C75.4016 47.8266 59.5735 53.5945 40.0158 53.5945C20.4893 53.5945 4.62998 47.7954 4.59863 40.6869C4.59863 33.5472 20.4266 27.7793 39.9531 27.7793Z" fill="#636464"/>
<path fill-rule="evenodd" clip-rule="evenodd" d="M39.5765 28.2471C58.6955 28.2471 74.022 34.1709 74.022 40.4376C74.022 47.4526 58.6955 52.6905 39.5765 52.6905C19.9247 52.6905 6.07129 47.2655 6.07129 40.2505C6.07129 33.2667 23.5291 28.2471 39.5765 28.2471V28.2471Z" fill="url(#paint1_linear_93_6916)"/>
<g filter="url(#filter1_d_93_6916)">
<path fill-rule="evenodd" clip-rule="evenodd" d="M22.1194 39.1907C20.0821 37.8501 16.6658 40.1884 15.224 42.5267C11.4002 45.7068 9.23758 45.4574 7.88986 43.462C6.22869 41.0302 8.95551 34.2958 12.9047 33.2981C15.2867 32.6745 16.3524 32.8928 16.7285 33.5787C17.6688 35.1376 17.0106 37.1329 15.4748 38.0995C13.751 39.1907 11.5883 38.2865 12.0584 36.6653C12.6853 34.514 14.7852 34.8882 14.5031 34.6076C14.0016 34.1087 11.9957 35.0752 11.2749 36.1353C10.648 37.0394 10.6794 38.0059 11.2749 38.8166C11.839 39.596 14.7226 39.3154 16.3837 37.8501C18.515 35.9482 19.2985 33.1422 17.7001 32.3316C16.227 31.5522 10.5853 32.7058 7.79579 36.0106C5.35109 38.9101 3.47053 43.8674 7.10626 45.6445C9.98977 47.0475 12.842 45.3016 14.6285 43.7115C14.3151 44.7092 14.5658 45.5822 15.6314 45.9251C19.1732 47.1099 24.5954 40.7808 22.1194 39.1907H22.1194ZM16.5718 45.3951C15.7255 44.7403 20.0822 38.6918 21.1791 39.253C22.8403 40.126 18.1389 46.6422 16.5718 45.3951Z" fill="url(#paint2_linear_93_6916)"/>
<path fill-rule="evenodd" clip-rule="evenodd" d="M41.395 44.3036C41.5517 44.3036 41.7398 44.366 41.8651 44.4595L44.9681 43.0877C44.9681 43.0877 46.0024 44.9272 44.8427 47.0161L41.8965 46.1431C41.7084 46.2367 41.489 46.3302 41.2696 46.299C41.1129 46.299 40.9562 46.2367 40.8308 46.1743L38.1667 47.1408C36.725 45.8313 37.2891 43.6489 37.2891 43.6489L40.3607 44.4283C39.9219 45.1766 40.2667 45.6754 40.5487 45.9249C40.392 45.7378 40.298 45.4884 40.3293 45.2389C40.3607 44.6778 40.8308 44.2725 41.395 44.3036ZM45.7516 40.9053C46.2313 41.1439 46.817 41.3662 47.4589 41.444C47.5337 40.9407 47.669 40.4241 47.8515 39.9074C49.0591 39.4212 49.3963 38.6201 49.2986 38.1059C49.2742 38.802 48.5489 39.4872 47.4755 39.7829C46.8486 39.9699 46.3471 40.0323 45.9397 40.0635L45.7516 40.9053ZM45.7828 42.3082C46.4254 42.3082 46.9559 42.2634 47.3936 42.1914C47.39 42.3595 47.3943 42.5251 47.4073 42.6878C46.4705 42.6503 45.7828 42.3082 45.7828 42.3082ZM49.4186 45.6442C48.2463 45.0611 47.6492 44.1583 47.4602 43.1018C47.0546 43.3176 46.4482 43.5722 45.5948 43.7736C45.3127 42.9318 44.8425 42.8071 44.8425 42.8071L42.0217 44.1477C41.2068 44.1165 40.4859 44.023 39.8591 43.8671C36.9442 43.3371 34.7189 42.3394 34.7189 42.3394C35.5965 42.3082 36.5368 41.8717 36.5368 41.8717C34.5622 42.0588 33.6219 41.0299 33.6219 41.0299C35.5965 41.3729 36.7875 40.4064 36.7875 40.4064C35.0637 40.7805 34.2175 39.8452 34.2175 39.8452C35.9726 39.9699 37.1637 38.9099 37.1637 38.9099L37.2263 38.5046C37.2263 38.5046 38.5741 38.754 40.6113 38.6605C41.3365 38.6161 42.1013 38.4809 42.8154 38.3546L42.8154 38.3546C44.1076 38.1261 45.2336 37.927 45.6575 38.3487V38.2552C45.6262 37.6316 43.9963 37.6316 42.6173 37.881C41.2382 38.1305 38.8875 38.3175 36.9756 38.0058C35.0951 37.694 34.2801 36.0416 34.3742 35.8233C34.3743 35.8231 34.3744 35.8228 34.3745 35.8225L34.3429 35.7922C34.3429 35.7922 34.0922 36.3846 34.8131 37.2264C34.7499 37.3221 34.6824 37.4242 34.6104 37.533C33.932 38.5589 32.8521 40.1919 31.2087 42.8696C30.2057 44.522 30.9579 45.2391 32.6818 43.5867C32.9033 43.382 33.083 43.2111 33.2297 43.0715C33.6642 42.6582 33.8104 42.5191 33.9041 42.589C34.0999 42.7107 33.9326 42.8894 33.462 43.3923C33.3299 43.5335 33.1738 43.7002 32.9952 43.8985C29.6729 47.5151 27.1341 45.8627 29.2968 42.4331C33.2404 36.2196 33.5409 36.0091 33.6145 35.7372C33.628 35.6871 33.6339 35.6349 33.6534 35.5428C33.6987 35.2723 33.7604 35.1648 33.8029 35.0906C33.8192 35.0622 33.8327 35.0387 33.8414 35.0128V35.0128L36.1921 34.9817C36.1705 35.046 36.1564 35.0661 36.1395 35.0901C36.1072 35.1359 36.0647 35.1962 35.9414 35.6052C35.9077 35.7393 35.9012 35.7472 35.7952 35.8761C35.7289 35.9567 35.6237 36.0846 35.4485 36.3204C35.8247 36.5127 36.2742 36.6915 36.7562 36.7275C37.785 36.8043 38.8349 36.6081 39.3171 36.518C39.4225 36.4983 39.5008 36.4837 39.5457 36.4781C39.5457 36.4781 39.4204 33.8903 36.4115 34.0151L36.913 35.0439L35.5966 33.6721C35.5966 33.6721 36.2234 33.0174 37.5085 33.298C37.5085 33.298 36.9757 31.8326 36.8817 31.6455C36.7877 31.4896 36.7876 31.3961 37.0384 31.209C37.2891 31.0531 39.1383 30.0243 41.7397 29.9931C44.3412 29.9308 46.9113 31.1155 47.1307 31.2714C47.3501 31.4273 47.4128 31.552 47.2247 31.8326C47.0707 32.0624 46.8325 32.5642 46.5792 33.098L46.5792 33.098L46.5792 33.0981C46.5232 33.2159 46.4665 33.3354 46.4098 33.4538C46.0964 34.1086 45.6576 35.6363 45.6576 35.6363C45.6576 35.6363 45.7203 33.8903 42.6487 32.5185C42.6487 32.5185 43.6517 34.1397 42.7114 36.1039C42.7114 36.1039 44.5293 35.6986 47.4128 36.478C48.2773 36.7118 48.8122 37.052 49.0825 37.4289C49.4077 36.9355 49.76 36.4458 50.1395 36.0102C52.929 32.7054 58.5707 31.5518 60.0438 32.3312C61.6423 33.1419 60.8587 35.9478 58.7274 37.8497C57.0663 39.315 54.1827 39.5956 53.6186 38.8162C53.0231 38.0056 52.9917 37.0391 53.6186 36.1349C54.3395 35.0749 56.3454 34.1083 56.8468 34.6072C56.9291 34.689 56.8087 34.7152 56.5813 34.7645C56.0291 34.8844 54.8461 35.1412 54.4021 36.6649C53.932 38.2861 56.0947 39.1903 57.8185 38.0991C59.3543 37.1325 60.0125 35.1372 59.0722 33.5783C58.6961 32.8924 57.6305 32.6742 55.2484 33.2977C51.2992 34.2954 48.5724 41.0298 50.2336 43.4617C51.5813 45.4258 53.7126 45.6753 57.4424 42.6198C58.2886 40.7804 60.1692 39.315 61.2348 39.0344C63.0858 38.5676 63.7008 39.1362 63.9996 39.4125C64.06 39.4684 64.1075 39.5123 64.1497 39.5333L64.5258 39.0656H66.6571C66.6571 39.0656 66.6257 39.0656 63.8049 43.524C62.9587 44.8646 63.9616 45.9559 65.278 44.4905L65.4328 44.3108L65.4331 44.3105C65.9398 43.722 66.4183 43.1663 66.8452 42.7134C66.8831 42.6756 66.9096 42.6264 66.9385 42.5727C66.9573 42.5378 66.9772 42.5009 67.0019 42.464C67.9421 40.9674 69.1018 39.2839 69.1018 39.2839H67.6287L67.9108 38.9409H69.3212L69.3994 38.8196C70.8999 36.4912 71.2347 35.9717 71.3271 35.5425C71.3715 35.2778 71.4472 35.1692 71.4988 35.0952C71.5201 35.0645 71.5374 35.0399 71.5465 35.0125H73.8345L73.8345 35.0125C73.8078 35.1055 73.7982 35.1192 73.7765 35.1502C73.7474 35.1919 73.6964 35.2648 73.5524 35.6049C73.5092 35.7626 73.3731 35.9467 73.0742 36.3512C72.7231 36.8264 72.1472 37.6056 71.2331 39.0033H72.9882L72.7062 39.315H71.045C70.7868 39.7288 70.4761 40.2144 70.1309 40.754L70.1306 40.7544C69.7216 41.3936 69.2642 42.1085 68.7883 42.8693C67.7854 44.5217 68.569 45.27 70.2614 43.5864C71.5151 42.3081 72.5808 41.4351 72.7061 41.5287C72.8494 41.6508 72.2444 42.2382 71.5803 42.8828C71.2274 43.2255 70.8577 43.5844 70.5748 43.8982C67.7227 47.0159 65.5287 46.2365 66.3122 43.8046L66.3105 43.8066C66.0603 44.0866 65.8102 44.3666 65.56 44.6776C64.5884 45.8936 63.2407 46.3612 61.987 45.7689C60.984 45.3324 61.2661 44.4594 61.2661 44.4594C59.7617 46.5172 56.9408 46.3924 56.9408 44.5218C56.9408 44.21 56.9722 43.8982 57.0349 43.6176C55.2797 45.2077 52.3648 47.0783 49.4186 45.6442ZM37.6339 39.1905C39.5144 38.6605 40.1413 39.6582 40.1413 39.6582C38.9816 40.5623 37.6339 39.1905 37.6339 39.1905ZM39.8278 40.5623C39.7025 40.7806 40.7681 41.5288 41.2383 41.4353V41.4353C41.7084 41.3417 42.3039 40.4688 42.3039 40.4688C41.2696 40.157 39.8278 40.5623 39.8278 40.5623ZM42.1472 39.4711C42.1472 39.4711 42.8054 38.3799 44.874 38.9722C44.874 39.0034 43.3696 40.4688 42.1472 39.4711ZM29.14 39.1905C31.6161 40.7806 26.1625 47.1097 22.6834 45.9249C18.8283 44.6466 25.8177 37.0081 29.14 39.1905ZM28.1997 39.2529C27.1028 38.6917 22.7462 44.709 23.5924 45.3949C25.1595 46.642 29.8609 40.1259 28.1997 39.2529ZM62.1751 42.5887C61.6109 43.4617 60.2318 45.4259 59.4796 45.1453C57.7558 44.4594 62.2378 38.7226 63.4288 39.4086C64.0553 39.7879 63.1193 41.1799 62.452 42.1723L62.4518 42.1726C62.3514 42.3219 62.2571 42.4622 62.1751 42.5887L62.1751 42.5887Z" fill="url(#paint3_linear_93_6916)"/>
</g>
<path fill-rule="evenodd" clip-rule="evenodd" d="M49.1051 50.9132C49.0111 50.9132 48.9484 50.9132 48.8857 50.882C48.823 50.882 48.7603 50.8508 48.6977 50.8196C48.6036 50.7884 48.541 50.7573 48.5096 50.6949C48.4783 50.6325 48.447 50.5702 48.447 50.4767V48.5748C48.447 48.2007 48.3529 47.9201 48.1335 47.7018C47.9141 47.4836 47.6007 47.3589 47.1619 47.3589C46.9739 47.3589 46.7858 47.3901 46.6291 47.4212C46.4724 47.4524 46.3471 47.5147 46.2218 47.5771L46.2216 47.5772C46.1958 47.5943 46.1676 47.6114 46.1383 47.6292L46.1383 47.6292C46.061 47.6762 45.9764 47.7276 45.9082 47.7954C45.8746 47.8204 45.8433 47.8432 45.8142 47.8644L45.8142 47.8644C45.7347 47.9223 45.672 47.968 45.6261 48.0136H45.5948V47.4836L45.5321 47.4212L43.9963 47.5148V47.7642C44.0903 47.7642 44.1843 47.7642 44.247 47.7953C44.3411 47.7953 44.4038 47.8265 44.4664 47.8577C44.5604 47.8889 44.6231 47.9512 44.6545 48.0448C44.6858 48.1071 44.7171 48.2007 44.7171 48.263V50.539C44.7171 50.6325 44.6858 50.6949 44.6545 50.7572C44.6231 50.8196 44.5604 50.8507 44.4664 50.8819C44.4351 50.8819 44.4037 50.8897 44.3724 50.8975C44.341 50.9053 44.3097 50.9131 44.2784 50.9131H44.059V51.1625H46.3157V50.9131C46.2216 50.9131 46.1589 50.9131 46.0649 50.8819C46.0022 50.8819 45.9082 50.8507 45.8455 50.8196C45.7515 50.7884 45.6888 50.7572 45.6575 50.6948C45.6262 50.6325 45.5948 50.5701 45.5948 50.4766V48.3565C45.6078 48.3436 45.6208 48.3253 45.636 48.3039C45.6575 48.2737 45.6835 48.2372 45.7202 48.2006C45.7829 48.1383 45.8769 48.0759 45.9709 48.0136C46.065 47.9512 46.1903 47.8889 46.347 47.8577C46.4724 47.8265 46.6291 47.7953 46.8172 47.7953C47.0366 47.7953 47.2246 47.8577 47.3813 48.0135C47.5381 48.1694 47.6007 48.3565 47.6007 48.6059V50.5078C47.6007 50.6013 47.5694 50.6637 47.538 50.726C47.5067 50.7883 47.444 50.8195 47.35 50.8507C47.3218 50.8507 47.2936 50.857 47.2626 50.8639C47.2246 50.8724 47.1824 50.8819 47.1306 50.8819H46.8799V51.1313H49.1366L49.1052 50.9131L49.1051 50.9132ZM33.4338 50.851H33.7472V51.1003L33.3711 51.1939C33.2457 51.225 33.1204 51.225 32.995 51.225C32.7443 51.225 32.5562 51.1939 32.3995 51.1003C32.2428 51.0068 32.1488 50.8821 32.1174 50.695H32.0861C31.8667 50.8821 31.6473 51.0068 31.4279 51.1003C31.1771 51.1939 30.8951 51.2562 30.5817 51.2562C30.2369 51.2562 29.9548 51.1627 29.7354 51.0068C29.516 50.8509 29.3906 50.6327 29.3906 50.3521C29.3906 50.2274 29.3906 50.1027 29.4533 49.978C29.4847 49.8532 29.5787 49.7597 29.6727 49.6662L29.6727 49.6662L29.6735 49.6656C29.7673 49.6035 29.8611 49.5413 29.9861 49.4791C30.0743 49.4616 30.1427 49.4342 30.2079 49.408C30.2586 49.3876 30.3074 49.368 30.3622 49.3544C30.4471 49.3122 30.6037 49.27 30.8321 49.2085L30.8321 49.2085C30.9412 49.1791 31.0667 49.1453 31.2085 49.105C31.6473 48.9803 31.9294 48.8868 32.0861 48.8244V48.4503V48.4503C32.0861 48.4191 32.0861 48.3568 32.0548 48.2632C32.0234 48.1697 31.9921 48.1074 31.9294 48.0138L31.9292 48.0136C31.8666 47.9202 31.8039 47.8267 31.6786 47.7644C31.5846 47.702 31.4279 47.6709 31.2085 47.6709C31.0518 47.6709 30.9265 47.702 30.8011 47.7332L30.801 47.7332C30.7136 47.755 30.6567 47.7919 30.609 47.8228C30.5883 47.8362 30.5693 47.8485 30.5503 47.858C30.5503 47.9203 30.5503 47.9826 30.5817 48.0762C30.613 48.2009 30.613 48.2632 30.613 48.3568C30.613 48.4503 30.5503 48.5438 30.4563 48.6062C30.3622 48.6685 30.2369 48.6997 30.0488 48.6997C29.8921 48.6997 29.7667 48.6685 29.704 48.575C29.61 48.4815 29.5787 48.388 29.5787 48.2632C29.5787 48.1385 29.6414 48.0138 29.7354 47.9203C29.8608 47.8267 29.9861 47.7332 30.1428 47.6397C30.2331 47.5724 30.3559 47.5373 30.4878 47.4997C30.539 47.4851 30.5917 47.4701 30.6443 47.4526L30.7264 47.4408C30.9115 47.414 31.0757 47.3903 31.2398 47.3903H31.2399C31.4906 47.3903 31.7413 47.3903 31.9294 47.4215C32.1174 47.4526 32.3055 47.515 32.4622 47.6085C32.6503 47.702 32.7443 47.8267 32.8383 47.9826C32.9324 48.1697 32.9637 48.3568 32.9637 48.6062V49.5415V50.4457C32.9637 50.5392 32.995 50.6015 33.0264 50.6639L33.0264 50.6639C33.0577 50.7263 33.1204 50.7886 33.2144 50.8198C33.2458 50.851 33.3398 50.851 33.4338 50.851ZM31.6473 50.7263C31.8353 50.6327 31.9607 50.5392 32.0861 50.4145V49.105C31.8353 49.1674 31.5846 49.2297 31.3965 49.2921C31.1771 49.3544 30.9891 49.4168 30.8324 49.5103C30.6757 49.6039 30.5503 49.6974 30.4563 49.8221C30.3622 49.9156 30.3309 50.0715 30.3309 50.2274C30.3309 50.4457 30.3935 50.6015 30.5189 50.6951C30.6757 50.7886 30.8324 50.851 31.0518 50.851C31.2711 50.851 31.4905 50.8198 31.6473 50.7263ZM28.0429 50.3209C27.8235 50.6015 27.5728 50.8509 27.228 51.0068C26.9146 51.1627 26.5698 51.2562 26.225 51.2874C25.5668 51.2874 25.034 51.1003 24.6579 50.7574C24.2818 50.4144 24.0938 49.9467 24.0938 49.3544C24.0938 49.105 24.1564 48.8555 24.2505 48.6373C24.3445 48.3879 24.5012 48.2008 24.6893 48.0137C24.8773 47.8267 25.0967 47.6708 25.3788 47.5773C25.6609 47.4837 25.9743 47.4214 26.2878 47.4214C26.7266 47.4214 27.1027 47.4837 27.3847 47.6708C27.6668 47.8578 27.8236 48.0761 27.8236 48.3878C27.8236 48.5126 27.7609 48.6373 27.6982 48.7308C27.6041 48.8243 27.4788 48.8867 27.3221 48.8867C27.134 48.8867 26.9773 48.8243 26.8833 48.762C26.7892 48.6996 26.7265 48.6061 26.7265 48.5126C26.7265 48.4093 26.748 48.3274 26.7732 48.2314L26.7732 48.2314L26.7733 48.2313C26.7785 48.2115 26.7838 48.191 26.7892 48.1696C26.8206 48.0761 26.8519 47.9826 26.8519 47.9202C26.7892 47.8267 26.7266 47.7955 26.6012 47.7643C26.5071 47.7331 26.3818 47.7331 26.2564 47.7331H26.2564H26.2564C26.0997 47.7331 25.943 47.7331 25.8176 47.7955C25.6609 47.8578 25.5355 47.9514 25.4102 48.0761C25.2848 48.2008 25.1908 48.3567 25.1281 48.5749C25.0654 48.7932 25.034 49.0426 25.034 49.3232C25.034 49.7909 25.1594 50.165 25.4102 50.4456C25.6609 50.7262 26.0057 50.8821 26.4131 50.8821C26.6952 50.8821 26.9459 50.8198 27.1653 50.695C27.3534 50.5703 27.5414 50.4144 27.7295 50.165L28.0429 50.3209ZM37.7591 49.1363C37.571 49.0739 37.383 49.0116 37.1636 48.9492C37.0932 48.9292 37.0293 48.9125 36.9698 48.8968C36.8437 48.8637 36.7372 48.8357 36.6307 48.7933C36.5281 48.7729 36.4524 48.7391 36.3859 48.7095C36.3509 48.6939 36.3184 48.6794 36.286 48.6686C36.1919 48.6063 36.1292 48.5439 36.0666 48.4816C36.0039 48.4192 36.0039 48.3257 36.0039 48.201C36.0039 48.0451 36.0666 47.9204 36.2233 47.8268C36.38 47.7333 36.568 47.6709 36.8188 47.6709C37.1322 47.6709 37.3829 47.7645 37.6023 47.9203C37.8217 48.0763 37.9471 48.2945 38.0411 48.5751H38.3546L38.2919 47.3903H37.9471L37.8531 47.5774C37.7277 47.515 37.571 47.4838 37.3829 47.4526C37.1949 47.4215 37.0068 47.3903 36.8188 47.3903C36.3486 47.3903 35.9725 47.4838 35.6904 47.702C35.4084 47.9203 35.283 48.1697 35.283 48.4503C35.283 48.6062 35.3143 48.7621 35.4084 48.8868C35.5024 49.0115 35.5964 49.105 35.7531 49.1986C35.8785 49.2921 36.0352 49.3545 36.2233 49.4168C36.3018 49.4428 36.3748 49.4634 36.4447 49.4832C36.5422 49.5106 36.6335 49.5364 36.7248 49.5727C36.8306 49.5903 36.9265 49.6177 37.0181 49.6439C37.0892 49.6642 37.1577 49.6838 37.2263 49.6974C37.383 49.7286 37.5083 49.791 37.6024 49.8533C37.6964 49.9157 37.7904 49.9781 37.8218 50.0404C37.8845 50.1027 37.8845 50.1963 37.8845 50.321V50.321C37.8845 50.508 37.7904 50.6639 37.6337 50.7887C37.477 50.8822 37.2263 50.9446 36.9442 50.9446C36.7248 50.9446 36.5367 50.9134 36.38 50.8198C36.2233 50.7575 36.0666 50.6639 35.9412 50.5392C35.8159 50.4457 35.7219 50.321 35.6592 50.1963C35.578 50.0887 35.5436 49.9811 35.5155 49.8936C35.5111 49.8796 35.5067 49.8662 35.5024 49.8533H35.189L35.2204 51.1316H35.5651L35.6592 50.8822C35.7393 50.9354 35.8648 50.9885 36.0359 51.0608L36.1293 51.1005C36.3487 51.1628 36.5995 51.2252 36.8815 51.2252C37.383 51.2252 37.7905 51.1316 38.1353 50.9134C38.4487 50.6952 38.6054 50.4146 38.6054 50.0716C38.6054 49.9157 38.5741 49.7598 38.5114 49.6351C38.4487 49.5104 38.3546 49.4169 38.2293 49.3233L37.7591 49.1363H37.7591ZM42.2724 50.8821C42.3351 50.9133 42.3978 50.9133 42.4918 50.9133H42.4919H42.5232V51.1315H40.2979V50.8821H40.5173C40.5486 50.8821 40.5799 50.8743 40.6112 50.8665C40.6426 50.8587 40.6739 50.8509 40.7053 50.8509C40.7993 50.8197 40.862 50.7885 40.8933 50.7262C40.9247 50.6639 40.956 50.6015 40.956 50.508V48.232C40.956 48.1385 40.9247 48.0761 40.8933 48.0137C40.862 47.9514 40.7993 47.889 40.7053 47.8578C40.6665 47.8386 40.6278 47.8312 40.5743 47.821C40.5412 47.8148 40.5025 47.8074 40.4546 47.7955C40.3874 47.7955 40.3292 47.7865 40.2752 47.7782C40.2284 47.771 40.1848 47.7643 40.1411 47.7643V47.5149L41.771 47.4214L41.8337 47.4837V50.4768C41.8337 50.5703 41.865 50.6326 41.8964 50.695C41.9277 50.7574 41.9904 50.7885 42.0844 50.8197C42.1471 50.8509 42.2097 50.8821 42.2724 50.8821ZM52.8976 47.3589C53.5558 47.3589 54.0886 47.546 54.496 47.8889V47.8889C54.9348 48.263 55.1542 48.6995 55.1229 49.2919C55.1229 49.5413 55.0602 49.7907 54.9661 50.0401C54.8721 50.2896 54.7154 50.4766 54.5273 50.6637C54.308 50.8508 54.0572 51.0066 53.7751 51.1002C53.493 51.1937 53.1796 51.2561 52.8349 51.2561C52.5214 51.2561 52.2393 51.2249 51.9886 51.1314C51.7065 51.069 51.4871 50.9131 51.2677 50.7572C51.0797 50.5702 50.923 50.3831 50.7976 50.1337C50.6722 49.8842 50.6095 49.6348 50.6095 49.3231C50.6095 48.7619 50.8289 48.2942 51.2364 47.9201C51.6752 47.5459 52.208 47.3589 52.8976 47.3589ZM52.8976 50.9755C53.305 50.9755 53.6185 50.8508 53.8378 50.539C54.0572 50.2272 54.1826 49.822 54.214 49.2919C54.214 49.1049 54.214 48.9178 54.1513 48.6996C54.0886 48.4813 54.0259 48.3254 53.9319 48.1695C53.8065 48.0136 53.6812 47.8889 53.5244 47.7954C53.3677 47.7018 53.1483 47.6707 52.9289 47.6707C52.6782 47.6707 52.4588 47.733 52.3021 47.8266C52.1454 47.9201 51.9887 48.0448 51.8946 48.2007C51.8006 48.3566 51.7066 48.5437 51.6753 48.7307C51.6439 48.9178 51.6126 49.1049 51.6126 49.2919C51.6126 49.5101 51.6126 49.7596 51.6753 49.9466C51.7066 50.1337 51.8006 50.3208 51.8946 50.4767C52.02 50.6326 52.1454 50.7573 52.3021 50.8508C52.4588 50.9444 52.6469 50.9755 52.8976 50.9755Z" fill="white"/>
</g>
</g>
<defs>
<filter id="filter0_b_93_6916" x="-14" y="-14" width="108" height="108" filterUnits="userSpaceOnUse" color-interpolation-filters="sRGB">
<feFlood flood-opacity="0" result="BackgroundImageFix"/>
<feGaussianBlur in="BackgroundImage" stdDeviation="7"/>
<feComposite in2="SourceAlpha" operator="in" result="effect1_backgroundBlur_93_6916"/>
<feBlend mode="normal" in="SourceGraphic" in2="effect1_backgroundBlur_93_6916" result="shape"/>
</filter>
<filter id="filter1_d_93_6916" x="1.07422" y="25.9907" width="76.7607" height="25.1499" filterUnits="userSpaceOnUse" color-interpolation-filters="sRGB">
<feFlood flood-opacity="0" result="BackgroundImageFix"/>
<feColorMatrix in="SourceAlpha" type="matrix" values="0 0 0 0 0 0 0 0 0 0 0 0 0 0 0 0 0 0 127 0" result="hardAlpha"/>
<feOffset/>
<feGaussianBlur stdDeviation="2"/>
<feColorMatrix type="matrix" values="0 0 0 0 0 0 0 0 0 0 0 0 0 0 0 0 0 0 0.4 0"/>
<feBlend mode="normal" in2="BackgroundImageFix" result="effect1_dropShadow_93_6916"/>
<feBlend mode="normal" in="SourceGraphic" in2="effect1_dropShadow_93_6916" result="shape"/>
</filter>
<linearGradient id="paint0_linear_93_6916" x1="40.0783" y1="26.5947" x2="39.4585" y2="53.7195" gradientUnits="userSpaceOnUse">
<stop stop-color="#9E9D9D"/>
<stop offset="0.101961" stop-color="#9E9D9D"/>
<stop offset="0.501961" stop-color="white"/>
<stop offset="0.901961" stop-color="#939291"/>
<stop offset="1" stop-color="#939291"/>
</linearGradient>
<linearGradient id="paint1_linear_93_6916" x1="5.91456" y1="40.3129" x2="73.928" y2="40.3129" gradientUnits="userSpaceOnUse">
<stop stop-color="#0E123B"/>
<stop offset="0.478431" stop-color="#0E1335"/>
<stop offset="1" stop-color="#0B1132"/>
</linearGradient>
<linearGradient id="paint2_linear_93_6916" x1="13.6742" y1="34.0983" x2="13.6742" y2="47.0601" gradientUnits="userSpaceOnUse">
<stop stop-color="#B5B4B5"/>
<stop offset="0.701961" stop-color="white"/>
<stop offset="1" stop-color="white"/>
</linearGradient>
<linearGradient id="paint3_linear_93_6916" x1="46.9966" y1="32.4309" x2="46.9966" y2="48.2407" gradientUnits="userSpaceOnUse">
<stop stop-color="#B5B4B5"/>
<stop offset="0.701961" stop-color="white"/>
<stop offset="1" stop-color="white"/>
</linearGradient>
<clipPath id="clip0_93_6916">
<rect width="74" height="27" fill="white" transform="translate(3 27)"/>
</clipPath>
</defs>
</svg>
