<svg width="80" height="80" viewBox="0 0 80 80" fill="none" xmlns="http://www.w3.org/2000/svg">
<circle cx="40" cy="40" r="40" fill="black"/>
<g clip-path="url(#clip0_93_1531)">
<path d="M25.5736 31.5986L25.3976 28.5781L25.2216 31.5986L22.4937 30.2415L25.0456 31.905L22.4937 33.5903L25.2216 32.2114L25.3976 35.2537L25.5736 32.2114L28.3016 33.5903L25.7496 31.905L28.3016 30.2415L25.5736 31.5986Z" fill="#0099FF"/>
<path d="M55.846 33.8316L56.066 37.4868L56.286 33.8316L59.652 35.4732L56.484 33.4814L59.652 31.4678L56.286 33.1093L56.066 29.4761L55.846 33.1093L52.48 31.4678L55.626 33.4814L52.48 35.4732L55.846 33.8316Z" fill="#0099FF"/>
<path d="M34.924 19.0136L34.814 17L34.682 19.0136L32.79 18.1162L34.572 19.2325L32.79 20.3487L34.682 19.4295L34.814 21.465L34.924 19.4295L36.816 20.3487L35.056 19.2325L36.816 18.1162L34.924 19.0136Z" fill="#0099FF"/>
<path d="M3.442 40.7041L4.366 38.8218L3.244 40.5728L2.122 38.8218L3.046 40.7041L1 40.8135L3.046 40.9448L2.122 42.8271L3.244 41.0762L4.366 42.8271L3.442 40.9448L5.488 40.8135L3.442 40.7041Z" fill="#0099FF"/>
<path d="M78.0001 49.7212L76.1081 50.6405L75.9981 48.605L75.8661 50.6405L73.9741 49.7212L75.7561 50.8375L73.9741 51.9537L75.8661 51.0564L75.9981 53.07L76.1081 51.0564L78.0001 51.9537L76.2401 50.8375L78.0001 49.7212Z" fill="#0099FF"/>
<path d="M58.3321 56.9223L59.542 54.4053L58.0681 56.7472L56.6161 54.4053L57.8041 56.9223L55.1641 57.0755L57.8041 57.2506L56.6161 59.7457L58.0681 57.4038L59.542 59.7457L58.3321 57.2506L60.994 57.0755L58.3321 56.9223Z" fill="#0099FF"/>
<path d="M24.6277 59.5482L24.5177 57.5127L24.3857 59.5482L22.4937 58.6289L24.2757 59.7452L22.4937 60.8614L24.3857 59.9641L24.5177 61.9777L24.6277 59.9641L26.5197 60.8614L24.7597 59.7452L26.5197 58.6289L24.6277 59.5482Z" fill="#0099FF"/>
<path d="M36.3325 34.904L37.2565 35.8233C37.9605 35.9765 38.7745 35.9765 39.6985 35.8014C40.6225 35.6263 41.5685 35.298 42.4925 34.8384L41.6345 33.9629C40.7105 34.4225 39.7645 34.7508 38.8405 34.9259C37.8945 35.0791 37.0585 35.0572 36.3325 34.904Z" fill="#33FFFF"/>
<path d="M34.2639 33.6126L35.3419 32.3212C35.7819 32.8027 36.3759 33.1092 37.1019 33.2405L36.0459 34.5099C36.7279 34.6413 37.5199 34.6413 38.3999 34.4662C39.3239 34.2911 40.2479 33.9628 41.1719 33.5031L40.9519 32.5182C41.8979 32.0805 42.7999 31.4676 43.6579 30.7672L43.8779 31.7521C45.5939 30.3733 47.0899 28.6004 48.0579 26.7181L46.8039 26.9589C47.0459 26.5211 47.2439 26.0615 47.3979 25.6019C47.5519 25.1422 47.6619 24.7045 47.7279 24.2886L49.0039 24.0479C49.3559 22.2531 49.0259 20.7867 48.1019 19.8674L47.0019 21.2025C46.5619 20.721 45.9679 20.4146 45.2419 20.2833L46.3639 18.9263C45.6599 18.7731 44.8239 18.7731 43.8999 18.9482C42.9759 19.1233 42.0519 19.4516 41.1279 19.9112L41.3919 21.0274C40.4459 21.4652 39.5439 22.078 38.6859 22.7784L38.4219 21.6841C36.6619 23.1067 35.1219 24.9234 34.1759 26.8494L35.5399 26.5868C35.2979 27.0245 35.0999 27.4842 34.9239 27.9438C34.7699 28.4034 34.6599 28.8412 34.5939 29.257L33.2519 29.5197C32.9219 31.2487 33.3179 32.6933 34.2639 33.6126C34.2419 33.5907 34.2419 33.5907 34.2639 33.6126ZM35.5839 27.7906C36.7059 24.595 40.1379 21.5308 43.2179 20.9618C46.3199 20.3708 47.9039 22.4939 46.7819 25.6894C45.6599 28.8849 42.2279 31.9491 39.1479 32.5182C36.0459 33.1092 34.4619 30.9861 35.5839 27.7906Z" fill="#33FFFF"/>
<path d="M29.9963 51.0788C29.9303 50.9694 29.8863 50.8162 29.8423 50.6192C29.7983 50.4222 29.7543 50.1595 29.7323 49.8531C29.7103 49.5467 29.6883 49.1309 29.6663 48.6493C29.6443 48.321 29.6443 47.9708 29.6003 47.6206C29.5783 47.2704 29.5123 46.9421 29.4023 46.6138C29.2923 46.3074 29.1383 46.0229 28.9183 45.7602C28.6983 45.5195 28.4123 45.3225 28.0383 45.1912C28.7643 44.8629 29.2923 44.4689 29.6223 43.9874C29.9523 43.5277 30.1063 42.893 30.1063 42.0832C30.1063 40.9013 29.7323 40.0696 28.9843 39.5443C28.2363 39.019 27.1583 38.7563 25.7503 38.7563H20.7783V51.429L21.9883 51.4509V45.6946H25.7943C26.0803 45.6946 26.3663 45.7165 26.6523 45.7383C26.9383 45.7821 27.1803 45.8478 27.4003 45.9572C27.6203 46.0666 27.8183 46.2199 27.9723 46.4168C28.1263 46.6138 28.2583 46.8984 28.3243 47.2267C28.3683 47.4674 28.4123 47.7957 28.4123 48.1678C28.4343 48.5618 28.4563 48.9558 28.4783 49.3716C28.5003 49.7875 28.5443 50.1814 28.6103 50.5535C28.6543 50.9256 28.7643 51.232 28.8963 51.429L30.2383 51.4071V51.2977C30.1283 51.2758 30.0623 51.1882 29.9963 51.0788ZM27.0043 44.5345C26.6303 44.6221 26.2123 44.6659 25.7503 44.6659H21.9883V39.785H25.8163C26.2123 39.785 26.6083 39.8288 26.9823 39.8945C27.3563 39.9601 27.6863 40.0915 27.9723 40.2666C28.2583 40.4417 28.5003 40.6824 28.6543 40.9888C28.8303 41.2953 28.9183 41.6892 28.9183 42.1489C28.9183 42.5866 28.8303 42.9806 28.6763 43.287C28.5003 43.5934 28.2803 43.8561 27.9943 44.0749C27.7083 44.2719 27.3783 44.4251 27.0043 44.5345Z" fill="#33FFFF"/>
<path d="M19.9641 42.236C19.8101 41.7545 19.5901 41.2949 19.3261 40.8352C19.0621 40.3975 18.7101 40.0254 18.2701 39.719C17.9841 39.5001 17.6761 39.3469 17.3461 39.2156C17.0381 39.0843 16.7081 38.9967 16.3781 38.931C16.0481 38.8654 15.7181 38.8216 15.3661 38.7997C15.0141 38.7778 14.6841 38.7778 14.3101 38.7778H9.93213V51.4724H14.3101C14.7281 51.4724 15.1461 51.4505 15.5641 51.4067C15.9821 51.3629 16.3781 51.2973 16.7521 51.1878C17.1261 51.0784 17.5001 50.9252 17.8521 50.7282C18.2041 50.5312 18.5341 50.2686 18.8201 49.9403C19.1061 49.6339 19.3701 49.2837 19.5461 48.8897C19.7441 48.5176 19.8981 48.1018 20.0081 47.6859C20.1181 47.27 20.2061 46.8542 20.2721 46.4164C20.3161 45.9787 20.3601 45.5628 20.3601 45.1251C20.3601 44.7092 20.3381 44.2496 20.2721 43.7462C20.2281 43.199 20.1181 42.7175 19.9641 42.236ZM19.0841 46.4383C19.0181 46.898 18.9081 47.3576 18.7541 47.7953C18.6001 48.2331 18.3801 48.627 18.1161 48.9772C17.8521 49.3493 17.5001 49.6339 17.0601 49.8308C16.5541 50.0935 16.0701 50.2467 15.5861 50.3124C15.1021 50.378 14.5961 50.3999 14.0461 50.3999H11.1421V39.7628H14.0461C14.5741 39.7628 15.1021 39.7846 15.6301 39.8503C16.1581 39.916 16.5981 40.0473 16.9721 40.2443C17.4121 40.485 17.7861 40.7696 18.0721 41.1416C18.3581 41.4918 18.5781 41.8858 18.7541 42.3236C18.9301 42.7613 19.0401 43.199 19.0841 43.6806C19.1501 44.1621 19.1721 44.6217 19.1721 45.0813C19.1721 45.5191 19.1501 45.9787 19.0841 46.4383Z" fill="#33FFFF"/>
<path d="M42.5578 24.6827C42.2498 24.6608 41.9638 24.814 41.6998 25.1205C41.4578 25.405 41.4138 25.6676 41.5458 25.8865L42.5578 24.6827Z" fill="#33FFFF"/>
<path d="M49.5543 24.2888L50.4343 25.1643C50.7643 23.3914 50.4123 21.9469 49.4883 21.0495L48.7183 20.2178C49.5323 21.0933 49.8843 22.5159 49.5543 24.2888Z" fill="#33FFFF"/>
<path d="M33.4502 57.2504C33.2302 57.4473 32.9442 57.5349 32.5922 57.5349C32.3502 57.5349 32.1302 57.4911 31.9542 57.3817C31.7782 57.2723 31.6242 57.1409 31.5142 56.9877C31.4042 56.8126 31.3162 56.6375 31.2722 56.4187C31.2282 56.2217 31.2062 56.0028 31.2062 55.7839C31.2062 55.5651 31.2282 55.3681 31.2942 55.1492C31.3382 54.9303 31.4262 54.7552 31.5362 54.5801C31.6462 54.405 31.8002 54.2737 31.9762 54.1862C32.1522 54.0767 32.3722 54.033 32.6142 54.033C32.9442 54.033 33.2082 54.1205 33.4062 54.2956C33.6262 54.4707 33.7582 54.7115 33.8462 55.0179H34.3302C34.2642 54.5364 34.0662 54.1862 33.7802 53.9454C33.4722 53.7265 33.0982 53.5952 32.6142 53.5952C32.3062 53.5952 32.0202 53.6609 31.7782 53.7703C31.5362 53.8797 31.3382 54.0548 31.1842 54.2518C31.0302 54.4488 30.8982 54.6896 30.8102 54.9522C30.7222 55.2149 30.6782 55.4994 30.6782 55.7839C30.6782 56.0903 30.7222 56.3749 30.7882 56.6375C30.8542 56.9002 30.9862 57.1409 31.1402 57.3379C31.2942 57.5349 31.4922 57.6881 31.7342 57.7975C31.9762 57.907 32.2622 57.9726 32.5922 57.9726C32.8562 57.9726 33.0982 57.9289 33.2962 57.8632C33.4942 57.7975 33.6702 57.6881 33.8242 57.5568C33.9782 57.4255 34.0882 57.2504 34.1762 57.0753C34.2642 56.8783 34.3302 56.6813 34.3742 56.4405H33.8682C33.8022 56.7689 33.6702 57.0534 33.4502 57.2504Z" fill="#33FFFF"/>
<path d="M40.3141 28.6001C40.4681 28.5126 40.6221 28.4031 40.7321 28.2499C40.8861 28.0529 40.9741 27.8997 40.9961 27.7465C41.0181 27.6152 40.9741 27.4839 40.9081 27.3525L39.7861 28.6877C39.9841 28.7314 40.1601 28.6877 40.3141 28.6001Z" fill="#33FFFF"/>
<path d="M39.5001 31.4675C42.0301 30.986 44.8021 28.4909 45.7261 25.9082C46.6501 23.3036 45.3521 21.5745 42.8221 22.0561C40.2921 22.5376 37.5201 25.0327 36.5961 27.6154C35.6941 30.22 36.9921 31.9491 39.5001 31.4675ZM38.0041 27.8124C38.1141 27.6154 38.2461 27.4403 38.4221 27.2433L38.5541 27.0901L39.6101 27.4841C39.5221 27.5935 39.4341 27.7029 39.3681 27.7905C39.3021 27.8999 39.2361 27.9875 39.1921 28.075C39.1481 28.1626 39.1481 28.2501 39.1481 28.3377C39.1481 28.4252 39.2141 28.4909 39.2801 28.5565L40.5781 27.0244L40.3141 26.7399C40.0501 26.4773 39.9401 26.1927 39.9841 25.8863C40.0281 25.5799 40.2041 25.2516 40.4901 24.9014C40.8861 24.4418 41.3261 24.1135 41.7881 23.9602C42.2501 23.807 42.7341 23.7851 43.2401 23.8946L43.6801 23.3693L44.1641 23.5444L43.7241 24.0697C43.9881 24.201 44.1641 24.3323 44.2741 24.4855C44.3841 24.6387 44.4281 24.792 44.4281 24.9671C44.4281 25.1422 44.3841 25.3172 44.2741 25.4923C44.1861 25.6674 44.0541 25.8425 43.9221 25.9958L43.8341 26.1052L42.7781 25.7112C42.9321 25.5142 43.0421 25.3391 43.1081 25.2078C43.1741 25.0546 43.1521 24.9452 43.0421 24.8576L41.8321 26.2803L42.2281 26.7399C42.3161 26.8493 42.4041 26.9588 42.4481 27.0682C42.5141 27.1777 42.5361 27.309 42.5141 27.4403C42.5141 27.5716 42.4701 27.7248 42.3821 27.878C42.2941 28.0313 42.1841 28.2282 41.9861 28.4471C41.5241 28.9943 41.0621 29.3445 40.6001 29.4758C40.1381 29.629 39.6321 29.629 39.1041 29.4758L38.5541 30.1324L38.0701 29.9573L38.6201 29.3007C38.3341 29.1694 38.1141 29.0162 37.9821 28.863C37.8501 28.7098 37.8061 28.5347 37.8061 28.3596C37.8501 28.1845 37.8941 28.0094 38.0041 27.8124Z" fill="#33FFFF"/>
<path d="M44.2964 32.1895L45.1764 33.065C46.9584 31.6205 48.5204 29.7819 49.4884 27.834L48.6084 26.9585C47.6404 28.9065 46.0784 30.745 44.2964 32.1895Z" fill="#33FFFF"/>
<path d="M42.9102 53.7266H42.4263V57.8632H42.9102V53.7266Z" fill="#33FFFF"/>
<path d="M46.6938 54.1862C46.5398 53.9673 46.3638 53.8141 46.1438 53.7265C45.9238 53.639 45.6818 53.5952 45.4178 53.5952C45.1318 53.5952 44.8898 53.6609 44.6698 53.7922C44.4718 53.9235 44.2738 54.0767 44.0758 54.2956V53.7265H43.5918V57.8632H44.0758V55.6307C44.0758 55.4775 44.0758 55.3462 44.0978 55.2367C44.0978 55.1054 44.1418 54.996 44.1858 54.8428C44.2298 54.7333 44.2738 54.6458 44.3398 54.5364C44.4058 54.4488 44.4938 54.3613 44.6038 54.2737C44.7138 54.208 44.8238 54.1424 44.9338 54.0986C45.0658 54.0548 45.1978 54.033 45.3518 54.033C45.7478 54.033 46.0118 54.1205 46.1878 54.3175C46.3638 54.5145 46.4298 54.7771 46.4298 55.1492V57.8413H46.9138V55.1273C46.9138 54.9522 46.9138 54.799 46.8918 54.6458C46.8698 54.4926 46.8038 54.3394 46.6938 54.1862Z" fill="#33FFFF"/>
<path d="M55.8022 49.9622H55.7582L51.5782 38.7778H49.7302V50.6844L45.1322 38.7778H43.7682L39.1482 50.4437H31.8662V45.4096H38.4442V44.3809H31.8662V39.8065H39.1702V38.7778H30.6782V51.4724H38.7522H39.3462H39.9842L41.5022 47.4889H47.3322L48.8062 51.4724H49.7522H50.0602H50.9622V40.1567H51.0062L55.2082 51.4724H56.3522L60.5322 40.1567H60.5762V51.4724H61.7862V38.7778H59.9602L55.8022 49.9622ZM41.8982 46.4383L44.4062 39.7846L46.9142 46.4383H41.8982Z" fill="#33FFFF"/>
<path d="M50.72 54.2299C50.566 54.033 50.368 53.8797 50.126 53.7703C49.884 53.6609 49.598 53.5952 49.268 53.5952C48.938 53.5952 48.674 53.6609 48.432 53.7703C48.19 53.8797 47.992 54.033 47.838 54.2299C47.684 54.4269 47.552 54.6677 47.486 54.9303C47.398 55.193 47.376 55.4775 47.376 55.7839C47.376 56.156 47.42 56.4624 47.53 56.7251C47.64 56.9877 47.772 57.2285 47.948 57.4036C48.124 57.5787 48.322 57.71 48.564 57.8194C48.806 57.907 49.048 57.9508 49.312 57.9726C49.598 57.9726 49.862 57.9289 50.104 57.8194C50.346 57.71 50.544 57.5568 50.72 57.3817C50.896 57.1847 51.028 56.9658 51.116 56.7032C51.204 56.4405 51.248 56.1341 51.248 55.8058C51.248 55.4994 51.204 55.2149 51.138 54.9522C51.006 54.6677 50.896 54.4269 50.72 54.2299ZM50.61 56.4405C50.566 56.6594 50.478 56.8345 50.368 57.0096C50.258 57.1847 50.104 57.316 49.928 57.4036C49.752 57.513 49.532 57.5568 49.29 57.5568C49.048 57.5568 48.85 57.513 48.674 57.4255C48.498 57.3379 48.344 57.2285 48.234 57.0753C48.124 56.9221 48.036 56.7251 47.97 56.5281C47.904 56.3092 47.882 56.0685 47.882 55.8277C47.882 55.6088 47.904 55.39 47.97 55.1711C48.014 54.9522 48.102 54.7771 48.212 54.602C48.322 54.4488 48.476 54.3175 48.652 54.2081C48.828 54.1205 49.048 54.0548 49.29 54.0548C49.554 54.0548 49.774 54.0986 49.95 54.1862C50.126 54.2737 50.28 54.405 50.39 54.5582C50.5 54.7115 50.588 54.9084 50.632 55.1054C50.676 55.3243 50.72 55.5432 50.72 55.7839C50.698 56.0028 50.654 56.2217 50.61 56.4405Z" fill="#33FFFF"/>
<path d="M70.982 46.5698C70.784 46.154 70.498 45.8257 70.146 45.5849C69.794 45.3223 69.42 45.1253 68.958 44.9721C68.518 44.8189 68.056 44.6875 67.572 44.5781C67.088 44.4687 66.626 44.3592 66.186 44.2717C65.724 44.1622 65.306 44.0528 64.932 43.8777C64.558 43.7245 64.228 43.5056 63.964 43.2649C63.7 43.0241 63.546 42.6958 63.458 42.28C63.392 41.9516 63.414 41.6233 63.502 41.295C63.59 40.9667 63.766 40.6603 64.008 40.3977C64.25 40.135 64.58 39.9161 65.02 39.741C65.438 39.5659 65.966 39.4784 66.582 39.4784C66.978 39.4784 67.374 39.5222 67.748 39.6316C68.122 39.741 68.474 39.8943 68.76 40.135C69.046 40.3539 69.288 40.6384 69.464 40.9886C69.64 41.3388 69.728 41.7547 69.728 42.2362H70.872C70.872 41.7109 70.784 41.2294 70.608 40.7697C70.432 40.3101 70.168 39.9161 69.816 39.566C69.464 39.2158 69.024 38.9531 68.474 38.7561C67.946 38.5591 67.308 38.4497 66.582 38.4497C65.878 38.4497 65.24 38.5373 64.69 38.7342C64.14 38.9312 63.7 39.172 63.326 39.5003C62.974 39.8067 62.688 40.1788 62.512 40.5946C62.336 41.0105 62.226 41.4264 62.226 41.8641C62.226 42.4769 62.336 43.0022 62.556 43.3962C62.776 43.8121 63.084 44.1404 63.436 44.3811C63.788 44.6438 64.206 44.8407 64.668 44.994C65.13 45.1472 65.614 45.2785 66.098 45.3879C66.582 45.4974 67.066 45.6068 67.528 45.7381C67.99 45.8476 68.408 46.0008 68.76 46.1978C69.112 46.3947 69.42 46.6355 69.64 46.9419C69.86 47.2483 69.97 47.6423 69.97 48.1457C69.97 48.4959 69.904 48.8242 69.794 49.1525C69.662 49.4589 69.486 49.7435 69.222 49.9842C68.958 50.225 68.628 50.422 68.21 50.5533C67.792 50.6846 67.308 50.7722 66.736 50.7722C66.252 50.7722 65.79 50.7065 65.372 50.5971C64.954 50.4876 64.58 50.3125 64.25 50.0499C63.92 49.8091 63.656 49.4808 63.458 49.0869C63.26 48.6929 63.128 48.2114 63.084 47.6423H61.918C61.918 48.3427 62.028 48.9336 62.27 49.4589C62.49 49.9623 62.82 50.4001 63.238 50.7503C63.656 51.1005 64.14 51.3631 64.712 51.5163C65.284 51.6914 65.9 51.779 66.56 51.779C68.034 51.779 69.178 51.4507 70.014 50.8159C70.828 50.1593 71.246 49.2619 71.246 48.08C71.29 47.4672 71.18 46.9638 70.982 46.5698Z" fill="#33FFFF"/>
<path d="M38.1801 57.5131C38.1141 57.4693 38.0701 57.338 38.0701 57.1629V54.9085C38.0701 54.6678 38.0261 54.4708 37.9601 54.2957C37.8721 54.1206 37.7841 53.9893 37.6301 53.9017C37.4982 53.7923 37.3221 53.7266 37.1461 53.6829C36.9701 53.6391 36.7722 53.6172 36.5522 53.6172C36.3322 53.6172 36.1121 53.6391 35.9141 53.6829C35.7161 53.7266 35.5402 53.8142 35.3862 53.9236C35.2322 54.033 35.1002 54.1644 35.0122 54.3395C34.9242 54.5146 34.8582 54.7115 34.8362 54.9742H35.3202C35.3422 54.7991 35.3862 54.6459 35.4522 54.5146C35.5182 54.4051 35.6062 54.2957 35.7162 54.23C35.8262 54.1644 35.9362 54.0987 36.0902 54.0768C36.2222 54.0549 36.3762 54.033 36.5522 54.033C36.9262 54.033 37.1901 54.1206 37.3441 54.2738C37.4981 54.427 37.5861 54.624 37.5861 54.8866C37.5861 54.9523 37.5861 55.0399 37.5641 55.1274C37.5421 55.215 37.4982 55.2806 37.4102 55.3244C37.3222 55.3682 37.2342 55.3901 37.1022 55.4119C36.9702 55.4338 36.8602 55.4557 36.7722 55.4557L36.1122 55.5433C35.1442 55.6746 34.6602 56.0904 34.6602 56.7908C34.6602 56.9878 34.7042 57.1629 34.7702 57.3161C34.8362 57.4693 34.9462 57.5788 35.0782 57.6882C35.2102 57.7976 35.3642 57.8633 35.5182 57.9071C35.6942 57.9509 35.8702 57.9727 36.0462 57.9727C36.3541 57.9727 36.6401 57.9071 36.9041 57.7976C37.1681 57.6882 37.4101 57.5131 37.6081 57.2942C37.6081 57.3599 37.6081 57.4475 37.6301 57.5131C37.6301 57.5788 37.6521 57.6444 37.6961 57.6882C37.7181 57.7539 37.7621 57.7976 37.8061 57.8414C37.8501 57.8852 37.9161 57.9071 38.0041 57.9071C38.0701 57.929 38.1361 57.929 38.2241 57.929C38.2901 57.929 38.3561 57.929 38.4441 57.9071C38.5101 57.8852 38.5761 57.8633 38.6201 57.8633V57.4912C38.4001 57.535 38.2461 57.5569 38.1801 57.5131ZM37.6081 56.3312C37.6081 56.5282 37.5641 56.7252 37.4761 56.8784C37.3881 57.0316 37.2781 57.1629 37.1241 57.2505C36.9921 57.338 36.8162 57.4256 36.6402 57.4693C36.4642 57.5131 36.2662 57.535 36.0682 57.535C35.9582 57.535 35.8482 57.5131 35.7382 57.4912C35.6282 57.4693 35.5402 57.4256 35.4522 57.3599C35.3642 57.2942 35.2982 57.2286 35.2542 57.1191C35.2102 57.0316 35.1882 56.9222 35.1882 56.7908C35.1882 56.5063 35.2982 56.2874 35.4962 56.1561C35.6942 56.0248 36.0021 55.9372 36.3541 55.9153C36.5741 55.8935 36.7722 55.8716 36.9922 55.8497C37.2122 55.8278 37.4101 55.7621 37.6081 55.6746V56.3312Z" fill="#33FFFF"/>
<path d="M41.238 55.7839C41.04 55.6964 40.82 55.6307 40.6 55.5869C40.358 55.5432 40.16 55.4775 39.962 55.4337C39.764 55.3681 39.588 55.3024 39.456 55.193C39.324 55.1054 39.258 54.9522 39.258 54.7552C39.258 54.5364 39.346 54.3613 39.5 54.2299C39.654 54.0986 39.896 54.033 40.204 54.033C40.512 54.033 40.754 54.0986 40.974 54.2299C41.172 54.3613 41.304 54.5801 41.348 54.9084H41.832C41.766 54.4488 41.612 54.0986 41.326 53.9016C41.04 53.7046 40.688 53.5952 40.226 53.5952C39.764 53.5952 39.39 53.7047 39.148 53.9235C38.884 54.1424 38.774 54.4269 38.774 54.7771C38.774 55.0398 38.84 55.2586 38.972 55.4118C39.104 55.5651 39.258 55.6745 39.478 55.762C39.676 55.8496 39.896 55.8934 40.116 55.9371C40.336 55.9809 40.556 56.0247 40.754 56.0903C40.952 56.156 41.128 56.2217 41.26 56.3311C41.392 56.4405 41.458 56.5719 41.458 56.7907C41.458 56.9002 41.436 56.9877 41.392 57.0753C41.348 57.1628 41.282 57.2504 41.194 57.316C41.106 57.3817 40.996 57.4474 40.886 57.4911C40.754 57.5349 40.6 57.5568 40.424 57.5568C40.05 57.5568 39.786 57.4911 39.588 57.3379C39.39 57.1847 39.258 56.9439 39.192 56.5719H38.708C38.708 56.7688 38.752 56.9439 38.84 57.119C38.906 57.2941 39.016 57.4473 39.148 57.5568C39.28 57.6881 39.434 57.7757 39.632 57.8632C39.83 57.9289 40.05 57.9726 40.292 57.9726C40.534 57.9726 40.776 57.9508 40.974 57.907C41.172 57.8632 41.37 57.7757 41.502 57.6881C41.656 57.5787 41.766 57.4692 41.854 57.316C41.942 57.1628 41.986 56.9877 41.986 56.7907C41.986 56.5281 41.92 56.3092 41.788 56.1779C41.59 55.9809 41.436 55.8715 41.238 55.7839Z" fill="#33FFFF"/>
</g>
<defs>
<clipPath id="clip0_93_1531">
<rect width="77" height="45" fill="white" transform="translate(1 17)"/>
</clipPath>
</defs>
</svg>
