<svg width="80" height="80" viewBox="0 0 80 80" fill="none" xmlns="http://www.w3.org/2000/svg">
<g filter="url(#filter0_b_114_80)">
<circle cx="40" cy="40" r="40" fill="#F1E73D"/>
<path d="M19.4215 42.5648C19.8955 42.5648 20.3264 42.6072 20.7574 42.7343C21.1021 42.819 21.4468 42.9885 21.7054 43.2427C21.9639 43.4546 22.1363 43.7088 22.2656 44.0053C22.3949 44.3443 22.438 44.6832 22.438 45.0222C22.438 45.3611 22.3949 45.7424 22.2225 46.039C22.0932 46.3356 21.8778 46.6322 21.6192 46.844C21.3607 47.0982 21.0159 47.2677 20.6712 47.3524C20.2403 47.4795 19.8093 47.5643 19.3784 47.5219H18.0857V50.5301H17.0084V42.5648H19.4215ZM19.4215 46.7169C19.7232 46.7169 19.9817 46.6745 20.2403 46.5898C20.4557 46.5051 20.6712 46.4203 20.8436 46.2509C21.0159 46.1238 21.1452 45.9119 21.2314 45.7424C21.3176 45.5306 21.3607 45.2764 21.3607 45.0646C21.4037 44.5985 21.1883 44.1748 20.8866 43.8782C20.585 43.5817 20.0679 43.4546 19.4215 43.4546H18.1288V46.7593H19.4215V46.7169ZM29.3327 49.6827V50.6148H24.6787V42.5648H25.756V49.6827H29.3327ZM38.6406 50.5724H37.7787C37.6926 50.5724 37.6064 50.5301 37.5202 50.4877C37.4771 50.4453 37.3909 50.3606 37.3909 50.3182L36.6152 48.3693H32.9524L32.1768 50.3182C32.1337 50.4029 32.0906 50.4453 32.0475 50.4877C31.9613 50.5301 31.8751 50.5724 31.7889 50.5724H30.9271L34.2021 42.5648H35.3225L38.6406 50.5724ZM36.3136 47.6066L35.0208 44.3443C34.9777 44.2596 34.9347 44.1325 34.8916 44.0053C34.8485 43.8782 34.8054 43.7511 34.7623 43.5817C34.6761 43.8359 34.633 44.0901 34.5037 44.3443L33.211 47.6066H36.3136ZM47.3021 42.5648V50.5724H46.7419C46.6557 50.5724 46.6126 50.5724 46.5264 50.5301C46.4402 50.4877 46.3972 50.4453 46.3541 50.3606L41.657 44.3443V50.5724H40.709V42.5648H41.3985C41.4416 42.5648 41.4416 42.5648 41.4847 42.6072C41.5277 42.6072 41.5277 42.6496 41.5708 42.6496L41.657 42.7343L46.3541 48.7506V48.454V42.5648H47.3021ZM55.3603 49.6827V50.5724H50.3185V42.5648H55.3603V43.4546H51.4389V46.1238H54.6277V46.9711H51.4389V49.7251H55.3603V49.6827ZM63.634 43.4546H61.0054V50.5724H59.885V43.4546H57.2563V42.5225H63.634V43.4546ZM23.1705 59.4551C23.2136 59.4551 23.2998 59.4974 23.3429 59.5398L23.7738 60.0058C23.4291 60.3872 23.0412 60.6837 22.5672 60.8956C22.007 61.1074 21.4468 61.2345 20.8435 61.2345C20.2833 61.2345 19.7662 61.1498 19.2491 60.9379C18.7751 60.7685 18.3873 60.4719 18.0426 60.0906C17.6978 59.7093 17.4393 59.2856 17.2669 58.7772C17.0945 58.2264 16.9653 57.6756 17.0084 57.1248C17.0084 56.574 17.0945 55.9809 17.31 55.4724C17.4824 55.0064 17.784 54.5403 18.1287 54.159C18.4735 53.7777 18.9044 53.5235 19.3784 53.3117C19.8955 53.0998 20.4557 53.0151 21.0159 53.0151C21.533 53.0151 22.0501 53.0998 22.5672 53.2693C22.9982 53.4388 23.386 53.693 23.7307 54.0319L23.386 54.5403C23.3429 54.5827 23.3429 54.6251 23.2998 54.6251C23.2567 54.6675 23.2136 54.6675 23.1705 54.6675C23.0843 54.6675 22.9982 54.6251 22.912 54.5403L22.5241 54.2861C22.0501 54.0319 21.5761 53.9048 21.059 53.9472C20.6712 53.9472 20.2833 54.0319 19.8955 54.159C19.5508 54.2861 19.2491 54.498 18.9906 54.7946C18.732 55.0911 18.5166 55.4301 18.3873 55.769C18.258 56.1927 18.1718 56.6588 18.1718 57.0824C18.1718 57.5485 18.258 57.9722 18.3873 58.4382C18.5166 58.8195 18.732 59.1585 18.9906 59.4127C19.2491 59.6669 19.5508 59.8787 19.8955 60.0482C20.2403 60.1753 20.6281 60.2601 21.0159 60.2601C21.2314 60.2601 21.4468 60.2601 21.6623 60.2177C21.8347 60.1753 22.0501 60.133 22.2225 60.0906C22.3949 60.0482 22.5241 59.9635 22.6965 59.8787C22.8689 59.794 22.9981 59.6669 23.1274 59.5398C22.9981 59.4974 23.0843 59.4551 23.1705 59.4551ZM32.9093 61.1074H32.0475C31.9613 61.1074 31.8751 61.0651 31.7889 61.0227C31.7458 60.9803 31.6597 60.8956 31.6597 60.8532L30.884 58.9043H27.2212L26.4455 60.8532C26.4024 60.938 26.3593 60.9803 26.3162 61.0227C26.2301 61.0651 26.1439 61.1074 26.0577 61.1074H25.1958L28.4708 53.0998H29.5912L32.9093 61.1074ZM30.5824 58.1416L29.2896 54.8793C29.2465 54.7946 29.2034 54.6675 29.1603 54.5403C29.1172 54.4132 29.0741 54.2861 29.031 54.1167C28.9879 54.3709 28.9018 54.6251 28.7725 54.8793L27.4797 58.1416H30.5824ZM39.33 54.3285L39.2008 54.4556C39.1577 54.498 39.1146 54.498 39.0715 54.498C38.9853 54.498 38.8991 54.4556 38.856 54.4132C38.7698 54.3285 38.6406 54.2861 38.5113 54.2014C38.3389 54.1167 38.2097 54.0319 38.0373 53.9896C37.8218 53.9048 37.6064 53.9048 37.3478 53.9048C37.1323 53.9048 36.9169 53.9472 36.7014 53.9896C36.5291 54.0319 36.3567 54.1167 36.2274 54.2438C36.0981 54.3709 36.012 54.498 35.9258 54.6251C35.8827 54.7946 35.8396 54.964 35.8396 55.1335C35.8396 55.3453 35.8827 55.5148 36.012 55.6843C36.1412 55.8538 36.2705 55.9809 36.4429 56.0656C36.6583 56.1927 36.8307 56.2774 37.0462 56.3198C37.2616 56.4045 37.5202 56.4893 37.7787 56.574C38.0373 56.6588 38.2528 56.7435 38.5113 56.8706C38.7268 56.9553 38.9422 57.0824 39.1146 57.2519C39.287 57.4214 39.4593 57.5909 39.5455 57.8451C39.6748 58.0993 39.7179 58.3959 39.7179 58.6924C39.7179 59.0314 39.6748 59.3703 39.5455 59.6669C39.4162 59.9635 39.2439 60.2601 39.0284 60.4719C38.7698 60.7261 38.4682 60.8956 38.1666 61.0227C37.7787 61.1498 37.3909 61.2345 37.0031 61.2345C36.5291 61.2345 36.012 61.1498 35.5379 60.9379C35.107 60.7685 34.7623 60.5143 34.4176 60.1753L34.8054 59.6245C34.8485 59.5822 34.8916 59.5398 34.9347 59.5398C34.9777 59.5398 35.0208 59.4974 35.0639 59.4974C35.107 59.4974 35.1932 59.5398 35.2363 59.5398C35.2794 59.5822 35.3656 59.6245 35.4518 59.6669C35.5379 59.7093 35.6241 59.794 35.7103 59.8787C35.8396 59.9635 35.9258 60.0058 36.055 60.0906C36.1843 60.1753 36.3567 60.2177 36.486 60.2177C36.6583 60.2601 36.8738 60.2601 37.0462 60.2601C37.3047 60.2601 37.5202 60.2177 37.7356 60.133C37.908 60.0482 38.1235 59.9635 38.2527 59.8364C38.382 59.7093 38.5113 59.5398 38.5975 59.3703C38.6837 59.2009 38.7268 58.989 38.7268 58.7772C38.7268 58.5653 38.6837 58.3535 38.5544 58.184C38.4251 58.0145 38.2958 57.8874 38.1235 57.8027C37.908 57.6756 37.7356 57.5909 37.5202 57.5485C37.3047 57.4638 37.0462 57.4214 36.7876 57.3366C36.5291 57.2519 36.3136 57.1672 36.055 57.0824C35.8396 56.9977 35.6241 56.8706 35.4518 56.7011C35.2794 56.5317 35.107 56.3198 35.0208 56.108C34.8054 55.5572 34.8054 54.964 35.0208 54.4132C35.1501 54.159 35.2794 53.9048 35.4949 53.693C35.7103 53.4811 36.0119 53.3117 36.2705 53.1846C36.6152 53.0575 36.96 52.9727 37.3478 53.0151C37.7787 53.0151 38.2096 53.0998 38.5975 53.2269C38.9853 53.354 39.287 53.5659 39.5886 53.8201L39.33 54.3285ZM43.3807 61.1074H42.2603V53.0998H43.3807V61.1074ZM53.0333 53.0998V61.1074H52.4731C52.3869 61.1074 52.3008 61.1074 52.2577 61.0651C52.1715 61.0227 52.1284 60.9803 52.0853 60.8956L47.3883 54.8369V61.0651H46.4402V53.0998H47.1297C47.1728 53.0998 47.1728 53.0998 47.2159 53.1422C47.259 53.1422 47.259 53.1846 47.3021 53.1846L47.3883 53.2693L52.0853 59.2856V58.989V53.0998H53.0333ZM63.634 57.1248C63.634 57.6756 63.5478 58.2688 63.3323 58.7772C63.16 59.2432 62.8583 59.7093 62.5136 60.0906C62.1688 60.4719 61.7379 60.7261 61.2208 60.9379C60.1866 61.3193 58.98 61.3193 57.9458 60.9379C57.4718 60.7685 57.0409 60.4719 56.6961 60.0906C56.3514 59.7093 56.0498 59.2856 55.8774 58.7772C55.6619 58.2264 55.5758 57.6756 55.5758 57.1248C55.5758 56.574 55.6619 55.9809 55.8774 55.4724C56.0498 55.0064 56.3514 54.5403 56.6961 54.159C57.0409 53.7777 57.4718 53.5235 57.9458 53.3117C59.0231 52.9304 60.1866 52.9304 61.2208 53.3117C61.6948 53.4811 62.1257 53.7777 62.5136 54.159C62.8583 54.5403 63.16 54.964 63.3323 55.4724C63.5478 55.9809 63.634 56.5317 63.634 57.1248ZM62.5136 57.1248C62.5136 56.6588 62.4705 56.2351 62.2981 55.8114C62.1688 55.4301 61.9965 55.0911 61.7379 54.8369C61.4794 54.5827 61.1777 54.3709 60.833 54.2014C60.0573 53.9048 59.1955 53.9048 58.4629 54.2014C58.1182 54.3285 57.8165 54.5403 57.558 54.8369C57.2994 55.1335 57.084 55.4724 56.9547 55.8114C56.8254 56.2351 56.7392 56.7011 56.7392 57.1248C56.7392 57.5909 56.7823 58.0145 56.9547 58.4382C57.084 58.8195 57.2563 59.1585 57.558 59.4127C57.8165 59.6669 58.1182 59.8787 58.4629 60.0482C59.2386 60.3448 60.0573 60.3448 60.833 60.0482C61.1777 59.9211 61.4794 59.7093 61.7379 59.4127C61.9965 59.1161 62.2119 58.7772 62.2981 58.4382C62.4274 58.0145 62.5136 57.5485 62.5136 57.1248Z" fill="black"/>
<path d="M46.3411 21.4878H34.7571C38.228 19.1746 42.8269 19.1746 46.3411 21.4878ZM42.9137 33.3535L40.0936 39.2221C39.92 39.5647 39.6597 39.8646 39.356 40.1216C39.7465 40.1645 40.0936 40.1645 40.484 40.1645C46.211 40.1645 50.8099 35.6238 50.8533 29.9694C50.8533 29.284 50.8099 28.6415 50.6364 27.9561C48.2501 30.0122 45.6904 31.8114 42.9137 33.3535ZM35.755 39.0507L37.1433 36.3092C35.9285 36.8661 34.7571 37.2944 33.7158 37.6371C34.3232 38.194 35.0174 38.6652 35.755 39.0507ZM53.5432 22.216C53.066 21.3593 51.2004 21.445 48.5538 22.1732C50.3327 21.7448 51.5475 21.7877 51.9379 22.3445C52.3284 22.9871 51.5475 24.2722 49.9856 25.7714C49.3782 24.4435 48.4671 23.2441 47.339 22.2589V23.2013C47.339 23.6296 47.2956 24.0151 47.1655 24.4435C47.0787 24.7005 46.9485 24.9575 46.8184 25.2146L44.5623 29.9266C43.5644 30.5691 42.5666 31.1688 41.5687 31.7257C40.5708 32.2826 39.5729 32.8394 38.6185 33.3106L41.829 26.928C42.0459 26.5425 42.2195 26.2426 42.4364 25.9428C42.6533 25.6429 42.8703 25.3431 43.1306 25.0861H34.6269C34.4968 25.0861 34.3666 25.0432 34.2799 25.0004C34.1497 24.9575 34.0629 24.8719 33.9762 24.7862C33.8894 24.7005 33.8026 24.6149 33.7592 24.4863C33.7158 24.4007 33.6725 24.2722 33.6725 24.1437V22.216C29.5942 25.6858 28.9 31.64 32.0238 35.9237C29.9413 36.5234 28.4661 36.5234 28.0757 35.8808C27.7286 35.2811 28.336 34.2102 29.5942 32.9251C27.5984 34.8099 26.6439 36.352 27.1212 37.2087C28.1191 38.9222 34.8005 36.9517 42.0893 32.7966C49.3782 28.6415 54.5411 23.9295 53.5432 22.216Z" fill="white"/>
</g>
<defs>
<filter id="filter0_b_114_80" x="-14" y="-14" width="108" height="108" filterUnits="userSpaceOnUse" color-interpolation-filters="sRGB">
<feFlood flood-opacity="0" result="BackgroundImageFix"/>
<feGaussianBlur in="BackgroundImage" stdDeviation="7"/>
<feComposite in2="SourceAlpha" operator="in" result="effect1_backgroundBlur_114_80"/>
<feBlend mode="normal" in="SourceGraphic" in2="effect1_backgroundBlur_114_80" result="shape"/>
</filter>
</defs>
</svg>
