<svg width="80" height="80" viewBox="0 0 80 80" fill="none" xmlns="http://www.w3.org/2000/svg">
<g filter="url(#filter0_b_93_6906)">
<circle cx="40" cy="40" r="40" fill="#FD1153"/>
<g clip-path="url(#clip0_93_6906)">
<path d="M38.7025 32.3131L37.7822 34.7885L39.7928 36.4497L37.2137 36.3177L36.2935 38.792L35.6202 36.2358L33.04 36.1028L35.2031 34.6554L34.5288 32.0981L36.5404 33.7604L38.7025 32.3131Z" fill="white"/>
<path d="M39.9832 37.3315L40.3764 38.5916L41.667 38.5969L40.6192 39.3706L41.0124 40.6316L39.9718 39.8484L38.925 40.6221L39.3286 39.3652L38.2891 38.582L39.5797 38.5884L39.9832 37.3315Z" fill="white"/>
<path d="M29.6603 32L29.6644 33.1781L30.7579 33.5388L29.6665 33.906L29.6707 35.0841L28.9922 34.1337L27.9008 34.5009L28.573 33.5463L27.8945 32.5949L28.989 32.9557L29.6603 32Z" fill="white"/>
<path d="M33.1 32.499L33.1031 33.3919L33.9331 33.6654L33.1052 33.9442L33.1083 34.8371L32.5938 34.1166L31.7669 34.3954L32.2763 33.6707L31.7617 32.9492L32.5906 33.2227L33.1 32.499Z" fill="white"/>
<path d="M25.4928 32.8013L25.4948 33.5398L26.1816 33.7665L25.4959 33.9974L25.499 34.7381L25.0736 34.14L24.3879 34.372L24.8101 33.7718L24.3848 33.1737L25.0705 33.4004L25.4928 32.8013Z" fill="white"/>
<path d="M55.0322 44.8375H53.1336C53.0375 44.8375 52.9631 44.9471 52.9106 45.1664L52.8068 45.74C52.7197 46.1614 52.5848 46.3721 52.4022 46.3721H51.4623C51.279 46.3721 51.2268 46.1593 51.3056 45.7336L51.7891 43.1742H55.3164C55.4202 43.1742 55.4949 43.0678 55.5364 42.8453L55.8351 41.2075C56.1319 39.5931 55.8922 38.7886 55.1152 38.7854L51.6127 38.7726C50.8229 38.7726 50.2799 39.5807 49.9839 41.1969L49.294 44.7567C49.1498 45.4537 49.1093 46.0028 49.1685 46.4062H47.1973C47.1005 46.4062 47.0749 46.2948 47.1205 46.072L50.0576 39.0057C50.1312 38.846 50.1198 38.7652 50.0244 38.7652H49.738C49.653 38.7652 49.5731 38.8492 49.4994 39.0195L46.9504 45.2196L46.8466 39.0663C46.8342 38.8535 46.7813 38.7545 46.6848 38.7535L44.8319 38.7471C44.7365 38.7471 44.6887 38.8322 44.6898 39.0014L44.8049 46.0741C44.7583 46.2976 44.6856 46.4083 44.5891 46.4094H42.4644C42.4057 46.4094 42.3669 46.4683 42.3482 46.586L42.2445 47.0692C42.2258 47.1873 42.2445 47.2458 42.2891 47.2458L49.4756 47.2363C49.5056 47.2363 49.5326 47.1979 49.5565 47.1245C49.687 47.1999 49.8353 47.2368 49.9849 47.2309H53.5611C54.2921 47.2309 54.8077 46.5215 55.1079 45.1025C55.1442 44.9291 55.1183 44.8375 55.0322 44.8375ZM52.3586 40.2433C52.4354 39.829 52.5644 39.6222 52.7456 39.6229H53.6721C53.8526 39.6229 53.9096 39.8301 53.8432 40.2444L53.448 42.2845H51.9571L52.3586 40.2433ZM62.4219 39.1536C62.4579 38.9251 62.4285 38.8109 62.3338 38.8109L56.9629 38.7907C56.4614 38.7907 56.2083 39.3742 56.2034 40.5413L56.4867 47.0543C56.4867 47.1703 56.5251 47.2277 56.5904 47.2277H58.4309C58.527 47.2277 58.5962 47.1121 58.6384 46.8808L58.3271 40.2604C58.3513 39.846 58.4675 39.6392 58.6757 39.6399H60.0348C60.1295 39.6399 60.1617 39.7531 60.1313 39.9794L58.7307 47.9631C58.5924 48.7584 58.341 49.1568 57.9765 49.1582L55.5789 49.1635C55.5305 49.1635 55.4935 49.2224 55.4679 49.3402L55.3797 49.8255C55.3538 49.9436 55.3693 50.0021 55.4274 50.0021L59.8055 49.9894C60.3138 49.9894 60.6676 49.4147 60.8668 48.2653L62.4219 39.1536ZM73.3785 44.7588L73.6327 43.0933C73.6763 42.7251 73.6189 42.5406 73.4605 42.5399H70.8253C70.7216 42.5399 70.6884 42.4335 70.7216 42.2206L71.0256 40.3051C71.0871 39.8964 71.2109 39.6924 71.397 39.6932L73.7665 39.7006C73.8592 39.7006 73.9228 39.602 73.9574 39.4048L73.9875 39.2068C74.0207 38.9812 73.9909 38.8684 73.8983 38.8684L70.2485 38.8546C69.4759 38.8546 68.9711 39.6534 68.7338 41.2512L68.4745 42.8347C68.4171 43.2036 68.4731 43.3881 68.6425 43.3881H71.2891C71.3921 43.3881 71.4118 43.5775 71.3482 43.9564L71.0785 45.7655C71.0155 46.1756 70.89 46.381 70.7019 46.3817H67.3727C67.3492 46.3817 67.3261 46.3876 67.3052 46.3987H67.0168C66.9124 46.3987 66.8778 46.2888 66.9131 46.0688L67.8074 40.4956C67.9872 39.3909 67.8299 38.8382 67.3353 38.8375L63.5175 38.8237C63.4705 38.8237 63.44 38.8801 63.4262 38.9929L63.3484 39.4494C63.3339 39.5623 63.3484 39.6187 63.3837 39.6187L65.3683 39.625C65.6588 39.625 65.7484 39.9535 65.637 40.6105L64.7562 46.0614C64.7178 46.2817 64.6473 46.3923 64.5425 46.3923H63.6026C63.3951 46.3831 63.3698 46.1096 63.5268 45.5718L64.9222 41.9748C65.0557 41.5789 65.019 41.3806 64.8122 41.3799H63.3152C63.1174 41.3799 62.9417 41.5828 62.7882 41.9886L61.815 44.4576C61.5698 45.0553 61.4365 45.6951 61.4218 46.3434C61.4218 46.9322 61.6639 47.2263 62.1481 47.2256L67.2409 47.2182L71.8628 47.2118C72.6357 47.2128 73.1399 46.3913 73.3754 44.7588H73.3785Z" fill="white"/>
<path d="M8.20252 40.5937L12.481 40.6139C12.5214 40.6139 12.5484 40.5873 12.564 40.5341C12.5793 40.4798 12.587 40.4236 12.5868 40.367C12.5879 40.2777 12.5728 40.1889 12.5422 40.1052L11.0524 37.5182C11.0343 37.4723 11.0292 37.4221 11.0379 37.3734C11.0369 37.3345 11.0422 37.2957 11.0534 37.2585C11.0572 37.2454 11.0652 37.234 11.0762 37.2263C11.0871 37.2185 11.1004 37.2149 11.1136 37.2159L14.9221 37.2415C15.0113 37.2415 15.0757 37.1609 15.1151 36.9999L15.2334 36.5572C15.2426 36.532 15.2475 36.5053 15.2479 36.4784C15.2479 36.455 15.2479 36.4284 15.2479 36.3997C15.2479 36.2667 15.2074 36.1996 15.1286 36.1985L11.5691 36.173C9.7836 36.1613 8.64862 37.5778 8.15894 40.4469C8.14753 40.5448 8.16309 40.5937 8.20252 40.5937ZM13.4406 42.6551L9.16735 42.6423C9.11755 42.6423 9.07605 42.6785 9.04493 42.7487C9.0122 42.8304 8.99596 42.918 8.99721 43.0063C8.99721 43.0659 8.99721 43.1244 9.00343 43.1829C9.00693 43.2385 9.01919 43.2931 9.03974 43.3447L10.1602 45.9818C10.1768 46.0247 10.1869 46.0699 10.1903 46.1159C10.1903 46.1457 10.1695 46.1606 10.1291 46.1606H6.36311C6.25106 46.1606 6.17326 46.25 6.13072 46.4266L6.01764 46.8417C6.00588 46.8784 5.99993 46.9169 6 46.9555C6 47.1237 6.04772 47.2078 6.14939 47.2078H9.93922C10.3783 47.2098 10.8125 47.1143 11.2122 46.9279C11.6232 46.7336 11.9873 46.4487 12.2787 46.0935C12.6132 45.6802 12.8757 45.2107 13.0547 44.7058C13.2761 44.0826 13.4157 43.432 13.4697 42.7711C13.4697 42.6934 13.4614 42.654 13.4406 42.654V42.6551ZM14.2374 41.4845C14.2467 41.4461 14.254 41.4121 14.2592 41.378C14.2637 41.3542 14.2661 41.33 14.2664 41.3057C14.2664 41.1702 14.2263 41.1021 14.1461 41.1013L7.74293 41.0737C7.71874 41.0734 7.69477 41.0784 7.6726 41.0883C7.65043 41.0982 7.63055 41.1128 7.61428 41.1311C7.57246 41.1813 7.54325 41.2412 7.52921 41.3057L7.43376 41.7143C7.41071 41.7753 7.39469 41.8389 7.38604 41.9038C7.38174 41.9637 7.39133 42.0239 7.41405 42.0793C7.42192 42.0971 7.43465 42.112 7.45068 42.1224C7.46671 42.1328 7.48535 42.1382 7.50431 42.1379L13.921 42.1613C14.0213 42.1613 14.0904 42.074 14.1285 41.8995V41.9133L14.2374 41.4845ZM25.1566 41.095C25.4782 39.4508 25.2344 38.6313 24.4304 38.626L20.7879 38.5983C19.9673 38.5983 19.3967 39.4124 19.075 41.062L18.3281 44.6867C18.1725 45.3961 18.1247 45.9577 18.1849 46.3713H16.3476C16.2369 46.3713 16.2061 46.2574 16.2552 46.0297L18.188 36.7807C18.2828 36.333 18.2268 36.1081 18.02 36.106L16.1256 36.5934C16.0073 36.6317 15.9233 36.7647 15.8745 36.9935L13.866 46.367C13.7449 46.9346 13.811 47.2184 14.0641 47.2184H18.3021C18.3426 47.2184 18.3768 47.1588 18.4059 47.0407L18.4204 46.9704C18.4977 47.055 18.592 47.1211 18.6969 47.1641C18.8018 47.2071 18.9146 47.226 19.0273 47.2195H22.7456C23.5662 47.2195 24.1358 46.3777 24.4543 44.7016L25.1566 41.095ZM21.5463 46.3479H20.57C20.3791 46.3479 20.3266 46.1315 20.4123 45.6987L21.5535 40.0967C21.6365 39.671 21.7721 39.46 21.9602 39.4635L22.924 39.4688C23.1114 39.4688 23.1692 39.6817 23.0973 40.1074L21.9768 45.6966C21.88 46.1294 21.7365 46.3454 21.5463 46.3447V46.3479ZM27.4764 46.3894C27.1582 46.3894 27.0655 46.046 27.1983 45.3592L28.3115 39.4955H29.1944C29.3023 39.4955 29.3777 39.3809 29.4205 39.1517L29.4454 38.9942C29.4876 38.7651 29.46 38.6501 29.3624 38.6494H28.4661L28.8001 36.8594C28.8852 36.4124 28.8257 36.1883 28.6217 36.1868L26.7543 36.6711C26.6374 36.7087 26.5572 36.8413 26.5136 37.0691L24.8838 45.4837C24.6707 46.6402 24.8288 47.2184 25.3579 47.2184H29.1083H32.6948C33.506 47.2184 34.0549 46.3809 34.3391 44.7122L34.6504 43.0095C34.705 42.6327 34.6493 42.444 34.4833 42.4433L31.7175 42.4337C31.6089 42.4337 31.5743 42.3231 31.6137 42.1017L31.9768 40.1329C32.0515 39.7129 32.1864 39.5036 32.3814 39.505L34.8713 39.5178C34.9689 39.5178 35.0384 39.4188 35.0788 39.2177L35.1151 39.0176C35.1546 38.7892 35.1259 38.6746 35.029 38.6739L31.1998 38.6515C30.3885 38.6515 29.8397 39.4603 29.5523 41.0992L29.2411 42.7179C29.1719 43.0953 29.2262 43.2844 29.4039 43.2851L32.1823 43.2936C32.2901 43.2936 32.3064 43.4869 32.231 43.8736L31.9053 45.7285C31.8292 46.1471 31.6908 46.3564 31.4903 46.3564L27.4764 46.3894ZM40.9207 46.3702L41.3834 43.4809H41.7621C41.8088 43.4809 41.841 43.4245 41.8586 43.3138L41.8752 43.2372C41.8925 43.1258 41.8755 43.0701 41.8244 43.0701H41.4498L41.5536 42.4401C41.6034 42.1563 41.6961 42.0144 41.8316 42.0144H42.1429C42.1892 42.0144 42.2238 41.9545 42.2466 41.8346L42.2611 41.7165C42.2784 41.61 42.2615 41.5568 42.2103 41.5568H41.1469C40.8011 41.5568 40.5663 41.9378 40.4425 42.6998L39.8802 46.2287C39.811 46.6132 39.691 46.8058 39.5202 46.8066H39.0886C39.0819 46.8065 39.0753 46.8083 39.0695 46.8116C39.0637 46.815 39.0588 46.8198 39.0554 46.8257C39.179 46.5665 39.2603 46.2882 39.2961 46.002L39.5783 44.2631C39.7083 43.4678 39.5814 43.0705 39.1975 43.0712H37.4681C37.0787 43.0712 36.8214 43.4692 36.6962 44.2652L36.4047 46.0063C36.2615 46.8144 36.385 47.2184 36.7751 47.2184L38.5263 47.2131C38.7421 47.2131 38.9174 47.0875 39.0523 46.8364C39.0429 46.8545 39.0373 46.8744 39.0357 46.8949L38.9973 47.1269C38.99 47.1833 38.9973 47.211 39.0232 47.211H40.4165C40.6704 47.206 40.8398 46.9247 40.9249 46.367L40.9207 46.3702ZM37.9432 46.7959H37.4868C37.3968 46.7959 37.3685 46.6927 37.4017 46.4862L37.8519 43.7938C37.8841 43.5895 37.9464 43.4873 38.0345 43.4862H38.4921C38.5813 43.4862 38.6114 43.5926 38.5844 43.7927L38.1383 46.4841C38.1009 46.6898 38.0373 46.7927 37.9474 46.7927L37.9432 46.7959Z" fill="white"/>
</g>
</g>
<defs>
<filter id="filter0_b_93_6906" x="-14" y="-14" width="108" height="108" filterUnits="userSpaceOnUse" color-interpolation-filters="sRGB">
<feFlood flood-opacity="0" result="BackgroundImageFix"/>
<feGaussianBlur in="BackgroundImage" stdDeviation="7"/>
<feComposite in2="SourceAlpha" operator="in" result="effect1_backgroundBlur_93_6906"/>
<feBlend mode="normal" in="SourceGraphic" in2="effect1_backgroundBlur_93_6906" result="shape"/>
</filter>
<clipPath id="clip0_93_6906">
<rect width="68" height="18" fill="white" transform="translate(6 32)"/>
</clipPath>
</defs>
</svg>
